<?xml version="1.0" encoding="UTF-8" standalone="no"?>
<svg
   xmlns:dc="http://purl.org/dc/elements/1.1/"
   xmlns:cc="http://creativecommons.org/ns#"
   xmlns:rdf="http://www.w3.org/1999/02/22-rdf-syntax-ns#"
   xmlns:svg="http://www.w3.org/2000/svg"
   xmlns="http://www.w3.org/2000/svg"
   xmlns:sodipodi="http://sodipodi.sourceforge.net/DTD/sodipodi-0.dtd"
   xmlns:inkscape="http://www.inkscape.org/namespaces/inkscape"
   width="128"
   height="128"
   viewBox="0 0 33.87 33.87"
   version="1.1"
   id="svg4536"
   sodipodi:docname="arenafps2.svg"
   inkscape:version="0.92.2 (5c3e80d, 2017-08-06)">
  <metadata
     id="metadata4542">
    <rdf:RDF>
      <cc:Work
         rdf:about="">
        <dc:format>image/svg+xml</dc:format>
        <dc:type
           rdf:resource="http://purl.org/dc/dcmitype/StillImage" />
        <dc:title></dc:title>
      </cc:Work>
    </rdf:RDF>
  </metadata>
  <defs
     id="defs4540" />
  <sodipodi:namedview
     pagecolor="#ffffff"
     bordercolor="#666666"
     borderopacity="1"
     objecttolerance="10"
     gridtolerance="10"
     guidetolerance="10"
     inkscape:pageopacity="0"
     inkscape:pageshadow="2"
     inkscape:window-width="1307"
     inkscape:window-height="855"
     id="namedview4538"
     showgrid="false"
     inkscape:pagecheckerboard="false"
     inkscape:zoom="5.2149125"
     inkscape:cx="51.442543"
     inkscape:cy="59.625077"
     inkscape:window-x="0"
     inkscape:window-y="0"
     inkscape:window-maximized="0"
     inkscape:current-layer="svg4536" />
  <circle
     style="fill:#ffffff;fill-opacity:1;stroke-width:0.33882281"
     id="path5093"
     cx="16.947462"
     cy="16.922537"
     r="16.795238" />
  <path
     d="M14.82 33.71c-.37-.06-1.4-.3-2.32-.54l-1.65-.42v-1.62c.02-3.27 1.02-5.49 3.02-6.66a5.84 5.84 0 0 1 7.29.9c1.44 1.45 1.86 2.65 1.86 5.38v1.99l-1.59.44c-1.58.45-5.37.75-6.61.53zm-7-2.63a17.4 17.4 0 0 1-7.19-9.8 19.78 19.78 0 0 1 0-8.7A17.41 17.41 0 0 1 12.58.63c2.15-.65 6.56-.65 8.7 0a17.41 17.41 0 0 1 11.96 11.95c.64 2.15.64 6.56 0 8.7-.96 3.18-3.22 6.77-5.3 8.4-1.32 1.06-2.85 2.07-3.1 2.07-.13 0-.23-.83-.23-1.83 0-1.01-.13-2.17-.28-2.56-.25-.67-.17-.84 1.03-2.07a11.72 11.72 0 0 0 3.48-8.35C28.82 9.88 22.24 4.2 15.3 5.28c-5.18.8-9.22 4.84-10.02 10.02-.54 3.5.64 7.16 3.2 9.88 1.33 1.4 1.33 1.42 1.06 2.52-.15.61-.28 1.77-.28 2.58 0 .8-.1 1.47-.23 1.47-.12 0-.67-.3-1.22-.67zm24.14-15.2l-.08-1.03-1.15 1.07L29.6 17l1.14 1.17 1.15 1.17.08-1.21c.05-.67.05-1.68 0-2.25zm-28.72-.07L2.12 14.7v4.48l1.12-1.12 1.12-1.12zM18.12 3.17l1.04-1.05H14.7l1.03 1.05c.57.59 1.1 1.06 1.2 1.06.08 0 .62-.47 1.18-1.06zM9.38 23.75a13.55 13.55 0 0 1-1.67-2.58c-.6-1.26-.69-1.81-.7-4.1 0-2.42.07-2.8.82-4.37a10.07 10.07 0 0 1 4.87-4.87c1.57-.75 1.95-.82 4.37-.81 2.28 0 2.84.1 4.1.69 4.19 1.97 6.69 6.7 5.81 10.99a11.67 11.67 0 0 1-2.78 5.38l-.89.87-.92-.81c-.51-.45-1.12-.92-1.34-1.05-.35-.2-.23-.43.76-1.47 4.07-4.24 1.2-11.28-4.61-11.3-2.3 0-3.37.42-4.91 1.97-1.55 1.54-1.97 2.6-1.96 4.9 0 1.78.65 3.3 1.96 4.61l.98.98-.74.58c-.4.32-.92.8-1.14 1.05-.59.69-.93.58-2-.66zm6.56-1.8c-5.63-1.28-5.16-9.51.57-9.99a5 5 0 0 1 5.31 6.4 5.06 5.06 0 0 1-5.88 3.6z"
     fill="#be1f2f"
     id="path4532" />
  <circle
     style="fill:#ffffff;fill-opacity:1;stroke-width:0.26460937"
     id="path5089"
     cx="16.998203"
     cy="17.07476"
     r="5.682981" />
  <path
     style="fill:#ffffff;fill-opacity:1;stroke:none;stroke-width:0.24186984px;stroke-linecap:butt;stroke-linejoin:miter;stroke-opacity:1"
     d="M 9.5139196,32.029598 C 16.566905,36.12068 24.1273,32.199176 24.1273,32.199176 c 0,0 0.964077,-8.377644 -6.900763,-8.759196 -7.8648398,-0.38155 -7.7126174,8.589618 -7.7126174,8.589618 z"
     id="path5103"
     inkscape:connector-curvature="0"
     sodipodi:nodetypes="ccsc" />
  <path
     d="M15.35 33.7a26.5 26.5 0 0 1-2.58-.53l-1.66-.42v-2.23c0-2.47.4-3.74 1.54-4.95a5.95 5.95 0 0 1 8.5-.2c1.32 1.34 1.92 3.13 1.82 5.48l-.08 1.8-1.46.44a20 20 0 0 1-6.08.6zm-.4-12.1a5.16 5.16 0 0 1-2.78-5.98 5.03 5.03 0 0 1 8.3-2.21 5 5 0 0 1-3.55 8.54c-.65 0-1.53-.17-1.97-.36z"
     id="path4534"
     fill="#030303" />
</svg>
