<svg xmlns="http://www.w3.org/2000/svg" width="154.7" height="154.7" viewBox="0 0 40.9 40.9"><path d="M1.7 20.4V0h37.4v40.9H1.7z" fill="#af9489"/><path d="M1.7 20.4V0h37.4v40.9H1.7zm30.4 3.7c0-.5-.2-.8-.4-.7-.2.2-.3.7-.3 1.1 0 .5.1.8.3.7.2-.1.4-.6.4-1zm-18.5 0H13c-.3 0-.2.2.2.2.3 0 .5 0 .4-.2zm2.2-5.7c-.3-.3-.7-1-.8-1.4-.3-1-1.1-1-1.6 0-.3.5-.2.7 1 1.3 1.6.8 2 .9 1.4.1zm5.6-.2c0-.2-.7-.4-1.5-.5-1.1 0-1.2 0-.9.5.6.6 2.6.7 2.4 0zm2.6-.4c0-.2-.3-.3-.6-.3h-1.1c-.5.1-.6.2-.1.5.6.4 2 .3 1.8-.2zm.8-5.6c.7-1.2.7-2.7 0-3.3-1.5-1.1-1.8-1.2-2.7-.4-.5.3-1.4.7-2 .7-.5 0-1.2.2-1.6.4-.6.5-.6.5 0 .9l1.8.6c.6.1 1.5.6 2 1 1 1.2 1.8 1.2 2.5 0z" fill="#a4867a"/><path d="M1.7 20.4V0h37.4v40.9H1.7zm30.4 3.7c0-1.4-.4-1.2-.9.5-.2.6 0 .8.3.8.4 0 .6-.4.6-1.3zm-18.5 0H13c-.3 0-.2.2.2.2.3 0 .5 0 .4-.2zm3-5c0-.2-.3-.6-.7-1-.4-.2-.8-1-.9-1.6-.3-1.3-.9-1.3-1.9.1-.9 1.3-.8 1.7.6 1.7.5 0 1.2.3 1.6.6.8.5 1.3.6 1.3.2zm7.1-.3c1-.1 1.3-.4 1.2-.8 0-.5-.5-.5-3.2-.4-1.8 0-3.3.1-3.4.2l.6 1c.7.7.6.7 4.8 0zm2.3-7.7c.1-1 0-1.4-1-2.3-1-.8-1.4-1-2.1-1a271.2 271.2 0 0 1-5.2 1.3c-1.4.7-2.8 2.3-2.7 2.8.2.4.4.3.9-.2.8-.7 3-.7 3.5 0 .2.3 0 .5-.7.7-.6.1-.5.2.5.1.8 0 2.3.2 3.3.5 2 .6 2 .6 2.6 0A4 4 0 0 0 26 11zm-11.9.5c.8-.4 1-1.4.2-1.4-.5 0-1.3 1-1.3 1.6 0 .3.3.2 1.1-.2z" fill="#9c8176"/><path d="M1.7 20.4V0h37.4v40.9H1.7zm28.9 9h-.7c-.3 0-.2.2.2.2s.6 0 .5-.2zm.8-2.6c0-.2-.2-.4-.4-.4s-.3.2-.3.4.1.3.3.3c.2 0 .4-.1.4-.3zm.6-2.9l-.1-1.2-.5 1c-.5 1.2-.2 2.4.4 1.8.2-.2.3-1 .2-1.6zm-17.6.1c0-.1-.4-.2-.8-.1-.5 0-1 .2-1 .3l1 .1c.4 0 .8-.1.8-.3zm8.6-4.8c1.3-.2 2.5-.5 2.6-.7.1 0 0-.5-.4-.9s-.9-.6-1.5-.5l-3.4.5-2.3.2.7 1.2c.5.9.9 1 1.3.9.3-.2 1.7-.5 3-.7zm-6.4-.1c0-.2-.3-.5-.6-.8-.3-.2-.5-.7-.5-1 0-.4-.3-1-.7-1.5l-.6-.8-1 1.4c-1.2 1.8-1.2 2.4 0 2.1a3 3 0 0 1 2 .4c1 .5 1.4.6 1.4.2zm10-2.6c0-.3-.1-.2-.1.2s0 .6.1.5c.2-.1.2-.4 0-.7zm-.7-1.7c-.6-1.1-.7-2-.2-2.2.1 0 .4-.7.5-1.4.2-1.1.1-1.4-1-2.4l-1.3-1-3 .1-3.4.4c-.1.1-.2 0-.2-.3s-.5-.4-1.3-.4c-.7 0-1.2 0-1.2.2 0 .1-.4.2-1 .2-1 0-1.6.6-2 1.7-.2.7 0 .8.8.6l1-.2-1 .9c-1 .8-1 .9-.5 1.3s.8.4 1.4.1c.6-.3 1-.3 1.2 0 .3.3.7.3 1.5-.2 1.2-.7 1.5-.7 1.3 0-.2.5.8.8 3.2.8 2.5 0 4.2.8 4.5 2 0 .4.4.9.7.9.5 0 .5-.2 0-1zm-15-2.6c-.1-.7-.2-.7-.3.1 0 .5-.3 1-.6 1.2-.3.1-.5.5-.5.7 0 .2.4 0 .8-.4.6-.6.8-1 .7-1.6z" fill="#997c72"/><path d="M1.7 20.4V0h37.4v40.9H1.7zm28.9 9h-.7c-.3 0-.2.2.2.2s.6 0 .5-.2zm.8-2.6c0-.2-.2-.4-.4-.4s-.3.2-.3.4.1.3.3.3c.2 0 .4-.1.4-.3zm-15-.4c0-.2 0-.3-.2-.3s-.4.1-.4.3l.2.4.4-.4zm15.7-2c0-.9-.1-1.5-.2-1.5-.3 0-1 1.9-.7 2.4.3 1 .9.4.9-1zM14.4 24c0-.1-.4-.2-.8-.1-.5 0-1 .2-1 .3l1 .1c.4 0 .8-.1.8-.3zM10.2 22V21c0-.2.1-.3.3-.3.2 0 .4-.4.5-.9.2-1-.3-1.1-.8 0l-1 1.4c-.7.7-.8 1.7-.2 2 .4.3 1.2-.6 1.2-1.4zm6.2.3c-.1-.2-.5-.3-.8-.3-.6 0-.6 0-.1.3.7.5 1.1.5.9 0zM22 20c1.7-.6 4.3-.7 4.6-.1.2.3.4.2.6-.2.3-.5-.3-3.5-1.1-5.3-.4-.7-.4-1 0-1.3.1-.3.3-1.1.3-2 0-1.3-.1-1.6-1.3-2.4-.7-.6-1.8-1-2.5-1.1-9.4-.6-9.7-.5-11.7 3.6l-1.4 3.2 1.4-.8c1.3-.9 1.5-.9 5.2-.7 2 .2 4.6.3 5.6.5 1.7.2 3 .9 3 1.7 0 .2.3.7.7 1 .4.4.6.7.5.8a41 41 0 0 1-8.4.8c-.2 0 0 .4.4 1 .4.4.8 1.4 1 2l.2 1.1.8-.6c.4-.4 1.4-1 2.1-1.2zm-5.8-1.5c-.2-.6-.3-1.3-.2-1.5v-.3c-.2 0-.6-.4-.9-1l-.6-.8c-.4 0-2.9 3.8-2.6 4h1.3c.7-.1 1.5 0 2.2.3 1.2.7 1.4.6.8-.7z" fill="#7c8186"/><path d="M1.7 20.4V0h37.4v40.9H1.7zm29.3 9l-.7-.1c-.4 0-.7.1-.7.3 0 .2.3.2.7.1.4 0 .7-.2.7-.3zm.3-2.7c-.1-.2 0-.6.3-.8.5-.4 1-3 .5-3s-1 1-1.2 2.7c-.2 1-.1 1.5.1 1.5.3 0 .4-.2.3-.4zm-15-.3c.2-.2.1-.3 0-.3-.3 0-.5.1-.5.3l.2.4.4-.4zM14.5 24c0-.1-.4-.2-.8-.1-.5 0-1 .2-1 .3l1 .1c.4 0 .8-.1.8-.3zM10.2 22V21c0-.2.1-.3.3-.3.2 0 .4-.4.5-.9.2-1-.3-1.1-.8 0l-1 1.4c-.7.7-.8 1.7-.2 2 .4.3 1.2-.6 1.2-1.4zm6.2.3c-.1-.2-.5-.3-.8-.3-.6 0-.6 0-.1.3.7.5 1.1.5.9 0zM22 20c1.7-.6 4.3-.7 4.6-.1.2.3.4.2.6-.2.3-.5-.3-3.5-1.1-5.3-.4-.7-.4-1 0-1.3.1-.3.3-1.1.3-2 0-1.3-.1-1.6-1.3-2.4-.7-.6-1.8-1-2.5-1.1-9.4-.6-9.7-.5-11.7 3.6l-1.4 3.2 1.4-.8c1.3-.9 1.5-.9 5.2-.7 2 .2 4.6.3 5.6.5 1.7.2 3 .9 3 1.7 0 .2.3.7.7 1 .4.4.6.7.5.8a41 41 0 0 1-8.4.8c-.2 0 0 .4.4 1 .4.4.8 1.4 1 2l.2 1.1.8-.6c.4-.4 1.4-1 2.1-1.2zm-5.8-1.5c-.2-.6-.3-1.3-.2-1.5v-.3c-.2 0-.6-.4-.9-1l-.6-.8c-.4 0-2.9 3.8-2.6 4h1.3c.7-.1 1.5 0 2.2.3 1.2.7 1.4.6.8-.7zm19.8-9c-.2-.2-.3-.1-.1.5 0 .5.2.6.3.4.1-.3 0-.7-.2-.9zM33.3 9C33 8.3 30 6.8 29.7 7c0 .1.2.3.7.4.4.1 1.3.7 1.8 1.3 1.2 1.2 1.3 1.2 1 .2zm1-2.1c-.2-.6-.8-.8-.8-.3 0 .4.4.8.7.8.2 0 .2-.2.1-.5zM33 5c-.1-.3-.3-.5-.4-.4v.5c.4.6.6.5.4-.1zm-3 0c-.2-.2-.5-.2-.7 0-.3 0-.2.1.2.1s.6 0 .5-.1zm2-.9a.8.8 0 0 0-.6-.3c-.3 0-.3.1 0 .3.7.5.9.5.6 0z" fill="#94766b"/><path d="M1.7 20.4V0h37.4v40.9H1.7zm29.3 9l-.7-.1c-.4 0-.7.1-.7.3 0 .2.3.2.7.1.4 0 .7-.2.7-.3zm-14.6-3c.4-.6-.4-.3-1.1.4-.7.8-.7.8 0 .4.5-.2 1-.6 1-.8zm14.9.3c-.1-.2 0-.6.3-.8.5-.4 1-3 .5-3s-1 1-1.2 2.7c-.2 1-.1 1.5.1 1.5.3 0 .4-.2.3-.4zM23 25.6c.1-.3 0-.6-.1-.6-.2 0-.4.3-.4.6l.2.5.3-.5zm-11.7-5.8c.1-.7.4-.9 1.6-1 .8 0 1.9.2 2.4.5 1.2.6 2 0 1.3-.8-.4-.4-.4-.5 0-.5.8 0 1.7 1.3 1.7 2.5s1 3.5 1.6 3.4c.2-.1.4-.5.5-1 .2-1.5 2.1-2.8 4-2.8 1 0 1.6 1 1.1 1.8-.2.4.6.4 1.1 0 .2-.1.6-1 .8-1.8.3-1.3.3-1.8-.5-4.1-.5-1.6-.8-2.8-.6-3 .2-.3.3-1.2.3-2 0-1.5-.1-1.7-1.4-2.6-.8-.6-1.9-1-2.6-1-.6 0-1.1-.2-1.1-.3 0-.2-1.5-.3-3.6-.2-4.6.2-5.4.6-7.1 4.2-1.8 3.6-1.7 3.8.2 2.6A5 5 0 0 1 13 13c.8 0 1 .2 1 1 0 1-1.9 4-2.6 4.3-.2 0-.8.6-1.5 1.1-.6.6-1.2 1-1.3.8-.4-.4-.6 2.5-.2 3.8l.4 1.4 1.2-2.4c.6-1.3 1.2-2.7 1.2-3.2zm6.6-2.4a3.1 3.1 0 0 1-2.8-3l-.1-1.2h3.3c4.5 0 5.2.3 5.9 1.8.8 2 1 1.8-3.8 2.4H18zM14.6 24c.2-.3-.1-.3-.8-.2-1.3.4-1.4.5-.3.5.5 0 1-.1 1.1-.3zm8.9-.8c-.1-.3-.2-.2-.2.2s0 .6.2.5v-.7zm-7.2-1.4c-.2-.2-.6-.2-1 0-.5.1-.5.2.2.6.9.5 1.4 0 .8-.6zM36 9.4c-.2-.2-.3-.1-.1.5 0 .5.2.6.3.4.1-.3 0-.7-.2-.9zM33.3 9C33 8.3 30 6.8 29.7 7c0 .1.2.3.7.4.4.1 1.3.7 1.8 1.3 1.2 1.2 1.3 1.2 1 .2zm1-2.1c-.2-.6-.8-.8-.8-.3 0 .4.4.8.7.8.2 0 .2-.2.1-.5zM33 5c-.1-.3-.3-.5-.4-.4v.5c.4.6.6.5.4-.1zm-3 0c-.2-.2-.5-.2-.7 0-.3 0-.2.1.2.1s.6 0 .5-.1zm2-.9a.8.8 0 0 0-.6-.3c-.3 0-.3.1 0 .3.7.5.9.5.6 0z" fill="#737a81"/><path d="M1.7 20.4V0h30.4v1c0 .6.1 1.1.3 1.1.2 0 .2.3 0 .7-.4.6-.4.8.2 1.3.5.4.3.3-.5-.1l-2.3-1-1-.2 1 .5c.6.3 1.6 1 2.2 1.6 1 1 1.3 1 1.2.3 0-.3 0-.3.8 0 .7.2.7.8 0 .8-.8 0-.6 1 .5 1.9.6.4 1.2 1.2 1.3 1.7.2.8.9 1.4.9.8 0-.3-.8-1.6-1.5-2.6s-.9-2-.3-1.6c.5.3.4-.3 0-.9-.4-.3-.4-.5 0-1l.3-1.5c0-.3.2-.7.5-.8.2-.1.1-.2-.2-.2-.4 0-.6-.2-.5-.5a1 1 0 0 0-.2-1c-.3-.2.2-.3 2-.3H39v40.9H1.7zm29.3 9l-.7-.1c-.4 0-.7.1-.7.3 0 .2.3.2.7.1.4 0 .7-.2.7-.3zm-14.6-3c.4-.6-.4-.3-1.1.4-.7.8-.7.8 0 .4.5-.2 1-.6 1-.8zm14.9.3c-.1-.2 0-.6.3-.8.5-.4 1-3 .5-3s-1 1-1.2 2.7c-.2 1-.1 1.5.1 1.5.3 0 .4-.2.3-.4zM23 25.6c.1-.3 0-.6-.1-.6-.2 0-.4.3-.4.6l.2.5.3-.5zm-11.7-5.8c.1-.7.4-.9 1.6-1 .8 0 1.9.2 2.4.5 1.2.6 2 0 1.3-.8-.4-.4-.4-.5 0-.5.8 0 1.7 1.3 1.7 2.5s1 3.5 1.6 3.4c.2-.1.4-.5.5-1 .2-1.5 2.1-2.8 4-2.8 1 0 1.6 1 1.1 1.8-.2.4.6.4 1.1 0 .2-.1.6-1 .8-1.8.3-1.3.3-1.8-.5-4.1-.5-1.6-.8-2.8-.6-3 .2-.3.3-1.2.3-2 0-1.5-.1-1.7-1.4-2.6-.8-.6-1.9-1-2.6-1-.6 0-1.1-.2-1.1-.3 0-.2-1.5-.3-3.6-.2-4.6.2-5.4.6-7.1 4.2-1.8 3.6-1.7 3.8.2 2.6A5 5 0 0 1 13 13c.8 0 1 .2 1 1 0 1-1.9 4-2.6 4.3-.2 0-.8.6-1.5 1.1-.6.6-1.2 1-1.3.8-.4-.4-.6 2.5-.2 3.8l.4 1.4 1.2-2.4c.6-1.3 1.2-2.7 1.2-3.2zm6.6-2.4a3.1 3.1 0 0 1-2.8-3l-.1-1.2h3.3c4.5 0 5.2.3 5.9 1.8.8 2 1 1.8-3.8 2.4H18zM14.6 24c.2-.3-.1-.3-.8-.2-1.3.4-1.4.5-.3.5.5 0 1-.1 1.1-.3zm8.9-.8c-.1-.3-.2-.2-.2.2s0 .6.2.5v-.7zm-7.2-1.4c-.2-.2-.6-.2-1 0-.5.1-.5.2.2.6.9.5 1.4 0 .8-.6zm21-9.9c-.2-.3-.2-.2-.3.2 0 .4.1.6.2.5.1-.1.2-.4 0-.7zm-3.7-2.4C33.1 8.3 31.2 7 30 7c-.3 0 0 .2.7.6.6.4 1.7 1.2 2.3 2l1 1c.1 0 0-.5-.4-1.2zm-4.2-4.6l-1.2-.3c-.3 0-.3.1.2.3l1.2.3c.3 0 .3 0-.2-.3z" fill="#8c7167"/><path d="M1.7 20.4V0h30.4v1c0 .6.1 1.1.3 1.1.2 0 .2.3 0 .7-.4.6-.4.8.2 1.3.5.4.3.3-.5-.1l-2.3-1-1-.2 1 .5c.6.3 1.6 1 2.2 1.6 1 1 1.3 1 1.2.3 0-.3 0-.3.8 0 .7.2.7.8 0 .8-.8 0-.6 1 .5 1.9.6.4 1.2 1.2 1.3 1.7.2.8.9 1.4.9.8 0-.3-.8-1.6-1.5-2.6s-.9-2-.3-1.6c.5.3.4-.3 0-.9-.4-.3-.4-.5 0-1l.3-1.5c0-.3.2-.7.5-.8.2-.1.1-.2-.2-.2-.4 0-.6-.2-.5-.5a1 1 0 0 0-.2-1c-.3-.2.2-.3 2-.3H39v40.9H26.6a108.6 108.6 0 0 1-14-.4c0 .3-1.9.4-5.4.4H1.7zM13 38.5c0-.3-.2-.1-.2.5 0 .5.1.8.2.6a2 2 0 0 0 0-1zm-1-7.7c0-.2 0-.5-.3-.5-.2 0-.2.3-.1.5l.3.6.2-.6zM31 29.4l-.7-.1c-.4 0-.7.1-.7.3 0 .2.3.2.7.1.4 0 .7-.2.7-.3zM22.6 28c.6-.5.7-.5 1.2 0 .6.6.7.6 1 0 .4-1.3.3-2-.5-2-.5 0-.7 0-.5-.2l.6-.2c.3 0 .5-.4.6-.8 0-.6.3-.8 1-.7.4 0 .8.3.8.6 0 1 .7-2 .9-4 0-1.6-.1-2.9-.6-4.6-.5-1.6-.7-2.6-.5-3 .2-.3.3-1.3.3-2.2-.1-1.5-.3-1.7-1.6-2.6-.8-.5-2-1-2.4-1-.6 0-1.1 0-1.3-.3-.1-.2-1.5-.3-3.8-.3-3 .1-3.9.3-4.7.9-1 .7-4.2 6.7-3.8 7 0 .2.6 0 1.1-.5 1.1-.9 3.2-1 3.5-.2.4 1.2-1.8 4.2-3.8 5.1-2 1-2.4 2.2-1.9 6.1.2 1.8.4 2.5.5 1.9 0-.6.3-1.2.4-1.4.2-.2.5-1 .7-1.8a8 8 0 0 1 .8-1.9c.2-.2.5-1 .6-1.5.2-.9.5-1.2 1-1.2l1.2-.3c.4-.2 1 0 1.7.3 1.4.7 1.8.7 1.8-.2 0-.6 0-.7.5-.3.7.5.7 2 .1 2.1-.3 0-.3.1 0 .2s1 1.2 1.5 2.5c1 2.3 1.9 2.8 2.3 1.4.2-.7.3-.7.5.3.2.5.2 1.3 0 1.8-.6 1.6-.3 2 .8 1zm-1.3-5.2c.1-1.2.3-1.4 1.2-1.2.8 0 .8.1-.3 1l-1 1.1zM18 17c-1.9-.5-3-1.5-3-2.7 0-1.3 1.2-1.5 5-1 3 .4 3.6.6 3.7 1.5l.3 1.2c.2.6 0 .7-1.7 1-1 0-2.1.2-2.4.3-.2 0-1.1 0-2-.3zm-1.6 9c-.4 0-.9.2-1.2.5-.8.8-.6 1 .6.3 1-.5 1-.6.6-.7zm15.1 0c.7-1.5 1-3.2.5-3.2s-1 1-1.2 2.7c-.3 1.7 0 2 .7.6zM14.8 24c0-.5-1.4-.5-2.1 0-.4.2-.2.3.8.3.7 0 1.3-.1 1.3-.3zm2-1.8c-.3-.7-1-.9-2.2-.3l-.7.3h.7c.4 0 1 .3 1.4.5.8.7 1 .5.7-.5zM37.2 12c-.2-.3-.2-.2-.3.2 0 .4.1.6.2.5.1-.1.2-.4 0-.7zm-3.7-2.4C33.1 8.3 31.2 7 30 7c-.3 0 0 .2.7.6.6.4 1.7 1.2 2.3 2l1 1c.1 0 0-.5-.4-1.2zm-4.2-4.6l-1.2-.3c-.3 0-.3.1.2.3l1.2.3c.3 0 .3 0-.2-.3z" fill="#72767b"/><path d="M1.7 20.4V0H30l-.2 1c-.2.8 0 1 .9 1.6 1.4.8 1 1.1-.4.4-.6-.3-1.3-.5-1.5-.4-.2 0 .1.4.8.7 1.4.6 3.9 2.8 3.9 3.3 0 .3.5.9 1 1.4.6.5 1.1 1.1 1.1 1.4 0 .5 1 1.6 1.3 1.4.3-.3-1-2.9-1.6-3.3-.5-.5-.5-.5 0-1 .4-.2.7-.6.7-.9 0-.2.2-.3.5-.2.3.1.6 0 .7-.1.3-.5-1.5-.7-2-.2-.3.2-.3.2-.2-.4 0-.4.4-.7.8-.8 1-.1 1.5-2.1.7-2.6-1.1-.6-.6-1.3 1-1.3h1.6v40.9H26.6a108.6 108.6 0 0 1-14-.4c0 .3-1.9.4-5.4.4H1.7zM13 38.5c0-.3-.2-.1-.2.5 0 .5.1.8.2.6a2 2 0 0 0 0-1zm-1-7.7c0-.2 0-.5-.3-.5-.2 0-.2.3-.1.5l.3.6.2-.6zm18.7-1.1c.4-.3.3-.4-.3-.5-.4-.2-.7 0-.7.3 0 .5.3.6 1 .2zM6.3 28c-.3-.3-.4-.3-.2.2l.3 1c0 .3 0 .2.2-.2 0-.3 0-.8-.3-1zm16.3-.1c.6-.5.7-.5 1.2 0 .6.6.7.6 1 0 .4-1.3.3-2-.5-2-.5 0-.7 0-.5-.2l.6-.2c.3 0 .5-.4.6-.8 0-.6.3-.8 1-.7.4 0 .8.3.8.6 0 1 .7-2 .9-4 0-1.6-.1-2.9-.6-4.6-.5-1.6-.7-2.6-.5-3 .2-.3.3-1.3.3-2.2-.1-1.5-.3-1.7-1.6-2.6-.8-.5-2-1-2.4-1-.6 0-1.1 0-1.3-.3-.1-.2-1.5-.3-3.8-.3-3 .1-3.9.3-4.7.9-1 .7-4.2 6.7-3.8 7 0 .2.6 0 1.1-.5 1.1-.9 3.2-1 3.5-.2.4 1.2-1.8 4.2-3.8 5.1-2 1-2.4 2.2-1.9 6.1.2 1.8.4 2.5.5 1.9 0-.6.3-1.2.4-1.4.2-.2.5-1 .7-1.8a8 8 0 0 1 .8-1.9c.2-.2.5-1 .6-1.5.2-.9.5-1.2 1-1.2l1.2-.3c.4-.2 1 0 1.7.3 1.4.7 1.8.7 1.8-.2 0-.6 0-.7.5-.3.7.5.7 2 .1 2.1-.3 0-.3.1 0 .2s1 1.2 1.5 2.5c1 2.3 1.9 2.8 2.3 1.4.2-.7.3-.7.5.3.2.5.2 1.3 0 1.8-.6 1.6-.3 2 .8 1zm-1.3-5.2c.1-1.2.3-1.4 1.2-1.2.8 0 .8.1-.3 1l-1 1.1zM18 17c-1.9-.5-3-1.5-3-2.7 0-1.3 1.2-1.5 5-1 3 .4 3.6.6 3.7 1.5l.3 1.2c.2.6 0 .7-1.7 1-1 0-2.1.2-2.4.3-.2 0-1.1 0-2-.3zm-1.6 9c-.4 0-.9.2-1.2.5-.8.8-.6 1 .6.3 1-.5 1-.6.6-.7zm15 .5c0-.3 0-.6.2-.7.4-.2.9-3.3.6-3.6-.6-.6-2 4-1.5 4.9.4.5 1 0 .8-.6zM14.9 24c0-.5-1.4-.5-2.1 0-.4.2-.2.3.8.3.7 0 1.3-.1 1.3-.3zm2-1.8c-.3-.7-1-.9-2.2-.3l-.7.3h.7c.4 0 1 .3 1.4.5.8.7 1 .5.7-.5zm17.7-3.6c0-.2-.1-.2-.3-.1-.2.1-.4.4-.4.6 0 .2.2.2.4.1s.3-.4.3-.6zm3.3-5.8c-.2-.1-.5-.5-.5-1 0-.6 0-.6-.2 0s.6 1.8 1 1.4c0-.2 0-.3-.3-.4zm-4.2-3.4c-.4-.8-1-1.4-1.8-1.8-2.7-1.1-4-1.1-1.7 0 .7.3 1.9 1.2 2.6 2l1.4 1.2s-.1-.7-.5-1.4zm-4-4.4c-2.1-.8-3.2-1-3.2-.8 0 .4 2 1 3 1 .5 0 .6 0 .2-.2zm-2.4-2.8h-.9c-.2.1 0 .2.5.2s.7 0 .4-.2z" fill="#6e747a"/><path d="M1.7 20.4V0h9.6c7.2 0 9.5 0 9.4.4 0 .2.1.4.4.4.3 0 1 .4 1.4.9.6.6 1.2.8 2.4.8 1.7 0 3.9.6 5.8 1.6a26.2 26.2 0 0 1 6.8 9.3c.3.2.6.6.6 1 0 .2.2.4.5.4.5 0 .5 1.7.5 13V41H26.6a108.6 108.6 0 0 1-14-.4c0 .3-1.9.4-5.4.4H1.7zM13 38.5c0-.3-.2-.1-.2.5 0 .5.1.8.2.6a2 2 0 0 0 0-1zm-1-7.7c0-.2 0-.5-.3-.5-.2 0-.2.3-.1.5l.3.6.2-.6zM6.8 29a5 5 0 0 0-.6-1.7c-.5-.6-.5-.6-.3.4.3 1 .8 2.3 1 2.3v-1zm24.1.7c.1-.2-.1-.4-.5-.5-.5-.2-.7 0-.7.3 0 .5.9.7 1.2.2zM22.6 28c.6-.5.7-.5 1.2 0 .6.6.7.6 1 0 .4-1.3.3-2-.5-2-.5 0-.7 0-.5-.2l.6-.2c.3 0 .5-.4.6-.8 0-.6.3-.8 1-.7.4 0 .8.3.8.6 0 1 .7-2 .9-4 0-1.6-.1-2.9-.6-4.6-.5-1.6-.7-2.6-.5-3 .2-.3.3-1.3.3-2.2-.1-1.5-.3-1.7-1.6-2.6-.8-.5-2-1-2.4-1-.6 0-1.1 0-1.3-.3-.1-.2-1.5-.3-3.8-.3-3 .1-3.9.3-4.7.9-1 .7-4.2 6.7-3.8 7 0 .2.6 0 1.1-.5 1.1-.9 3.2-1 3.5-.2.4 1.2-1.8 4.2-3.8 5.1-2 1-2.4 2.2-1.9 6.1.2 1.8.4 2.5.5 1.9 0-.6.3-1.2.4-1.4.2-.2.5-1 .7-1.8a8 8 0 0 1 .8-1.9c.2-.2.5-1 .6-1.5.2-.9.5-1.2 1-1.2l1.2-.3c.4-.2 1 0 1.7.3 1.4.7 1.8.7 1.8-.2 0-.6 0-.7.5-.3.7.5.7 2 .1 2.1-.3 0-.3.1 0 .2s1 1.2 1.5 2.5c1 2.3 1.9 2.8 2.3 1.4.2-.7.3-.7.5.3.2.5.2 1.3 0 1.8-.6 1.6-.3 2 .8 1zm-1.3-5.2c.1-1.2.3-1.4 1.2-1.2.8 0 .8.1-.3 1l-1 1.1zM18 17c-1.9-.5-3-1.5-3-2.7 0-1.3 1.2-1.5 5-1 3 .4 3.6.6 3.7 1.5l.3 1.2c.2.6 0 .7-1.7 1-1 0-2.1.2-2.4.3-.2 0-1.1 0-2-.3zm-1.6 9c-.4 0-.9.2-1.2.5-.8.8-.6 1 .6.3 1-.5 1-.6.6-.7zm15 .5c0-.2 0-.6.2-.7.5-.5.9-3.7.5-3.7-.9 0-2 4.4-1.3 5 .3.4.9 0 .7-.6zM14.9 24c0-.5-1.4-.5-2.1 0-.4.2-.2.3.8.3.7 0 1.3-.1 1.3-.3zm2-1.8c-.3-.7-1-.9-2.2-.3l-.7.3h.7c.4 0 1 .3 1.4.5.8.7 1 .5.7-.5zm18-3.8c-.4-.3-1 .4-1 .9s.1.5.5-.1l.4-.8zM33.6 9c-.4-.7-1.2-1.3-2.6-2-2.8-1.2-3.5-.8-1 .6a14 14 0 0 1 3 2.3c1 1.3 1.4.8.6-.9zM31 5.7c0-.4-2.2-1.4-3.8-1.7-1.6-.3-1.4.6.2 1L31 6l.1-.3z" fill="#886c62"/><path d="M1.7 20.4V0h9.6c7.2 0 9.5 0 9.4.4 0 .2.1.4.4.4.3 0 1 .4 1.4.9.6.6 1.2.8 2.4.8 1.7 0 3.9.6 5.8 1.6a26.2 26.2 0 0 1 6.8 9.3c.3.2.6.6.6 1 0 .2.2.4.5.4.5 0 .5 1.7.5 13V41H26.6c-13.8-.2-12.9 0-13.5-2.3-.2-1-.2-1-.4.6V41h-11zm11.1 11.1c.8-.3.7-.7-.3-1-.5 0-1.1-.6-1.5-1-.7-1.2-1.4-.8-.6.4.5.8 1.5 1.8 1.8 1.8l.6-.2zm-6-2.5a5 5 0 0 0-.7-1.7c-.5-.6-.5-.6-.3.4.3 1 .8 2.3 1 2.3v-1zm24 .7c.1-.2-.1-.4-.5-.5-.5-.2-.7 0-.7.3 0 .5.9.7 1.2.2zm-5.8-2c.7-1 1.4-2 1.6-2 .5 0 1.2-3.4 1.2-6 0-1-.2-2.7-.4-3.5-.3-.9-.5-2.7-.5-4.2 0-3-.4-3.6-2.9-4.5l-2.2-.8c-.8-.4-6.6-.2-7.8.3-1.1.4-2.7 2.3-3.5 4.3l-1.2 2.6c-.8 1.6-.6 1.7 1 .5 1.8-1.3 3.4-1.2 3.4 0 0 1.4-2 3.8-3.6 4.5-1.4.5-1.6.7-2 2-.3 1-.3 2.2 0 4l.4 3 1-2.5a49 49 0 0 1 1.8-5.1c.2-1 2.8-1.5 4-1 1.2.6 1.6.5 1.6-.1 0-.5.1-.5.5-.2.3.3.6.7.6.9 0 .6-1.4 1.6-2.2 1.6a5 5 0 0 0-1.5.4c-.7.2-.7.3.2.3.5 0 1.1.2 1.3.5.8 1 1.5.7 1.2-.3-.2-1 .3-1.2 1.1-.4a8 8 0 0 1 1.3 3.5l1 2c1 1.5 1 1.7.5 1.9-.4 0 .1.2 1.1.2 1.8 0 1.8 0 3-2zm-2.6 1.2c.1-.2.3-.3.5-.2.5.4.4.6-.2.6-.3 0-.4-.2-.3-.4zm-5-12c-1-.3-1.4-.7-1.8-1.6-.8-2-.8-2 3.2-1.8 3.5.2 5 .6 4.6 1.3 0 .2 0 .6.3 1 .2.4.3.8.2.9-.3.4-5.5.5-6.6.2zm5.3-1.4c0-.1-.1-.2-.4-.2l-1-.2c-.7-.1-1.6 0-1.6.4s2.8.4 3 0zm-7.2 11.7c1-.7 1.3-1 .9-1-.4-.1-1 .2-1.6.7a4 4 0 0 1-2.3 1l-1.4.2h1.4c1.1 0 2-.2 3-.9zM32 25.4c.5-2.2.5-3.2.1-3.2-.8 0-1.9 4.4-1.2 5 .4.5.8 0 1.1-1.8zm-14 .3c0-.2-.1-.3-.2-.3l-.4.3c0 .2 0 .4.2.4s.4-.2.4-.4zM14 24.3c.4 0 .7-.2.7-.5 0-.6 0-.6-1.4-.1-.6.2-1 .5-1 .7 0 .2.2.3.5.1l1.2-.2zM34.5 19c.6-1-.1-.8-.8.2-.4.6-.4.8-.1.7l.9-.9zm-24.1-2.4c.1-.2 0-.3-.4-.2-.6.3-.7.5-.2.5.2 0 .5-.1.6-.3zM33.7 9c-.4-.7-1.2-1.3-2.6-2-2.8-1.2-3.5-.8-1 .6a14 14 0 0 1 3 2.3c1 1.3 1.4.8.6-.9zM31 5.7c0-.4-2.2-1.4-3.8-1.7-1.6-.3-1.4.6.2 1L31 6l.1-.3z" fill="#84665b"/><path d="M1.7 20.4V0h9.6c7.2 0 9.5 0 9.4.4 0 .2.1.4.4.4.3 0 1 .4 1.4.9.6.6 1.2.8 2.4.8 1.7 0 3.9.6 5.8 1.6a26.2 26.2 0 0 1 6.8 9.3c.3.2.6.6.6 1 0 .2.2.4.5.4.5 0 .5 1.7.5 13v13H26.6c-13 0-12.9.1-13.1-1.4 0-.4-.3-1-.5-1.3-.2-.4-.3-.1-.3 1.1V41h-11zm12.6 11.3a4 4 0 0 0 1.3-.8c.4-.7.3-1-.4-.7-1 .4-3 .2-3.6-.4-1-1-.8-1.2.6-1.2.9 0 2-.4 3.1-1.1 2.3-1.4 3.4-1.4 4.2 0 .3.5.6 1.2.6 1.6 0 .4.4.5 2 .5 2 0 2.1 0 2.7-1 .3-.6.8-1.1 1.1-1.1.3 0 .5-.1.4-.3-.1-.2 0-.6.2-.8.5-.5 1.1-3 1.5-6 .1-1 0-2.6-.3-4a25 25 0 0 1-.5-4.4c0-2.9-.5-3.6-3.4-4.7-1.9-.8-2.9-1-5.3-1-1.8 0-3.4.2-4.2.5-1.5.7-3 2.3-3.8 4.5l-1.2 2.6c-.8 1.5-.6 1.7.6.8 1.2-.9 1.7-1 2.9-1 .8 0 .7 1.2-.3 3-.7 1.3-1.2 1.7-2.1 1.8-1.5.3-1.8.7-2.4 2.7a8.9 8.9 0 0 0 0 4.4c.3 1.5.6 2.5.7 2.2.4-1 .8-1.4 1.4-.8.6.6.6 1.1 0 1.3-.6.2.3 3 1.1 3.4.8.5 2 .5 3.1 0zm-3.5-5c-1-1-1.2-2.2-.6-2.6.2 0 .4-.5.4-1 0-.4.2-1 .5-1.4.3-.4.5-1 .5-1.3 0-.8.6-1.2 1.2-.7.4.3.5.3.7-.1.3-.7 1.3-.7 2.2 0 .5.3 1 .4 1.4.3.8-.3.6.4-.2.9-.4.2-1.7.6-2.9.8-1.2.3-2.2.7-2.3 1-.1.3 0 .3.6 0 1.1-.6 2.5-.5 3.6.5.8.7 1.2.8 1.6.5.2-.2.6-.3.8-.2.6.4.4 1.3-.2 1.3-.3 0-.5.1-.5.3 0 .2-.5.6-1.1 1-.7.2-1.7.8-2.4 1.2-1.7.9-2.2.8-3.3-.4zm4-2.6c.3 0 .3-.3.1-.5-.4-.4-2.3 0-2.5.7-.1.4.7.3 2.4-.2zm3-7.3c-1.4-.5-1.8-1-2-2-.3-.9-.2-1 .8-1.2 1.6-.3 3-.3 4.7.2 1.9.5 2 1 .4 1-1.4 0-2.3.3-2.3.7 0 .2 1 .4 2 .4 1.6 0 2.2.1 2.3.5.2.4 0 .5-.5.5s-1.6 0-2.6.2c-1 0-2.2 0-2.8-.3zM6.8 29a5 5 0 0 0-.7-1.7c-.5-.6-.5-.6-.3.4.3 1 .8 2.3 1 2.3v-1zm24 .7c.1-.2-.1-.4-.5-.5-.5-.2-.7 0-.7.3 0 .5.9.7 1.2.2zm1.2-4.3c.5-2.2.5-3.2.1-3.2-.8 0-1.9 4.4-1.2 5 .4.5.8 0 1.1-1.8zm2.5-6.4c.6-1-.1-.8-.8.2-.4.6-.4.8-.1.7l.9-.9zm-23.6-2.8c0-.2-.2-.2-.7 0-.4.2-.7.5-.7.7 0 .3.2.3.7 0 .4-.2.7-.5.7-.7zm22.8-7c-.4-.8-1.2-1.4-2.6-2-2.8-1.3-3.5-1-1 .5a14 14 0 0 1 3 2.3c1 1.3 1.4.8.6-.9zM31 5.6c0-.4-2.2-1.4-3.8-1.7-1.6-.3-1.4.6.2 1L31 6l.1-.3z" fill="#78625a"/><path d="M1.7 20.4V0h6.5c6 0 6.5 0 6.7.6.1.6.2.6.2 0 0-.5.4-.6 2.5-.6 2.2 0 2.6 0 2.7.6.3 1 3 2.2 4.6 2 1.4-.2 3.7.4 5.8 1.4a26.1 26.1 0 0 1 6.8 9.4c.3.2.6.6.6 1 0 .2.2.4.5.4.5 0 .5 1.7.5 13V41H26.8l.2-1.4c.2-1 0-1.4-.4-1.5-.8-.4-2.2.3-2.8 1.4-.3.5-.5.8-.5.5 0-.2-.2-.4-.4-.4s-.3.2-.3.4c.1.3-.5.5-2 .5l-4.3.3c-2 0-2.2 0-2.3-.8-.1-.5-.5-1.3-.8-1.6-.5-.7-.5-.6-.5 1v1.6h-11zM15 31.5c1.4-1 1-1.5-1-1.3-1.3.2-1.9 0-2.4-.4-1-1-.9-1.2.6-1.2.8 0 2-.4 2.8-1 2.3-1.3 3.5-1.3 4.4-.2.4.5.7 1.2.7 1.5 0 .6.4.7 2.4.8 2.5 0 2.5 0 2.7-1 .2-.6.4-.9.9-.8.5.2.7-.4 1.4-4 .7-3.7.8-4.5.4-6.6l-.6-5.1c-.2-3.4-.7-4-3.8-5.2-2.8-1-7.8-1-9.8 0-1.6.9-2.3 1.8-3.8 5.2-1.5 3.5-1.5 4 .1 2.6 1.4-1.2 3-1.4 3.3-.5 0 .3-.2 1.3-.6 2.1-.9 1.5-2 2.3-3.2 2.3-1.5 0-2.2 4.2-1.4 8.1.3 1.5.5 1.7.7 1.3.6-1 1.5-.8 1.2.3-.2.9.4 3 1 3.4.7.5 3 .3 4-.3zm-3.7-4l-.4-.8c0-.2-.3-.6-.6-.8-.5-.4-.6-.6-.2-1.2.3-.4.5-1 .5-1.5s.2-1.1.5-1.5c.3-.4.5-1 .5-1.3 0-.8.6-1.2 1.2-.7.4.3.5.3.7-.1.3-.7 1.3-.7 2.1 0 .4.3 1 .4 1.4.3.8-.3.8.4 0 .9-.5.2-1.8.6-3 .8-1.2.3-2.2.7-2.3 1-.1.3 0 .3.6 0 1.1-.6 2.5-.5 3.6.5 1.2 1 1.5 1 1.9.5.3-.4.9 0 .9.5 0 .3-.3.4-.8.3-.6-.1-.7 0-.5.4.1.3-.2.7-1 1.1l-2.3 1.3c-1.4.8-2.2.8-2.8.2zm3.8-3.4c.5-.4-.6-.8-1.5-.5-1.7.4-1.6 1.2 0 .9a7 7 0 0 0 1.5-.4zm2.8-7.3c-1.2-.6-1.9-1.3-2.1-2.2-.2-.7 0-.8 1.3-1 1.7-.3 5.4.3 5.4.9 0 .2-.8.3-1.7.3-2.7 0-2.2.9.6 1 1.5 0 2.2.2 2.3.6.2.4 0 .5-.5.5l-2.6.2c-1 0-2.1 0-2.7-.3zM7 29.2c-.2-.7-.5-1.6-.8-2-.5-.9-.5-.9-.3.5s.7 2.6 1 2.6c.2 0 .2-.5 0-1.1zm24.1.2c0-.3-.3-.5-.6-.5-.8 0-1.1.3-1 .9.3.6 1.6.2 1.6-.4zm1-3.7c.5-2.1.5-3.8.1-3.8-.5 0-1.4 2.7-1.4 4.2 0 2 .8 1.8 1.3-.4zm2.9-7.5l-.3-.2c-.4 0-1.8 2.2-1.8 2.8 0 .5 2-2 2-2.6zm-24-1.9c0-.6-.2-.6-1.2.1-1.4.9-1.2 1.7.1 1 .6-.4 1.1-.9 1.1-1.1zm22.8-7.2c-.4-.7-1.2-1.3-2.5-2-3.4-1.4-4-.6-.8 1 .9.3 2 1.2 2.6 1.8 1.1 1.4 1.5 1 .7-.8zm-2.4.4c-.2-.4-.5-.6-.5-.6-.3.3.3 1.3.6 1.3.2 0 .1-.3-.1-.7zM31 5.7c0-.5-2.3-1.4-4-1.7-1.7-.2-1.8-.1-1.1.4l1.4.7 3.6.8.1-.2z" fill="#775c54"/><path d="M1.7 20.4V0h6.5c6 0 6.5 0 6.7.6.1.6.2.6.2 0 0-.5.4-.6 2.5-.6 2.2 0 2.6 0 2.7.6.3 1 3 2.2 4.6 2 1.4-.2 3.7.4 5.8 1.4a26.1 26.1 0 0 1 6.8 9.4c.3.2.6.6.6 1 0 .2.2.4.5.4.5 0 .5 1.7.5 13V41h-12v-1.5c-.1-1.4-.2-1.5-1.3-1.6-.9 0-1.2 0-1.7.8-.3.5-.9.9-1.3.9-.3 0-.6.1-.5.3.4.6-.8.8-2.3.4-.9-.3-1.5-.3-1.8 0a6 6 0 0 1-2 .4l-1.8.2-.8-1.6-.7-1.6-.2 1.6V41h-11zm14.2 12c.6-.4 1-1 1-1.5 0-.4.3-1.4.7-2.1l.6-1.4.7.7.9 1c.1.5 5.6.9 5.6.5 0-.2.3-.6.7-1 .4-.5 1-2.1 1.5-5l1-4.4-.6-5c-.6-5.4-.8-5.8-3.2-6.9-.9-.3-1.5-.8-1.5-1 0-.4-6.6-.4-8.2 0-2.4.7-3.8 2.5-5.8 7.2-.8 2.2-.7 2.6.6 1.5 1-1 2.5-1.2 3-.5.6 1-1.2 3.7-2.8 4-1.4.4-1.2-.5.3-1.2 1.3-.7 1.6-2 .4-1.6-1.2.4-1.8 1.1-2.3 3-1.1 4.2-.8 9.8.5 9.7.4 0 .7.4 1 1.4.6 3.1.5 3 1.5 2.8.6-.1 1.3 0 1.7.3.7.6 1.3.5 2.7-.5zm-3.7-2.7c-.5-.4-.2-.7.9-1 .6-.1 1.6-.5 2-1 1.5-1 2-.6.9 1-.8 1-1.2 1.3-2.3 1.3-.7 0-1.4-.1-1.5-.3zm-1-3c-.5-1.4-.4-3 .2-3.4.8-.6 3.6-1 3.9-.4.2.2-.2.4-1 .4-.7 0-1.4.2-1.8.6-.8 1-.7 1.2.4.8 1.4-.6 3.5-.5 3.8.2.2.6-2 2.2-3.8 2.5-1.1.2-1.3 0-1.6-.8zm.4-5.7c.5-1.3 1.4-1.7 1.4-.7 0 .3.3.5.6.5.4 0 .5-.2.3-.7-.1-.4 0-.8.2-.9.4-.2 2.5.8 2.5 1.2 0 .4-1 .7-2 .7a7 7 0 0 0-2 .6c-1.7.7-1.7.7-1-.7zm6.6-4.3c-.5-.3-1.1-1-1.3-1.4-.5-1.3.4-2 2.3-1.7 2.3.4 2.7.8 1 1-2.1.4-1.7 1 .6 1.2 2.2.1 3 .6 1.4.9-2.6.5-3 .5-4 0zM6.8 29.2c-.1-.7-.4-1.6-.7-2-.5-.9-.5-.9-.3.5s.7 2.6 1 2.6c.2 0 .2-.5 0-1.1zm24.2.2c0-.3-.3-.5-.6-.5-.8 0-1.1.3-1 .9.3.6 1.6.2 1.6-.4zm1-3.7c.5-2.1.5-3.8.1-3.8-.5 0-1.4 2.7-1.4 4.2 0 2 .8 1.8 1.3-.4zm2.9-7.5l-.3-.2c-.4 0-1.8 2.2-1.8 2.8 0 .5 2-2 2-2.6zm-1.2-9c-.4-.8-1.2-1.4-2.5-2-3.4-1.5-4-.7-.8.8.9.4 2 1.3 2.6 2 1.1 1.3 1.5.8.7-.9zm-2.4.3c-.2-.4-.5-.6-.5-.6-.3.3.3 1.3.6 1.3.2 0 .1-.3-.1-.7zM31 5.7c0-.5-2.3-1.4-4-1.7-1.7-.2-1.8-.1-1.1.4l1.4.7 3.6.8.1-.2zm-11.3-.8l-.1-.3-.4.3c-.1.2 0 .4.2.4s.3-.2.3-.4z" fill="#685854"/><path d="M1.7 20.5V0h4.4c4 0 4.5 0 4.5.6s.3.7 2.6.7c2 0 2.7 0 3-.5.2-.5.4-.5 1.6-.1 1.5.4 1.7.5 4.8 1.9 1.2.5 2 .7 1.9.6-.3-.5.6-.6 2.4-.3 2.1.4 4 1.3 5 2.4a21.5 21.5 0 0 1 4.8 6.7c0 .7 1.5 2.8 2 2.8.3 0 .4 2.8.4 13V41h-5c-4.5 0-5.2 0-5.2-.5 0-.3-.1-.5-.3-.4-.4.3-.7-.6-.7-2.4a5 5 0 0 0-.3-1.7c-.4-.6-1.9 0-3.4 1.6-1.4 1.4-2 1.7-3 1.7l-2.4.5c-3.1.8-4 .6-5-.8l-1-1.3-.1 1.5-.2 1.6-5.4.1-5.4.1zM13 34.2c0-.2-.1-.4-.3-.4-.2 0-.4.2-.4.4s.2.4.4.4.3-.2.3-.4zm3-1.8c.5-.4.9-1 .9-1.3l.6-2c.6-1.7 1.2-1.8 2-.2.5.9.7 1 1.6.8 1.4-.2 3.4.2 4 .8.6.5.6.5.6-.3 0-.5.3-1.2.7-1.5.4-.4.7-1 .7-1.5l.7-4.3c.7-3.2.7-3.5.2-8.5-.6-5.5-1-6.2-3.1-7-.6-.3-1.4-.7-1.6-1-.5-.6-1.1-.6-4.7-.4-4 .2-4.3.3-5.5 1.3-.7.6-1.8 1.9-2.3 2.9-1 2-2.4 5.4-2.2 5.6.1 0 .7-.3 1.3-.8 1-1 2.5-1.2 3-.5.6 1-1.2 3.7-2.8 4-1.4.4-1.2-.5.3-1.2 1.3-.7 1.6-2 .4-1.6-1.7.5-2.3 1.2-2.5 2.9-.5 2.9-.4 8.6.1 9.8.3.6.5.8.6.6.4-1 .8-.3 1 1.7l.3 2.2 1.1-.3c.7 0 1.4 0 1.8.3.7.6 1.3.5 2.7-.5zm-3.8-2.7c-.5-.4-.2-.7.9-1 .6-.1 1.6-.5 2-1 1.5-1 2-.6.9 1-.8 1-1.2 1.3-2.3 1.3-.7 0-1.4-.1-1.5-.3zm-1-3c-.5-1.4-.4-3 .2-3.4.8-.6 3.6-1 3.9-.4.2.2-.2.4-1 .4-.7 0-1.4.2-1.8.7-.8.9-.6 1.2.7.7 1.4-.6 3.2-.5 3.5.2.2.6-2.2 2.2-3.9 2.5-1 .2-1.2 0-1.5-.8zm.4-5.7c.5-1.3 1.4-1.7 1.4-.7 0 .3.3.5.6.5.4 0 .5-.2.3-.7-.1-.4 0-.8.2-.9.4-.2 2.5.8 2.5 1.2 0 .4-1 .7-2 .7a7 7 0 0 0-2 .6c-1.7.7-1.7.7-1-.7zm6.4-4.4c-.6-.4-1.1-.9-1.1-1 0-.2 0-.6-.2-.9-.3-.8 1.5-1.4 3.1-1 2 .5 2 .7.3 1-2 .3-1.6 1 .7 1 1 .1 2 .3 2.2.5.3.3 0 .4-2.8.9-.6.1-1.4 0-2.2-.5zM7 29.2c-.1-.9-.5-2.2-.8-3L5.6 25v1.6c0 1.6.8 4.2 1.3 4.2v-1.5zm2.1.7c0-.3-.2-.2-.2.2s0 .6.2.5v-.7zm21.5.2c.8-.3.7-1.5-.2-1.5-.6 0-1.2.8-.9 1.4.3.4.3.4 1 .1zm1.2-3l.7-3c.6-2.8 1-3.7 2-4.9 1-1.1.5-1.7-.5-.7-1.7 1.5-4 7.4-3.3 8.9.2.7.7.5 1-.3zm2.8-14.3c0-.5-.6-1.3-.8-1.1-.3.2.1 1.3.5 1.3.2 0 .3 0 .3-.2zm-1-4c-.7-1-2.6-2-4.4-2.4-1.5-.2-1.7.3-.3.9a6 6 0 0 1 2 2c.5 1 1 1.6 1.2 1.5 0-.1-.1-.6-.4-1.1-1-1.5-.4-1.4 1 .1 1.3 1.4 1.4 1.4 1.5.7.1-.4-.2-1.2-.5-1.7zm-2.8-3.5c-1.1-.9-3-1.4-4.6-1.4h-1.3l.9.7c.4.4 1.4.7 2 .7.8 0 1.7.2 2 .3 1.4.6 1.9.4 1-.3zm-10.4-.4c0-.2-.2-.3-.6-.3-.4 0-.7.1-.7.3 0 .2.2.4.5.4s.6-.2.8-.4zm-8.7-.7c0-.2-.2-.3-.5-.3s-.5.1-.4.3c.1.2.4.4.6.4.2 0 .3-.2.3-.4zm6.7-2.5l-.1-.3-.4.3c-.1.2 0 .4.1.4.2 0 .4-.2.4-.4z" fill="#67524a"/><path d="M1.7 20.4V0h4.4c4.2 0 4.5 0 4.5.7 0 .6.2.7 1.3.7.7 0 1.8 0 2.4.2.9.2 1.2 0 1.6-.5.4-.6.8-.7 1.5-.6 1 .3 1.1.5.3 1-.3.3-.5.6-.4.8.3.3 1.4-.2 1.4-.8 0-.6.8-.6 1.4 0 .2.4.8.6 1.2.6.4 0 1 .2 1.4.5 1 .6 2 1 1.8.6-.3-.5.6-.6 2.4-.3 2.1.4 4 1.3 5 2.4a21.5 21.5 0 0 1 4.8 6.7c0 .7 1.5 2.8 2 2.8.3 0 .4 2.8.4 13V41H28.8l.2-.9c.2-.5.1-.9 0-.9-.2 0-.5-.7-.6-1.6-.3-2.5-.6-2.8-2.2-2.2-.7.3-1.8 1.1-2.5 1.9-1 1.1-1.4 1.4-2.6 1.4-.8 0-2 .4-2.5.7-1.6.7-4 .4-4.8-.7l-.9-.9c-.1 0-.3.7-.4 1.6l-.3 1.6H1.7zm14 13c.4-.3 1-.6 1.5-.7.6 0 1-.4 1.2-1.3l.4-1.3h2.6c2-.1 2.9 0 3.5.4.7.4.8.5.8 0l.5-.9c.3-.2.7-1.3 1-2.4l1-5c.4-2 .6-3.9.4-5.9-.1-2.6 0-2.9.6-3.2 1-.6 1-.7-.1-2-.5-.4-1-1-1-1.2 0-.6-1.9-2.2-3.1-2.7L23.3 6c-.6-.6-1-.7-1.4-.4-.4.2-.8.2-1.1 0-.4-.2-.4-.3-.1-.3.2 0 .4-.3.4-.6s-.3-.5-1-.5c-1 0-1.2.3-1.1 1.1l-2.2.5c-3.2.4-4.4 1.2-6 4.2-1.5 3-2.3 5.2-2.3 7.1 0 1-.2 2.3-.4 2.8-1 2.4.1 11 1.3 10.6.3-.1.4.2.4 1 0 1 1 3 1.6 3.5.4.2 3.5-.9 4.4-1.6zm-3.2-4.1c.1-.2.5-.4.9-.4.3 0 1.1-.4 1.7-1 1.5-1.1 1.9-.7.6.7-.8.7-1.4 1-2.2 1-.7 0-1.1-.1-1-.3zm5.7-.4c-.1-.6 0-.7.3-.3.6.4.7 1 .2 1-.2 0-.4-.3-.5-.7zM11.5 27c-.5-1.5-.5-2.7 0-3.4.5-.8 2.7-1.3 3.6-.8.4.3.3.3-.9.4-1.4 0-2.2.4-2.2 1.3 0 .3.2.4 1 .2.5-.2 1.5-.3 2.1-.3 2 0 1.8 1-.4 2-2 1-3 1.2-3.2.6zm.3-6.2c.3-1.3.4-1.4 1-.9.4.5 0 1.5-.8 1.8-.3 0-.4-.2-.2-.9zm2.7-.2c-1-1 0-1.8 1.2-.8.6.5.6.6.1.9-.6.4-.8.4-1.3 0zm-5-2.5c0-.3 2.2-1.4 2.4-1.1l-.1.5c-.4.4-2.3.9-2.3.6zm8.4-1.9c-.3-.3-.5-1-.5-1.5 0-.7.2-.9 1.2-1 .7 0 1.4 0 1.6.3.3.2 0 .3-.7.3-2.7 0-1.3 1.6 1.4 1.7 2.3 0 2.3 0 1.5.5-1.3.5-4 .4-4.5-.3zM10.3 15c1.1-1 1.8-1 2 0 0 .3-.2.5-.8.5a6 6 0 0 0-1.5.2c-.5.2-.4 0 .3-.7zM7 29.2c-.1-.9-.5-2.2-.8-3L5.6 25v1.6c0 1.6.8 4.2 1.3 4.2v-1.5zm23.6 1c.8-.4.7-1.6-.2-1.6-.6 0-1.2.8-.9 1.4.3.4.3.4 1 .1zm1.2-3.1l.7-3c.6-2.8 1-3.7 2-4.9 1-1.1.5-1.7-.5-.7-1.7 1.5-4 7.4-3.3 8.9.2.7.7.5 1-.3zm2.8-14.3c0-.5-.6-1.3-.8-1.1-.3.2.1 1.3.5 1.3.2 0 .3 0 .3-.2zm-1-4c-.7-1-2.6-2-4.4-2.4-1.5-.2-1.7.3-.3.9a6 6 0 0 1 2 2c.5 1 1 1.6 1.2 1.5 0-.1-.1-.6-.4-1.1-1-1.5-.4-1.4 1 .1 1.3 1.4 1.4 1.4 1.5.7.1-.4-.2-1.2-.5-1.7zm-2.8-3.5a7.7 7.7 0 0 0-5-1.4l-1.2.1 1.1.7a6 6 0 0 0 2.3.6c.7 0 1.5.2 1.9.3 1.3.6 1.8.4.9-.3zm-19-1c0-.3-.3-.4-.6-.4s-.5.1-.4.3c.1.2.4.4.6.4.2 0 .3-.2.3-.4zm3.6-1.1c.7-.3.7-.3.1-.6-.8-.3-2.4 0-2.4.6 0 .4 1.3.4 2.3 0z" fill="#554c49"/><path d="M1.7 20.4V0h8.5v1c.2.9.2 1 2 .8 1.6 0 1.7 0 1 .5-.4.3-.7.8-.6 1.2.1.9 0 .9-1.1.2-.7-.5-.9-.5-1 0-.4.9.3 1.3 1.7 1l1.8-.2c.2 0 .4-.2.4-.4l1-.7c.4-.2.8-.6.8-1 0-.8.5-.9.8-.1.2.4.4.5 1 .2 1.5-.9 6 .2 6.6 1.6.2.7 2.1 1.6 2.9 1.4.3-.2 1-.1 1.4 0 1.6.6 2.8.8 2.8.5 0-.6-2.3-1.7-4.4-2.2a8.5 8.5 0 0 1-2.5-.7c-.5-.6 3.2 0 4.7.7 2.2 1 5 4.3 7 8.3.8 1.6 1.7 2.9 2 3 .6.1.6 1 .6 13v12.8h-5c-2.9 0-5.2-.1-5.2-.3l.4-.6c.2-.3.2-1-.2-2.7-1-3.5-1-3.5-3-2.7a7.3 7.3 0 0 0-3.5 3c-.1.3-1 .5-2.3.6a6 6 0 0 0-2.4.6c-.3.2-1 .3-1.9.3-1 0-1.6-.2-2.3-.8-1-1.2-1.4-.9-1.4 1V41H1.7zm11.6 14.3c.3-.3.9-.5 1.4-.4.4 0 .7 0 .6-.1-.2-.4 1-1.3 2-1.5.5 0 .9-.4 1.1-1.3.4-1.2.5-1.3 2.7-1.4 2.2 0 4.3.4 4.3 1 0 .2.2.4.5.4s.4-.2.3-.5c0-.3 0-.9.4-1.3.2-.5.6-1.7.7-2.6l.8-4.3c.3-1.3.6-4 .6-6 0-2.9.1-3.5.6-3.5 1 0 1-.9.2-2-.5-.5-1-.8-1.1-.7-.2.1-.1-.1.1-.5.5-1 .5-1.3-.2-1-.5 0-1-.1-1.4-.6a6 6 0 0 0-1.8-1.2A7 7 0 0 1 23.3 6c-.6-.5-1-.7-1.4-.4-1 .5-1.6 0-.9-.6.6-.6.5-.6-.6-.7-1-.1-1.9.4-1.5 1l-2 .5C13 6.2 12 7 10 11.4c-1 2-1.4 3.5-1.6 5.4L7.8 21c-.6 2.4.5 9.6 1.6 10.5.2.2.4.7.4 1 0 .4.3 1.2.7 1.8.7 1.2 1.9 1.4 2.8.5zm-.8-5.4c.1-.2.5-.4.9-.4.3 0 1.1-.4 1.7-1 1.5-1.1 1.9-.7.6.7-.8.7-1.4 1-2.2 1-.7 0-1.1-.1-1-.3zm5.7-.4c-.1-.6 0-.7.3-.3.6.4.7 1 .2 1-.2 0-.4-.3-.5-.7zM11.5 27c-.5-1.5-.5-2.7 0-3.4.5-.8 2.7-1.3 3.6-.8.4.3.3.3-.9.4-1.4 0-2.2.4-2.2 1.3 0 .4.2.4 1.1.2 3.6-.8 4.6.2 1.6 1.8-2 1-3 1.1-3.2.5zm.3-6.2c.3-1.3.4-1.4 1-.9.4.5 0 1.5-.8 1.8-.3 0-.4-.2-.2-.9zm2.7-.2c-1-1 0-1.8 1.2-.8.6.5.6.6.1.9-.6.4-.8.4-1.3 0zm-5-2.5c0-.3 2.2-1.4 2.4-1.1l-.1.5c-.4.4-2.3.9-2.3.6zm8.4-1.9c-.3-.3-.5-1-.5-1.5 0-.7.2-.9 1.2-1 .7 0 1.4 0 1.6.3.3.2 0 .3-.7.3-2.7 0-1.3 1.6 1.4 1.7 2.3 0 2.3 0 1.5.5-1.3.5-4 .4-4.5-.3zM10.3 15c1.1-1 1.8-1 2 0 0 .3-.2.5-.8.5a6 6 0 0 0-1.5.2c-.5.2-.4 0 .3-.7zm-3 15.2c-.2-.4-.4-1.7-.7-2.9A9.2 9.2 0 0 0 6 25c-.5-.6-.3 3.6.2 4.9.6 1.4 1.5 1.7 1.1.4zm24-.8a71.2 71.2 0 0 0 1.6-6.6c0-1 .6-2.3 1.3-3.1 1.2-1.5 1.4-2.3.4-1.9l-1.1.4c-.5.2-.9.8-2.3 4.8-.3.8-.6 2.3-.7 3.3 0 1.4-.3 2.1-.7 2.3-.9.5-.7 1.7.3 1.7.6 0 1-.2 1.1-1zm3.4-16.6c-.1-.4-.3-1.2-.3-2-.2-2.4-2.1-4-5.6-4.6-1.6-.2-1.7.2-.2 1 .6.4 1.4 1.3 1.8 2l1.2 1.7c.4.3.5.3.5-.2 0-.4-.2-.9-.5-1.1-.2-.3-.3-.4 0-.4.6 0 1.9 1.7 1.6 2.3-.2.5.8 1.9 1.4 1.9.2 0 .3-.3.1-.6zm1.3-1c0-.3-.2-.5-.4-.5s-.4.2-.4.5.2.5.4.5.4-.2.4-.5zM11.3 6.5c0-.3-.2-.5-.4-.5s-.3.3-.3.7c0 .4.1.6.3.5.2-.1.4-.4.4-.7zm6.3-1.6l-.1-.3-.4.3c-.1.2 0 .4.1.4.2 0 .4-.2.4-.4zm5.7-.5l-.6-.3c-.3-.1-.5 0-.5.1 0 .2.2.4.5.4s.6 0 .6-.2z" fill="#64453c"/><path d="M1.7 20.4V0h8.5v1c.2.9.2 1 2 .8 1.6 0 1.7 0 1 .5-.4.3-.7.8-.6 1.2.1.9 0 .9-1.1.2-.7-.5-.9-.5-1 0-.4.9.3 1.3 1.7 1l1.8-.2c.2 0 .4-.2.4-.4l1-.7c.4-.2.8-.6.8-1 0-.8.5-.9.8-.1.2.4.4.5 1 .2 1.5-.9 6 .2 6.6 1.6.2.7 2.1 1.6 2.9 1.4.3-.2 1-.1 1.4 0 1.6.6 2.8.8 2.8.5 0-.6-2.3-1.7-4.4-2.2a8.5 8.5 0 0 1-2.5-.7c-.5-.6 3.2 0 4.7.7 2.2 1 5 4.3 7 8.3.8 1.6 1.7 2.9 2 3 .6.1.6 1 .6 13v12.8h-5c-2.9 0-5.2-.1-5.2-.3l.4-.6c.2-.3.2-1-.2-2.7-1-3.5-1-3.5-3-2.7a7.3 7.3 0 0 0-3.5 3c-.1.3-1 .5-2.3.6a6 6 0 0 0-2.4.6c-.3.2-1 .3-1.9.3-1 0-1.6-.2-2.3-.8-1-1.2-1.4-.9-1.4 1V41H1.7zM13.2 35c.1-.2.6-.3 1.1-.3 1.5 0 4-1.7 4-2.8.2-1.2 1.4-1.8 3.6-1.8 1.7 0 3.5.5 3.5 1 0 .2.2.4.5.4s.4-.2.3-.5c0-.3 0-.9.4-1.3.3-.5.6-1.7.7-2.8l.8-4c.3-1.2.6-3.7.8-5.5.1-1.8.4-3.4.6-3.5.8-.6.8-1.6 0-2.6-.7-.7-1-1.3-.7-1.8.1-.5 0-.7-.4-.5-.3.1-.8-.1-1.1-.5C26.9 8 26 7.4 25 7c-.8-.3-1.5-.8-1.5-1 0-.2-.5-.5-1-.7-.6-.2-1.1-.5-1.1-.7 0-.6-2.4-.5-2.6.1-.3.7-1.3.8-1.3.1 0-.2-.2-.2-.5.2s-1 .8-1.7.9c-3.1.5-6.4 5.6-7 11a42 42 0 0 1-.6 4c-.6 2.4.5 9.6 1.6 10.5.2.2.4.7.4 1 0 1.3 1.2 2.9 2.2 2.9.6 0 1-.2 1.2-.4zm-1.6-8.8c0-1 .1-1 2.2-1.4 1.8-.4 2.2-.4 2.4 0 .2.3.2.6.1.8-.3.5-2.9 1.6-3.8 1.6-.7 0-.9-.1-.9-1zm2.9-5.8c-.3-.3-.3-.6-.1-.7.5-.3 1.4.1 1.4.7s-.8.6-1.3 0zm-4.2-2.6h1c.3.1 0 .2-.6.2s-.7 0-.4-.2zm8.2-1.2c-.4-.5-.1-.6 1.4 0l1.4.4H20c-.7 0-1.4-.2-1.5-.4zM10.2 15c.2-.3.8-.5 1.2-.5.7 0 .7 0-.1.5-1.2.6-1.6.6-1.1 0zm8-1c.3-.2.6-.2 1 0 .6.4.6.4-.3.4-.8 0-1 0-.7-.3zm-11 16.2l-.6-2.9A9.2 9.2 0 0 0 6 25c-.5-.6-.3 3.6.2 4.9.6 1.4 1.5 1.7 1.1.4zm24-.8l.4-1.4 1.2-5.2c.2-1 .7-2.3 1.4-3.1 1.2-1.5 1.4-2.3.4-1.9l-1.1.4c-.5.2-.9.8-2.3 4.8-.3.8-.6 2.3-.7 3.3 0 1.4-.3 2.1-.7 2.3-.9.5-.7 1.7.3 1.7.6 0 1-.2 1.1-1zm3.5-16.6c-.1-.4-.3-1.2-.3-2-.2-2.4-2.1-4-5.6-4.6-1.6-.2-1.7.2-.2 1 .6.4 1.4 1.3 1.8 2l1.2 1.7c.4.3.5.3.5-.2 0-.4-.2-.9-.5-1.1-.2-.3-.3-.4 0-.4.6 0 1.9 1.7 1.6 2.3-.2.5.8 1.9 1.4 1.9.2 0 .3-.3.1-.6zm1.3-1c0-.3-.2-.5-.4-.5s-.4.2-.4.5.2.5.4.5.4-.2.4-.5zM11.3 6.5c0-.3-.2-.5-.4-.5s-.3.3-.3.7c0 .4.1.6.3.5.2-.1.4-.4.4-.7zm12-2l-.6-.4c-.3-.1-.5 0-.5.1 0 .2.2.4.5.4s.6 0 .6-.2z" fill="#52423c"/><path d="M1.7 20.4V0h8.5v1c0 .9.2 1.1.9 1.3 1.2.3 1.2 1.2 0 1-1-.2-1-.2-.8 1.5l.2 2.4c0 .5.1.6.6.2.3-.3.5-.7.5-1.1 0-.4.2-.7.4-.7.4 0 .4 1.7 0 2-.5.2-2 3.4-2.9 5.6-.8 2.4-1.6 7.5-1.5 10.8.1 4 1.6 9.2 3.2 11 .5.6 1 .6 2.5.4 1-.1 2.4-.6 3.1-1a6 6 0 0 1 1.6-.9c.2 0 .3-.5.3-1 0-1.6 1-2.2 3.8-2.2 2.2 0 2.6.1 3 .7.2.4.8.7 1.2.7.9 0 1.1-.5.5-.9-.2 0-.3-.4 0-.8.2-.3.5-2.2.8-4.1.3-2 .9-4.5 1.3-5.6.4-1.1.7-2.9.7-3.8 0-1.2.2-1.9.6-2.3.7-.7.6-1.7-.3-2.9-.3-.4-.7-1.3-.8-1.8-.2-.9-.4-1-1-1-.4.2-.7 0-1-.4-.1-.3-.8-.8-1.5-1a10 10 0 0 1-2.1-1.4l-1-.8h1a7 7 0 0 1 2.4.5c.7.3 1.3.4 1.7.2.3-.2.9-.2 1.4 0 1.5.6 2.7.7 2.7.4 0-.6-2.2-1.7-4.4-2.2-2.8-.5-3.4-1.2-1-.8 3.4.4 4.5 1.1 7.9 5.1 1 1.2 1.2 1.8 1.2 2.9 0 .7 0 1.3.2 1.3s.4-.2.4-.6c0-.3.4.3 1 1.3.5 1 1.2 2 1.5 2 .6.2.6 1.1.6 13V41H29l.4-1c.3-.9.2-1.6-.3-3.7-.3-1.5-.7-2.8-.9-2.9-.5-.3-4 1.7-5 3-1.3 1.5-1.4 1.5-3 1.3-1 0-1.8 0-2.5.4-1.6.8-3 .9-4 0-1.2-1-1.4-.8-1.4 1.1V41H1.7zm13 16.2c0-.1 0-.3-.3-.3-.2 0-.3.3-.3.6s.1.4.3.3c.2-.1.4-.4.4-.6zm5.6-2c0-.2 0-.4-.4-.4-.3 0-.5.2-.5.4 0 .1.1.3.3.3l.6-.3zM7 29.2l-.6-2.8c-.4-2.6-1-2-.8.7 0 1.6.3 2.7.8 3.4.6.9.7 1 .8.4 0-.3 0-1.1-.2-1.7zm24.2 0l1-3.6c1-4.4 1.2-5 2.3-6.4 1.2-1.6.8-2-1-1.1-.8.4-1.2 1.1-2 3.3-.5 1.5-1 3.7-1.1 4.8-.2 1-.5 2.2-.8 2.4-.8.7-.6 1.7.4 1.7.7 0 1-.2 1.2-1.1zM34.7 12c-.3-3.4-1.8-5-5.4-5.7-2-.4-2.5-.3-1.6.4 1 1 2.8 2.6 3.6 3.7l.8 1-.2-1.2c-.2-1.1-.2-1.2.5-.5.4.3.7 1 .7 1.5 0 1 .7 2.2 1.3 2.2.3 0 .4-.5.3-1.4zm-23 14.4c0-1 1-1.7 3-1.8 2.8-.2 1.1 1.8-2 2.4-1 .2-1 .1-1-.6zm2.9-6.1c-.7-.5-.6-.5.3-.6.5 0 1 .2 1 .4 0 .6-.7.7-1.3.2zm-4.1-2.6h.7c0 .2-.1.3-.5.2-.4 0-.5 0-.2-.2zm8.3-1.1c.1-.2.5-.3.8-.2.7.3.6.5-.2.5-.4 0-.7-.1-.6-.3zM15.1 4.7c0-.6.6-1.1 1.9-1.7a5 5 0 0 1 3.6-.6c1.6.2 3.7 1.1 3.7 1.6h-1.9c-1.4-.2-2.2 0-3 .3-.8.4-1.3.5-1.6.3-.3-.3-.6-.2-1 .3-1 1-2 1-1.7-.2z" fill="#473935"/><path d="M1.7 20.4V0h8.5v3c-.1 2.5 0 4.7.3 5.5.3.8.3 1-.3 1.1-.4.1-.7.4-.7.7 0 .3 0 .3.3 0 .3-.5.4-.5.4 0A21.4 21.4 0 0 0 8 18l-.5 3.9c-.3 2.4.3 6.3 1.5 9.8 1 2.8 1.9 4.1 3.3 4.7.5.2.7.4.5.5-.3.1-.5.9-.5 2v2H1.7zm5.6 9.1a36 36 0 0 1-.8-3.3c-.3-2-.7-2.2-1-.6-.3 1.7.3 4.2 1.3 5.5 1 1.4 1.1.8.5-1.6zM29.6 40c.4-1-.1-4.6-1-6.1-.4-1-1.2-1.3-1.6-.7-.4.6-1 .5-.7-.1.1-.4 0-.6-.4-.6-.3 0-.5.2-.5.4 0 .5-1.2 1.7-1.5 1.5-.2 0-.3 0-.2.2.2.6-2 2.2-3 2.2-1.1 0-1.3-.5-.3-1.2 1-.6.9-1.2-.4-1.5-1-.3-1.2-.6-1.3-1.4-.1-1.7.7-2.3 3.2-2.3 1.9 0 2.3.2 3.1.9 1 1 2.7.9 2.3 0a26.9 26.9 0 0 1 2.1-11.6c.5-1.1.8-2.3.7-2.6-.3-1 .4-2.2 1-2 .7.3 1.1-1 .5-1.4-.2-.2-1-1.5-1.7-3-.9-1.9-1.3-2.5-1.8-2.4-.4.1-.6 0-.6-.3 0-1.2 1.4-.4 2.8 1.4.8 1.1 1.6 1.9 1.8 1.8.2-.1.2-.5 0-.9-.6-1-.4-1.2.3-.5.4.3.7 1 .7 1.5 0 1 .8 2.2 1.4 2.2.5 0 .3-2.3-.4-4-.6-1.4-2.3-2.6-4.1-3-2-.3-2.6-.9-.9-.6.8 0 1.8.3 2 .4.4.1.6 0 .6-.2 0-.6-2.2-1.7-4.5-2.3-2.8-.6-3.3-1-.8-.8 2.5.4 5 1.8 6.8 4 2.1 2.7 2.4 3.3 2.2 4.5-.1.5 0 1 .2 1s.4-.3.4-.7c0-.3.2 0 .3.5.2.7.5 1.2.7 1.2.2 0 .4.4.5.9.2.5.5.9 1 .9.6 0 .6.2.6 12.8v13l-4.9-.1h-5zm.4-9c0-.3.2-.6.6-.6.5 0 .8-.6 1.4-3.6 1.2-5 1.7-6.4 3-7.9l1.2-1.2h-1c-2.2 0-2.6.5-3.8 4.1-.6 2-1 4-1 4.8 0 .7-.4 1.6-.8 2.1-.5.6-.5 1-.3 1.5.2.3.2.7.1 1-.1.1 0 .3.2.3s.4-.3.4-.6zm2.7-1.4c.3-.4.3-.6 0-1-.5-.3-.6-.2-.6.5 0 1.1 0 1.2.6.5zm-17 6.8c-.2-.3 0-.6.4-1 .8-.5 1.1.1.4 1-.5.3-.6.3-.8 0zm2.4-2.1l.4-.4.2.4c0 .2-.2.4-.4.4s-.3-.2-.2-.4zM12 26.5c-.2-.9 1.5-1.8 3.2-1.8 1.8 0 1.2 1-.9 1.7l-1.6.6c-.4.1-.6 0-.7-.5zm2.7-6.4c-.1-.2 0-.4.3-.4s.6.2.6.4-.2.3-.3.3c-.2 0-.5-.1-.6-.3zm11-13.4c-.6-.2-1.3-.6-1.5-.8l-.8-.7c-.3-.2-.1-.2.5 0 1.5.2 3.3 1 3.3 1.5 0 .4-.1.4-1.6 0zm-7.9-2.4c-.6-.2-.5-1 .2-1.4.8-.5 4.8 0 5.4.6.4.4.3.4-.4.2l-2.3-.4c-1.3-.2-1.5-.1-1.7.5-.2.8-.4.9-1.2.5z" fill="#383434"/><path d="M1.7 20.4V0h8v2c0 1.6 0 1.8-.6 1.7-.8-.3-.9.3-.1.9.6.5.7 1.4.1 1.4-.2 0-.3.1-.3.3 0 .2.3.3.6.3.4 0 .6.1.5.4l-.2 1.4c0 .5-.2 1.3-.5 1.7-.2.5-.3 1.2-.2 1.6.1.4 0 1.4-.3 2.2-.3.8-.7 2.6-.8 4-.1 1.5-.4 3-.5 3.4a30.7 30.7 0 0 0 2.4 13.2c0 .2.6.8 1.2 1.4 1.3 1 1.2 1 1 4.1v.9H1.8zm5.7 9.4c-.4-1.5-.8-3.6-.8-4.8 0-2.3-.4-2.6-1-1A9.1 9.1 0 0 0 7 31.8c.5.7 1 1.2 1 1l-.6-3zM29.7 40c.5-1-.2-5.5-1-6.7a2 2 0 0 0-1.5-.9c-.6 0-.2-.2 1.1-.5 1.1-.3 2.3-.8 2.6-1a2 2 0 0 1 1.2-.6c.4 0 .7-.1.7-.2 0-.2 0-.7.2-1.1.2-.7 0-.8-.6-.8s-.7-.1-.5-.6c.1-.4.5-1.8.7-3.2.3-1.4.7-3 1-3.5.6-1.2 2.2-3 2.5-2.9l.4-.1c.2-.2-.5-.3-1.4-.3-1.8 0-4.7 1-3.6 1.3.7.2.7 0-.3 3-.5 1.5-1 3.3-1 4.2l-.9 2.7c-.5 1-.5 1.3-.1 1.5.6.4-.4 1.2-1.2 1-.5-.3-.6-.7-.4-3.7.3-3.8.6-5 2-7.8.4-1 .8-2.4.8-3-.1-1 .4-1.6.7-.8.4.9 1 .6 1-.3 0-1-.1-1 1.6-.2.7.4 1.5.5 1.6.4v-2c-.3-1-.3-1.8-.2-1.9l.1.4c0 .8.7.8.9 0 0-.5.1-.4.2.2 0 .4.2.8.5.9.3.1.6.6.6 1 .1.5.4.9 1 1 .8 0 1 .9.3 1.2-.4.1-.4.2 0 .2.3 0 .4 2.7.4 12v12h-9.8zm7.2-19.1c-.3-.3-1 .2-1 .7 0 .2.3.2.6-.1.3-.3.5-.5.4-.6zm-.4-2.2c-.3-.1-1.6 1-1.6 1.6 0 .2.4 0 1-.5.5-.5.8-1 .6-1zM20.3 34c-1.1-.2-1.6-.8-1.6-1.7 0-1.3 1-2 2.4-1.7l2.4.2c2 0 2.5 2.3.6 3-.9.5-2.5.6-3.8.2zm11-4.2l.4-.8c.3-.4.4-.4.4 0s-.2.8-.4.9h-.3zM12 26.5c-.2-.6 0-.9 1-1.3 1.2-.6 3.3-.7 3.3-.2 0 .5-1.5 1.4-2.4 1.4-.4 0-.8.2-1 .4-.3.6-.7.4-1-.3zm2.7-6.4c-.1-.2 0-.4.3-.4s.6.2.6.4-.2.3-.3.3c-.2 0-.5-.1-.6-.3zm17.7-6.2c-.7-.6-1.3-1.3-1.3-1.6 0-.3-.1-.7-.3-.7-.2-.1-1.8-3-1.8-3.3 0-.7.8 0 1.7 1.6.7 1.1 1.4 1.7 1.8 1.7.4 0 .7.2.7.5 0 .2.4.8 1 1.3.6.6.7.9.4 1.1-.7.4-.7.4-2.2-.6zm2.4-3.5L34 8.6c-.2-.5 0-.4.5.3.5.5.7 1.3.7 1.8-.1.7-.2.7-.5-.3zm-2.4-3.2c-.5-.5-.5-.7-.2-.8.5-.2 1.2.4 1 1-.1.3-.4.2-.8-.2zm-6.9-.6c-.6-.1-1.2-.5-1.3-.8a1 1 0 0 0-.8-.6c-.3 0-.4 0-.2-.1.5-.2 3.7 1.2 3.7 1.6l-.1.3-1.3-.4zm4.1-.5h.9c.2.1 0 .2-.4.2-.5 0-.7-.1-.5-.2zm1.2-1.2c0-.2.1-.3.3-.2l.4.4-.4.2c-.2 0-.3-.2-.3-.4zm-13-.9c0-.3.1-.7.5-1 .8-.6 1.2-.7 1.2-.2 0 .2-.3.4-.6.4-.4 0-.5 0-.2.4s.3.6-.1.7c-.3.2-.7 0-.8-.3zm11.6.2c-.9-.2-.9-.3-.2-.3.5 0 1 .1 1 .3.2.2.2.4.1.3l-1-.3zm-6.5-.6a5 5 0 0 0-1.6-.5L20 3h1.2c1.3 0 2.5.4 2.1.8h-.4zm4.3-.3h.6c.2.1 0 .2-.4.2s-.5-.1-.2-.2z" fill="#342c2a"/><path d="M1.7 20.4V0h4c4.7 0 4.9.1 3.3 2.2-1 1.4-1.1 2-.4 2.7.5.4.5.5 0 1.2-.6 1-.3 1.4.6 1 .8-.5.8-.3 0 1-.6.7-.7 1.3-.6 3.2 0 1.2 0 2.4-.2 2.6-.2.4-1 4.3-1.2 7.4-.3 2.2.4 6.8 1.4 10l.7 2.6c.1.6.8 1.6 1.4 2.4 1 1.1 1.3 1.6 1.3 3v1.6H1.8zm7 12.9c0-.1-.1-.7-.4-1.3-1-2.1-1.6-5.1-1.6-7.3 0-1.7-.1-2-.5-2-.5.3-.7.8-1.1 3.2-.3 2 2 7.6 3.2 7.6.3 0 .5-.1.5-.2zm22 7.2c0-.2-.3-.3-.6-.2-.6.3-.7-.1-.1-.7.5-.5-.2-5.6-1-6.5-.3-.4-.5-.7-.4-.8a10 10 0 0 1 3.9-1.4c.4.1.6-.1.8-1 .2-1.2 0-1.7-.8-1.7-.3 0-.4-.2-.3-.8l.4-2.6.5-1.9c.2 0 .4-.6.5-1.3.1-.7.6-1.8 1.1-2.3 1.2-1.2 1.5-1.3.6 0-.4.5-.8 1.2-.8 1.5 0 .4-.1.8-.3.9-.2.1-.4.5-.3.8 0 .3.3 0 .6-.7.4-.7 1.1-1.6 1.6-2 .5-.4 1-1 1-1.4 0-.9-1-1.2-2.7-1-1.7 0-2-.4-.4-.8 1.3-.3 3.1-2 2.7-2.3 0-.1 0-.2.3-.2.2 0 .4.3.4.7 0 .5.2.7.8.7.8 0 1.4.7.7.7-2 .2-2.2.6-.9 1.3l1.1.6V41H35c-2.9 0-4.2-.1-4.2-.4zM32 32c0-.4-.3-.5-.6-.3s-.4.6-.2 1c.2.7 1 .1.8-.7zm5.3-4.6c-.2-.6-1-.7-1-.1 0 .3.3.6.6.6s.5-.2.4-.5zm-.6-5.4c.8-.3 1.1-1.2.5-1.4-.8-.3-2 .5-2 1.3 0 .4.2.6.5.5l1-.4zm-17 11.5c-.4-.2-.7-.8-.7-1.5 0-.9.1-1 .8-.8.5.2 1.7.3 2.8.3 2.3 0 3 .6 1.7 1.7-.9.7-3.6.9-4.7.3zm8.1-4.9c0-2.5.6-6.5 1-6.7l.8-1c.4-.6.4-.5.2.4l-.2 1 .9-1 .9-1-.2 1-.5 2a18 18 0 0 0-.6 2.6c-.1 1-.4 2.1-.7 2.6-.3.4-.5 1.1-.4 1.6 0 .5-.1.8-.5.9-.6 0-.7-.2-.7-2.4zm-14.8-3c0-.5 2.3-1.1 2.9-.7.6.3-.2.9-1.6 1-1 .2-1.3 0-1.3-.3zm19.1-12.3c-1-1-1-1.3 0-1.3.4 0 1 .3 1.4.8 1.1 1.4 0 1.9-1.4.5zm-2-3c-.3-.7-.5-1.3-.4-1.4.3-.2 1.4 1.7 1.2 2.1 0 .3-.4 0-.7-.7zm4.7.1c-.4-1-.3-1.5.1-1 .2.2.4.7.3 1-.1.7-.2.7-.4 0zm-2.4-3.2l-.3-.7c.1-.1.4 0 .7.4.2.3.4.6.3.7-.1 0-.4 0-.7-.4zM30 6.1h.7c0 .1-.1.2-.5.2s-.5-.1-.2-.2zM29.2 4h.7c0 .1-.1.2-.5.2s-.5-.1-.2-.2z" fill="#242424"/><path d="M7.4 29c-.2-1-.4-2-.3-2.3.1-.2.4.5.6 1.6.5 2.6.3 3-.3.6zm20.7.8c.3-1.3.8-1.5.8-.2 0 .7-.2 1-.5 1s-.4-.2-.3-.8zm-23.4-3c0-.9 0-1.2.1-.8a5 5 0 0 1 0 1.6l-.1-.8zm27.8.5c0-.4 0-.5.2-.2v.7c-.2 0-.3-.1-.2-.5zm-2.9-.4c0-.4.1-.5.2-.2v.7c-.1.1-.2 0-.2-.5zM6.8 25c0-.8 0-1.1.1-.7v1.5l-.1-.8zm6.6.5c0-.4 2-.6 2.5-.3.3.1.3.3.1.3-1.6.2-2.6.2-2.6 0zM32.8 24c0-.5.1-.7.2-.5v1c0 .2-.2 0-.2-.5zm5.6-8.4h.6c.1.2 0 .2-.4.2s-.5 0-.2-.2zM33 13.4c0-.2.3-.3.5-.2.5.3.4.5-.2.5-.3 0-.5-.1-.3-.3z" fill="#1c1a19"/></svg>