<?xml version="1.0" encoding="UTF-8" standalone="no"?>
<!-- Created with Inkscape (http://www.inkscape.org/) -->

<svg
   xmlns:dc="http://purl.org/dc/elements/1.1/"
   xmlns:cc="http://creativecommons.org/ns#"
   xmlns:rdf="http://www.w3.org/1999/02/22-rdf-syntax-ns#"
   xmlns:svg="http://www.w3.org/2000/svg"
   xmlns="http://www.w3.org/2000/svg"
   xmlns:sodipodi="http://sodipodi.sourceforge.net/DTD/sodipodi-0.dtd"
   xmlns:inkscape="http://www.inkscape.org/namespaces/inkscape"
   version="1.1"
   id="svg3746"
   sodipodi:docname="beatoff.svg"
   inkscape:version="0.92.2 (5c3e80d, 2017-08-06)"
   xml:space="preserve"
   width="28.642559mm"
   height="31.36799mm"
   viewBox="0 0 28.64256 31.36799"><metadata
     id="metadata3752"><rdf:RDF><cc:Work
         rdf:about=""><dc:format>image/svg+xml</dc:format><dc:type
           rdf:resource="http://purl.org/dc/dcmitype/StillImage" /><dc:title></dc:title></cc:Work></rdf:RDF></metadata><defs
     id="defs3750" /><sodipodi:namedview
     pagecolor="#ffffff"
     bordercolor="#666666"
     borderopacity="1"
     objecttolerance="10"
     gridtolerance="10"
     guidetolerance="10"
     inkscape:pageopacity="0"
     inkscape:pageshadow="2"
     inkscape:window-width="1920"
     inkscape:window-height="1027"
     id="namedview3748"
     showgrid="false"
     inkscape:zoom="1.9940411"
     inkscape:cx="32.789035"
     inkscape:cy="58.372313"
     inkscape:window-x="-8"
     inkscape:window-y="64"
     inkscape:window-maximized="1"
     inkscape:current-layer="svg3746"
     fit-margin-top="0"
     fit-margin-left="0"
     fit-margin-right="0"
     fit-margin-bottom="0"
     inkscape:document-units="mm"
     units="mm" /><path
     inkscape:connector-curvature="0"
     id="path3772"
     d="M 3e-5,59.233991 V -9.0751107e-6 h 54.12766 54.12766 V 59.233991 118.46808 H 54.12769 3e-5 Z"
     style="fill:#bb9585;stroke-width:1.02127659" /><path
     inkscape:connector-curvature="0"
     id="path3770"
     d="M 2e-5,59.233991 V -9.0751107e-6 h 54.12766 54.12766 V 59.233991 118.46808 H 54.12768 2e-5 Z m 37.77192,-9.2201 c -1.18244,-2.2094 -3.04852,-1.8424 -3.04852,0.5996 0,0.8094 0.93532,1.4716 2.07849,1.4716 1.77158,0 1.91481,-0.3058 0.97003,-2.0712 z m 28.72668,-16.5671 c 1.70918,-4.0969 1.38807,-5.8784 -1.46866,-8.1475 -2.71548,-2.157 -5.38579,-2.3092 -6.13763,-0.3499 -0.30814,0.803 -2.46679,1.837 -4.797,2.2978 -5.21978,1.0323 -5.33708,2.2937 -0.37201,4.0006 2.0862,0.7172 4.74127,2.2522 5.90015,3.4111 3.01526,3.0153 5.27798,2.6163 6.87515,-1.2121 z"
     style="fill:#ae8576;stroke-width:1.02127659" /><path
     inkscape:connector-curvature="0"
     id="path3768"
     d="M 2e-5,59.233991 V -9.0751107e-6 h 54.12766 54.12766 V 59.233991 118.46808 H 54.12768 2e-5 Z m 87.73084,9.7022 -0.0677,-3.0639 -1.47434,3.3751 c -0.81089,1.8562 -1.17552,3.8585 -0.81031,4.4494 1.01801,1.6472 2.4307,-1.2118 2.35232,-4.7606 z m -53.28403,0.9149 c -0.33936,-0.3394 -1.22021,-0.3757 -1.95745,-0.081 -0.8147,0.326 -0.57271,0.568 0.61702,0.617 1.0766,0.044 1.67979,-0.1971 1.34043,-0.5364 z m 23.25532,-13.2671 c 1.1234,-0.2896 4.07241,-0.8461 6.55334,-1.2366 2.48094,-0.3905 4.68444,-1.231 4.89666,-1.8676 0.57655,-1.7297 -2.80233,-4.6643 -4.58341,-3.9809 -0.85299,0.3274 -4.9299,0.8808 -9.0598,1.2299 -7.94223,0.6714 -8.65139,1.3133 -5.85755,5.302 1.19423,1.705 2.25443,2.1808 3.82979,1.7187 1.19813,-0.3515 3.09756,-0.876 4.22097,-1.1655 z m -14.80851,-1.31 c 0,-0.493 -0.68936,-1.4684 -1.53192,-2.1676 -0.84255,-0.6993 -1.53191,-2.0834 -1.53191,-3.0758 0,-0.9924 -0.82384,-2.8217 -1.83076,-4.0652 l -1.83076,-2.2609 -2.86232,4.1303 c -2.99721,4.325 -2.80886,6.7994 0.43909,5.7686 1.05247,-0.3341 3.19677,0.088 4.76512,0.9388 3.31619,1.7982 4.38346,1.9763 4.38346,0.7318 z m 26.79537,-13.4816 c -1.07902,-2.7469 -1.27868,-4.3986 -0.58641,-4.851 0.57731,-0.3774 1.31846,-2.39 1.64699,-4.4726 0.53347,-3.3817 0.22245,-4.1157 -2.90906,-6.8652 -3.3986,-2.984 -3.7702,-3.0676 -12.08659,-2.717 -4.7191,0.1989 -9.08364,0.6728 -9.69897,1.0531 -0.61533,0.3803 -1.11878,0.1415 -1.11878,-0.5307 0,-1.7827 -11.17743,-0.2875 -13.48893,1.8044 -2.41732,2.1877 -2.30862,3.2712 0.42982,4.2842 l 2.26003,0.836 -2.26003,1.2096 c -1.24302,0.6652 -2.26004,1.8291 -2.26004,2.5864 0,1.6824 3.36222,2.693 5.19362,1.5612 0.73404,-0.4537 2.19302,-0.3655 3.24217,0.196 1.30613,0.699 2.33709,0.6644 3.26998,-0.1098 0.74933,-0.6219 2.36938,-1.3247 3.6001,-1.5617 1.75513,-0.338 1.9974,-0.1414 1.12349,0.9116 -0.89616,1.0798 0.28976,1.4602 6.06081,1.944 9.81429,0.8228 13.97465,2.4682 15.21146,6.0161 0.55035,1.5787 1.67693,2.8704 2.50351,2.8704 1.30123,0 1.28336,-0.5588 -0.13317,-4.165 z"
     style="fill:#677682;stroke-width:1.02127659" /><path
     inkscape:connector-curvature="0"
     id="path3766"
     d="M 1e-5,59.233991 V -9.0751107e-6 H 29.03227 58.06453 L 60.13909,2.6373909 c 1.14101,1.4505 2.66798,2.7598 3.39327,2.9095 0.72529,0.1497 2.00808,0.5323 2.85063,0.8501 0.84255,0.3178 3.27155,0.8205 5.39777,1.1171 7.52627,1.0501 14.50063,5.1529001 19.25644,11.3281001 7.32909,9.5165 11.09047,15.2545 11.09047,16.9185 0,0.8642 1.37872,3.0808 3.06383,4.9258 l 3.06383,3.3544 v 37.2136 37.213589 H 54.12767 1e-5 Z m 87.73084,9.7022 -0.0677,-3.0639 -1.47434,3.3751 c -0.81089,1.8562 -1.17552,3.8585 -0.81031,4.4494 1.01801,1.6472 2.4307,-1.2118 2.35232,-4.7606 z m -53.28403,0.9149 c -0.33936,-0.3394 -1.22021,-0.3757 -1.95745,-0.081 -0.8147,0.326 -0.57271,0.568 0.61702,0.617 1.0766,0.044 1.67979,-0.1971 1.34043,-0.5364 z m 23.25532,-13.2671 c 1.1234,-0.2896 4.07241,-0.8461 6.55334,-1.2366 2.48094,-0.3905 4.68444,-1.231 4.89666,-1.8676 0.57655,-1.7297 -2.80233,-4.6643 -4.58341,-3.9809 -0.85299,0.3274 -4.9299,0.8808 -9.0598,1.2299 -7.94223,0.6714 -8.65139,1.3133 -5.85755,5.302 1.19423,1.705 2.25443,2.1808 3.82979,1.7187 1.19813,-0.3515 3.09756,-0.876 4.22097,-1.1655 z m -14.80851,-1.31 c 0,-0.493 -0.68936,-1.4684 -1.53192,-2.1676 -0.84255,-0.6993 -1.53191,-2.0834 -1.53191,-3.0758 0,-0.9924 -0.82384,-2.8217 -1.83076,-4.0652 l -1.83076,-2.2609 -2.86232,4.1303 c -2.99721,4.325 -2.80886,6.7994 0.43909,5.7686 1.05247,-0.3341 3.19677,0.088 4.76512,0.9388 3.31619,1.7982 4.38346,1.9763 4.38346,0.7318 z M 69.689,41.792391 c -1.07902,-2.7469 -1.27868,-4.3986 -0.58641,-4.851 0.57731,-0.3774 1.31846,-2.39 1.64699,-4.4726 0.53347,-3.3817 0.22245,-4.1157 -2.90906,-6.8652 -3.3986,-2.984 -3.7702,-3.0676 -12.08659,-2.717 -4.7191,0.1989 -9.08364,0.6728 -9.69897,1.0531 -0.61533,0.3803 -1.11878,0.1415 -1.11878,-0.5307 0,-1.7827 -11.17743,-0.2875 -13.48893,1.8044 -2.41732,2.1877 -2.30862,3.2712 0.42982,4.2842 l 2.26003,0.836 -2.26003,1.2096 c -1.24302,0.6652 -2.26004,1.8291 -2.26004,2.5864 0,1.6824 3.36222,2.693 5.19362,1.5612 0.73404,-0.4537 2.19302,-0.3655 3.24217,0.196 1.30613,0.699 2.33709,0.6644 3.26998,-0.1098 0.74933,-0.6219 2.36938,-1.3247 3.6001,-1.5617 1.75513,-0.338 1.9974,-0.1414 1.12349,0.9116 -0.89616,1.0798 0.28976,1.4602 6.06081,1.944 9.81429,0.8228 13.97465,2.4682 15.21146,6.0161 0.55035,1.5787 1.67693,2.8704 2.50351,2.8704 1.30123,0 1.28336,-0.5588 -0.13317,-4.165 z m 23.284,-13.5957 c -1.29172,-3.914 -5.53633,-7.094 -11.01554,-8.2528 -1.82553,-0.3861 -3.31915,-0.4751 -3.31915,-0.1978 0,0.2773 2.21942,1.8698 4.93205,3.5389 2.71263,1.6691 6.04455,4.4054 7.40426,6.0807 3.05131,3.7595 3.53211,3.4782 1.99838,-1.169 z m -9.22831,-12.3922 c 0,-0.6942 -4.67046,-2.5431 -9.07987,-3.5945 -3.14934,-0.7509 -3.31743,-0.6803 -1.85659,0.7806 0.88345,0.8834 3.36088,1.9457 5.50541,2.3606 5.43615,1.0517 5.43105,1.0512 5.43105,0.4533 z"
     style="fill:#936b5f;stroke-width:1.02127659" /><path
     inkscape:connector-curvature="0"
     id="path3764"
     d="M 1e-5,59.233991 V -9.0751107e-6 H 29.03227 58.06453 L 60.13909,2.6373909 c 1.14101,1.4505 2.66798,2.7598 3.39327,2.9095 0.72529,0.1497 2.00808,0.5323 2.85063,0.8501 0.84255,0.3178 3.27155,0.8205 5.39777,1.1171 7.52627,1.0501 14.50063,5.1529001 19.25644,11.3281001 7.32909,9.5165 11.09047,15.2545 11.09047,16.9185 0,0.8642 1.37872,3.0808 3.06383,4.9258 l 3.06383,3.3544 v 37.2136 37.213589 H 88.9199 c -18.43849,0 -19.36551,-0.095 -19.98372,-2.04259 -0.35655,-1.1234 -1.11991,-2.0425 -1.69635,-2.0425 -0.57643,0 -1.28843,0.9191 -1.5822,2.0425 -0.50288,1.92299 -1.39304,2.04259 -15.20984,2.04259 H 35.7721 l -1.75625,-3.82979 -1.75625,-3.8298 -0.36166,3.8298 -0.36166,3.82979 H 15.76815 1e-5 Z m 36.46258,32.4463 c 4.68377,-2.059 6.29243,-5.5451 1.76442,-3.8236 -3.05612,1.162 -7.34015,0.3585 -9.88657,-1.8543 -2.6454,-2.2987 -2.18747,-3.279 1.53191,-3.2792 1.82553,-2e-4 5.84681,-1.3607 8.93617,-3.0233 7.31267,-3.9357 10.28314,-3.9684 12.54576,-0.1381 0.96366,1.6314 1.75211,3.7214 1.75211,4.6445 0,1.4102 1.01848,1.6298 6.37364,1.3743 5.81204,-0.2772 6.49186,-0.5515 7.7153,-3.1125 0.73792,-1.5447 1.7546,-2.8085 2.2593,-2.8085 1.18916,0 3.56489,-5.4045 4.93835,-11.2341 1.98131,-8.4096 2.29324,-13.9366 1.07192,-18.9932 -0.66511,-2.7537 -1.3436,-8.5454 -1.50776,-12.8704 -0.16415,-4.325 -0.82599,-8.8493 -1.47076,-10.0541 -1.94763,-3.6391 -11.72775,-7.4943 -20.16757,-7.9496 -10.8491,-0.5854 -16.06681,0.463 -20.15081,4.0488 -3.3557,2.9464 -8.85329,12.9834 -10.32656,18.8533 l -0.70674,2.8159 3.12223,-2.2232 c 1.71722,-1.2228 4.54489,-2.2232 6.28371,-2.2232 2.60718,0 3.15591,0.4029 3.12962,2.2978 -0.061,4.3978 -4.69114,10.3534 -9.3441,12.0191 -3.78379,1.3546 -4.49417,2.1095 -5.60931,5.9611 -0.92827,3.2061 -1.01733,6.4072 -0.32625,11.7256 0.52283,4.0235 0.96479,7.748 0.98213,8.2767 0.0173,0.5286 0.61813,0.1589 1.33507,-0.8216 0.81687,-1.1171 1.96074,-1.5305 3.06383,-1.1072 2.02846,0.7784 2.27926,2.5933 0.59158,4.281 -0.87743,0.8775 -0.83757,1.9682 0.15993,4.3764 2.537,6.1248 5.90963,7.4925 11.93945,4.8416 z m -8.63279,-11.629 c -0.70213,-0.3091 -1.2766,-1.2274 -1.2766,-2.0408 0,-0.8134 -0.68936,-1.7434 -1.53191,-2.0667 -1.7172,-0.659 -2.08845,-5.0112 -0.51064,-5.9864 0.5617,-0.3471 1.02127,-1.7258 1.02127,-3.0638 0,-1.338 0.4523,-2.7122 1.00511,-3.0538 0.55281,-0.3417 1.38851,-2.0922 1.85713,-3.8901 0.57754,-2.2158 1.48752,-3.2891 2.82468,-3.3318 1.08496,-0.035 2.78517,-0.4317 3.77824,-0.8823 1.066,-0.4837 3.15759,-0.2552 5.10638,0.5578 1.81544,0.7574 3.87527,1.2492 4.5774,1.0928 0.70213,-0.1563 1.2766,0.1683 1.2766,0.7215 0,1.534 -1.94222,2.449 -9.19149,4.3302 -6.08715,1.5797 -6.31137,1.7302 -2.70062,1.8126 2.62762,0.06 4.95912,0.9494 7.00788,2.6733 2.34683,1.9747 3.39368,2.315 4.44312,1.444 0.7551,-0.6267 1.85262,-0.8429 2.43892,-0.4806 1.61306,0.997 1.2761,3.6021 -0.4659,3.6021 -0.84255,0 -1.53191,0.4695 -1.53191,1.0432 0,0.5738 -1.26383,1.5806 -2.80851,2.2375 -1.54468,0.6568 -3.77666,2.0439 -4.95994,3.0824 -2.21539,1.9442 -8.10009,3.1933 -10.35921,2.1989 z m 9.8729,-10.2126 c 0.90462,-0.2868 1.08692,-0.8193 0.48616,-1.4201 -1.22402,-1.224 -6.76676,0.2087 -7.32864,1.8944 -0.39889,1.1966 2.12269,1.0218 6.84248,-0.4743 z m 8.78363,-21.0622 c -3.8561,-1.3988 -5.12204,-2.6778 -5.96166,-6.0231 -0.59682,-2.3779 -0.31981,-2.7433 2.5086,-3.309 4.47441,-0.8949 7.17463,-0.7979 13.08668,0.47 5.89142,1.2635 6.8507,2.9792 1.66571,2.9792 -1.92001,0 -4.21524,0.2779 -5.10051,0.6177 -3.0753,1.1801 -0.44745,2.4461 5.07726,2.4461 7.21504,0 7.80536,2.478 0.81846,3.4357 -6.14774,0.8426 -8.38647,0.7285 -12.09454,-0.6166 z m 37.25836,37.0107 c 1.23877,-0.8005 1.09219,-0.993 -0.76596,-1.0056 -1.26383,-0.01 -2.29787,0.4439 -2.29787,1.0056 0,1.2796 1.08382,1.2796 3.06383,0 z m 4.08413,-13.272 c 1.32698,-6.253 0.91571,-8.4768 -1.18013,-6.3809 -1.30442,1.3044 -3.11377,11.3383 -2.28606,12.6776 1.08456,1.7548 2.17975,-0.2347 3.46619,-6.2967 z m 7.14991,-18.5081 c 0,-0.5617 -0.45957,-0.7372 -1.02127,-0.3901 -0.5617,0.3472 -1.02128,1.0908 -1.02128,1.6525 0,0.5617 0.45958,0.7372 1.02128,0.3901 0.5617,-0.3472 1.02127,-1.0908 1.02127,-1.6525 z m -69.44681,-6.0071 c 0,-0.5617 -0.43245,-1.0213 -0.961,-1.0213 -0.52855,0 -1.24504,0.4596 -1.59219,1.0213 -0.34715,0.5617 0.0853,1.0213 0.96101,1.0213 0.8757,0 1.59218,-0.4596 1.59218,-1.0213 z M 92.973,28.196691 c -1.29172,-3.914 -5.53633,-7.094 -11.01554,-8.2528 -1.82553,-0.3861 -3.31915,-0.4751 -3.31915,-0.1978 0,0.2773 2.21942,1.8698 4.93205,3.5389 2.71263,1.6691 6.04455,4.4054 7.40426,6.0807 3.05131,3.7595 3.53211,3.4782 1.99838,-1.169 z m -9.22831,-12.3922 c 0,-0.2948 -1.26383,-1.0383 -2.80851,-1.6524 -4.43363,-1.7625 -9.44681,-2.7777 -9.44681,-1.9131 0,0.9244 4.50938,2.8033 8.17021,3.4042 1.40426,0.2305 2.89788,0.4816 3.31915,0.5581 0.42128,0.077 0.76596,-0.1021 0.76596,-0.3968 z"
     style="fill:#695653;stroke-width:1.02127659" /><path
     inkscape:connector-curvature="0"
     id="path3762"
     d="M 4e-5,59.277991 V 0.04399092 H 12.766 c 12.03857,0 12.76595,0.1151 12.76595,2.02039998 0,1.7045 0.67877,2.0122 4.34043,1.9674 2.38723,-0.029 5.60075,0.1469 7.14115,0.3914 1.61413,0.2562 3.28969,-0.1446 3.95484,-0.946 0.63476,-0.7649 2.30037,-1.3907 3.70136,-1.3907 2.04445,0 2.44182,0.4032 2.01312,2.0426 -0.61779,2.3624 0.81001,2.7947 1.68651,0.5106 0.62319,-1.624 3.31233,-2.1051 3.886,-0.6953 0.6865,1.6872 10.74878,4.3285 17.70213,4.6468 7.68704,0.3519 13.63737,2.7039001 17.52626,6.9279001 4.67248,5.075 10.66202,13.8051 13.79796,20.1114 1.79993,3.6196 4.10308,6.7947 5.12209,7.0611 1.74567,0.4565 1.85156,2.6383 1.85156,38.1524 V 118.51208 H 93.44685 c -12.48227,0 -14.80851,-0.2407 -14.80851,-1.5319 0,-0.84259 -0.45958,-1.53199 -1.02128,-1.53199 -0.5617,0 -1.02128,-2.4713 -1.02128,-5.4919 0,-9.3776 -4.03679,-10.040299 -11.99385,-1.969 -3.70211,3.7553 -5.26607,4.6135 -9.05454,4.9686 -2.51871,0.2361 -5.4177,0.8779 -6.44221,1.4262 -1.0245,0.5483 -4.10504,0.9733 -6.84564,0.9446 -4.29531,-0.045 -5.36666,-0.4984 -7.76394,-3.2846 l -2.78104,-3.2322 -0.0275,3.2357 c -0.0558,6.57099 0.21066,6.46649 -16.47716,6.46649 H 1e-5 Z m 35.48793,38.8161 c 2.3166,-1.1193 4.49813,-2.498 4.84784,-3.0639 0.34971,-0.5658 1.76903,-1.0288 3.15404,-1.0288 3.2007,0 4.75459,-3.7289 3.86696,-9.2798 -0.56336,-3.5231 -0.42395,-3.9503 1.0985,-3.3661 0.95906,0.3681 2.15675,1.7554 2.66152,3.0831 0.83926,2.2074 1.50958,2.4152 7.83666,2.4295 3.80539,0.01 7.56506,0.4248 8.35482,0.9247 2.32468,1.4718 5.12908,-5.1928 7.90684,-18.7904 2.11974,-10.3765 2.41135,-14.0064 1.9214,-23.9175 -0.31769,-6.4265 -1.06846,-12.276 -1.66839,-12.9988 -0.59992,-0.7229 -0.80038,-1.7842 -0.44546,-2.3585 1.06661,-1.7258 -3.58759,-7.0155 -7.57723,-8.6118 -2.05221,-0.8211 -4.34338,-2.2305 -5.0915,-3.1319 -0.97852,-1.1791 -2.29991,-1.4627 -4.70904,-1.0107 -1.84187,0.3455 -4.19099,0.1386 -5.22027,-0.4599 -1.66412,-0.9675 -1.68012,-1.0915 -0.14447,-1.1191 2.85865,-0.051 3.2252,-2.0736 0.37587,-2.0736 -1.98062,0 -2.61347,0.5234 -2.61347,2.1616 0,1.6614 -0.47438,2.0377 -2.04962,1.6257 -2.8158,-0.7363 -12.14162,1.5509 -15.61785,3.8304 -1.84392,1.2092 -4.43352,5.1753 -7.29391,11.1711 -4.93913,10.3531 -5.95035,13.6025 -4.51017,14.4926 0.60736,0.3753 0.61452,1.0496 0.019,1.7882 -1.1467,1.4222 -2.14788,7.6806 -2.86891,17.9334 -0.54165,7.7023 2.27748,22.8722 3.79439,20.4178 0.9167,-1.4833 1.62881,-0.2137 2.50758,4.4706 0.39553,2.1083 1.12661,4.0851 1.62463,4.3929 0.49803,0.3078 0.90551,1.4517 0.90551,2.5419 0,2.626099 3.43223,2.605799 8.93473,-0.053 z m -7.40728,-1.036 c -0.80095,-1.296 2.05807,-2.4647 3.63905,-1.4876 0.86049,0.5318 0.8047,0.9661 -0.20641,1.6068 -1.82576,1.1568 -2.66193,1.1278 -3.43264,-0.1192 z m 2.59225,-11.1839 c -1.19872,-0.7581 -0.93088,-1.1623 1.34308,-2.0269 1.56222,-0.5939 3.20807,-1.0799 3.65746,-1.0799 0.44938,0 2.03239,-0.956 3.51779,-2.1244 4.16915,-3.2795 5.11142,-1.8752 1.60011,2.3846 -3.21876,3.9049 -6.83612,4.9226 -10.11844,2.8466 z m -2.36524,-6.8318 c -1.34306,-2.1731 -1.8537,-8.4792 -0.83999,-10.3733 1.31628,-2.4595 8.29206,-3.9479 11.03196,-2.3539 1.55363,0.9039 1.31253,1.0758 -1.54549,1.102 -4.20821,0.039 -7.33712,1.6381 -7.33712,3.7507 0,1.1117 0.54946,1.3924 1.78724,0.9128 0.98297,-0.3808 3.89968,-0.9452 6.48156,-1.2542 3.73937,-0.4475 4.82404,-0.2238 5.33194,1.0998 1.19658,3.1182 -13.14935,9.965 -14.9101,7.1161 z m 0.77102,-18.4857 c 0.96279,-3.836 1.49191,-4.1496 3.15773,-1.8715 1.60115,2.1897 0.35408,4.6779 -2.34452,4.6779 -1.14529,0 -1.34478,-0.6884 -0.81321,-2.8064 z m 6.666,-0.1739 c 0,-0.5157 -0.27896,-1.6647 -0.6199,-2.5532 -0.46277,-1.2059 0.0233,-1.6154 1.9175,-1.6154 2.81081,0 5.37259,2.381 4.34707,4.0404 -0.81176,1.3134 -5.64467,1.4233 -5.64467,0.1282 z m -13.2766,-7.6723 c 0,-0.7452 1.37873,-1.926 3.06383,-2.624 1.92908,-0.799 3.06383,-2.0097 3.06383,-3.2688 0,-1.6907 -0.47358,-1.8958 -3.06383,-1.3269 -3.64725,0.8011 -3.82094,0.2743 -0.8287,-2.5134 2.53973,-2.3661 5.18811,-2.681 6.74732,-0.8023 1.78939,2.1561 -2.23771,9.5391 -5.89943,10.8155 -2.42065,0.8439 -3.08302,0.7837 -3.08302,-0.2801 z m 23.99168,-5.4552 c -1.12798,-0.9705 -2.04712,-2.9134 -2.04255,-4.3177 0.007,-2.0503 0.58586,-2.6192 2.94023,-2.8883 1.61255,-0.1842 4.11624,-0.038 5.56376,0.3255 2.07653,0.5212 2.31985,0.858 1.15319,1.5961 -0.81325,0.5145 -2.51269,0.9425 -3.77652,0.9511 -1.26383,0.01 -2.29787,0.4442 -2.29787,0.9681 0,1.3556 4.01537,2.4903 7.95616,2.2482 4.24063,-0.2605 6.45879,0.9378 3.72073,2.0101 -3.70582,1.4512 -11.07083,0.9535 -13.21713,-0.8931 z m -31.60523,36.9949 c -0.38309,-2.5546 -1.33643,-6.1163 -2.11853,-7.9149 l -1.42201,-3.27 -0.04,4.3732 c -0.0388,4.2455 2.22608,11.4566 3.59834,11.4566 0.37329,0 0.36527,-2.0902 -0.0178,-4.6449 z m 68.29599,3.0037 c 1.98305,-0.761 2.15625,-4.4865 0.20857,-4.4865 -1.88494,0 -4.04032,2.7074 -3.21653,4.0404 0.7699,1.2457 0.8812,1.2622 3.00796,0.4461 z m 3.65146,-8.8269 c 0.53403,-1.2639 1.69957,-5.9745 2.59008,-10.4681 1.14261,-5.7657 2.35324,-8.9381 4.11353,-10.7793 2.5336,-2.6501 3.26843,-5.0505 1.54608,-5.0505 -4.35528,0 -13.65805,21.8995 -11.59099,27.2862 0.76926,2.0046 2.26338,1.5627 3.3413,-0.9883 z m 7.67902,-44.6223 c -0.38959,-6.9046 -2.2916,-9.9519 -7.98146,-12.7872 -2.85915,-1.4248 -6.59166,-2.5905 -8.29446,-2.5905 h -3.096 l 3.82847,3.1557 c 2.10565,1.7357 4.52004,4.4931 5.3653,6.1277 0.84526,1.6345 2.00078,2.9719 2.56782,2.9719 0.68475,0 0.67594,-0.6634 -0.0262,-1.9754 -1.83051,-3.4204 -1.16146,-3.613 2.00662,-0.5778 1.68511,1.6144 3.06383,3.7309 3.06383,4.7033 0,2.3737 1.05899,4.9988 2.01655,4.9988 0.42721,0 0.67451,-1.8119 0.54955,-4.0265 z m -10.56273,-18.504 c -2.87248,-2.3288 -8.58837,-4.0215 -13.45018,-3.983 l -3.57447,0.028 2.41101,2.0086 c 1.32606,1.1047 3.85372,2.0435 5.61702,2.0862 1.76331,0.043 4.81452,0.671 6.78048,1.396 4.43487,1.6357 5.34784,1.0028 2.21614,-1.5361 z m -55.32253,-3.0014 c 0,-0.5617 -0.71648,-1.0213 -1.59218,-1.0213 -0.87571,0 -1.30816,0.4596 -0.96101,1.0213 0.34715,0.5617 1.06364,1.0213 1.59219,1.0213 0.52855,0 0.961,-0.4596 0.961,-1.0213 z m 8.9149,-3.6808001 c -0.33936,-0.3394 -1.22021,-0.3757 -1.95745,-0.081 -0.8147,0.326 -0.57271,0.568 0.61702,0.617 1.0766,0.044 1.67979,-0.1971 1.34043,-0.5364 z"
     style="fill:#5d443b;stroke-width:1.02127659" /><path
     inkscape:connector-curvature="0"
     id="path3760"
     d="M 1e-5,59.233991 V -9.0751107e-6 H 12.18749 24.37498 L 24.69813,2.8084909 c 0.29582,2.5709 0.64717,2.7832 4.15294,2.509 2.16966,-0.1697 3.82979,0.1623 3.82979,0.7659 0,0.5861 -0.64634,1.0655 -1.4363,1.0655 -0.9335,0 -1.24932,0.7151 -0.90217,2.0426 0.60124,2.2991001 -0.69604,2.6846001 -2.60618,0.7745 -1.79013,-1.7902 -3.44836,0.9860001 -2.09709,3.5109001 1.39905,2.6141 10.89062,2.6582 11.84876,0.055 1.13223,-3.0762 5.19179,-6.2477001 7.29362,-5.6981001 1.08169,0.2829 2.27549,0.015 2.65288,-0.5959 1.06653,-1.7257 7.77935,-1.2679 12.43963,0.8484 6.43507,2.9221001 6.06314,3.7772001 -1.6159,3.7149001 -5.24993,-0.043 -7.46403,0.3827 -8.93863,1.7167 -1.34324,1.2152 -2.29077,1.4427 -3.01074,0.7227 -0.71997,-0.72 -1.46204,-0.5549 -2.35791,0.5246 -0.71902,0.8663 -2.42279,1.5752 -3.78616,1.5752 -5.799,0 -11.03718,4.9709 -15.57072,14.7763 -4.00495,8.6621 -4.38758,9.958 -6.04038,20.4577 -2.8184,17.9044 -1.52287,29.5198 4.88562,43.8031 3.20569,7.144899 5.99612,9.033699 10.10068,6.836999 1.1388,-0.6095 2.94958,-1.1082 4.02397,-1.1082 1.07438,0 2.99748,-0.9055 4.27355,-2.012199 1.27607,-1.1067 3.18469,-2.2866 4.24137,-2.622 1.12803,-0.358 1.92125,-1.5549 1.92125,-2.899 0,-4.8022 2.30624,-6.2408 10.01571,-6.2477 5.3587,0 7.61626,0.4369 9.10355,1.7809 1.08776,0.983 2.41417,1.7873 2.94757,1.7873 1.27358,0 4.13623,-10.1596 5.00337,-17.757 0.37742,-3.3068 1.37657,-8.1323 2.22033,-10.7234 0.84377,-2.5911 1.88838,-8.1579 2.32136,-12.3707 0.43298,-4.2128 1.38689,-9.0894 2.1198,-10.837 1.19488,-2.8492 1.10391,-3.4986 -0.88041,-6.2854 -1.21714,-1.7093 -2.21298,-4.0709 -2.21298,-5.248 0,-1.4129 -0.65169,-2.1402 -1.91751,-2.1402 -1.05462,0 -2.51749,-0.723 -3.25082,-1.6066 -0.73333,-0.8836 -3.10655,-2.5112 -5.27381,-3.6168 -2.16727,-1.1057 -4.85099,-2.9208 -5.96383,-4.0337 -2.98126,-2.9812 -0.18994,-3.651 6.32939,-1.5186 2.8706,0.9389 5.84154,1.4683 6.60211,1.1765 0.76057,-0.2919 3.55543,0.1232 6.21079,0.9223 5.14774,1.5493 5.7314,1.542 4.6124,-0.057 -1.53454,-2.193 -6.15662,-4.3552 -11.97545,-5.602 -8.11542,-1.7389001 -9.89591,-3.5002001 -2.6131,-2.5849001 12.1823,1.5310001 20.24186,8.7782001 28.93324,26.0168001 2.43192,4.8235 5.11612,8.7912 6.12605,9.0553 1.67434,0.4378 1.79756,3.0171 1.79756,37.6275 V 118.46828 H 93.41089 c -14.7258,0 -14.83535,-0.017 -13.70578,-2.12759 0.84063,-1.5708 0.82984,-3.5088 -0.0412,-7.4043 -1.49753,-6.6974 -3.08791,-10.893699 -4.12868,-10.893699 -2.89886,0 -10.40397,4.540299 -13.51712,8.177299 -3.37784,3.9463 -4.02489,4.2733 -7.57903,3.8307 -2.13724,-0.2661 -5.4944,0.101 -7.46036,0.816 -7.25828,2.6394 -8.86806,2.6355 -12.03542,-0.03 -1.65014,-1.3885 -3.29382,-2.231 -3.65263,-1.8722 -0.35881,0.3588 -0.65237,2.6438 -0.65237,5.0779 v 4.42549 H 15.31915 0 Z m 14.60456,21.9575 c -2.02701,-9.1774 -3.37052,-10.6434 -3.37052,-3.6778 0,5.5288 2.71198,13.141 4.15131,11.6523 0.439,-0.4541 0.0876,-4.0426 -0.78079,-7.9745 z m 71.04396,3.3191 c 1.19937,-3.8242 3.7793,-14.9419 4.67725,-20.1557 0.33722,-1.958 1.98167,-5.263 3.65432,-7.3444 3.67476,-4.5727 3.92086,-6.354 0.74331,-5.3799 -1.26383,0.3875 -2.8426,1.1394 -3.50839,1.671 -2.36117,1.8852 -7.29308,15.7344 -7.99898,22.4618 -0.45673,4.3528 -1.23105,7.0248 -2.13641,7.3722 -0.78103,0.2997 -1.42005,1.4785 -1.42005,2.6196 0,1.5143 0.66811,2.0746 2.47399,2.0746 1.89679,0 2.71686,-0.7744 3.51496,-3.3192 z m 8.95213,-51.2007 c -0.62838,-6.7266 -2.63561,-9.9291 -7.79214,-12.4322 -4.99823,-2.4263 -12.25532,-3.9149 -12.25532,-2.5138 0,0.4806 1.5303,1.8195 3.40065,2.9755 1.87036,1.1559 4.26659,3.7096 5.32496,5.6749 2.48813,4.6202 4.8097,5.6762 3.97801,1.8095 l -0.59824,-2.7813 2.64276,2.8825 c 1.45351,1.5853 2.38514,3.2992 2.07029,3.8086 -0.7252,1.1734 1.30325,5.0536 2.64186,5.0536 0.57045,0 0.82448,-1.9371 0.58717,-4.4773 z m -67.02618,-14.4163 c 0,-0.8426 -0.45958,-1.5319 -1.02128,-1.5319 -0.5617,0 -1.02128,0.6893 -1.02128,1.5319 0,0.8426 0.45958,1.5319 1.02128,1.5319 0.5617,0 1.02128,-0.6893 1.02128,-1.5319 z m 1.02127,56.8218 c 0,-2.7323 0.37354,-2.9978 5.73241,-4.074 6.10327,-1.2257 7.54419,-0.9411 7.54419,1.4901 0,1.7167 -7.47367,5.4501 -10.97872,5.4844 -1.85294,0.018 -2.29788,-0.5436 -2.29788,-2.9005 z m 8.11704,-17.0561 c -1.21319,-1.4618 -1.1028,-1.621 0.90845,-1.3106 1.25921,0.1944 2.30573,0.8015 2.32561,1.3492 0.0624,1.7189 -1.79386,1.6967 -3.23406,-0.039 z m -11.37235,-7.2719 c 0.73723,-0.295 1.61808,-0.2587 1.95744,0.081 0.33936,0.3394 -0.26383,0.5808 -1.34042,0.5364 -1.18973,-0.049 -1.43173,-0.291 -0.61702,-0.617 z m 23.68085,-3.3874 c 0,-1.2796 1.08382,-1.2796 3.06383,0 1.23876,0.8005 1.09219,0.993 -0.76596,1.0056 -1.26383,0.01 -2.29787,-0.4439 -2.29787,-1.0056 z"
     style="fill:#4b3732;stroke-width:1.02127659" /><path
     inkscape:connector-curvature="0"
     id="path3758"
     d="M 3e-5,59.233991 V -9.0751107e-6 H 11.66085 23.32168 L 23.27118,5.6169909 c -0.0364,4.0475 -0.44099,5.6170001 -1.44806,5.6170001 -1.66932,0 -1.85024,1.6423 -0.28734,2.6082 0.61064,0.3774 0.89121,1.5238 0.6235,2.5475 -0.27925,1.0679 0.16336,2.1108 1.03827,2.4466 1.0007,0.384 1.26614,1.1967 0.77206,2.3638 -0.41413,0.9782 -0.7131,2.6766 -0.66438,3.7741 0.0487,1.0975 -0.42318,2.6121 -1.04865,3.3657 -0.62547,0.7537 -1.0773,2.9641 -1.00407,4.9121 0.0732,1.948 -0.37214,4.7994 -0.98972,6.3364 -1.68782,4.2006 -4.26608,22.4513 -4.07378,28.8371 0.40448,13.4328 5.89006,31.231 11.01165,35.727799 3.17127,2.7844 3.28385,3.1409 2.71942,8.6097 l -0.58881,5.70509 H 14.66563 0 Z m 16.35249,26.487 c -1.09603,-4.7381 -2.27778,-10.4471 -2.6261,-12.6868 -0.59121,-3.8016 -0.72902,-3.9414 -2.07347,-2.1027 -1.67597,2.292 -1.86556,7.7689 -0.4409,12.7364 1.04187,3.6328 5.99566,11.8053 6.71798,11.0829 0.22841,-0.2284 -0.48147,-4.2918 -1.57751,-9.0298 z m 64.70137,24.723699 c -0.17965,-10.2072 -2.15684,-15.042999 -6.68387,-16.347299 -2.46759,-0.7109 -2.78182,-1.0021 -1.15367,-1.0691 2.30488,-0.095 4.47177,-2.1347 2.26768,-2.1347 -0.92203,0 -1.06236,-2.3785 -0.55738,-9.4468 0.76915,-10.7661 2.47877,-18.0192 5.89627,-25.0152 1.30497,-2.6714 2.25057,-5.2494 2.10134,-5.7289 -0.14923,-0.4794 0.02,-1.7895 0.37601,-2.9113 0.47103,-1.4841 0.9535,-1.7334 1.77142,-0.9155 1.8047,1.8047 2.75813,1.3107 2.75813,-1.4291 0,-1.735 0.57277,-2.5665 1.78723,-2.5947 1.35305,-0.031 0.98088,-0.7318 -1.53191,-2.8829 -1.82554,-1.5627 -3.31915,-3.585 -3.31915,-4.494 0,-0.9089 -0.41198,-1.9072 -0.91551,-2.2184 -1.09232,-0.675 -5.45221,-8.8465 -4.9748,-9.324 0.65709,-0.657 2.3836,1.1635 5.1484,5.4289 1.54739,2.3872 3.61118,4.3433 4.58618,4.3469 0.97501,0 2.55563,1.3822 3.51248,3.0638 2.25786,3.9679 4.81799,4.124 4.08168,0.2489 -0.47908,-2.5214 -0.36018,-2.6652 1.1629,-1.4069 1.43796,1.188 1.69883,1.188 1.7116,0 0.0151,-1.4087 2.03249,1.6391 4.03849,6.1014 0.59259,1.3182 1.99104,2.6357 3.10768,2.9277 1.97863,0.5174 2.03026,1.4639 2.03026,37.2218 v 36.690889 l -13.53192,-0.1462 -13.53191,-0.1461 z M 84.5019,89.070991 c 1.25901,-0.8056 2.03839,-1.8703 1.73196,-2.3661 -0.30643,-0.4958 -0.0867,-1.7094 0.48835,-2.6968 0.89683,-1.5401 1.04991,-1.396 1.07655,1.0132 0.037,3.3469 1.59529,3.7266 2.41587,0.5887 0.67358,-2.5758 0.0743,-3.9079 -1.75813,-3.9079 -1.03431,0 -1.01174,-1.2862 0.11198,-6.383 2.80512,-12.7228 4.3172,-16.6272 7.9176,-20.4443 l 3.59459,-3.811 h -3.50575 c -4.77589,0 -8.7451,1.6489 -8.7451,3.633 0,0.9025 -1.11953,4.9352 -2.48783,8.9614 -1.36831,4.0263 -2.80501,9.6184 -3.19266,12.4269 -0.38766,2.8085 -1.19661,5.7217 -1.79767,6.4738 -0.60106,0.752 -1.18291,3.1313 -1.29299,5.2874 -0.2158,4.2267 0.49979,4.3877 5.44323,1.2247 z m 12.09905,-46.9382 c -1.11565,-1.1156 -1.88066,0.6586 -1.07967,2.504 0.7595,1.7498 0.81455,1.7482 1.23772,-0.036 0.24357,-1.027 0.17245,-2.1376 -0.15805,-2.4681 z m -37.7362,59.484199 c -0.32332,-0.8425 -0.1427,-1.5319 0.40138,-1.5319 0.54407,0 0.98922,0.6894 0.98922,1.5319 0,0.8426 -0.18062,1.5319 -0.40137,1.5319 -0.22076,0 -0.66591,-0.6893 -0.98923,-1.5319 z m -6.49374,-3.594999 c -2.77004,-1.1146 -4.0805,-5.5279 -2.28413,-7.6924 0.99613,-1.2003 3.07265,-1.4908 9.02878,-1.2633 7.46341,0.285 7.7707,0.3969 8.74807,3.1847 0.87825,2.5051 0.67738,3.1471 -1.51048,4.8283 -2.71336,2.085 -9.93358,2.5718 -13.98224,0.9427 z m -22.75396,-21.7098 c 0,-1.71 5.82847,-4.8229 9.03024,-4.8229 3.57501,0 3.53086,2.0191 -0.0771,3.5266 -6.19378,2.5879 -8.95311,2.9874 -8.95311,1.2963 z m 65.09487,-47.6996 -1.79875,-4.5789 2.14316,2.1432 c 1.29569,1.2956 2.00697,3.1063 1.79875,4.5788 -0.29052,2.0547 -0.62585,1.7193 -2.14316,-2.1431 z m -5.62943,-7.0183 c -0.71529,-0.4445 -1.51122,-1.9023 -1.76874,-3.2395 l -0.46822,-2.4313 2.14463,2.1446 c 2.25808,2.2581 2.32767,4.9155 0.0923,3.5262 z m -23.72076,-4.2326 c 0,-1.1987 0.78498,-1.1987 3.57447,0 1.80996,0.7778 1.72274,0.8859 -0.76596,0.9495 -1.54468,0.039 -2.80851,-0.3878 -2.80851,-0.9495 z m 16.14894,0.3236 c 0.73723,-0.295 1.61808,-0.2587 1.95745,0.081 0.33936,0.3394 -0.26383,0.5808 -1.34043,0.5364 -1.18973,-0.049 -1.43173,-0.291 -0.61702,-0.617 z m -34.97104,-6.3356 c -0.68763,-1.1126 2.27389,-3.7277001 3.18721,-2.8144001 0.36089,0.3609 0.0708,0.6562 -0.64459,0.6562 -0.73664,0 -1.04581,0.6643 -0.7129,1.5319001 0.6261,1.6316 -0.8881,2.1499 -1.82972,0.6263 z M 58.73066,9.2031909 c -0.35779,-0.5789 0.0521,-0.7502 0.96101,-0.4014 1.76927,0.6789 2.09299,1.4110001 0.62395,1.4110001 -0.52855,0 -1.24178,-0.4544001 -1.58496,-1.0096001 z"
     style="fill:#272323;stroke-width:1.02127659" /></svg>