<svg xmlns="http://www.w3.org/2000/svg" width="127.63" height="127.63" viewBox="0 0 33.77 33.77"><path d="M5.66 29.2c-2.13-.52-3.43-1.25-4.53-2.53-1.16-1.36-1.4-2.32-.84-3.4a30.3 30.3 0 0 1 3.06-3.6A26.72 26.72 0 0 0 6 16.66c0-.13-.34-.52-.76-.87a2.5 2.5 0 0 1-.9-1.72l-.14-1.1 1.23-.16 1.23-.17-.1-1.3c-.07-1.14-.17-1.31-.85-1.55-.42-.15-.9-.56-1.07-.92-.22-.5-.6-.7-1.52-.88-.97-.17-1.24-.34-1.3-.79-.06-.37.08-.62.4-.7.25-.09 1.48-.45 2.72-.82 2.12-.63 2.33-.65 3.81-.3 1.5.35 1.59.34 2.04-.2.27-.32.48-.67.49-.78 0-.1 1.84-.2 4.09-.2h4.07l.65.77.65.77 1.54-.36c1.48-.34 1.66-.32 4.17.42 1.45.43 2.69.78 2.75.78.06 0 .08.27.03.59-.06.45-.35.64-1.35.86-.93.2-1.36.45-1.6.93-.17.37-.68.75-1.17.9-.81.23-.86.3-.86 1.5v1.25l1.2.18c1.16.17 1.18.2 1.18 1.17 0 .54-.14 1.13-.31 1.3-.49.49 1.1.4 3.75-.2 1.24-.3 2.58-.53 2.98-.53h.73v6.87h-1.83c-1.66 0-1.81.05-1.7.5.08.27 0 .58-.17.69-.21.13-.14.31.24.57.78.55.68 1.1-.29 1.63-.45.24-1.2.76-1.65 1.13-2.32 1.94-6.16 2.85-14.31 3.41-4.99.35-6.5.32-8.4-.14zm6.41-5.81c0-.22-.12-.4-.26-.4-.15 0-.27-.3-.27-.65 0-.35-.11-.71-.25-.8-.26-.16-2.4 1.67-2.4 2.04 0 .11.72.2 1.6.2 1.23 0 1.58-.09 1.58-.4zm8.07-1.72c.1-.15.05-.27-.1-.27-.14 0-.34.12-.43.27-.09.14-.04.26.1.26.15 0 .34-.12.43-.26zm-3.67-5.97c.36-.54.38-.8.14-1.34-.25-.54-.46-.65-1.16-.58-1.14.1-1.61 1.24-.87 2.06.66.72 1.36.67 1.89-.14z" fill="#fd9f9f"/><path d="M5.66 29.2c-2.13-.52-3.43-1.25-4.53-2.53-1.16-1.36-1.4-2.32-.84-3.4.23-.44 1.66-2.12 3.18-3.73l2.77-2.93-.92-.8c-.76-.67-.92-1-.92-1.84 0-.97.05-1.04.77-1.04 1.4 0 1.61-.21 1.61-1.59 0-1.2-.04-1.28-.8-1.45-.45-.1-1-.49-1.25-.88-.59-.92-.74-1.02-1.95-1.21-1.1-.18-1.38-.76-.56-1.16.25-.13 1.46-.51 2.68-.85 2.02-.57 2.35-.6 3.81-.3l1.6.34.63-.81.64-.82h7.77l.66.79.66.79 1.72-.3c1.6-.28 1.88-.25 4.23.48 2.85.88 3.43 1.52 1.67 1.83-1.32.24-1.64.43-2.02 1.19-.18.35-.7.74-1.18.88-.85.24-.87.28-.8 1.6l.09 1.34 1.12.08c1.1.08 1.12.1 1.12 1.08 0 .54-.14 1.13-.31 1.3-.49.49 1.1.4 3.75-.2 1.24-.3 2.58-.53 2.98-.53h.73v6.87h-1.83c-1.66 0-1.81.05-1.7.5.08.28 0 .59-.17.69-.21.13-.14.31.24.57.78.55.68 1.1-.29 1.63-.45.25-1.2.76-1.65 1.13-2.32 1.94-6.16 2.85-14.31 3.42-4.99.34-6.5.31-8.4-.15zm6.41-5.8c0-.2-.12-.45-.26-.54-.15-.1-.27-.4-.27-.67 0-.89-.5-.83-1.58.2a5.31 5.31 0 0 0-1.06 1.2c0 .1.71.2 1.58.2 1.21 0 1.6-.1 1.6-.39zm8.09-1.94c-.09-.09-.37.06-.62.32-.44.46-.43.46.16.16.34-.17.55-.39.46-.48zm-3.72-5.62c.39-.43.44-.69.24-1.26-.21-.6-.41-.72-1.17-.72-.75 0-.96.12-1.16.72-.2.57-.16.83.23 1.26.27.3.69.53.93.53.25 0 .67-.24.93-.53z" fill="#fcf702"/><path d="M5.66 29.2c-2.13-.52-3.43-1.25-4.53-2.53-1.16-1.36-1.4-2.32-.85-3.39.5-.95 6.13-7 6.63-7.12.2-.04.54.2.77.52.66.95.54-.02-.24-1.94a8.36 8.36 0 0 1-.66-3.15c0-1.48-.02-1.53-.8-1.7-.45-.1-1-.49-1.25-.88-.59-.92-.74-1.02-1.95-1.21-1.1-.18-1.38-.76-.56-1.16.25-.13 1.46-.51 2.68-.85 2.02-.57 2.35-.6 3.81-.3l1.6.34.63-.81.64-.82h7.77l.66.79.66.79 1.72-.3c1.6-.28 1.88-.25 4.23.48 2.85.88 3.43 1.52 1.67 1.83-1.32.24-1.64.43-2.02 1.19-.17.35-.7.74-1.17.88-.82.23-.86.3-.86 1.56 0 .74-.29 2.12-.66 3.15-.36 1.01-.66 2.21-.66 2.67v.83l1.16-1.13c1.04-1.03 1.32-1.16 2.97-1.37 1-.12 2.6-.4 3.54-.63.95-.23 2.05-.41 2.45-.41h.73v6.87h-1.83c-1.66 0-1.81.05-1.7.5.08.28 0 .59-.17.69-.21.13-.14.31.24.57.78.55.68 1.1-.29 1.63-.45.25-1.2.76-1.65 1.13-2.32 1.94-6.16 2.85-14.31 3.42-4.99.34-6.5.31-8.4-.15zm6.41-5.8c0-.2-.12-.45-.26-.54-.15-.1-.27-.4-.27-.67 0-.89-.5-.83-1.58.2a5.31 5.31 0 0 0-1.06 1.2c0 .1.71.2 1.58.2 1.21 0 1.6-.1 1.6-.39zm8.09-1.94c-.09-.09-.37.06-.62.32-.44.46-.43.46.16.16.34-.17.55-.39.46-.48zm-3.72-5.62c.39-.43.44-.69.24-1.26-.21-.6-.41-.72-1.17-.72-.75 0-.96.12-1.16.72-.2.57-.16.83.23 1.26.27.3.69.53.93.53.25 0 .67-.24.93-.53zm1.3-4.47c.3-.33.4-.71.3-1.06-.13-.37.08-1.02.62-1.96l.8-1.4-1.97.23c-1.12.13-2.84.13-3.95 0l-1.97-.23.8 1.52c.45.83.73 1.66.62 1.83-.1.16-.03.59.15.94.31.58.5.64 2.24.64 1.54 0 1.99-.1 2.36-.51z" fill="#9e9e9e"/><path d="M6.78 29.31C1.97 28.6-.96 25.5.66 22.84c.6-.97 5.86-6.57 6.3-6.68.16-.04.49.2.72.52.66.95.54-.02-.24-1.94a8.35 8.35 0 0 1-.66-3.17c0-1.5-.01-1.53-.86-1.75-.5-.13-1-.5-1.17-.85-.37-.75-.7-.94-2-1.17-1.07-.2-1.33-.77-.53-1.16.25-.13 1.46-.51 2.68-.85 2.02-.57 2.35-.6 3.81-.3l1.6.34.63-.81.64-.82h7.77l.66.79.66.79 1.72-.3c1.6-.28 1.88-.25 4.23.48 3.08.95 3.42 1.49 1.24 1.94-1.18.24-1.48.42-1.6.93-.11.41-.47.73-1.1.93-.89.3-.92.35-.92 1.64 0 .76-.28 2.13-.66 3.17-.36 1.01-.66 2.21-.66 2.67v.83L24.04 17c.98-.95 1.33-1.11 2.72-1.27.87-.1 2.24-.34 3.04-.53.8-.2 2.02-.43 2.71-.53l1.26-.17v6.91h-1.88c-1.47 0-1.85.08-1.75.36.08.2.03.52-.1.72-.15.26-.05.52.36.84l.59.47-.7.6c-3.97 3.3-6.8 4.23-14.38 4.7l-5.56.35a19.9 19.9 0 0 1-3.57-.13zM12 23.68c.1-.1.04-.42-.14-.7a2.35 2.35 0 0 1-.32-1.05c0-.79-.52-.64-1.85.53-1 .88-1.12 1.1-.8 1.33.42.3 2.8.2 3.11-.11zm3.89-.66c.08-.13-.15-.23-.52-.23-.36 0-.65.1-.65.23s.23.23.51.23.58-.1.66-.23zm4.27-1.21c.5-.38.5-.4-.06-.4-.3 0-.63.17-.72.39-.19.5.12.5.78 0zm-3.6-5.95c.45-.84.31-1.56-.39-2.02-.61-.4-.7-.4-1.32 0-.72.47-.9 1.66-.34 2.22.5.5 1.74.38 2.05-.2zm1.18-4.5c.3-.32.4-.7.3-1.05-.13-.37.08-1.02.62-1.96l.8-1.4-1.97.23c-1.12.13-2.84.13-3.95 0l-1.97-.23.8 1.52c.45.83.73 1.66.62 1.83-.1.16-.03.59.15.94.31.58.5.64 2.24.64 1.54 0 1.99-.1 2.36-.51z" fill="#fd5b5b"/><path d="M6.78 29.31C1.97 28.6-.96 25.5.66 22.84c.6-.97 5.86-6.57 6.3-6.68.16-.04.49.2.72.52.66.95.54-.02-.24-1.94a8.35 8.35 0 0 1-.66-3.17c0-1.5-.01-1.53-.86-1.75A1.7 1.7 0 0 1 4.7 8.78c-.32-.72-.54-.86-1.65-1.01-2.18-.3-1.67-.86 1.67-1.83 2.64-.78 2.93-.78 5.58.01.27.08.46 0 .47-.2 0-.2.17-.58.38-.85.34-.44.78-.5 4.37-.5 3.6 0 4.04.06 4.37.5.2.27.38.65.39.84 0 .2.2.3.47.21 2.6-.77 2.9-.77 5.62 0 2 .58 2.64.87 2.64 1.21 0 .33-.32.5-1.21.63-1.02.16-1.26.3-1.48.93-.17.5-.55.84-1.16 1.05-.87.28-.9.34-.9 1.63 0 .76-.3 2.13-.67 3.17-.36 1.01-.66 2.21-.66 2.67v.83L24.04 17c.98-.95 1.33-1.11 2.72-1.27.87-.1 2.24-.34 3.04-.53.8-.2 2.02-.43 2.71-.53l1.26-.17v6.91h-1.88c-1.47 0-1.85.08-1.75.36.08.2.03.52-.1.72-.15.26-.05.52.36.84l.59.47-.7.59c-3.97 3.31-6.8 4.24-14.38 4.7l-5.56.36a19.9 19.9 0 0 1-3.57-.13zm5.49-5.63c.07-.08-.12-.69-.43-1.35l-.57-1.21-1.32 1.1c-1.38 1.17-1.53 1.42-.99 1.67.38.17 3.1 0 3.3-.21zm3.76-.68c.28-.18.15-.24-.46-.22-.47.01-.85.13-.85.25 0 .3.82.28 1.31-.03zm4.1-1.16c.35-.26.4-.41.17-.55-.33-.2-1.08.27-1.08.67 0 .34.35.29.91-.12zm-3.57-5.98c.45-.84.31-1.56-.39-2.02-.61-.4-.7-.4-1.32 0-.72.47-.9 1.66-.34 2.22.5.5 1.74.38 2.05-.2zm1.18-4.5c.3-.32.4-.7.3-1.05-.13-.37.08-1.02.62-1.96l.8-1.4-1.97.23c-1.12.13-2.84.13-3.95 0l-1.97-.23.8 1.52c.45.83.73 1.66.62 1.83-.1.16-.03.59.15.94.31.58.5.64 2.24.64 1.54 0 1.99-.1 2.36-.51z" fill="#fd5d00"/><path d="M6.78 29.31C1.97 28.6-.96 25.5.66 22.84c.6-.99 5.86-6.57 6.3-6.68.17-.05.52.23.77.6.24.38.5.63.57.57.15-.16-.97-3.64-1.29-3.99a4.59 4.59 0 0 1-.23-1.77c0-1.5-.01-1.53-.86-1.75A1.7 1.7 0 0 1 4.7 8.78c-.32-.72-.54-.86-1.65-1.01-2.18-.3-1.67-.86 1.67-1.83 2.64-.78 2.93-.78 5.58.01.27.08.46 0 .47-.2 0-.2.17-.58.38-.85.34-.44.78-.5 4.37-.5 3.6 0 4.04.06 4.37.5.2.27.38.65.39.84 0 .2.2.3.47.21 2.6-.77 2.9-.77 5.62 0 2 .58 2.64.87 2.64 1.21 0 .33-.32.5-1.21.63-1.02.16-1.26.3-1.48.93-.17.5-.55.84-1.16 1.05-.9.29-.9.32-.9 1.8 0 .84-.11 1.64-.24 1.77-.43.47-1.35 3.31-1.35 4.16v.84l1.25-1.22c1.13-1.1 1.43-1.24 2.85-1.4.87-.1 2.24-.34 3.04-.53.8-.2 2.02-.43 2.71-.53l1.26-.17v6.91h-1.88c-1.47 0-1.85.08-1.75.36.08.2.03.52-.1.72-.15.26-.05.52.36.84l.59.47-.7.59c-3.97 3.31-6.8 4.24-14.38 4.7l-5.56.36a19.9 19.9 0 0 1-3.57-.13zm5.49-5.63c.07-.08-.12-.69-.43-1.35l-.57-1.21-1.32 1.1c-1.38 1.17-1.53 1.42-.99 1.67.38.17 3.1 0 3.3-.21zm3.76-.68c.28-.18.15-.24-.46-.22-.47.01-.85.13-.85.25 0 .3.82.28 1.31-.03zm4.1-1.16c.35-.26.4-.41.17-.55-.33-.2-1.08.27-1.08.67 0 .34.35.29.91-.12zm-3.57-5.98c.45-.84.31-1.56-.39-2.02-.61-.4-.7-.4-1.32 0-.72.47-.9 1.66-.34 2.22.5.5 1.74.38 2.05-.2zm1.28-4.6c.43-.44.5-.68.28-.9-.21-.22-.07-.68.54-1.74.45-.79.82-1.48.82-1.54 0-.05-1.82-.1-4.05-.1h-4.05l.89 1.57c.57 1.02.79 1.65.62 1.82-.17.17-.1.47.19.87.4.55.67.62 2.32.63 1.62 0 1.95-.08 2.44-.6z" fill="#595a59"/><path d="M7.82 29.35c-3.62-.37-5.9-1.44-6.99-3.28-.8-1.37-.83-2.16-.15-3.2.8-1.22 5.93-6.71 6.3-6.74.17-.01.51.28.76.65.24.37.5.61.56.55.14-.15-.96-3.6-1.28-4a5.8 5.8 0 0 1-.3-1.84c-.07-1.51-.1-1.57-.9-1.78-.6-.15-.92-.45-1.1-.98-.24-.67-.45-.79-1.62-.95-2.24-.31-1.76-.86 1.6-1.84 2.65-.78 2.94-.78 5.59.01.27.08.46 0 .47-.2 0-.2.17-.58.38-.85.34-.44.78-.5 4.37-.5 3.6 0 4.04.06 4.37.5.2.27.38.65.39.84 0 .2.2.3.47.21 2.6-.77 2.9-.77 5.62 0 2 .58 2.64.87 2.64 1.21 0 .33-.31.5-1.19.63-.91.14-1.26.33-1.52.85-.32.67-.69.95-1.58 1.22-.38.12-.47.45-.47 1.69 0 .85-.1 1.66-.23 1.8-.67.72-1.74 4.88-1.26 4.88.06 0 .62-.52 1.26-1.15 1.05-1.05 1.31-1.17 2.83-1.33.92-.09 2.35-.33 3.18-.54.82-.2 2-.43 2.62-.5l1.13-.14v6.57h-1.44c-1.83 0-2.27.17-2.27.93 0 .33-.15.66-.33.73-.18.07 0 .25.4.41.4.16.73.4.73.55 0 .32-1.3 1.34-1.71 1.34-.18 0-.6.3-.93.66-1.68 1.78-6.14 2.93-12.97 3.34-2.11.13-4.2.28-4.63.34-.44.06-1.7.02-2.8-.1zm4.4-5.58c.09-.15-.09-.81-.4-1.47l-.56-1.2-1.31 1.1c-1.86 1.56-1.77 1.85.56 1.85.84 0 1.6-.13 1.7-.28zm3.92-2.47l.03-1.8 1.38-.7c1.06-.54 1.39-.85 1.4-1.31 0-.33.32-1.23.7-1.98 1.07-2.1 1.14-2.58.58-3.7-.36-.73-.66-1-1.12-1-1.22 0-1.35-.63-.45-2.2.45-.78.82-1.47.82-1.53 0-.05-1.82-.1-4.05-.1h-4.05l.88 1.56c.96 1.68.86 2.28-.35 2.28-.45 0-.75.26-1.12.99-.55 1.12-.5 1.53.58 3.8.39.81.7 1.71.7 2 0 .37.4.7 1.33 1.15l1.32.61v4.1l.7-.18c.66-.18.7-.28.72-2zm-2.67-3.06c-.9-.55-2-2.66-1.87-3.58.06-.43.24-.52.9-.46.99.1 1.4-.57.77-1.26a2 2 0 0 1-.4-.56c0-.06 1.19-.1 2.64-.1 1.46 0 2.65.04 2.65.1a2 2 0 0 1-.4.56c-.63.7-.22 1.4.7 1.22.63-.13.77-.05.9.47.23.9-1.01 3.22-2 3.73-.8.41-.81.4-1.07-.34-.32-.9-1.38-1.01-1.53-.17-.15.84-.41.92-1.29.39zm3.05-2.18c.48-.49.38-1.67-.2-2.19-1.3-1.17-2.93.8-1.8 2.17.34.42 1.58.43 2 .02zm3.61 5.78c.35-.26.4-.41.17-.55-.33-.2-1.08.27-1.08.67 0 .34.35.29.91-.12z" fill="#fc0000"/><path d="M7.82 29.35c-3.62-.37-5.9-1.44-6.99-3.28-.8-1.37-.83-2.16-.15-3.2.8-1.2 5.93-6.71 6.28-6.74.17-.01.57.33.87.76.31.44 1.27 1.29 2.14 1.9.86.6 1.58 1.3 1.58 1.52 0 .24-.67 1.04-1.5 1.78-.9.8-1.42 1.47-1.31 1.65.22.36 2.9.41 3.55.07a8.43 8.43 0 0 1 2.02-.4c.86-.1 1.63-.23 1.7-.3.06-.07.1-.88.06-1.82-.04-.93.03-1.75.15-1.82.12-.08.18.64.13 1.59l-.1 1.72 1.16-.2c1.39-.22 2.95-.73 2.82-.91-.16-.24 1.1-1.82 3.04-3.81 1.89-1.94 1.9-1.95 3.57-2.11a26.8 26.8 0 0 0 3.18-.54c.82-.2 2-.43 2.62-.5.93-.11 1.13-.06 1.13.3s-.67.56-3.5 1.06c-5 .89-5.07.92-6.57 2.72-.72.87-1.3 1.62-1.3 1.68 0 .05.32-.01.72-.14.4-.12 1.71-.36 2.92-.53 1.93-.28 2.25-.27 2.66.11.37.33 1.03.43 2.77.43 1.87 0 2.3.08 2.3.4 0 .3-.34.4-1.44.4-1.83 0-2.27.17-2.27.93 0 .33-.15.67-.33.73-.18.07 0 .25.4.41.4.16.73.4.73.55 0 .32-1.3 1.35-1.71 1.35-.18 0-.6.29-.93.65-1.68 1.78-6.14 2.93-12.97 3.34-2.11.13-4.2.28-4.63.34-.44.06-1.7.02-2.8-.1zm5.97-1.07c7.62-.53 11.63-1.39 13.43-2.88.45-.36.45-.4 0-.9a3.21 3.21 0 0 0-1.02-.73c-.31-.12-.63-.54-.72-.96a4 4 0 0 0-.65-1.36l-.48-.61-2.74 1.34c-1.51.73-2.96 1.34-3.23 1.34s-1.36.24-2.4.54c-1.06.3-3.13.62-4.6.7-2.49.14-2.71.11-3.24-.41-.31-.31-.57-.7-.57-.88 0-.18.63-.9 1.4-1.6l1.38-1.3-.8-.65a41.67 41.67 0 0 1-1.73-1.56l-.95-.9-1.71 1.77c-3.35 3.46-3.94 4.23-3.94 5.1 0 1.72 1.82 3.18 4.77 3.84 1.9.42 3.03.44 7.8.1zm15.48-4.23c0-.15-.3-.27-.68-.27-.38 0-.6.12-.51.27.09.14.4.26.68.26s.51-.12.51-.26zm-.4-1.6c.32-.5-.11-.69-1.22-.54-1.58.22-1.68.81-.14.81.66 0 1.27-.12 1.36-.26zM26.9 21l.66-.37-1-.01c-.93-.01-1.21.2-.8.6.23.25.38.22 1.14-.22zm-15.44.53c-.09-.21-.04-.4.1-.4s.26.19.26.4c0 .22-.05.4-.1.4-.06 0-.18-.18-.26-.4zm7.77-.13c0-.14.12-.26.28-.26.15 0 .2.12.11.26-.09.15-.21.27-.28.27-.06 0-.11-.12-.11-.27zm-5.8-3.2c-.48-.29-.94-.77-1.02-1.07-.1-.38-.2-.44-.34-.2-.13.2-.21.1-.22-.32l-.1-1.56c-.06-.89-.03-.92.76-.85.99.1 1.4-.57.77-1.26a2 2 0 0 1-.4-.56c0-.06 1.19-.1 2.64-.1 1.46 0 2.65.04 2.65.1a2 2 0 0 1-.4.56c-.63.7-.22 1.4.7 1.22.42-.09.76-.13.76-.1 0 .04.1.46.24.93.18.62.17.81-.04.68-.2-.11-.23-.02-.12.28.12.3.07.39-.13.26s-.25-.04-.13.27c.1.25.07.39-.05.31-.13-.07-.36.15-.52.5-.16.36-.66.84-1.1 1.07-.81.41-.82.41-1.08-.34-.32-.9-1.38-1.01-1.53-.17-.15.85-.41.92-1.33.36zm3.1-2.14c.48-.49.38-1.67-.2-2.19-1.3-1.17-2.93.8-1.8 2.17.34.42 1.58.43 2 .02zm1.85 2.25c.2-.08.42-.07.51.02.09.09-.07.15-.35.14-.3-.01-.37-.08-.16-.16zm-8.13-5c.01-.3.08-.37.16-.16.08.19.07.42-.02.5-.09.1-.15-.06-.14-.34zm10.32 0c.01-.3.08-.37.16-.16.08.19.07.42-.02.5-.09.1-.15-.06-.14-.34zm-9.32-2.56c.13-.13.52-.2.87-.14.53.08.49.12-.24.24-.53.09-.78.05-.63-.1zm7.84.07l-.79-.2.71-.04c.4-.01.79.1.88.24.09.14.12.25.08.23l-.88-.23zm-13.2-1.1c-.8-.21-1.2-.63-1.21-1.25 0-.27.22-.32.85-.2 1.04.22 1.33.48 1.22 1.15-.08.43-.22.48-.86.3zm18.3-.38c-.1-.5.03-.67.67-.9 1.07-.36 1.51-.34 1.51.09 0 .45-.76 1.12-1.5 1.3-.44.1-.6 0-.69-.49z" fill="#9f0f0f"/><path d="M7.82 29.35c-3.62-.37-5.9-1.44-6.99-3.28-.8-1.37-.83-2.16-.15-3.2.81-1.23 5.94-6.72 6.3-6.74.18-.01.58.37.9.84a9.41 9.41 0 0 0 2 1.87c.79.56 1.5 1.21 1.6 1.44.1.29-.32.85-1.39 1.79-.92.82-1.46 1.49-1.35 1.67.39.63 4 .25 7.54-.78.94-.28 1.93-.5 2.2-.5.72 0 2.06-.75 2.06-1.15 0-.35 1.63-2.32 3.57-4.3.96-.98 1.22-1.1 2.73-1.26.92-.09 2.35-.33 3.18-.54.82-.2 2.01-.43 2.64-.5.96-.12 1.12-.07 1.05.3-.06.3-.47.5-1.4.62-.73.1-2.15.36-3.17.59-1.02.22-2.17.41-2.55.41-.86.01-1.64.62-3.43 2.69-1.24 1.42-1.32 1.57-.63 1.22.46-.24 1.94-.5 3.5-.6 2.32-.17 2.72-.14 2.86.22.13.34.53.39 2.52.26 2.08-.14 2.36-.1 2.36.28 0 .35-.28.44-1.44.44-1.83 0-2.27.17-2.27.93 0 .33-.15.67-.33.73-.18.07 0 .25.4.42.4.15.73.4.73.54 0 .32-1.3 1.35-1.71 1.35-.18 0-.6.29-.93.65-1.68 1.78-6.14 2.93-12.97 3.34-2.11.13-4.2.28-4.63.34-.44.06-1.7.02-2.8-.1zm13.26-1.72c2.5-.44 3.73-.8 4.96-1.46.9-.48 1.64-.97 1.64-1.09 0-.12-.47-.6-1.06-1.06-.58-.47-1.05-1.04-1.06-1.27 0-.23-.28-.78-.63-1.22l-.64-.79-2.57 1.27c-1.41.7-3.06 1.37-3.66 1.5l-3.6.78c-4.32.93-6.62.65-6.62-.82 0-.27.6-1.07 1.35-1.78l1.34-1.28-.73-.5c-.4-.27-1.2-.94-1.78-1.5-.58-.54-1.13-.96-1.22-.92-.55.25-5.6 5.9-5.73 6.4-.45 1.8 2.05 3.85 5.45 4.48 1.7.32 11.35-.17 14.56-.74zm7.77-3.21c.7-.27.47-.64-.4-.64-.71 0-.78.06-.5.4.38.45.35.45.9.24zm-.04-1.87c.1-.07.2-.3.2-.5 0-.3-.27-.34-1.26-.21-1.49.2-1.5.2-1.29.77.14.35.37.4 1.16.25.54-.1 1.07-.24 1.19-.3zM27 21.1c1.01-.46.82-.83-.32-.62-1.15.21-1.24.27-1 .65.22.36.48.35 1.32-.03zm-13.54-2.85c-.9-.55-2-2.66-1.87-3.58.06-.43.24-.52.9-.46.99.1 1.4-.57.77-1.26a2 2 0 0 1-.4-.56c0-.06 1.19-.1 2.64-.1 1.46 0 2.65.04 2.65.1a2 2 0 0 1-.4.56c-.63.7-.22 1.4.7 1.22.63-.13.77-.05.9.47.23.9-1.01 3.22-2 3.73-.8.41-.81.4-1.07-.34-.32-.9-1.38-1.01-1.53-.17-.15.84-.41.92-1.29.39zm3.05-2.18c.48-.49.38-1.67-.2-2.19-1.3-1.17-2.93.8-1.8 2.17.34.42 1.58.43 2 .02zM5.8 9.73c-.49-.14-.92-.48-1.02-.79-.24-.74-.12-.8 1.01-.48.8.21.98.4.98.91 0 .36-.03.64-.07.63l-.9-.27zm18.43-.37c0-.4.2-.68.53-.77l1.06-.3c.35-.1.53-.03.53.22 0 .48-.76 1.13-1.52 1.32-.5.12-.6.03-.6-.47z" fill="#2e2e2e"/><path d="M5.59 28.97c-2.4-.6-4.24-1.85-5.07-3.43-.75-1.44-.33-2.23 3.1-5.9 3.06-3.26 3.69-3.84 3.69-3.35 0 .38 1.14 1.5 2.71 2.67.84.63 1.52 1.27 1.52 1.43 0 .16-.44.69-.99 1.18-1.74 1.57-1.93 1.78-1.83 2.07.2.58 6.91.02 7.72-.66.18-.14.9-.33 1.61-.42 1.7-.23 2.12-.47 2.61-1.5.23-.46 1.4-1.83 2.62-3.03 1.89-1.87 2.33-2.19 3.1-2.19.5 0 2.03-.24 3.4-.53 1.36-.29 2.83-.52 3.26-.52 1.27 0 .7.64-.75.84-.71.1-2.13.36-3.15.59-1.02.22-2.17.41-2.55.41-.86.01-1.64.62-3.43 2.69-1.24 1.42-1.32 1.57-.63 1.22.46-.24 1.94-.5 3.5-.6 2.32-.17 2.72-.14 2.86.22.13.34.53.39 2.52.26 2.05-.14 2.36-.1 2.36.27 0 .34-.37.44-1.92.5-1.8.07-1.91.12-1.84.65.04.32-.05.65-.2.74-.43.27-.32.6.25.75.85.22.62.93-.48 1.49-.55.28-1.17.7-1.36.94-.2.24-1.2.83-2.23 1.32-2.15 1.01-5.23 1.54-11.67 1.99-4.93.34-7.03.32-8.73-.1zm15.5-1.34c2.48-.44 3.72-.8 4.95-1.46.9-.48 1.64-.97 1.64-1.09 0-.12-.47-.6-1.06-1.06-.58-.47-1.05-1.04-1.06-1.27 0-.23-.28-.78-.63-1.22l-.64-.79-2.57 1.27c-1.41.7-3.06 1.37-3.66 1.5l-3.6.78c-4.32.93-6.62.65-6.62-.82 0-.27.6-1.07 1.35-1.78l1.34-1.28-.73-.5c-.4-.27-1.2-.94-1.78-1.5-.58-.54-1.13-.96-1.22-.92-.55.25-5.6 5.9-5.73 6.4-.45 1.8 2.05 3.85 5.45 4.48 1.7.32 11.35-.17 14.56-.74zm7.76-3.21c.7-.27.47-.64-.4-.64-.71 0-.78.06-.5.4.38.45.35.45.9.24zm-.04-1.87c.1-.07.2-.3.2-.5 0-.3-.27-.34-1.26-.21-1.49.2-1.5.2-1.29.77.14.35.37.4 1.16.25.54-.1 1.07-.24 1.19-.3zM27 21.1c1.01-.46.82-.83-.32-.62-1.15.21-1.24.27-1 .65.22.36.48.35 1.32-.03zm-13.57-2.96c-.7-.39-1.63-2.26-1.63-3.27 0-.6.08-.65.74-.52.56.11.82.02 1.08-.4.29-.46.25-.63-.28-1.23-.33-.39-.44-.55-.23-.37.23.2 1.16.33 2.4.33 1.22 0 2.15-.13 2.38-.33.21-.18.1-.02-.23.37-.53.6-.56.77-.27 1.24.25.4.51.5 1.08.39.65-.13.74-.07.74.51 0 1.1-.99 3-1.74 3.33-.8.37-1.17.21-1.17-.5 0-.39-.19-.51-.77-.51-.6 0-.8.14-.93.66-.19.75-.3.78-1.17.3zm3.03-2.16c.48-.48.61-.82.49-1.25-.39-1.3-1.91-1.68-2.62-.67-.57.8-.52 1.18.23 1.94.82.81 1.07.81 1.9-.02zM5.19 9.23c-.29-.3-.53-.66-.53-.81 0-.16.24-.22.53-.13l1.06.3c.3.08.53.37.53.66 0 .68-.9.67-1.59-.02zm19.05.02c0-.3.25-.58.6-.68l1.06-.3c.62-.18.58.3-.07.96-.69.69-1.59.7-1.59.02z" fill="#5c0202"/><path d="M5.59 28.97c-2.4-.6-4.24-1.85-5.07-3.43-.75-1.44-.33-2.23 3.1-5.9A66.95 66.95 0 0 1 7 16.18c.1-.04.45.34.78.84.32.5 1.3 1.4 2.18 2 1.92 1.3 1.93 1.28-.78 3.82-.3.28-.5.64-.46.8.17.5 2.9.44 5.48-.12 6.2-1.34 5.7-1.16 6.5-2.4.36-.58 1.57-2 2.7-3.16 1.78-1.85 2.16-2.12 2.97-2.12.5 0 2.05-.24 3.41-.53 2.67-.56 4-.66 4-.3 0 .2-6.75 1.64-7.68 1.63-.51 0-2.02 1.36-3.33 3.03-.75.95-.89 1.24-.5 1.08.74-.3 4.3-.9 5.49-.92.71-.01 1 .1 1 .38 0 .33.45.4 2.5.4 2.95 0 3.43.47.6.58-1.8.07-1.91.12-1.84.65.04.32-.05.65-.2.74-.43.27-.32.6.25.75.85.22.62.93-.48 1.49-.55.28-1.17.7-1.36.94-.2.24-1.2.83-2.23 1.32-2.15 1.01-5.23 1.54-11.67 1.99-4.93.34-7.03.32-8.73-.1zm10.19-.67c4.8-.27 8.13-.91 10.15-1.96.89-.46 1.65-1.02 1.68-1.23.04-.22-.35-.7-.86-1.06-.51-.37-1-.96-1.08-1.33-.08-.36-.42-1-.75-1.41l-.61-.76-2.22 1.18c-3.68 1.97-11.6 3.65-13.33 2.82-1.26-.6-1.15-1.33.39-2.63a5.2 5.2 0 0 0 1.33-1.42c0-.17-.6-.69-1.32-1.16A7.54 7.54 0 0 1 7.4 17.8c-.41-.64-.44-.64-.96-.19-.3.26-1.64 1.7-3 3.2-2.71 3-2.88 3.44-1.92 5 1.13 1.82 5.13 3.1 8.83 2.82 1.02-.07 3.46-.23 5.43-.34zm13.49-4c.35-.22.35-.28 0-.51-.48-.32-1.59-.36-1.59-.06s.59.85.92.84c.15 0 .45-.12.67-.26zm-.38-1.7c.83-.6.15-1.01-1.3-.8-1.13.17-1.52.55-1.05 1.01.31.32 1.82.19 2.35-.2zm-1.44-1.72l.63-.52h-.97c-1.27-.02-1.8.2-1.63.67.2.53 1.25.46 1.97-.15zm-14.01-2.75c-.7-.39-1.63-2.26-1.63-3.27 0-.6.08-.65.74-.52.56.11.82.02 1.08-.4.29-.46.25-.63-.28-1.23-.33-.39-.44-.55-.23-.37.23.2 1.16.33 2.4.33 1.22 0 2.15-.13 2.38-.33.21-.18.1-.02-.23.37-.53.6-.56.77-.27 1.24.25.4.51.5 1.08.39.65-.13.74-.07.74.51 0 1.1-.99 3-1.74 3.33-.8.37-1.17.21-1.17-.5 0-.39-.19-.51-.77-.51-.6 0-.8.14-.93.66-.19.75-.3.78-1.17.3zm3.03-2.16c.48-.48.61-.82.49-1.25-.39-1.3-1.91-1.68-2.62-.67-.57.8-.52 1.18.23 1.94.82.81 1.07.81 1.9-.02zM5.17 9.21c-.7-.7-.51-.88.65-.67.74.14.88.27.77.7-.18.67-.73.66-1.42-.03zm19.07.03c0-.36.24-.58.73-.69.4-.09.88-.2 1.06-.26.5-.15.4.35-.2.94-.7.7-1.59.7-1.59 0z" fill="#030101"/></svg>