<?xml version="1.0" encoding="UTF-8" standalone="no"?>
<!-- Created with Inkscape (http://www.inkscape.org/) -->

<svg
   xmlns:dc="http://purl.org/dc/elements/1.1/"
   xmlns:cc="http://creativecommons.org/ns#"
   xmlns:rdf="http://www.w3.org/1999/02/22-rdf-syntax-ns#"
   xmlns:svg="http://www.w3.org/2000/svg"
   xmlns="http://www.w3.org/2000/svg"
   xmlns:sodipodi="http://sodipodi.sourceforge.net/DTD/sodipodi-0.dtd"
   xmlns:inkscape="http://www.inkscape.org/namespaces/inkscape"
   width="45.155998mm"
   height="45.155998mm"
   viewBox="0 0 45.155998 45.155998"
   version="1.1"
   id="svg8"
   inkscape:version="0.92.2 (5c3e80d, 2017-08-06)"
   sodipodi:docname="hostilethinking.svg">
  <defs
     id="defs2" />
  <sodipodi:namedview
     id="base"
     pagecolor="#ffffff"
     bordercolor="#666666"
     borderopacity="1.0"
     inkscape:pageopacity="0.0"
     inkscape:pageshadow="2"
     inkscape:zoom="2.8"
     inkscape:cx="128.9716"
     inkscape:cy="74.454845"
     inkscape:document-units="mm"
     inkscape:current-layer="layer1"
     showgrid="false"
     inkscape:window-width="1920"
     inkscape:window-height="1027"
     inkscape:window-x="-8"
     inkscape:window-y="64"
     inkscape:window-maximized="1" />
  <metadata
     id="metadata5">
    <rdf:RDF>
      <cc:Work
         rdf:about="">
        <dc:format>image/svg+xml</dc:format>
        <dc:type
           rdf:resource="http://purl.org/dc/dcmitype/StillImage" />
        <dc:title />
      </cc:Work>
    </rdf:RDF>
  </metadata>
  <g
     inkscape:label="Layer 1"
     inkscape:groupmode="layer"
     id="layer1"
     transform="translate(0,-251.844)">
    <g
       id="g9707"
       transform="matrix(1,0,0,1.0000097,-69.362944,85.931611)">
      <path
         style="fill:#eca69a;stroke-width:0.35277778"
         d="m 80.651835,210.78443 c 0,-0.15505 -0.560418,-0.48456 -1.245373,-0.73225 -3.547914,-1.28294 -5.809639,-6.33431 -4.798159,-10.71629 0.229802,-0.99555 0.650627,-2.05754 0.935166,-2.35996 0.28454,-0.30243 1.15345,-1.1998 1.930911,-1.99415 2.061272,-2.10605 1.939506,-2.88605 -0.882491,-5.65304 -1.262832,-1.23821 -2.429341,-2.25129 -2.592244,-2.25129 -0.162903,0 -0.55637,-0.80561 -0.874372,-1.79025 -0.507645,-1.57183 -0.516666,-1.90921 -0.07394,-2.76535 0.308087,-0.59578 0.958181,-1.10462 1.671124,-1.30802 1.083112,-0.30901 1.174558,-0.45147 1.273885,-1.98455 0.103178,-1.59251 0.06258,-1.67021 -1.133972,-2.17016 -0.815255,-0.34063 -1.318919,-0.82904 -1.46817,-1.4237 -0.194157,-0.77359 -0.422596,-0.9052 -1.571203,-0.9052 -2.094587,0 -2.460053,-0.26204 -2.460053,-1.76388 0,-1.36982 0.400801,-1.76389 1.79402,-1.76389 0.37289,0 1.270368,-0.3175 1.994395,-0.70556 0.724028,-0.38805 1.681538,-0.70555 2.1278,-0.70555 0.446263,0 1.186888,-0.24604 1.645834,-0.54676 0.458945,-0.30071 2.001172,-0.64248 3.427171,-0.75949 2.605145,-0.21377 4.46748,-1.09401 4.513484,-2.13334 0.01484,-0.33537 1.509697,-0.44097 6.242433,-0.44097 5.51942,0 6.27395,0.0698 6.674362,0.61736 0.385042,0.52655 1.065353,0.61897 4.625007,0.62829 5.05532,0.0132 10.57904,0.99266 10.87605,1.92848 0.41558,1.30936 -0.34788,2.25494 -2.12786,2.63545 -1.45753,0.31159 -1.74274,0.51347 -1.97967,1.40132 -0.15224,0.5705 -0.52058,1.1737 -0.81853,1.34044 -0.37021,0.20719 -0.54172,0.84134 -0.54172,2.00307 v 1.69991 l 1.42495,0.19113 c 2.00226,0.26856 2.45584,0.76366 2.45429,2.679 -10e-4,1.74294 -0.62194,3.02172 -2.69238,5.54843 -0.65277,0.79662 -1.1879,1.67017 -1.18918,1.94123 -0.001,0.27106 -0.31773,0.96908 -0.70323,1.55117 -0.3855,0.58208 -0.70196,1.48456 -0.70323,2.0055 -0.006,2.38908 -1.51939,4.27039 -3.16998,3.94027 l -1.06568,-0.21313 -0.002,1.71979 c -0.002,1.12252 -0.24574,2.08734 -0.70323,2.77812 -0.38549,0.58209 -0.70195,1.34836 -0.70323,1.70283 -0.002,0.68154 -1.815181,2.7069 -2.422711,2.7069 -0.196897,0 -0.86186,-0.70163 -1.477697,-1.55916 -1.185629,-1.65096 -2.390133,-2.21531 -3.481524,-1.63122 -0.574629,0.30754 -0.618764,0.54848 -0.333241,1.81926 0.26092,1.16127 0.21692,1.58874 -0.212352,2.06308 -0.297806,0.32907 -0.541465,1.18113 -0.541465,1.89345 0,1.53236 -0.994665,2.70625 -2.293056,2.70625 -0.548765,0 -0.881944,0.19991 -0.881944,0.52917 0,0.44097 -0.705556,0.52917 -4.233334,0.52917 -2.328333,0 -4.233333,-0.12686 -4.233333,-0.28191 z"
         id="path9721"
         inkscape:connector-curvature="0" />
      <path
         style="fill:#e59355;stroke-width:0.35277778"
         d="m 80.724565,210.48152 c 0.0683,-0.38535 -0.23542,-0.67795 -0.890501,-0.85786 -1.126723,-0.30945 -2.279604,-1.36704 -3.665228,-3.36228 -0.76478,-1.10126 -0.978611,-1.86815 -1.094468,-3.92525 -0.07919,-1.40613 -0.05219,-2.91425 0.06001,-3.35139 0.112199,-0.43714 1.157606,-1.82667 2.323126,-3.08785 2.175437,-2.35399 2.501489,-3.24197 1.724834,-4.6975 -0.450809,-0.84485 -3.186644,-3.5461 -4.429984,-4.37397 -0.847812,-0.56452 -1.358905,-2.41959 -1.028889,-3.73447 0.119,-0.47414 0.689639,-1.02948 1.361742,-1.32524 1.087075,-0.47837 1.163213,-0.62893 1.261419,-2.49451 0.104139,-1.97827 0.09969,-1.98791 -1.234722,-2.6783 -0.79145,-0.40947 -1.384097,-0.99474 -1.448912,-1.43086 -0.128917,-0.86744 -1.63494,-1.31389 -3.241714,-0.96098 -1.033359,0.22696 -1.058333,0.2003 -1.058333,-1.12997 0,-1.36115 0.0014,-1.36248 1.525944,-1.42883 0.839269,-0.0365 2.228332,-0.38507 3.086806,-0.77453 0.858474,-0.38947 1.898661,-0.71161 2.311529,-0.71587 0.412867,-0.004 1.32058,-0.24587 2.017141,-0.53691 0.696561,-0.29104 2.117026,-0.52917 3.156588,-0.52917 1.562248,0 2.034484,-0.15367 2.722383,-0.88591 0.457747,-0.48725 1.437919,-1.04899 2.178161,-1.24832 0.740241,-0.19932 1.345893,-0.51504 1.345893,-0.70159 0,-0.20095 2.019047,-0.33918 4.954353,-0.33918 4.431734,0 4.943419,0.0621 4.850695,0.58838 -0.06199,0.35189 0.340015,0.85121 1.000135,1.24224 0.873331,0.51734 1.301653,0.57863 2.051437,0.29356 1.20865,-0.45952 3.55351,-0.46169 5.13738,-0.005 0.67781,0.19555 2.53384,0.45646 4.12449,0.5798 1.8992,0.14726 2.95348,0.38419 3.07087,0.69011 0.20486,0.53385 -1.23195,1.63981 -2.78797,2.146 -0.58208,0.18935 -1.07818,0.52949 -1.10243,0.75585 -0.0242,0.22637 -0.0639,0.74394 -0.0882,1.15016 -0.0244,0.40886 -0.34818,0.8181 -0.72525,0.91671 -0.91226,0.23856 -1.10892,0.87738 -0.8505,2.76273 0.19761,1.44175 0.3022,1.5792 1.20163,1.5792 1.66219,0 2.20752,0.88614 1.99406,3.24024 -0.17908,1.97494 -0.55209,2.7056 -2.53309,4.96184 -0.29813,0.33955 -0.5431,0.8158 -0.54438,1.05834 -0.001,0.24253 -0.31773,0.91722 -0.70323,1.4993 -0.3855,0.58209 -0.70195,1.50632 -0.70323,2.05385 -10e-4,0.54753 -0.41428,1.69847 -0.91779,2.55764 -0.78843,1.34535 -1.07645,1.56212 -2.07552,1.56212 -1.2506,0 -1.56942,0.52671 -1.60153,2.64584 -0.009,0.58208 -0.24911,1.36648 -0.53398,1.74312 -0.28487,0.37663 -0.51795,0.92243 -0.51795,1.21289 0,0.75786 -1.502857,2.85955 -2.046824,2.86241 -0.252628,0.001 -0.623857,-0.46957 -0.824953,-1.04644 -0.405319,-1.16269 -2.208832,-2.43422 -3.301834,-2.32787 -0.388056,0.0377 -1.081621,0.27302 -1.541256,0.52282 -0.729341,0.39638 -0.813923,0.64739 -0.664588,1.97229 0.223629,1.98402 -0.281438,5.10758 -0.930888,5.75703 -0.282157,0.28216 -1.358381,0.64665 -2.391609,0.80998 -1.033228,0.16333 -2.055161,0.53843 -2.270963,0.83356 -0.292248,0.39968 -1.084026,0.5366 -3.102969,0.5366 -2.330566,0 -2.696068,-0.082 -2.606942,-0.58482 z"
         id="path9719"
         inkscape:connector-curvature="0" />
      <path
         style="fill:#6aa4bc;stroke-width:0.35277778"
         d="m 82.062946,210.71356 c 0,-0.19403 0.168119,-0.35278 0.373598,-0.35278 0.871782,0 -0.154098,-0.69853 -1.356112,-0.92338 -1.341291,-0.25092 -3.728628,-2.16099 -4.357464,-3.48634 -0.184119,-0.38806 -0.563731,-1.10243 -0.84358,-1.5875 -0.72899,-1.26357 -0.67078,-4.5941 0.09814,-5.61532 0.339549,-0.45096 1.530174,-1.79228 2.645834,-2.98071 1.230445,-1.31071 2.028472,-2.47364 2.028472,-2.95599 0,-0.87905 0.002,-0.87647 -3.686142,-4.79294 -2.499912,-2.65469 -3.524708,-4.47596 -2.677453,-4.75838 0.215843,-0.072 0.862826,-0.52662 1.43774,-1.01038 0.917759,-0.77224 1.045299,-1.10895 1.045299,-2.75962 0,-2.2436 -0.245754,-3.01503 -0.882639,-2.77064 -0.779484,0.29912 -2.292361,-0.92415 -2.292361,-1.85354 0,-0.6692 -0.198519,-0.85274 -0.970139,-0.89695 -1.45826,-0.0835 -1.610129,-0.0711 -2.469444,0.20287 -0.648783,0.20682 -0.79375,0.11983 -0.79375,-0.4763 0,-0.40113 0.221141,-0.72932 0.491423,-0.72932 0.270283,0 0.57673,-0.22231 0.680993,-0.49401 0.104262,-0.27171 0.875309,-0.60798 1.713437,-0.74727 0.838128,-0.1393 1.923947,-0.45783 2.412931,-0.70785 1.31856,-0.67419 4.880143,-1.35873 6.736276,-1.29472 1.419192,0.0489 1.790418,-0.10148 2.892931,-1.17223 0.734117,-0.71296 1.621544,-1.22837 2.115008,-1.22837 2.046438,0 4.123668,-0.46842 4.123668,-0.92989 0,-0.36382 0.647803,-0.48122 2.655235,-0.48122 2.50269,0 2.72743,0.0659 3.911883,1.14653 1.893845,1.72788 2.158425,1.81091 4.20585,1.31974 1.02103,-0.24494 2.30887,-0.33431 2.86187,-0.1986 0.55299,0.13572 2.55352,0.36391 4.44562,0.50709 4.35562,0.3296 4.83014,0.73022 2.28889,1.93242 -1.68069,0.7951 -1.92041,1.03833 -1.94706,1.97562 -0.0387,1.36162 -0.33238,1.82759 -1.07458,1.70503 -0.48438,-0.08 -0.60959,0.26026 -0.69532,1.88936 -0.1173,2.22908 0.42704,3.12837 1.89365,3.12837 0.80668,0 0.85674,0.1172 0.85674,2.00573 0,1.49002 -0.17419,2.19299 -0.67748,2.73403 -1.05999,1.13949 -3.11144,5.31546 -3.37365,6.86748 -0.13049,0.77239 -0.54415,2.00892 -0.91923,2.74785 -0.56618,1.1154 -0.90477,1.37347 -1.99417,1.51991 -1.24262,0.16703 -1.33479,0.26991 -1.73848,1.94027 -0.91606,3.79044 -1.307074,4.94965 -1.761085,5.22101 -0.259609,0.15516 -0.472016,0.52399 -0.472016,0.81961 0,0.90626 -1.224196,0.38406 -1.349356,-0.57558 -0.154049,-1.18114 -2.390088,-2.66993 -3.11118,-2.07148 -0.393072,0.32622 -0.594563,0.28654 -0.939377,-0.18502 -0.405963,-0.55519 -0.494522,-0.53923 -1.177746,0.21223 -0.57461,0.632 -0.785716,1.45914 -0.950016,3.72226 -0.276674,3.81101 -1.069369,5.02781 -3.275425,5.02781 -1.88542,0 -3.308012,0.52723 -3.308012,1.22599 0,0.39236 -0.381794,0.5379 -1.411111,0.5379 -0.776111,0 -1.411111,-0.15875 -1.41111,-0.35278 z"
         id="path9717"
         inkscape:connector-curvature="0" />
      <path
         style="fill:#dd6c1d;stroke-width:0.35277778"
         d="m 82.062946,210.71356 c 0,-0.19403 0.168119,-0.35278 0.373598,-0.35278 0.871782,0 -0.154098,-0.69853 -1.356112,-0.92338 -1.341291,-0.25092 -3.728628,-2.16099 -4.357464,-3.48634 -0.184119,-0.38806 -0.563731,-1.10243 -0.84358,-1.5875 -0.72899,-1.26357 -0.67078,-4.5941 0.09814,-5.61532 0.339549,-0.45096 1.530174,-1.79228 2.645834,-2.98071 1.230445,-1.31071 2.028472,-2.47364 2.028472,-2.95599 0,-0.87905 0.002,-0.87647 -3.686142,-4.79294 -2.499912,-2.65469 -3.524708,-4.47596 -2.677453,-4.75838 0.215843,-0.072 0.862826,-0.52662 1.43774,-1.01038 0.938802,-0.78995 1.045299,-1.08944 1.045299,-2.93967 0,-2.22731 -0.451153,-3.003 -1.968017,-3.38371 -0.512657,-0.12867 -0.945845,-0.55658 -1.071909,-1.05886 -0.150776,-0.60074 -0.479313,-0.8589 -1.143456,-0.89851 -1.409937,-0.0841 -1.573972,-0.0704 -2.431201,0.20287 -0.648783,0.20682 -0.79375,0.11983 -0.79375,-0.4763 0,-0.40113 0.221141,-0.72932 0.491423,-0.72932 0.270283,0 0.57673,-0.22231 0.680993,-0.49401 0.104262,-0.27171 0.875309,-0.60798 1.713437,-0.74727 0.838128,-0.1393 1.923947,-0.45783 2.412931,-0.70785 1.31856,-0.67419 4.880143,-1.35873 6.736276,-1.29472 1.419192,0.0489 1.790418,-0.10148 2.892931,-1.17223 0.734117,-0.71296 1.621544,-1.22837 2.115008,-1.22837 2.046438,0 4.123668,-0.46842 4.123668,-0.92989 0,-0.36382 0.647803,-0.48122 2.655235,-0.48122 2.50269,0 2.72743,0.0659 3.911883,1.14653 1.893845,1.72788 2.158425,1.81091 4.20585,1.31974 1.02103,-0.24494 2.30887,-0.33431 2.86187,-0.1986 0.55299,0.13572 2.55352,0.36391 4.44562,0.50709 4.3665,0.33042 4.83128,0.72968 2.26352,1.94442 -1.56398,0.73988 -1.98756,1.12597 -2.17585,1.98327 -0.1286,0.58549 -0.53841,1.22754 -0.91069,1.42679 -0.53888,0.28839 -0.67688,0.75017 -0.67688,2.26492 0,2.126 0.57788,3.0114 1.96548,3.0114 0.80668,0 0.85674,0.1172 0.85674,2.00573 0,1.49002 -0.17419,2.19299 -0.67748,2.73403 -1.05999,1.13949 -3.11144,5.31546 -3.37365,6.86748 -0.13049,0.77239 -0.54415,2.00892 -0.91923,2.74785 -0.56618,1.1154 -0.90477,1.37347 -1.99417,1.51991 -1.24262,0.16703 -1.33479,0.26991 -1.73848,1.94027 -0.91606,3.79044 -1.307074,4.94965 -1.761085,5.22101 -0.259609,0.15516 -0.472016,0.52399 -0.472016,0.81961 0,0.90626 -1.224196,0.38406 -1.349356,-0.57558 -0.130874,-1.00345 -2.110467,-2.4467 -3.617551,-2.63743 -1.630933,-0.20641 -2.316344,0.94865 -2.560768,4.31542 -0.276674,3.81101 -1.069369,5.02781 -3.275425,5.02781 -1.88542,0 -3.308012,0.52723 -3.308012,1.22599 0,0.39236 -0.381794,0.5379 -1.411111,0.5379 -0.776111,0 -1.411111,-0.15875 -1.41111,-0.35278 z m 12.54897,-24.57876 c 1.283041,-1.38442 1.407633,-2.34553 0.468693,-3.61551 -0.674669,-0.91254 -1.039522,-1.08629 -2.281088,-1.08629 -1.743043,0 -2.262182,0.50018 -2.520863,2.42879 -0.157357,1.17319 -0.04132,1.54434 0.721233,2.30689 1.180435,1.18044 2.498088,1.16808 3.612025,-0.0339 z"
         id="path9715"
         inkscape:connector-curvature="0" />
      <path
         style="fill:#545565;stroke-width:0.35277778"
         d="m 97.937946,202.61208 c 0,-0.7178 -0.244431,-1.17674 -0.779143,-1.4629 -0.428529,-0.22935 -1.058248,-0.75087 -1.399375,-1.15894 -0.341127,-0.40808 -0.625512,-0.55106 -0.631967,-0.31775 -0.01405,0.50778 -2.04508,0.32939 -2.603104,-0.22863 -0.531571,-0.53157 0.179929,-1.1433 1.414015,-1.21574 0.550529,-0.0323 1.397838,-0.31369 1.882908,-0.62528 0.485069,-0.31159 1.739143,-0.67277 2.786829,-0.80262 l 1.904881,-0.23608 -0.22123,2.3692 c -0.15611,1.67172 -0.431297,2.5928 -0.934751,3.1287 -0.392429,0.41772 -0.713507,0.9477 -0.713507,1.17773 0,0.23003 -0.15875,0.41823 -0.352778,0.41823 -0.194028,0 -0.352778,-0.47066 -0.352778,-1.04592 z m -13.385498,-7.0481 c -0.415172,-0.26268 -0.431445,-0.49257 -0.08819,-1.24592 0.511633,-1.12292 0.550059,-4.03278 0.06993,-5.29562 -0.378119,-0.99453 -2.397308,-3.01247 -2.990831,-2.98899 -0.199293,0.008 -0.910922,0.48325 -1.581397,1.05637 -0.670475,0.57312 -1.327701,0.92386 -1.460502,0.77941 -0.422431,-0.45946 -1.377212,-5.90442 -1.382214,-7.88254 -0.0072,-2.86231 -0.228969,-3.34038 -1.787942,-3.85488 -0.760233,-0.2509 -1.406421,-0.62921 -1.435974,-0.84069 -0.02955,-0.21148 -0.06966,-0.61681 -0.08912,-0.90074 -0.01946,-0.28392 -0.590597,-0.67104 -1.269184,-0.86025 -2.317688,-0.64627 -2.202077,-1.42799 0.255207,-1.72562 0.927299,-0.11232 2.220729,-0.47348 2.874288,-0.80259 0.726968,-0.36607 2.403149,-0.66764 4.317563,-0.7768 2.988036,-0.17037 3.185986,-0.2335 4.385844,-1.39879 1.191813,-1.15747 1.432914,-1.23613 4.678271,-1.5262 1.881934,-0.16822 3.620136,-0.31151 3.862671,-0.31843 0.242535,-0.007 0.440972,-0.25071 0.440972,-0.54175 0,-0.38218 0.391975,-0.52917 1.411111,-0.52917 0.776111,0 1.411111,0.14196 1.411111,0.31547 0,0.17351 0.472693,0.82149 1.050428,1.43996 1.032438,1.10522 1.100409,1.12313 3.96876,1.04529 3.63638,-0.0987 10.82466,0.39124 11.04824,0.75299 0.0916,0.14819 -0.31112,0.37434 -0.8949,0.50256 -0.58377,0.12822 -1.06141,0.36856 -1.06141,0.5341 0,0.16553 -0.30085,0.39646 -0.66855,0.51316 -0.4166,0.13222 -0.75613,0.679 -0.90092,1.45083 -0.15849,0.84482 -0.49146,1.33715 -1.04723,1.54845 -1.12015,0.42588 -1.30578,1.12076 -0.87558,3.27766 0.38539,1.93222 0.43285,7.91294 0.0749,9.43342 -0.1142,0.48507 -0.34999,1.06357 -0.52398,1.28557 -0.17398,0.22199 -0.41378,1.22639 -0.53287,2.23201 -0.11911,1.00562 -0.4056,2.01745 -0.63667,2.24851 -0.23106,0.23107 -0.57854,0.89353 -0.77217,1.47215 -0.29319,0.87612 -0.51389,1.03244 -1.31983,0.93487 -0.56578,-0.0685 -1.24903,0.13739 -1.64491,0.49565 -0.60322,0.54591 -0.67715,0.55088 -0.67715,0.0456 0,-0.31198 -0.18423,-0.97159 -0.40941,-1.46579 -0.451083,-0.99002 -1.640018,-1.1721 -3.733307,-0.57175 -0.759699,0.21788 -1.216082,0.20278 -1.369406,-0.0453 -0.143417,-0.23205 -0.356085,-0.14672 -0.565078,0.22673 -0.225283,0.40256 -0.700666,0.5698 -1.450487,0.51028 -0.613456,-0.0487 -1.591624,0.15831 -2.173707,0.45999 -0.582084,0.30168 -2.103213,0.72744 -3.380286,0.94613 -2.748216,0.47061 -2.492845,0.46532 -3.126046,0.0647 z m 10.059468,-9.42918 c 1.283041,-1.38442 1.407633,-2.34553 0.468693,-3.61551 -0.674669,-0.91254 -1.039522,-1.08629 -2.281088,-1.08629 -1.743043,0 -2.262182,0.50018 -2.520863,2.42879 -0.157357,1.17319 -0.04132,1.54434 0.721233,2.30689 1.180435,1.18044 2.498088,1.16808 3.612025,-0.0339 z m 2.628049,-8.0955 c 0.542753,-0.5435 0.776009,-4.73026 0.295774,-5.30891 -0.210811,-0.25401 -0.546655,-0.36088 -0.74632,-0.23748 -0.199665,0.1234 -2.790071,0.32234 -5.756457,0.44208 -2.966386,0.11975 -5.508626,0.33292 -5.649422,0.47372 -0.229555,0.22955 0.439504,2.21251 1.313683,3.8935 0.180683,0.34744 0.224945,0.79929 0.09836,1.00411 -0.325036,0.52592 9.91394,0.26415 10.444381,-0.26702 z"
         id="path9713"
         inkscape:connector-curvature="0" />
      <path
         style="fill:#d4130d;stroke-width:0.35277778"
         d="m 97.937946,202.61208 c 0,-0.7178 -0.244431,-1.17674 -0.779143,-1.4629 -1.043923,-0.5587 -2.016911,-1.76101 -2.031342,-2.51013 -0.01689,-0.87687 1.290054,-1.56733 3.480648,-1.83883 l 1.904881,-0.23608 -0.22123,2.3692 c -0.15611,1.67172 -0.431297,2.5928 -0.934751,3.1287 -0.392429,0.41772 -0.713507,0.9477 -0.713507,1.17773 0,0.23003 -0.15875,0.41823 -0.352778,0.41823 -0.194028,0 -0.352778,-0.47066 -0.352778,-1.04592 z m -13.385498,-7.0481 c -0.415172,-0.26268 -0.431445,-0.49257 -0.08819,-1.24592 0.511633,-1.12292 0.550059,-4.03278 0.06993,-5.29562 -0.378119,-0.99453 -2.397308,-3.01247 -2.990831,-2.98899 -0.199293,0.008 -0.910922,0.48325 -1.581397,1.05637 -0.670475,0.57312 -1.327701,0.92386 -1.460502,0.77941 -0.421058,-0.45796 -1.377397,-5.90246 -1.377397,-7.84161 0,-2.91226 -0.599086,-4.48235 -1.802095,-4.72295 -0.680221,-0.13605 -0.943619,-0.36334 -0.813625,-0.7021 0.138767,-0.36162 -0.300944,-0.62732 -1.581163,-0.95543 -0.975363,-0.24998 -1.856149,-0.67018 -1.957304,-0.93379 -0.206401,-0.53787 0.06847,-0.6606 2.117967,-0.9457 0.78751,-0.10955 1.95724,-0.46129 2.599402,-0.78164 0.696458,-0.34744 2.430214,-0.65446 4.296838,-0.76089 2.988036,-0.17037 3.185986,-0.2335 4.385844,-1.39879 1.191813,-1.15747 1.432914,-1.23613 4.678271,-1.5262 1.881934,-0.16822 3.620136,-0.31151 3.862671,-0.31843 0.242535,-0.007 0.440972,-0.25071 0.440972,-0.54175 0,-0.38218 0.391975,-0.52917 1.411111,-0.52917 0.776111,0 1.411111,0.14196 1.411111,0.31547 0,0.17351 0.472693,0.82149 1.050428,1.43996 1.032438,1.10522 1.100409,1.12313 3.968751,1.04529 3.63638,-0.0987 10.82466,0.39124 11.04824,0.75299 0.0916,0.14819 -0.31112,0.37434 -0.8949,0.50256 -0.58377,0.12822 -1.06141,0.36898 -1.06141,0.53504 0,0.16605 -0.54051,0.49736 -1.20112,0.73624 -0.85741,0.31004 -1.14418,0.59419 -1.00213,0.99297 0.10945,0.30726 0.0664,0.43814 -0.0956,0.29085 -0.85195,-0.77442 -1.6453,4.20001 -0.96298,6.03802 0.40191,1.08264 -0.0584,8.72412 -0.56212,9.33103 -0.23857,0.28746 -0.53122,1.34543 -0.65031,2.35105 -0.11911,1.00562 -0.4056,2.01745 -0.63667,2.24851 -0.23106,0.23107 -0.57854,0.89353 -0.77217,1.47215 -0.29319,0.87612 -0.51389,1.03244 -1.31983,0.93487 -0.56578,-0.0685 -1.24903,0.13739 -1.64491,0.49565 -0.60322,0.54591 -0.67715,0.55088 -0.67715,0.0456 0,-0.31198 -0.19275,-0.99029 -0.42834,-1.50734 -0.400742,-0.87955 -0.54277,-0.92813 -2.204857,-0.75428 -0.977087,0.10221 -2.010879,0.23997 -2.297314,0.30614 -0.966143,0.2232 -0.841177,-1.43647 0.185088,-2.45816 l 0.953553,-0.9493 -0.926421,-0.11164 c -0.509532,-0.0614 -1.090696,-0.41859 -1.291476,-0.79375 -0.499554,-0.93343 -1.619776,-0.85554 -2.874011,0.19983 -1.35929,1.14377 -2.01885,1.11181 -3.639831,-0.17639 -0.732456,-0.58208 -1.396696,-1.05833 -1.476089,-1.05833 -0.22654,0 1.097922,1.74038 1.333916,1.7528 0.115833,0.006 0.576686,0.32859 1.024118,0.71664 0.447432,0.38806 1.016008,0.70556 1.263502,0.70556 0.728436,0 1.55872,1.04213 1.55872,1.95642 0,1.08124 -1.194405,1.70674 -4.26223,2.23208 -2.748216,0.47061 -2.492845,0.46532 -3.126046,0.0647 z m 13.385498,-6.36987 c 0.207681,-0.38805 0.298227,-0.70555 0.201213,-0.70555 -0.09701,0 -0.34631,0.3175 -0.553991,0.70555 -0.20768,0.38806 -0.298227,0.70556 -0.201213,0.70556 0.09701,0 0.34631,-0.3175 0.553991,-0.70556 z m -2.724391,-2.85849 c 1.689791,-1.92572 1.104724,-4.38344 -1.291268,-5.4243 -1.360887,-0.59119 -3.345352,-10e-4 -3.772082,1.12089 -0.169776,0.44655 -0.471364,0.8119 -0.670194,0.8119 -0.560333,0 -0.426134,1.97664 0.167657,2.46945 0.291042,0.24154 0.529167,0.66297 0.529167,0.93651 0,0.62886 1.222998,1.12888 2.831859,1.15779 0.965963,0.0174 1.459248,-0.22253 2.204861,-1.07224 z m -8.466633,-3.49151 c 0.902775,0 2.085966,-1.62976 1.960291,-2.70016 l -0.117878,-1.004 2.822222,-0.27129 c 1.552223,-0.14921 3.343805,-0.18064 3.981295,-0.0699 1.105654,0.19214 1.148556,0.25749 0.930878,1.41781 -0.221374,1.18002 -0.194576,1.21638 0.896536,1.21638 0.773931,0 1.447842,0.32311 2.160683,1.03595 l 1.035951,1.03596 1.22997,-1.26646 c 1.44239,-1.48519 1.50122,-1.95342 0.44002,-3.50214 -0.69097,-1.00841 -1.01141,-1.16584 -2.557638,-1.25655 l -1.767695,-0.1037 0.09526,-2.07201 c 0.09459,-2.05741 -0.358065,-3.24953 -1.067396,-2.81114 -0.199665,0.1234 -2.790071,0.32234 -5.756457,0.44208 -2.966386,0.11975 -5.508626,0.33292 -5.649422,0.47372 -0.231289,0.23128 0.44736,2.23396 1.326175,3.91351 0.422269,0.80701 0.221789,1.01652 -1.412448,1.47602 -1.003878,0.28226 -1.472447,0.70432 -2.089669,1.88225 l -0.795626,1.5184 0.717899,0.91266 c 0.394844,0.50196 1.070375,1.09036 1.501181,1.30755 0.69174,0.34873 0.83283,0.27977 1.207225,-0.59005 0.233168,-0.54172 0.642059,-0.98494 0.908645,-0.98494 z"
         id="path9711"
         inkscape:connector-curvature="0" />
      <path
         style="fill:#1e2731;stroke-width:0.35277778"
         d="m 88.136283,189.12783 c -1.755365,-1.34912 -2.91083,-4.23647 -2.21538,-5.53594 0.220111,-0.41128 0.605068,-0.74778 0.855461,-0.74778 0.877782,0 2.054645,-1.64576 1.930849,-2.70016 l -0.117878,-1.004 2.822222,-0.27129 c 1.552223,-0.14921 3.343805,-0.18064 3.981295,-0.0699 1.105654,0.19214 1.148556,0.25749 0.930878,1.41781 -0.221374,1.18002 -0.194576,1.21638 0.896536,1.21638 1.427329,0 3.398324,1.8063 2.991674,2.7417 -0.14578,0.33533 -0.523717,1.32407 -0.839865,2.19719 -1.096263,3.02761 -3.659302,4.59699 -4.609129,2.82222 -0.51134,-0.95544 -1.622114,-0.88757 -2.886558,0.17639 -1.369402,1.15228 -1.976356,1.1129 -3.740105,-0.24267 z m 7.077272,-2.79221 c 1.689791,-1.92572 1.104724,-4.38344 -1.291268,-5.4243 -1.360887,-0.59119 -3.345352,-10e-4 -3.772082,1.12089 -0.169776,0.44655 -0.471364,0.8119 -0.670194,0.8119 -0.560333,0 -0.426134,1.97664 0.167657,2.46945 0.291042,0.24154 0.529167,0.66297 0.529167,0.93651 0,0.62886 1.222998,1.12888 2.831859,1.15779 0.965963,0.0174 1.459248,-0.22253 2.204861,-1.07224 z M 74.664499,175.09658 c -0.444836,-0.28132 -0.432193,-0.36182 0.08819,-0.56151 0.723592,-0.27767 1.665808,0.026 1.665808,0.53686 0,0.45118 -1.056077,0.46602 -1.754003,0.0246 z m 32.974841,-2.8358 c -0.11992,-0.19403 -0.0499,-0.35278 0.15556,-0.35278 0.20548,0 0.3736,0.15875 0.3736,0.35278 0,0.19403 -0.07,0.35278 -0.15557,0.35278 -0.0856,0 -0.25368,-0.15875 -0.37359,-0.35278 z"
         id="path9709"
         inkscape:connector-curvature="0" />
    </g>
  </g>
</svg>
