<?xml version="1.0" encoding="utf-8"?>
<!-- Generator: Adobe Illustrator 21.0.2, SVG Export Plug-In . SVG Version: 6.00 Build 0)  -->
<svg version="1.1" baseProfile="tiny" id="Layer_1" xmlns="http://www.w3.org/2000/svg" xmlns:xlink="http://www.w3.org/1999/xlink"
	 x="0px" y="0px" viewBox="0 0 360 360" overflow="scroll" xml:space="preserve">
<path fill="#1F1E1E" d="M235,245c-2.3,0-4.7,0-7,0c-1.3-1.4-2.7-1.4-4,0c-6.7,0-13.3,0-20,0c-0.3-0.4-0.8-0.7-0.9-1.2
	c-0.3-4.4,3.8-6.7,5.1-10.4c1.4-4.1,4.3-6,8.9-4.8c2.4,0.6,3.7-1,4.2-3.2c1.3-5.8,3.9-11.3,5.5-17c0.1-1.5,0.3-3-1.4-3.8
	c-1-0.3-1.9-0.6-2.4-1.5c-1.1-2.9-2.1-5.8-1.8-9c1.7-5.7,3.6-11.3,2.9-17.4c1.3-7.3,2.5-14.5,1.9-22c-0.7-8.9,2.2-17.5,3.7-26.2
	c0.5-2.8,1.1-5.5,0.1-8.3c-0.2-1.3,0.3-2.3,1.2-3.2c2.3,0,4.7,0,7,0c3.3,3.7,6.1,7.6,5.2,13.1c-0.3,1.9,0.8,3.4,1.8,4.9
	c0,20.3,0,40.7,0,61c-1.2,2.5-2.6,4.8-5,6.4c-4.3,1.1-4,4.7-4.3,7.9c1.1,4.1,0.8,8.3,0.8,12.4c0,4,1.1,7.1,5.1,8.9
	c2.7,1.2,3.1,3.6,1.5,5.8c-1.7,2.3-3.3,5-6.2,6.3C236.2,244,235.6,244.5,235,245z"/>
<path fill="#B77867" d="M140,117c7.3,0,14.7,0,22,0c1.7,1.1,3.8,1.3,5.4,2.4c3.4,2.3,5.5,5.5,5.6,9.8c0,3.5,0.3,6.9,1.6,10.3
	c2.1,5.6-2.7,11-10.3,12.1c-5.3,0.6-10.5,1.4-14.6,5.5c-3.4,3.5-3.5,4.9,0.4,7.9c1.3,1,2.8,1.8,3.3,3.6c0.3,1,0.5,2-0.3,2.9
	c-5.7,2.2-8.3-2.5-11.3-5.4c-1.5-1.5-2.8-3.5-4.1-5.3c-0.5-9.4-2.8-18.6-3.2-28.1c0-0.8,0.2-1.7-0.1-2.4
	C132.3,124.1,134.7,120,140,117z"/>
<path fill="#1F1D1D" d="M117,195v-64c1.6-4,1.5-8,0-12c0.1-1-0.6-2.2,1.5-2.1c2.8,0.2,5.7,0.1,8.5,0.1c1.8,1.6,2.3,3.4,1.1,5.7
	c-1.8,3.7-1.1,7.1,1.4,10.3c2.8,3.8,3.5,8.4,5,12.8c0.1,5.4,0.1,10.7,0,16.1c-1,4.4-0.9,8.9,0.2,13.3c0.8,3.2,1,6.5,0.9,9.9
	c-0.1,10.3-4.6,14-14.5,11.6C119.6,196.3,118.1,196.2,117,195z"/>
<path fill="#483A39" d="M227,202c4,0.9,1.9,3.8,2,5.9c-4.2,3.9-5.9,9.6-9.7,13.8c-5.4,5.8-10.4,11.9-14.9,18.4
	c-2.1,3-5.7,2.9-8.3,4.9c-11,0-22,0-33,0c-1.2-2.3,0.2-3.9,2.1-3.8c3.7,0.1,6.9-1.7,10.4-2.1c0.5-0.1,1,0,1.5,0.1
	c4.5,0.6,8.7,0.4,12.6-2.5c1.9-1.4,3-2.3,1.9-4.7c-1.4-3.4-1.8-6.6,1.4-9.6c2.2-2.1,1.4-4.6-0.6-6.6c-2.1-2.1-2.6-4.2-0.2-6.4
	c1.6-1.5,1.7-3.1,0.7-4.9c-2.3-4.4-1.4-8.3,1.7-12c2.8-0.8,4.5-2.8,5.6-5.4c3.5-5.2,8.4-5,11.4,0.4c1.8,3.4,1.8,6.9,1.5,10.5
	c-0.1,1-0.8,1.7-1.4,2.5c-0.7,1-3.1,0.7-2.6,1.9c1.6,4.1,1.3,9.2,5.6,12c0.4,0.3,1.1-0.6,1.5-1.2c4.1-4.3,3.7-10,4.7-15.2
	c0.4-2,0.2-4.5,3.4-4.1c0.2,3-0.7,6.1,0.8,8.9C225.8,203.1,226.5,202.7,227,202z"/>
<path fill="#865347" d="M186,117c4.3,0,8.7,0,13,0c3.2,1.5,3.7,4.1,2.5,7.1c-0.9,2.5-0.8,4.8,0.2,7.2c2.8,6.9,0.3,13.3-2.5,19.6
	c-0.3,0.6-0.6,1.4-1.2,1.5c-5,1.6-6,6.1-7.6,10.2c-1.7,1-3.4,1.8-5.3,2.2c-1.5-0.3-4.1-0.4-5.6-1c0.5-4.7-2.5-4-5.2-5
	c-2.2-0.8-4.9-1.1-3.5-4.6c0.5-0.6,1.1-1,1.9-1.2c1.3-0.2,2.6-0.3,4-0.3c5.5-0.3,6.2-1.2,5.2-6.6c-0.1-0.8-0.3-1.7-0.7-2.4
	c-4.7-7.1-1.3-14.2,0-21.2C181.7,119.9,184.3,118.7,186,117z"/>
<path fill="#9C625A" d="M144,245c-0.7,0-1.3,0-2,0c-1.5-1.4-4.6-1-4.9-4c1.7-3.5,2.1-7.3,1.8-11.1c-0.3-3.6,0.3-6.6,4.2-8
	c1-0.4,1.7-1.1,1.9-2.1c1.2-4.8,4-4.2,7.5-2.6c6.7,3.1,10,1.5,11.7-5.3c1.3-5.4,3.4-10,9.4-11.6c1.8-0.5,2.4-2.3,2.5-4
	c0.3-3.3,2.2-4.9,5.3-5.7c2.5,0.3,5.1-0.5,7.5,0.6c2.1,2.3,1,4.4-1.3,5.1c-2.7,0.8-3.5,2.4-4.1,4.8c-0.7,2.6-3.2,3.7-5.3,4.9
	c-1.3,0.7-2.8,1-4.1,1.7c-1.2,0.6-2.6,1.3-2.4,2.8c0.3,1.9,2.1,1.2,3.3,1.3c3.3,0.5,6.6,0.9,9.2,3.3c2.4,2.3,2.7,5.1,0.1,6.8
	c-3.9,2.6-3.7,5.7-2.5,9.3c-0.4,1.9-0.4,4-3.2,4.2c-3.8,0.2-7.5-0.6-9.7-3.5c-2.5-3.2-5.7-4.2-9.2-5.2c-8.6-2.4-13.8,3.6-12.5,10.6
	C147.6,240.5,147.2,243.3,144,245z"/>
<path fill="#6F4D48" d="M190,162c-0.2-4.8,0.9-8.3,6-10.7c4.1-1.9,4.2-7.3,4.5-11.5c0.2-2.7,0-5.8-1.6-8.2c-1.8-2.8-1.6-5.3,0-7.9
	c1.3-2.2,1.1-4.4,0.1-6.7c1.7,0,3.3,0,5,0c2.7,3.2,5.2,6.5,8.2,9.5c2.7,2.7,2.6,6.1,0.9,9.1c-1.3,2.1-1.4,4.3-1.8,6.5
	c-7.5,3.5-9.7,12.1-15.8,16.8c-0.5,1.2-1.6,2-1.9,3.3c-0.1,0.7-0.4,1.3-0.9,1.8c-1.5,0.7-2.2,0-2.6-1.3C190,162.5,190,162.2,190,162
	z"/>
<path fill="#74514D" d="M159,245c-2.3,0-4.7,0-7,0c-6.9-6.5-6.7-12.3,0.8-18.2c1.5-1.2,3.2-1.2,4.7-0.7c3.9,1.3,8,2.3,10.9,5.7
	c2.2,2.5,5.3,2.9,8.3,3.7c7-0.4,7.8-1.5,6-8c-1.2-4.3,0.2-6.2,4.9-6.5c1.9,3.3,3.2,6.8,3.1,10.6c-2.6,8.1-6.3,10.6-13.7,9.4l0,0
	c-4.7-1.2-9.4,0.7-14.2-0.5C160.2,239.8,160.4,243.5,159,245z"/>
<path fill="#915F5A" d="M177,237c-7.1,0.2-11.6-5.1-17.2-8.1c-2.9-1.6-4.1-1.3-6.6,0.9c-5.9,5-2.6,10-1.2,15.2c-2.7,0-5.3,0-8,0
	c1.1-3.9,1.3-7.8,0.6-11.8c-0.8-4.5,5.3-10.4,9.8-9.3c3,0.8,5.9,0.9,8.8,1.2c3.1,0.2,5.5,1.4,7.1,4.5c2.5,4.8,7.4,5.3,9.7,1.4
	c2.7-0.1,3.6,1.6,2.9,3.7C182,237.7,179.7,238,177,237z"/>
<path fill="#9B5E51" d="M186,117c-0.1,3.4-2.4,6.1-3.2,9.3c-1.6,6.3-2.1,12.2,1,18.3c1.6,3,1.2,6.7-1.5,9.3
	c-2.6,2.5-5.9,2.8-9.3,1.2c0.1-1.1,0.8-1.8,1.7-2.1c3.9-1,3.8-3.2,2.1-6.1c-3.9-7.9-3.1-16.8-5.5-25.1c-0.6-2.1,0.2-3.5,1.7-4.8
	C177.3,117,181.7,117,186,117z"/>
<path fill="#2F2F30" d="M196,245c0.4-0.5,0.7-1.2,1.2-1.6c11.7-7.3,17-19.8,24.7-30.4c1.9-2.6,4.3-4,7.1-5.1
	c-1.8,6.7-3.6,13.4-5.5,20c-1.1,3.9-3.2,5.7-7.3,3.2c-1.9-1.2-4.2-1.4-5.2,0.8c-2,4.6-6,8-7,13C201.3,245,198.7,245,196,245z"/>
<path fill="#AB6A5A" d="M173,117c2.6,9.9,1.1,20.8,7,30c-3.4,6.8-9.7,7.9-16.9,3c1.3-0.4,2.5-0.8,3.8-1.1c4.4-1.2,6.8-5.6,5.5-10
	c-0.4-1.4-1.3-2.9-1.2-4.3c0.5-6.8-2.1-11.9-7.6-15.7c-0.6-0.4-1-1.3-1.5-1.9C165.7,117,169.3,117,173,117z"/>
<path fill="#787385" d="M225,117c1,0,2,0,3,0c2.5,2.2,2.8,5.4,3.8,8.3c-3.1,4.6-2.9,10-4,15.2c-0.7,2-1.1,4.1-1.5,6.2
	c-0.5,3.2-3.4,4.5-6.3,3.3c-4.3-1.8-6.3-6.8-3.8-10.8c2.2-3.6,0.8-7,0.4-10.5c0-0.5,0.2-1,0.4-1.5c0.7-1.1,1.8-1.5,3-1.1
	c4.3,1.2,4.5-1.1,3.8-4.2C223.5,120.1,223.2,118.3,225,117z"/>
<path fill="#2D2929" d="M117,195c2.6,0.2,5.3,0.2,7.9,0.5c4.9,0.5,8.8-2.6,9.1-7.5c0.3-4.7-0.5-9.2-1.4-13.8
	c-0.8-4.1-1.3-8.2,0.4-12.2c3,4.9,2.8,10.6,3.6,16.1c0.3,2.4,0.3,4.9,0.7,7.4c0.9,5-0.3,9.5-4.5,12.8c-0.7,0.5-0.9,1.4-1.2,2.1
	c-0.5,2.2-0.9,4.4-1.9,6.5c-0.5,0.8-1.3,1.2-2,1.7c-5.4,3.2-7.6,2.3-8.6-3.4c-0.2-3.1,0.9-6.6-2.1-9.1C117,195.7,117,195.3,117,195z
	"/>
<path fill="#959E9C" d="M239,199.9c2-1.3,4-2.6,6-3.9c0,5,0,10,0,15c-1.3,2.1-1.5,4.7-2.4,6.9c-0.7,1.8-1.5,3.6-3.7,3.4
	c-2.6-0.2-2.3-2.4-2.4-4.2c0-2.2-0.4-4.1-1.6-6C232.1,206.9,234.2,201.7,239,199.9z"/>
<path fill="#675259" d="M210,142c-0.3-2.4-0.6-4.7,1.1-7c1.8-2.6,0.8-5.1-1.1-7.6c-2.4-3.2-6.2-5.6-6-10.3c1.3,0,2.7,0,4,0
	c1.6,2.1,3.7,3.8,5.9,5.3c1.8,1.3,3,3.1,3.1,5.4c0,2.6,0.6,5.2,0.5,7.9c0,1-0.3,2-0.9,2.7c-2.2,2.6-2.4,5.2-0.6,8
	c0.8,1.2,1.4,2.7,0.2,4.1c-0.7,0.5-1.5,0.6-2.4,0.4C210.2,148.8,207.5,146.5,210,142z"/>
<path fill="#A26E63" d="M140,117c-3,4.6-6.2,9.1-4,15c2.6,11.5,1.3,23.2,1.5,34.9c0,1.8,0.5,3.9-1.4,5.2c-3.1-1.5-1.8-4.5-2-6.8
	c-0.5-7,0.7-14.1-0.9-21.1c-1.8-7-2.2-14-1.7-21.1c0.2-2.7,1-4.8,3.6-6.1C136.7,117,138.3,117,140,117z"/>
<path fill="#858497" d="M225,117c0.6,2.4,1.4,4.7,1.8,7.2c0.4,2.3,0.3,4.8-2.2,6.1c-2.3,1.2-3.6-0.9-5.1-2.1
	c-0.5-0.4-1.1-0.8-1.6-1.2c-2.9-1.6-4.7-4.5-7.3-6.5c-1.1-0.8-1.6-2.1-0.7-3.5c0.7,0,1.3,0,2,0c2.7,2.3,5.3,3.1,8,0
	C221.7,117,223.3,117,225,117z"/>
<path fill="#7D8888" d="M239,199.9c-4.7,4.2-5.2,6.5-1.9,12c1.4,2.4,0.3,5.2,1.8,8c2.3-3,3.1-6.8,6.2-8.9c0,3,0,6,0,9
	c-2.1,3.8-1.5,8.6-4.9,11.8c-3.4,0.9-4-1.1-4.1-3.8c0-3.3,0.2-6.6-0.1-9.9c-0.3-2.9-0.6-5.9-2.7-8.3C233.2,202,234,200.7,239,199.9z
	"/>
<path fill="#636269" d="M117,230c0-4,0-8,0-12c1.8-3.2,3.8-4.5,6.4-0.7c0.8,4,2.1,7.9,3.1,11.9c-0.3,1.8-1.9,3-1.6,5
	c0.3,2.1-0.1,4.2-2.6,4.6c-2.8,0.5-3.5-1.7-4-3.9C117.8,233.3,118.3,231.4,117,230z"/>
<path fill="#706D73" d="M124.9,229.1c-1.4-3.6-2.6-7.2-2.9-11.1c1.3-0.9,2.6-0.5,3.8,0.2c3.3,4.7,4.9,10.2,6.7,15.7
	c0,2,1,3.7,1.7,5.6c0.6,1.7,1.6,3.8-0.2,5.6c-1,0-2,0-3,0C125.8,241.3,123.4,235,124.9,229.1z"/>
<path fill="#57555A" d="M124.9,229.1c2,5.3,4.1,10.6,6.1,15.9c-2.7,0-5.3,0-8,0c-4.9-3.7-5.7-6-4-11c1.1,0.9,1,3.4,2.9,2.9
	c1.8-0.5,1-2.6,1-4C122.8,231.1,122.6,229.5,124.9,229.1z"/>
<path fill="#5D4A44" d="M132.9,145.1c-2.7-5.1-3.7-10.9-7.3-15.7c-1.5-2.1-0.8-5.2,0.3-7.7c0.7-1.5,1.3-3.1,1.1-4.8c1.7,0,3.3,0,5,0
	c0.3,0.4,0.7,0.9,0.6,1.3c-2.4,7.7-1.1,15.3,0.8,22.9c0.2,0.8,0,1.7,0,2.5C133.5,144.3,133.3,144.8,132.9,145.1z"/>
<path fill="#5C4743" d="M159,245c-0.4-0.9-0.8-1.8-1.1-2.8c-1.2-4.2,0-5.8,4.2-5c5,1,9.9,2.5,14.9,3.8c-4.8,0.9-9.8,1.1-14,4
	C161.7,245,160.3,245,159,245z"/>
<path fill="#404245" d="M233.2,209.8c3.6,2.2,3.1,5.9,3.5,9.3c0.4,2.9,0.1,5.9,0.3,8.9c0.1,1.8,0.1,4,3,3c1.2-1.8,2.3-4,5-1.9
	c0,2.3,0,4.7,0,7c-1.9,4.3-3.8,8.6-9.9,7c0.3-2.9,3-3.2,4.8-4.6c1.2-0.9,2.6-1.8,2.4-3.5c-0.2-1.7-1.8-1.7-3.1-1.9
	c-3.4-0.4-4.1-2.7-4.2-5.7C234.9,221.5,235.6,215.5,233.2,209.8z"/>
<path fill="#8B6154" d="M133.2,143.9c-0.8-4.1-1.4-8.1-3.1-12c-2.5-5.3,1.4-9.9,1.9-14.9c1,0,2,0,3,0c-3.5,7-1.8,14.3-1.6,21.6
	c0.1,1.8,0.3,3.6,0.5,5.5c-0.2,0.2-0.4,0.4-0.5,0.6C133.3,144.4,133.3,144.1,133.2,143.9z"/>
<path fill="#626B6B" d="M235.1,243c3.4-2.2,7.1-4,9.9-7c0,3,1,8.1-0.2,8.6c-2.8,1.3-6.5,0.4-9.8,0.4C235,244.3,235,243.7,235.1,243z
	"/>
<path fill="#7D797E" d="M124.9,219c-1-0.3-2-0.6-2.9-1c-1.7-2.6-3.3-1.1-5,0c0-1.7,0-3.3,0-5c2-4.4,5.2-3.8,8.7-2
	C126.6,213.8,127.5,216.5,124.9,219z"/>
<path fill="#4E484B" d="M119,234c-0.6,4.4,3.3,7.1,4,11c-5.1,1.1-6.9-0.8-6.1-6c0.5-2.9,0.1-6,0.1-9
	C118.5,230.9,118.9,232.4,119,234z"/>
<path fill="#515257" d="M124.9,210.9c-2.9-0.1-5.5,0.8-7.9,2.1c0-3.3,0-6.7,0-10c1.6-1,2.8-0.2,3.9,1c1,5.5,1.5,5.7,6,3
	C128.5,209.3,127.4,210.4,124.9,210.9z"/>
<path fill="#A4BCC4" d="M245,135c-1.4-0.5-3.5-1.1-3.2-2.6c1.2-5.9-2.5-10.3-3.8-15.4c0.7,0,1.3,0,2,0c4.2,2.5,3.5,7.2,5,11
	C245,130.3,245,132.7,245,135z"/>
<path fill="#B1C1C3" d="M245,128c-1.9-3.6-4.4-6.9-5-11c4.2-0.9,5.8,0.7,5.1,5C244.7,124,245,126,245,128z"/>
<path fill="#635455" d="M134,245c-0.3-3.8-3.1-7-2.9-11c0.6-0.6,1.3-0.9,2.2-0.8c1.7,0.4,2.7,1.7,3.7,3c0.4,2.9,0.8,5.8,1.1,8.8
	C136.7,245,135.3,245,134,245z"/>
<path fill="#777F80" d="M245,229c-1.9,0-3.4,1.1-5,1.9c0.7-4.1,1.7-8.1,5-10.9C245,223,245,226,245,229z"/>
<path fill="#5F6366" d="M120.9,204c-1.3-0.3-2.6-0.6-3.9-1c0-2.3,0-4.7,0-7C122.4,196.7,121.1,200.6,120.9,204z"/>
<path fill="#8F98BC" d="M220,117c-0.1,2-0.7,3.6-3,3.8c-2.8,0.2-4.3-1.3-5-3.8C214.7,117,217.3,117,220,117z"/>
<path fill="#915F5A" d="M138,245c-1.1-2.6-3.3-4.8-3.1-8c3.3-0.4,3,1.9,3.1,4c1.3,1.3,2.7,2.7,4,4C140.7,245,139.3,245,138,245z"/>
<path fill="#9E9E9E" d="M230.9,124.9c-2.7-2-1.8-5.3-2.9-7.9c1,0,2,0,3,0c0.1,1,0.1,1.9,0.2,2.9
	C232.1,121.6,232.5,123.3,230.9,124.9z"/>
<path fill="#5B4C4F" d="M224.1,194c-1.7,2.5-1.5,5.6-1.4,8.2c0.1,5-2,8.9-4.7,12.8c-1.7,1.4-3.2,1.2-4.7-0.5
	c-3.6-3.9-3.2-7.6-2-12.7c1.9-7.8,5.2-15.6,2.3-24.2c-1.1-3.3-1-7.5,1.2-10.9c1.9-0.6,3,0.5,3.1,2.1c0.5,5.7,3.3,8.5,9.1,8.1
	C226.5,182.7,225.8,188.5,224.1,194z"/>
<path fill="#64585C" d="M227.1,177c-1.9,0.8-1.4,5.2-4.1,3.9c-3.1-1.6-6-4.1-6.8-7.9c-0.4-1.9-0.2-3.9-0.2-5.9
	c-0.8-2.2,1.2-2.3,2.3-3.1c1.7-1.1,5-0.9,4.5-3.8c-0.5-2.7-1.3-5.8-4.4-7.2c-1.2-0.6-3.1-0.8-2.4-3c-2.2-4.7-5.3-9.4,0-14
	c1.2,0.9,1.1,2.1,0.4,3.1c-2.8,4.1-0.2,6.9,2.4,9.5c1.5,1.5,3.6,1.9,5.6,1c1.9-0.8,1.6-2.7,1.6-4.3c0.1-1.8-0.3-3.7,1-5.3
	c-0.1-5.4,1.2-10.4,4-15.1c0.1-1.7,0.2-3.4,0.3-5c2.5,1.6,2.3,3.9,1.4,6.1c-3.7,9.4-4.7,19.2-4.6,29.2
	C228.1,162.5,228.1,169.7,227.1,177z"/>
<path fill="#B1736C" d="M136,172c-0.5-9.5,0.8-18.9,1.2-28.3c0.2-4-2.7-7.6-1.1-11.7c3,9.5,2.1,19.3,3,29c2.1,2.3,2.3,5.2,2.4,8.1
	c0.2,3.7,1,7.2,2.4,10.6c1.7,4,3.9,4.3,7.2,1.4c3.2-2.9,2.7-6.4,2-10.1c-0.3-0.7-0.7-1.3-1-2c4.1-1.6,6.8-0.3,9.2,4.8
	c0.3,1.6-0.2,3-0.9,4.3c-1.1,1.9-1.1,4.2,0,5.7c3.8,5.3,2.8,11.8,4.4,17.6c0.7,2.6,0.8,5.4-0.3,8.1c-1.8,4.4-4,5.8-8.5,4.6
	c-4-1-8.6,0.2-12.2-2.8c-6.6-4.6-7.4-11.5-7-18.6c0.2-3.9,0.1-7.6-0.6-11.4C135.7,178.2,134.5,175.1,136,172z"/>
<path fill="#A46A5F" d="M160,174c-2.4-2-4.4-4.8-8-5c-1.9-1.8-3.9-3.5-5.8-5.3c-2.7-2.6-2.5-4.9,0.4-7.5c4.7-4.2,10.6-5.1,16.4-6.2
	c5.9,0.7,12,1.9,16.9-3c0,7.6-0.1,7.7-7,8c-0.7,0.1-1.4,0.1-2,0.2c-0.6,1-1.6,1.3-2.7,1.3c-1.3,0.3-2.6,0.2-3.7-0.7
	c-3.2-2.1-5.8-1.7-7.8,1.8c-1.1,2-5.3,2.2-4.1,5.4c1.2,3.2,4.3,1.4,6.6,1.5c2.3,0.1,4,1.2,4.1,3.5c0.3,4.2,1.8,6.9,6.5,6.8
	c1,0,1.7,0.9,1.9,2c0.1,2.5-1.7,3.8-3.2,5.3c-1.8,1.8-3.9,2.4-6.3,1.1c-2.4-1.3-2.9-3.3-2.3-5.9C160.2,176.3,160.9,175.1,160,174z"
	/>
<path fill="#B97C72" d="M153,171c4.2,1.2,4.4,4.1,2.9,7.5c-1.4,3.3-4.1,5.8-7,7.6c-2.9,1.8-4.9,0.2-6.3-2.6
	c-3.6-7.1-3.9-14.7-3.6-22.4c3.7,1.5,5.3,5.6,8.8,7.5C149.5,169.4,151,170.6,153,171z"/>
<path fill="#745251" d="M136,172c0.1,3-0.4,6.1,1.1,9c1.2,5.7,0.4,11.4,0.5,17.1c0,4.2-3.9,5-8.5,1.9c-0.1-1.9,0.6-3.2,2.3-4
	c4.4-1.9,4.6-5.7,4.1-9.7c-0.9-8.1-1.7-16.2-2.6-24.3c0-5.6,0-11.3-0.1-16.9c0.1-0.4,0.2-0.8,0.3-1.2c0.2,0.1,0.5,0.1,0.8,0.2
	c1.7,6.5,0.8,13.1,1,19.7C135.1,166.5,134.6,169.4,136,172z"/>
<path fill="#564142" d="M216,150c2.6,1.6,5.7,2.4,7.4,5.6c2.6,5,1.6,8-3.7,9.8c-1.2,0.4-2.4,1.1-3.6,1.6c-1.6,3.9-1.6,7.7,0.7,11.4
	c0.6,0.9,1.3,2.2,1.1,3.2c-1.2,7.4-1.6,15.2-4.6,22.1c-2.5,6-1.7,9.4,4.7,11.3c-0.5,1.8-1.2,3.8-3.3,3.8c-1.9,0.1-1.6-2.2-2.5-3.4
	c-3.4-4.9-3.7-11.5-9.2-15.8c2.8-0.5,6.1,1.5,7.4-1.7c1.4-3.5,0.2-7-1.6-10c-1.9-3.1-4.5-3-6.8,0c-0.4,0.4-0.9,0.5-1.5,0.3
	c-2.4-1-2.3-3.3-1.9-5.1c0.7-3.9-0.2-7-3.3-9.5c-0.9-0.7-1-1.7-0.9-2.7c0.1-0.7,0.3-1.5,0.8-2.1c2.6-1.9,3.9,0.8,5.5,1.8
	c6.4,4.1,9.7,2.9,11.8-4.6c0.4-1.4,1.1-2.3,2.2-3.2c1.5-1.1,2.8-2.5,2.1-4.6c-0.7-2.2-2.6-2.8-4.7-3.1c-1.3-0.2-2.7,0.4-3.9-0.5
	c-0.4-0.3-0.7-0.8-0.8-1.3c0.4-4.4,3.3-4.4,6.6-3.6C214.6,150,215.3,150,216,150z"/>
<path fill="#5F4341" d="M177,241c7-0.2,9.4-2.4,11-10c0.8-1.4,0.8-3,0-4.2c-1.3-2.3-0.6-4.2,0.7-6c1.4-1.9,1.4-3.5-0.5-5.2
	c-2.1-1.8-2.5-3.9-0.4-6c1.3-1.3,1.3-2.6,0.8-4.4c-1-3.9,0.2-7.5,3.1-10.4c1.2-1.2,2.4-2.4,4.2-0.8c-3,3-3.5,6.2-1.1,9.8
	c1.2,1.9,1,3.8-0.7,5.4c-2.9,2.7-1.8,5,0.7,7.1c3.6,3,3.5,5.7-0.4,8.3c-3.1,2.1-2.5,4.4,0,6.5c2,1.7,2.9,3.9,0.4,5.3
	C189.4,239.3,184.1,244,177,241z"/>
<path fill="#6D4646" d="M196,194c-5,2.6-6.4,5.7-5.5,10.8c0.8,4.6-3.4,9.6,1.2,13.9c-3.6,3.4-2.5,8.2-3.6,12.3c0.3-3.4-2.5-6.5-1-10
	c-1.4-2.2-1.3-5.1-3.7-6.9c-1.2-0.9-1-2.7-0.5-4.2c1.9-5.7,2.1-12,7.1-16.4c1.6-1.4,1-4.5,3.4-5.8c2.6-0.9,5.1,1.8,7.7,0.3
	c0.3,0,0.6,0,0.9,0C202.4,192.4,198.7,192.7,196,194z"/>
<path fill="#63433F" d="M168,155c1,0.1,2,0.1,3,0.2c3.5,2.5,7,3.6,11,1.1c1-0.6,2.1-2.4,3.4-0.9c1.2,1.4,0.6,3.1-0.3,4.6
	c-1.1,1.9-3.5,1.7-5.1,3c-0.2,2.4-1.6,4.3-2.5,6.4c-1.6,3.7-4.9,5.2-8.8,5.2c-3.8,0-4.8-2.8-5.7-5.8c-0.5-1.6-1.6-2.9-2.3-4.4
	c-1.2-2.9,0.2-5.5,1.1-8C162.9,153.5,165.6,154.3,168,155z"/>
<path fill="#8C5C55" d="M162,165c0.5,0.9,0.9,1.8,1.5,2.6c1.7,2.4,2.8,5.6,6.5,5.2c3.6-0.3,5.5-2.5,6.4-5.9c0.5-1.8,2.1-2.9,3.6-3.9
	c1.7,0,3.3,0,5,0c0.1,0.2,0.3,0.4,0.4,0.6c0.2,1.3-0.2,2.5-1.2,3.1c-2.9,1.5-4.6,4.2-6.7,6.6c-1.6,1.9-3.5,3.6-6.5,2.7
	c-5.3,1-7.9-0.4-8.9-5.6c-0.6-3.1-1.7-4.4-4.9-3.7c-2.2,0.5-4.3-0.3-6.1-1.5c-1.3-0.9-2.5-2.6-1.2-3.7c3.4-2.8,5.4-7.2,9.9-8.8
	c2.1-0.8,3.9-0.6,5.3,1.3C161,156.6,159.6,161.7,162,165z"/>
<path fill="#8C5C55" d="M185,163c1.5-1,3.3-1,5-1c0,0,0,0,0,0c1.2,3,2.8,5.8,3.6,9c0.5,1.3,0.4,2.7,0.4,4.1c0.1,2.8,0.7,5.6-0.1,8.4
	c-0.1,0.6-0.1,1.1-0.2,1.7c-0.9,2.5-0.8,5.5-3.6,7c-2.9-2.3-2.4-5.6-2.3-8.7c0.2-7,0.2-13.9-2.7-20.5L185,163z"/>
<path fill="#A16A63" d="M129,200c7.8-0.6,7.9-0.7,8-8.7c0-3.4,0-6.9,0-10.3c1.8,3.6,0.7,7.5,1,11.3c0.5,6.3,1,12.7,7,16.7
	c3.5,2.5,6.8,5.2,11.6,5.1c3.3-0.1,5.6-0.5,7-4c1.5-3.6,1.4-7.2,1.2-10.9c-0.1-2.5-0.8-5.5,2.7-6.7c3,2.3,5.5,1.7,7.6-1.3
	c0.6-0.8,1.3-1.5,2.4-1.6c2.2,0,3.8,0.7,3.5,3.3c-2.4,0.3-2.9,1.7-2.6,3.9c0.4,2.5-0.6,4.6-3.1,4.9c-6.5,0.8-8.2,5.4-9.4,10.6
	c-0.7,3.1-1.6,5.9-4.9,7.6c-3.7,1.9-6.8,2.4-9.8-1.1c-0.7-0.8-2-1.7-3.1-1c-1.4,0.9-0.2,2.1,0.3,3c1.3,2.4,1,4-2.2,3.5
	c-4.9-0.9-5.2,1.7-4.8,5.5c0.4,4,1.5,8.5-3.4,11c-1-1.3-2.1-2.6-3.1-4c-1.1-0.7-1.6-1.8-1.9-3.1c-3.4-6-6.1-12.2-6.8-19.2
	c-0.3-3.4,1.4-5.9,1.7-8.9C128.3,203.9,128.7,202,129,200z"/>
<path fill="#AE6B64" d="M181,193c-1-1.4-2.3-1.9-4-1.9c-2.9,1.3-6.1,0.9-9,2c-1.3,2-1,4.1-0.7,6.3c0.8,5.6-2.9,10-4.1,15.1
	c-0.3,1.4-2.1,1-3.5,1c-5.9,0-11.1-1.2-14.7-6.4c3.5,0.6,6.2,3.3,10.1,3.5c5.8,0.3,9.5-2.6,7.7-8c-2.1-6.3-0.6-13.4-5.1-19.3
	c-2.7-3.5,1.6-7.4,2.3-11.2c0.1,0.1,0.2,0.3,0.3,0.4c1.3,2.3,0,6.4,3.7,6.9c3.6,0.5,5.1-3.1,7.1-5.4c5-4,8-10.1,14-12.9
	c4.2,1.5,4.5,5.2,4.9,8.8c0.8,6.7,0.1,13.4,0,20.1c-0.3,0.3-0.6,0.4-0.9,0.1C186.5,193.2,183.7,193,181,193z"/>
<path fill="#87534F" d="M189.1,192.1c0.3,0,0.6-0.1,0.9-0.1c1.3-2.2,1.7-4.6,2-7c3.2,0.1,3.2,1.8,2,4c-1.7,4.1-4.7,7.5-6.3,11.8
	c-1.4,3.6,0.6,8-2.9,11c-0.8,0.7,0.6,2.1,1.4,2.9c1.9,1.9,2,4,0.8,6.4c-2.6,1.5-3.1,3.4-1.7,6.2c1.5,3.1,0.5,6.2-1.6,8.7
	c-1.8,2.1-4.1,2.5-6.7,1.1c5.4-0.9,5.8-1.8,3-6c-4.7-4.2-4.6-6,0.8-9.1c1.3-0.8,2.8-1.3,2.8-3.1c-0.1-2-1.6-2.9-3.2-3.3
	c-3-0.9-5.9-1.9-9.2-0.4c-3.2,1.5-4.4-0.5-3.7-3.5c0.9-4,3.7-5.9,7.5-7.2c3.4-1.1,7.8-1.9,5.5-7.7c-0.9-2.4,1.8-2.6,3.7-2.6
	C186.1,194,188.3,194.9,189.1,192.1z"/>
<path fill="#614744" d="M214,150c-1.9,1.5-4.6,1.7-6,4c-5,2.8-9.8,6.5-15.9,3c0.3-0.8,0.8-1.7,1.7-1.6c4,0.6,4.8-2.3,6.1-5
	c2-4.3,4.1-8.8,10.2-8.4C211.1,144.8,212.1,147.6,214,150z"/>
<path fill="#564142" d="M192,157c5.6,0.7,10.5-2.8,15.9-3c0,0,0,0,0,0c0.6,4.9-3.8,4.9-6.3,5.1c-4.5,0.5-6.7,1.4-4.5,6.3
	c0.5,1.1,0,2.3-1.3,2.9c-5,0.2-2.4-4.3-4-6.3C192,160.3,192,158.7,192,157z"/>
<path fill="#614744" d="M192,162c1.8,1.6,1.7,4.6,4,6c0.2,0.2,0.3,0.4,0.3,0.6c-0.1,0.2-0.1,0.3-0.2,0.3c0,0.7,0,1.4-0.1,2
	c-3.1,1.1-3.7-1.2-4.4-3.3c-0.4-1.3-0.7-2.6,0.4-3.8C192,163.3,192,162.7,192,162z"/>
<path fill="#865347" d="M192,164c0,1.3,0.1,2.7,0.1,4c0.6,1,0.8,2,0,3c-1.6-2.8-2-5.8-2-9C190.7,162.7,191.3,163.3,192,164z"/>
<path fill="#6C6473" d="M227,140c-1.3,1-1.8,2.3-2,3.8c-0.2,2.5-0.2,5.3-3.9,4.8c-3-0.4-5.7-5.1-4.1-7.7c2.7-4.3,1.9-8.5,1-12.9
	c0,0,0,0,0,0c0-0.4,0-0.7,0-1.1c-2-3.9-6.5-5.7-8-10c-0.7,0-1.3,0-2,0c0.1,5.3,6,6.1,8,10c0,0,0,0,0,0c0,3,0,6,0,9
	c-2.4,7.4-0.8,12.7,4.3,14.5c4.4,1.5,6.5,0.2,6.7-4.6C227,143.9,227,142,227,140z"/>
<path fill="#806360" d="M127.9,205.8c-1.2,8.4,0.3,16.3,4.1,23.9c0.6,1.3,0.7,2.8,1,4.3c-0.7,0-1.3,0-2,0c-2-5-4.1-10-6.1-15.1
	c0-2.7,0-5.4,0-8.1c0.8-1.3,1.9-2.3,1.9-3.9C127.2,206.6,127.6,206.2,127.9,205.8z"/>
<path fill="#75514D" d="M162,165c-1.5-0.1-3-0.1-4.4-0.3c-1.2-0.2-2.3-0.7-2.6-2c-0.3-1.7,1.3-1.6,2.3-1.9c1.7-0.5,3.2-1.4,3.1-3.3
	c-0.1-3.4,2.2-3.5,4.6-3.6c1,0.3,2,0.7,3,1C161,155.3,162.8,160.9,162,165z"/>
<path fill="#423736" d="M196,169c0-0.3,0-0.7-0.1-1c0.5-3.2-3.7-5.9-1.7-8.8c1.8-2.5,5.6-0.8,8.4-1.9c2-0.8,4.1-1.4,5.4-3.3
	c8.6-2,10.1-1.4,12.3,5.1c1,2.8,0.3,4.5-2.7,5c-2.2,0.4-3.1,1.9-3.8,4c-2.7,8.7-5.5,9.6-13.2,4.5C199,171.6,197.6,170.2,196,169z"/>
<path fill="#765558" d="M192,171c0-1,0-2,0-3c1.3,1,2.6,2,3.9,3c5.1,4.6,3.8,11.2,5.1,17c-1.7,4.8-4.7,0.9-7.1,1c-0.1-1.6-0.6-3-2-4
	c0-0.3,0-0.6,0.1-1c3.7-3,3-6,0-9C192.1,173.7,192,172.3,192,171z"/>
<path fill="#3F2F2F" d="M168.5,167.9c-2.2-0.1-4.3-1.1-4.2-4c0.2-3.7,2.8-5.6,6.3-5.7c2.4-0.1,5.2,0.4,5.7,3.5
	C176.7,164.1,171.8,167.9,168.5,167.9z"/>
<path fill="#815F6A" d="M192.1,175c5.6,0.6,5.6,5.5,6.5,9.3c0.5,1.9-0.9,2.4-2.4,1.1c-1.2-1-2.6-1.4-4.1-1.4
	C192.1,181,192.1,178,192.1,175z"/>
<path fill="#9C625A" d="M168,193c2.7-5.1,3.7-5.4,9-2c-1.1,2-2.2,4-3.5,5.9c-0.8,1.3-1,3.6-3.2,3.1c-1.8-0.4-2-2.4-2.3-4
	C168,195,168,194,168,193z"/>
<path fill="#2E2624" d="M213.3,160.5c0.1,3.9-4.5,10.2-7.6,10.9c-4.1,0.8-5.9-2.2-7.7-5c-0.1-0.1-0.2-0.3-0.2-0.4
	c-0.9-1.9-0.7-3.8,1-4.9c3.5-2.2,7.4-3.6,11.5-3.5C211.9,157.7,213,159.3,213.3,160.5z"/>
</svg>
