<svg xmlns="http://www.w3.org/2000/svg" width="128" height="128" viewBox="0 0 33.9 33.9"><path d="M0 17V0h33.9v33.9H0z" fill="#929aa1"/><path d="M0 17V0h12.5c12.2 0 12.6 0 12.8.5.2.7 1.7 1.2 2 .8l.2-.7c0-.3.6-.6 1.3-.6.5 0 .8.5.8 1.3 0 .3.2.6.3.7.2.1.3-.1.2-1V0h.9c.8 0 1 .1 1.6 1 .4.6.6 1.4.6 2.1 0 .8 0 1.1.3 1.1s.4 1.6.4 8.6v8.6l-1 .4-1.1.4c-.2 0-.3.3-.3.6 0 .4-.1.8-.3 1-.2.2-.2.4.3 1 .4.5.5 1 .5 2.4V29l.4-1.2.9-2.5.5-1.4v10H0zM28.5 1c0-.2-.2-.1-.2.2 0 .2 0 .4.2.3V1z" fill="#bd8174"/><path d="M0 17V0h12.5c12.2 0 12.6 0 12.8.5.2.7 1.7 1.2 2 .8l.2-.7c0-.3.6-.6 1.3-.6.5 0 .8.5.8 1.3 0 .3.2.6.3.7.2.1.3-.1.2-1V0h.9c.8 0 1 .1 1.6 1 .4.6.6 1.4.6 2.1 0 .8 0 1.1.3 1.1s.4 1.6.4 8.6v8.6l-1 .4-1.1.4c-.2 0-.3.3-.3.6 0 .4-.1.8-.3 1-.2.2-.2.4.3 1 .4.5.5 1 .5 2.4V29l.4-1.2.9-2.5.5-1.4v10H0zm10 4.8c0-.6-.3-.9-.6-.4-.2.3.1 1 .4 1 .1 0 .3-.2.3-.6zm-.7-4.5l.8-.6.4-1c.3-.5.2-.6-.2-1l-.7-.4c-.3 0-1.4-.7-2.5-1.6-.3-.2-.5-.5-.5-.7 0-.2-.2-.5-.4-.6-.4-.4-.4-.2-.3 1.6.2 2.2.3 2.9.7 3.6.2.3.3.8.3 1 0 .8 1.3 1 1.6.4l.8-.7zM7.3 9c-.2-.4-.9-.3-1 0-.2.2-.1.5 0 .7.4.4.5.4.8 0l.2-.7zm3.8-.7c.3-.3.3-.4 0-.4-.7 0-1.3.3-1.3.6 0 .4 1 .3 1.3-.2zm-2.6-.7l-.6-.4c-.3 0-.5-.3-.5-.6S7.2 6 7 6c-.5 0-.5.1.2 1 .6.8 1.3 1.1 1.3.5zm3.5-3c0-.4 0-.9.4-1.4l.6-.9c0-.2-1.2 0-2 .3s-.9.8-.3 1c.2 0 .4.4.4.7 0 .7.2 1 .7 1 .3 0 .3-.2.2-.7zM28.5 1c0-.2-.2-.1-.2.2 0 .2 0 .4.2.3V1z" fill="#817d90"/><path d="M0 17V0h24.3l1.1 1.1c.9 1 2.3 2.6 2.5 3h.5c.6-.2.8-1.8.5-3l-.2-1c.3-.3 1 .6 1 1.3 0 .4 0 .7.2.7.4 0 .6-.6.3-1.4-.3-.7-.3-.7.7-.7s1.1.1 1.7 1c.4.6.6 1.4.6 2.1 0 .8 0 1.1.3 1.1s.4 1.6.4 8.6v8.6l-1 .4-1.1.4c-.2 0-.3.3-.3.6 0 .4-.1.8-.3 1-.2.2-.2.4.3 1 .4.5.5 1 .5 2.4V29l.4-1.2.9-2.5.5-1.4v10H0zm2.1 8.5c0-.4-1-.5-1.2-.1-.1.3.7.8 1 .6l.2-.5zm8-3.7c0-.6-.4-.9-.7-.4-.2.3.1 1 .4 1 .1 0 .3-.2.3-.6zm-.8-4.5l.8-.6.4-1c.3-.5.2-.6-.2-1l-.7-.4c-.3 0-1.4-.7-2.5-1.6-.3-.2-.5-.5-.5-.7 0-.2-.2-.5-.4-.6-.4-.4-.4-.2-.3 1.6.2 2.2.3 2.9.7 3.6.2.3.3.8.3 1 0 .8 1.3 1 1.6.4l.8-.7zM7.3 9c-.2-.4-.9-.3-1 0-.2.2-.1.5 0 .7.4.4.5.4.8 0l.2-.7zm3.8-.7c.3-.3.3-.4 0-.4-.7 0-1.3.3-1.3.6 0 .4 1 .3 1.3-.2zm17-.9c0-.7-.1-.8-.6-.5-.8.4-.6 1.3.2 1.3.2 0 .3-.3.3-.8zm-19.6.2l-.6-.4c-.3 0-.5-.3-.5-.6S7.2 6 7 6c-.5 0-.5.1.2 1 .6.8 1.3 1.1 1.3.5zm3.5-3c0-.4 0-.9.4-1.4l.6-.9c0-.2-1.2 0-2 .3s-.9.8-.3 1c.2 0 .4.4.4.7 0 .7.2 1 .7 1 .3 0 .3-.2.2-.7z" fill="#79868c"/><path d="M0 17V0h24.3l1.1 1.1c.9 1 2.3 2.6 2.5 3h.5c.6-.2.8-1.8.5-3L28.8 0c.3 0 .8 1 .8 1.5 0 .4.2.6.4.5.2 0 .3-.4.2-1 0-1 0-1 .8-1 .9 0 1 .1 1.6 1.4.4.9.7 1.6.6 2-.1.4 0 .7.2 1 .4.2.5 1 .4 8.5v8.3l-.9.4-1.1.6c-.7.3-1 1.9-.5 2.7.3.5.5 1.7.6 3 .2 2.2.2 2.3.7 1.8.3-.2.5-.5.5-.7l.4-1c.3-.8.3-.6.3 2.5v3.4H0zm2.1 8.5c0-.4-1-.5-1.2-.1-.1.3.7.8 1 .6l.2-.5zm8-3.7c0-.6-.4-.9-.7-.4-.2.3.1 1 .4 1 .1 0 .3-.2.3-.6zm-.8-4.5l.8-.6.4-1c.3-.5.2-.6-.2-1l-.7-.4c-.3 0-1.4-.7-2.5-1.6-.3-.2-.5-.5-.5-.7 0-.2-.2-.5-.4-.6-.4-.4-.4-.2-.3 1.6.2 2.2.3 2.9.7 3.6.2.3.3.8.3 1 0 .8 1.3 1 1.6.4l.8-.7zM7.3 9c-.2-.4-.9-.3-1 0-.2.2-.1.5 0 .7.4.4.5.4.8 0l.2-.7zm3.8-.7c.3-.3.3-.4 0-.4-.7 0-1.3.3-1.3.6 0 .4 1 .3 1.3-.2zm17-.9c0-.7-.1-.8-.6-.5-.8.4-.6 1.3.2 1.3.2 0 .3-.3.3-.8zm-19.6.2l-.6-.4c-.3 0-.5-.3-.5-.6S7.2 6 7 6c-.5 0-.5.1.2 1 .6.8 1.3 1.1 1.3.5zm3.5-3c0-.4 0-.9.4-1.4l.6-.9c0-.2-1.2 0-2 .3s-.9.8-.3 1c.2 0 .4.4.4.7 0 .7.2 1 .7 1 .3 0 .3-.2.2-.7z" fill="#b07267"/><path d="M0 17V0h3c2 0 3 .1 3 .3 0 .1 0 .2-.2.2l-.6.4c-.4.4-.4 1-.3 3.7.1 1.8.2 5 .1 7 0 2.2.1 4.2.3 4.6l.3 3.4c0 2 .2 3 .5 3.7.3.6.6 1 .8 1 .1 0 .4.3.5.7.1.4.4.7.6.7a405.5 405.5 0 0 0 3.6.3c.4.2.4.2 1.2-2 .6-1.5.6-1.7.2-1.7-.3 0-.4-.2-.5-.9 0-1.1.2-2.6.4-2.6.5.1 2.2-.4 4.1-1.3 1-.5 1-.3.6.9-.5 1.1-.4 1.4.7 1.4 1 0 1.1-.3.7-1.4-.2-.7-.2-1 0-1.4.4-.7-.3-3.3-1-3.5-.4-.2-.5-.1-.4.2.1.3 0 .6-.2.7-.3 0-.5 0-.5-.3 0-.2 0-.3-.2-.3s-.3 0-.3.2c0 .1-.5.6-1.2 1-1.2 1-1.8 2-1.5 2.6 0 .2 0 .3-.4.3l-1.3-.2c-.8 0-.9 0-.9-.7 0-.3.1-.9.3-1.1.4-.8-.3-1.8-1.5-2.2-1-.3-2.8-1.8-2.8-2.4 0-.2.3-.6.6-.7l1-.8c.3-.5 2.1-.9 4.2-.8 1.3 0 1.4 0 1.5-.7.1-.4.3-.9.5-1V5.8c-.2-.6-.3-1.5-.3-2 0-1.1-.7-2.3-1.9-3.3L12 0h12.3l1.1 1.1c.9 1 2.3 2.6 2.5 3h.5c.6-.2.8-1.8.5-3L28.8 0c.3 0 .8 1 .8 1.5 0 .4.2.6.4.5.2 0 .3-.4.2-1 0-1 0-1 .8-1 .9 0 1 .1 1.6 1.4.4.9.7 1.7.6 2-.1.4 0 .7.2 1 .4.2.5 1 .4 8.5v8.3l-.9.4-1.1.6c-.7.3-1 1.9-.5 2.7.3.5.5 1.7.6 3 .2 2.2.2 2.3.7 1.8.3-.2.5-.5.5-.7l.4-1c.3-.8.3-.6.3 2.5v3.4H0v-17zm5.4 11.7a3 3 0 0 0-.5-1.5c-.2-.4-.2-.6.3-1 .9-.7.8-1.4 0-1.2-.6.2-.7.1-.7-.7 0-.5-.2-1-.5-1.3-.5-.4-.5-.4-.8.9-.2.9-.2 1.4 0 1.8l.2 1.5c0 1 .3 1.6 1 2.6 0 .3.3.3.7 0 .4-.2.5-.4.3-1.1zm-3.3-3.2c0-.4-1-.5-1.2-.1-.1.3.7.8 1 .6l.2-.5zm13.6-3.7c.3-.6.2-.9-.1-.9-.2 0-.2.2-.2.4.1.2 0 .5-.1.6-.2.2-.2.3 0 .3l.4-.4zM28 7.4c0-.7 0-.8-.5-.5-.8.4-.6 1.3.2 1.3.2 0 .3-.3.3-.8zM7.4 2.9c0-.1.3-.3.6-.3s.4.2.3.3c0 .2-.3.3-.5.3s-.4-.1-.4-.3z" fill="#787588"/><path d="M0 30.3c0-2 0-3.7.2-4 .2-.5.7-.5 1.1 0 .5.6.8.5.8-.4 0-.7 0-.8-.8-.8-.4 0-.8.2-.8.3 0 .1 0 .3-.2.3S0 21.2 0 12.8V0h3c2 0 3 .1 3 .3 0 .1 0 .2-.2.2l-.6.4c-.4.4-.4 1-.3 3.7.1 1.8.2 5 .1 7 0 2.2.1 4.2.3 4.6l.3 3.4c0 2 .2 3 .5 3.7.3.6.6 1 .8 1 .1 0 .4.3.5.7.1.4.4.7.6.7a405.5 405.5 0 0 0 3.6.3c.4.2.4.2 1.2-2 .6-1.5.6-1.7.2-1.7-.3 0-.4-.2-.5-.9 0-1.1.2-2.6.4-2.6.5.1 2.2-.4 4.1-1.3 1-.5 1-.3.6.9-.5 1.1-.4 1.4.7 1.4 1 0 1.1-.3.7-1.4-.2-.7-.2-1 0-1.4.4-.7-.3-3.3-1-3.5-.4-.2-.5-.1-.4.2.1.3 0 .6-.2.7-.3 0-.5 0-.5-.3 0-.2 0-.3-.2-.3s-.3 0-.3.2c0 .1-.5.6-1.2 1-1.2 1-1.8 2-1.5 2.6 0 .2 0 .3-.4.3l-1.3-.2c-.8 0-.9 0-.9-.7 0-.3.1-.9.3-1.1.4-.8-.3-1.8-1.5-2.2-1-.3-2.8-1.8-2.8-2.4 0-.2.3-.6.6-.7l1-.8c.3-.5 2.1-.9 4.2-.8 1.3 0 1.4 0 1.5-.7.1-.4.3-.9.5-1V5.8c-.2-.6-.3-1.5-.3-2 0-1.1-.7-2.3-1.9-3.3L12 0h12l1.4 1.5c1.7 1.8 2.2 3.2 1.6 4.2-.6.9-.6 1.8 0 2.4.9.7 1.6.4 1.5-.7 0-.5 0-1 .3-1.3a7 7 0 0 0 .6-2.5c0-1.2.2-2 .3-1.7.2 1 .7.3.6-.8 0-1 0-1.1.9-1.1.7 0 .9.1 1.4 1.2.4.8.6 1.5.5 2 0 .6 0 .9.4 1.1.4.4.5.9.4 8.6v8.3l-.9.4-1.1.6c-.7.4-1 1.8-.5 2.7.3.5.4 1.3.4 2.8 0 2.3.3 2.8 1 2.1 1.1-.9 1.2-.8 1.2 1.7v2.4h-1c-.4 0-1-.2-1-.4a109.7 109.7 0 0 1-16.2.3H0zm5.4-1.6a3 3 0 0 0-.5-1.5c-.2-.4-.2-.6.3-1 .9-.7.8-1.4 0-1.2-.6.2-.7.1-.7-.7 0-.6-.2-1-.5-1.4-.5-.4-.6-.4-.6.1 0 .3 0 .6-.2.7a77 77 0 0 1 .1 3.2c.2 1.2.5 2.2 1 3 .2.2.4.2.8 0 .4-.3.5-.5.3-1.2zm-2.8.6c-.1-.2-.2-.1-.2.2 0 .3 0 .4.1.3v-.5zM2 27.5l-.1.3c0 .3 0 .5.1.3v-.6zm13.7-5.7c.3-.6.2-.9-.1-.9-.2 0-.2.2-.2.4.1.2 0 .5-.1.6-.2.2-.2.3 0 .3l.4-.4zm5.7-4.3l-.4-.7c-.4-.5-.4-.5-.3 0l.2.7c0 .1.1.2.3.2.1 0 .2 0 .2-.2zM7.4 3c0-.1.3-.3.6-.3s.4.2.3.3c0 .2-.3.3-.5.3s-.4-.1-.4-.3z" fill="#a8695b"/><path d="M0 30.3c0-2 0-3.7.2-4 .2-.5.7-.5 1.1 0 .5.6.8.5.8-.4 0-.7 0-.8-.8-.8-.4 0-.8.2-.8.3 0 .1 0 .3-.2.3S0 21.2 0 12.8V0h5l-.4 1c-.4.8-.4 1.2-.1 3.6l.5 7c.3 6.7.7 12 1 12.5 0 .4 0 .4-.4.3-.3 0-.6-.3-.6-.5s-.2-.5-.6-.6l-.8-.7c0-.1-.2 0-.2.3 0 .4 0 .7-.2.8-.3.1-.2 2.9.1 4 .4 1.1 1.4 3 1.7 3 .1 0 .3.2.3.5s0 .7.2 1c.1.3.2.3.4 0 .1-.3.2-.3.4 0 .5.8.6-.3.2-2.2-.4-1.9-.4-2 0-2.4.2-.2.3-.3.1-.5-.4-.4 0-1 .7-1.1.5 0 1 .3 1.9 1 1.3 1.1 1.5 1.2 1.8.7.1-.2.5-.4.9-.5.5 0 .7-.3 1-1.5.3-1.9 1-3 1.7-3.1 1.6-.2 1.8-.3 1.8-1.4l-.1-1h1.4l1.5-.2v-2.4c.1-2.4-.3-5.2-.7-5.2-.7 0-2.1.9-2.5 1.6-.5 1-2.3 2.2-3 2-.4 0-.7-.1-.6-.3 0-.2-.2-.5-.5-.8-.3-.2-.5-.6-.5-.9 0-.3-.2-.4-.7-.4-.7 0-2.2-.8-2.6-1.5-.2-.3-.2-.5.2-.8.3-.3.5-.4.3-.4-.4 0 .6-.8 2-1.4C11.7 9 12 9 13 9.3c1.4.5 3 .5 3.4 0 .5-.7.3-2-.4-3.2-.6-1-.7-1.4-.6-2.7.1-.9 0-1.6-.1-1.8a2 2 0 0 1-.4-1V0h9l1.4 1.5c1.7 1.8 2.2 3.2 1.6 4.2-.6.9-.6 1.8 0 2.4.9.7 1.6.4 1.5-.7 0-.5 0-1 .3-1.3a7 7 0 0 0 .6-2.5c0-1.2.2-2 .3-1.7.2 1 .7.3.6-.8 0-1 0-1.1.9-1.1.7 0 .9.1 1.4 1.2.4.8.6 1.5.5 2 0 .6 0 .9.4 1.1.4.4.5.9.4 8.6v8.3l-.9.4-1.1.6c-.7.4-1 1.8-.5 2.7.3.5.4 1.3.4 2.8 0 2.3.3 2.8 1 2.1 1.1-.9 1.2-.8 1.2 1.7v2.4h-1c-.4 0-1-.2-1-.4a109.7 109.7 0 0 1-16.2.3H0zm2.6-1c-.1-.2-.2-.1-.2.2 0 .3 0 .4.1.3v-.5zM2 27.5l-.1.3c0 .3 0 .5.1.3v-.6zm6.5.6l-.4-.6c-.3-.2-.5-.2-.8 0-.4.3-.4.4-.1.6.5.3 1.3.3 1.3 0zm7.4-1.4c0-.7-.4-.6-1.4 0l-.9.7.7.1c.8.2 1.6-.1 1.6-.8zm5.5-9.2l-.4-.7c-.4-.5-.4-.5-.3 0l.2.7c0 .1.1.2.3.2.1 0 .2 0 .2-.2zm-7.3 4.1c-.4-.4-.2-2.2.2-2.5.2 0 .5 0 .7.3.4.4.4.5 0 1.5-.5 1-.6 1-1 .7z" fill="#986359"/><path d="M0 30.3c0-2 0-3.7.2-4 .2-.5.7-.5 1.1 0 .5.6.7.5 1-.4l.1-.9.3.9c.2.6.2 1 0 1.2-.4.4-.4.7 0 .5.4 0 .5 0 .5.4 0 .3 0 .8.2 1l2.2 4.7c0 .1-1.3.2-2.8.2H0zm2.6-1c-.1-.2-.2-.1-.2.2 0 .3 0 .4.1.3v-.5zM2 27.5l-.1.3c0 .3 0 .5.1.3v-.6zm6.2 6c.2-.3.2-.5 0-1L7.7 31l-.2-1h.8c.8.3 1.2-.1 1.2-1 0-.6 0-.6 1-.3.7.1 1.1.3 1.1.5 0 0 .2.2.5.2.2 0 .7.3 1 .7.8.8 1.7 1.1 3.2 1.2 1.2 0 1.2-.7-.1-1.4l-1.1-.7c0-.4 1.3-1.4 2-1.5.5-.2.6-.3.6-.8 0-.4-.4-.6-1.4-.9-1-.3-1.3-.3-1.9 0-.7.6-1.2.4-1.2-.4 0-1 1-2.2 2-2.4a4 4 0 0 0 1.4-.7c.6-.5.6-.6.2-1.1-.6-1-.5-1.1.8-1 1.5.2 2-.3 2-1.8 0-.6 0-1.2.2-1.2.3-.2-.6-5-1-5.3-.3-.4-2.6.8-3 1.5-.2.7-1.7 2-2.3 2-.5 0-1.6-1-1.4-1.5 0-.1 0-.5-.2-.8-.2-.5-.4-.6-1-.4-1 .2-2.4-.4-2.4-.9 0-.4.6-.6 1.7-.6 1 0 1.2-.3.5-.8-.3-.3-.3-.4.2-.8.5-.3.8-.3 3 .1 2.4.5 2.5.5 3 0 .7-.6.7-1.8 0-3.4a5 5 0 0 1-.7-3c0-.8.2-1.8.4-2 .2-.2.3-.7.2-1-.2-.5 0-.5 3.5-.5h3.6l1.4 1.5c1.7 1.8 2.2 3.2 1.6 4.2-.6.9-.6 1.8 0 2.4.9.7 1.6.4 1.5-.7 0-.5 0-1 .3-1.3a7 7 0 0 0 .6-2.5c0-1.2.2-2 .3-1.7.2 1 .7.3.6-.8 0-1 0-1.1.9-1.1.7 0 .9.1 1.4 1.2.4.8.6 1.5.5 2 0 .6 0 .9.4 1.1.4.4.5.9.4 8.6v8.3l-.9.4-1.1.6c-.7.4-1 1.8-.5 2.7.3.5.4 1.3.4 2.8 0 2.3.3 2.8 1 2.1 1.1-.9 1.2-.8 1.2 1.7v2.4h-1c-.4 0-1-.2-1-.4a63.7 63.7 0 0 1-12.2.3c-10.3 0-11.8 0-11.5-.3zm13.2-16l-.4-.7c-.4-.5-.4-.5-.3 0l.2.7c0 .1.1.2.3.2.1 0 .2 0 .2-.2zM0 12.8V0h2.3c2 0 2.2 0 2 .5-.2.8-.6 3-.4 3.2.3.6.6 3.3.9 7.5.6 10.1.6 10 .2 10.6-.3.4-.5.4-1 .2-.5-.3-.6-.2-.7.8-.3 1.4-1 2.3-2 2.3-.4 0-.8.2-.8.3 0 .1 0 .3-.2.3S0 21.2 0 12.8z" fill="#6d6a72"/><path d="M0 31.4l.1-2.6.4 1.4c.3 1.4.7 2 1.1 2 .2 0 .2-.2.1-.6l-.2-1.3c-.1-.5 0-.7.2-.7s.4.3.4.5c0 .3.1.6.3.7l.2.6.6 1.4.5 1H0zm4.3 1.5c0-.5-.2-1-.4-1-.3-.2-.3-1 0-1 .2 0 .5.5.8 1 .3.6.5 1 .7 1.1.4.2.1.9-.4.9-.3 0-.5-.3-.7-1zm3.9.6c.2-.3.2-.5 0-1L7.7 31l-.2-1h.8c.8.3 1.2-.1 1.2-1 0-.6 0-.6 1-.3.7.1 1.1.3 1.1.5 0 0 .2.2.5.2.2 0 .7.3 1 .7.8.8 1.7 1.1 3.2 1.2 1.2 0 1.2-.7-.1-1.4l-1.1-.7c0-.4 1.3-1.4 2-1.5.5-.2.6-.3.6-.8 0-.4-.4-.6-1.4-.9-1-.3-1.3-.3-1.9 0-.7.6-1.2.4-1.2-.4 0-1 1-2.2 2-2.4a4 4 0 0 0 1.4-.7c.6-.5.6-.6.2-1.1-.6-1-.5-1.1.8-1 1.5.2 2-.2 2-1.9.1-1.5.8-1.7 1.3-.5.2.5.6 1 .8 1 .2 0 .3-.1.1-1-.3-2.1-1.3-3-1.7-1.6-.1.5-.3 0-.5-1.5-.5-3-.6-3.2-2.2-2.5-.8.4-1.4.8-1.5 1.2-.3.7-1.9 2-2.5 2-.5 0-1.3-1-1.4-1.5 0-1.5 0-1.4-1-1.2-1 .1-2.5-.3-2.5-.9 0-.4.6-.6 1.7-.6 1 0 1.2-.3.5-.8-.3-.3-.3-.4.2-.8.5-.3.8-.3 3 .1 2.4.5 2.5.5 3 0 .7-.6.7-1.8 0-3.4a5 5 0 0 1-.7-3c0-.8.2-1.8.4-2 .2-.2.3-.7.2-1-.2-.5 0-.5 3.4-.5h3.6l.1.8c.1.4.4.8.5.8.6 0 1.5 1.1 1.7 2.1a4 4 0 0 1-.2 2c-.3.7-.3 1 0 2 .3.9.5 1 1.5 1.3.7.1 1.2.4 1.2.5 0 .2 0 .3.2.3s.3-.7.3-1.5c0-2 .6-5.3 1-5.8.2-.2.3-.8.3-1.4-.1-1 0-1.1.6-1.1.9 0 1.9 1.5 1.9 3 0 .7.2 1.2.5 1.5.4.5.5 1 .4 8.5v8l-1.4.7c-1.6.8-2 2-1.3 3.2.2.5.5 1.7.6 3 0 1.3.2 2.3.4 2.4.1.1.4 0 .7-.2.7-.7 1-.6 1 .5s-.8 2.2-1.6 2.2c-.2 0-.6.2-.7.5-.3.6-.6.6-12 .6-10 0-11.6 0-11.3-.4zM29.4 23c0-.4-.4-.5-.7 0-.2.3.1.8.4.6.2-.1.3-.4.3-.6zm-1-8.7c-.2-1-.4-1.2-1-1-.7.2-1.1 1.2-.8 1.7l1 .2c.8 0 .8-.2.8-.9zM3.2 29.2c-.5-1-.6-1.7-.3-1.7.2 0 .3.3.3.6 0 .4.1.8.3 1 .1 0 .2.4.1.6 0 .2-.2 0-.4-.5zm-2.7-2c0-.3.1-.5.3-.5.1 0 .3.1.3.3l-.3.4c-.2 0-.3 0-.3-.3zm1.7-.3v-1.2l.3-.7.2.9c.3 1-.1 1.8-.5 1zM0 24.1c0-1.2 0-1.4.5-1.3.7.1.7-1 0-1.4C0 21.2 0 21 0 10.6V0h2.3c2 0 2.2 0 2 .5-.2.8-.6 3-.4 3.2.3.6.6 3.4.9 7.5 0 2.5.3 5.8.4 7.3.1 2.2 0 2.9-.2 3.3-.3.4-.5.4-1 .2-.4-.3-.5-.2-1 1.2-.4 1.2-.6 1.4-1.1 1.4-.4 0-1 .2-1.3.4-.6.4-.6.4-.6-1z" fill="#8b564e"/><path d="M0 31.4l.1-2.6.4 1.4c.3 1.4.7 2 1.1 2 .2 0 .2-.2.1-.6l-.2-1.3c-.1-.5 0-.7.2-.7s.4.3.4.5c0 .3.1.6.3.7l.2.6.6 1.4.5 1H0zM4.4 33l-.5-1.3a.6.6 0 0 1-.1-.7c.2-.2.5.3 1.3 1.9.4 1 .4 1 0 1s-.6-.3-.7-.9zm5 0c-.5-1-.5-1.5.2-2.7.6-1.1 1-1.2 1.7-.3.3.4.7.7.8.7.5-.1.9 0 1.3.5.5.5 3.4 1 4 .6.1 0 .5-.6.7-1.2.4-1 .4-1.1 0-1.5-.5-.6-.5-1.3.2-1.5.7-.2.6-1.3-.2-1.8-.4-.3-1.1-.4-2.3-.4-2.1 0-2.2 0-1.8-.3.2-.3.7-.4 1.8-.3 1.7.1 2.7-.2 2.7-.9 0-.2-.2-.4-.4-.6-.3-.2-.3-.2.1-.7.3-.2.6-.7.6-1 0-.2.3-.7.6-1 .7-.7.8-1.3.8-2.4-.1-.6.4-.4 1 .4.5.8.8.5.6-.7-.2-1.3-1.3-3.3-1.5-2.8 0 .2-.2.1-.2-.2l-.5-2.2c-.5-1.5-.5-1.6-.1-2.7.3-.8.5-1 .9-1 .7.2 1-.1 1.3-1.8.3-1.8.3-1.8-.2-2.4-.7-.5-.9-2.7-.4-3.3.3-.3.3-.4.1-.4-.2 0-.3-.3-.3-.6 0-.4.2-.5 1.4-.5 1.4 0 1.5 0 1.6.8.1.4.4.8.5.8.6 0 1.5 1.1 1.7 2.1a4 4 0 0 1-.2 2c-.3.7-.3 1 0 2 .3.9.5 1 1.5 1.3.7.1 1.2.4 1.2.5 0 .2 0 .3.2.3s.3-.7.3-1.5c0-2 .6-5.3 1-5.8.2-.2.3-.8.3-1.4-.1-1 0-1.1.6-1.1.9 0 1.9 1.5 1.9 3 0 .7.2 1.2.5 1.5.4.5.5 1 .4 8.5v8l-1.4.7c-1.6.8-2 2-1.3 3.2.2.5.5 1.7.6 3 0 1.3.2 2.3.4 2.4.1.1.4 0 .7-.2.7-.7 1-.6 1 .5s-.8 2.2-1.6 2.2c-.2 0-.6.2-.7.5-.3.6-.6.6-11 .6H10zm20-9.9c0-.4-.4-.5-.7 0-.2.3.1.8.4.6.2-.1.3-.4.3-.6zm-1-8.7c-.2-1-.4-1.2-1-1-.7.2-1.1 1.2-.8 1.7l1 .2c.8 0 .8-.2.8-.9zM2.8 28.6V28c.3-.2.4-.2.4.3 0 .6-.2.7-.4.3zM.5 27c0-.2.1-.4.3-.4.1 0 .3.1.3.3l-.3.4c-.2 0-.3 0-.3-.3zm1.6-.4c0-.2.1-.6.3-.8.2-.3.2-.2.2.4 0 .4 0 .7-.2.7s-.3-.2-.3-.3zM0 24c0-1.2 0-1.4.5-1.3.7.1.7-1 0-1.4C0 21.2 0 21 0 10.6V0h4.2l-.4 1.1c-.4 1.2-.4 2 .3 4.7.2 1 .4 3.5.5 5.7l.4 5.2c.3 1.3.4 3.3.1 4.1 0 .5-.3.6-.9.6-.6 0-.7.2-1.2 1.5-.4 1.4-.6 1.6-1.3 1.7l-1.3.5c-.3.3-.4.2-.4-1zm17-3.2c.1-.5.7-.5.7-.1 0 .1-.1.3-.4.3-.3 0-.4 0-.3-.2zm-4.1-6.2l-.7-1.2c-.2-.5-.6-.9-1-1-.8-.2-.8-.5 0-.9.2-.1.4-.5.4-.9 0-.6.2-.6 1-.6.7 0 1.7 0 2.5.3 1.7.4 2.3 0 3.3-1.7l.7-1.4v1a6 6 0 0 1-.5 2.3c-.3 1-.5 1.3-1.4 1.5-.9.3-1.2.6-1.5 1.2-.3 1-1.4 1.8-2 1.8-.3 0-.6-.2-.8-.4z" fill="#6f4e4b"/><path d="M0 31.4l.1-2.6.4 1.4c.3 1.4.7 2 1.1 2 .2 0 .2-.2.1-.6l-.2-1.3c-.1-.5 0-.7.2-.7s.4.3.4.5c0 .3.1.6.3.7l.2.6.6 1.4.5 1H0zm4.8 2c0-.2 0-.3.2-.2.2.1.3.3.3.4 0 .2-.1.3-.3.3l-.2-.4zM11 33c-.3-.8-.3-.9.2-1 .3 0 1 0 1.6.2l2.8.5c1.7.1 1.8.1 2.5-.6a4 4 0 0 0 .8-3.2c-.1-.5 0-1 .4-1.4.7-.8.7-.9-.1-1.4-.8-.6-.9-1 0-1.6.4-.3.5-.4.2-1-.3-.4-.3-.7 0-1.4.3-1.1 1.7-2.7 2.3-2.6.7.1.8-.3.4-1.2a2 2 0 0 1-.2-1.6c.2-.5.2-.9 0-1a9.2 9.2 0 0 1-2.3-4.7c0-.8.6-1.3 1-.9.5.5 1 0 1.2-1 .2-1 1.6-2.6 2.2-2.4l.9.2c.2 0 .5.2.6.6.3.8.8 1.2 1.8 1.4.5.1.9.4 1 .8.6 1 .8.7.8-1.2 0-2.2.6-5.4 1-6 .2-.2.3-.8.3-1.4-.1-1 0-1.1.6-1.1.9 0 1.9 1.5 1.9 3 0 .7.2 1.2.5 1.5.4.5.5 1 .4 8.5v8l-1.4.7c-1.6.8-2 2-1.3 3.2.2.5.5 1.7.6 3 0 1.3.2 2.3.4 2.4.1.1.4 0 .7-.2.7-.7 1-.6 1 .5s-.8 2.2-1.6 2.2c-.2 0-.6.2-.7.5-.3.6-.6.6-10.2.6h-10zm18.4-9.9c0-.4-.4-.5-.7 0-.2.3.1.8.4.6.2-.1.3-.4.3-.6zm-1-6.8c0-.2 0-.5.2-.6l.3-1.5c.2-1.4.2-1.3-1.4-1-1 0-1 .1-1 1.2 0 .7.2 1.2.6 1.8.4.4.7 1 .7 1.5 0 .7 0 .7.4-.2l.3-1.2zM4 31.8c-.2-.2-.2-.4 0-.5.1-.2.4.1.3.5-.1.3-.2.3-.3 0zM.5 27c0-.2.1-.4.3-.4.1 0 .3.1.3.3l-.3.4c-.2 0-.3 0-.3-.3zM0 24c0-1.2 0-1.4.5-1.3.7.1.7-1 0-1.4C0 21.2 0 21 0 10.6V0h1.9c1.6 0 1.8 0 1.6.4-.6.6-.5 3.3.2 5 .5 1.3.6 2.4.8 5.8l.4 6.6c.2 2.5 0 3-1.1 3.4-.4.1-.6.4-.6.7 0 .9-.8 2.5-1.3 2.6a9 9 0 0 0-1.2.5l-.7.4zm13-10.3c-1-.9-1.3-1.8-.8-2.3l.2-.7c-.1-.5 1.1-.6 2.6-.1 1.3.3 1.4.3 2.3-.1l1-.5v.6c-.1.3-.6.7-1.2 1-.6.4-1.3 1-1.7 1.7-.4.5-1 1-1.1 1-.2.1-.8-.2-1.2-.6zm11.6-9c-1.3-.6-1.4-1.6 0-1.5.7 0 1 .1 1 .7.3 1-.1 1.3-1 .9z" fill="#55494b"/><path d="M0 32.6v-1.2l.4.8c.1.5.4 1 .5 1 .3.4.2.7-.4.7-.4 0-.5-.2-.5-1.3zm4.8 1c0-.1 0-.3.2-.3s.3.2.3.3c0 .1-.1.3-.3.3a.3.3 0 0 1-.2-.3zm6.3-.3c0-.4-.1-.7 0-.8.1-.4 1.3-.2 1.5.1 0 .3.4.5.7.6.4 0 .5 0 .4-.3-.2-.3 0-.4.8-.4a6 6 0 0 1 1.8.3c1.4.5 2.6-1 2.6-3.3 0-1 0-1.4.2-1.3.2.1.2 0 .1-.1-.1-.2 0-.5.2-.7.6-.6.6-.8-.2-1.3-.8-.6-.9-1 0-1.6.4-.3.5-.4.2-1-.5-.7 0-2.2 1-3 .7-.6.7-.6 1.6-.6.5 0 .5-.2.4-1.2-.2-1.1-.2-1.2.3-1.2.4 0 .6-.3.6-.8.1-.7 0-.9-.7-1.2l-1-.4c-.6 0-2-2.9-2-4 0-.9.5-1.4 1-1 .5.5 1 0 1.2-1 .2-.8 1.5-2.5 2-2.5.1 0 .3.3.4.7 0 .3.3.6.4.6.6 0 .2.8-.5.9-1.4.1-.5.6 1 .5 1.3 0 1.6 0 2.2.6.5.4.7.9.7 1.5 0 1-.3 1.3-1.4 1.3-.6 0-.7.1-.7 1 0 1.7 0 2.3.5 2.6.4.3.4.4 0 1.3-.3.6-.4 1.2-.3 1.7 0 .4 0 .8-.2 1l-.2 1c0 .6-.2 1.2-.6 1.5-.3.3-.5.8-.5 1 0 .6 1 2.3 1.5 2.5.6.2 1.6-2 1.8-3.8l.7-4.2c.3-1.5.5-4.5.6-7 .2-4.5.7-8.2 1.2-8.8.2-.2.3-.8.2-1.4-.2-1-.2-1.1.4-1 .5 0 .8.2 1.2 1 .3.7.6 1.6.6 2 0 .5.2 1.2.5 1.7.5.8.6 1.4.6 8.4v7.6l-1.6.8c-1.4.8-1.5.8-1.6 2 0 .5 0 1.2.3 1.4l.4 2.7c.2 3 .3 3.2 1.4 2.6 1-.5 1-.5.8.3-.2 1.1-.6 1.6-1.5 2-.5.3-.9.7-.9.9 0 .3-1.5.3-10 .4h-9.8l-.3-.6zm9.3-2.1c0-.3-.1-.5-.3-.4l-.2.7c0 .6.5.4.5-.3zm9.1-7.7c.1-.3 0-.7-.1-.8-.4-.4-1.2.4-1 1 .2.6.9.5 1.1-.2zM0 24.6c0-.4.1-.5.2-.3v.6c-.1.2-.2 0-.2-.3zm1.5-.3c-.3-.2-.4-.6-.4-1.7C1 21.4 1 21.2.5 21 0 21 0 20.6 0 10.4V0h1.9c1.9 0 1.9 0 1.4.5-1 .8-1 2.3-.4 3.3.9 1.2 1.6 4.2 1.6 7 0 1.4.1 4 .3 5.7.3 3.5.1 4.3-.9 4.4-.4.1-.6.4-1 1.6-.5 1.8-.7 2.2-1.4 1.8zM13.2 14c-1-.8-1.4-2-1-2.5l.2-.7c-.1-.5 1.1-.6 2.6-.1 1.3.3 1.4.3 2.3-.1l1-.5v.6c-.1.3-.6.7-1.2 1-.6.4-1.3 1-1.7 1.7-.9 1.2-1.3 1.3-2.2.6zM23.8 4c-.4-.8-.2-1 .6-.7.5.2.7.5.7.8 0 .8-1 .7-1.3-.1z" fill="#5d423d"/><path d="M0 32.6v-1.2l.4.8c.1.5.4 1 .5 1 .3.4.2.7-.4.7-.4 0-.5-.2-.5-1.3zm4.8 1c0-.1 0-.3.2-.3s.3.2.3.3c0 .1-.1.3-.3.3a.3.3 0 0 1-.2-.3zm7-.1c-.3-.7 0-.8.9-.4.6.2.9.2 1.3 0s1.1-.3 2-.2c1.3.2 2.8-.2 2.8-.7l.6-.2c1 0 1.9-1.5 1-1.8-.8-.2-.8-1.8 0-2 .5-.1.5-.2.4-.8L20 26c-.4-.5-.4-.8-.2-1.2.1-.2.3-.5.5-.5.1 0 .2-.2.2-.5s0-.5-.2-.5c-.1 0-.3-.4-.4-.9 0-.7 0-1 .6-1.5.4-.4 1-.8 1.2-.8.5-.1.5-.3.5-1.4v-1.3l.8.2c.8.1 1 0 1-.4.2-.6 0-1-1.3-1.6a4 4 0 0 1-2-2.6c-.1-.4-.3-.9-.5-1l-.2-.7c0-.5.1-.6.8-.5.5 0 1.3-.2 2.4-.7.9-.5 2-.8 2.5-.8 1.3 0 2.2 1 2.2 2.1 0 1-.3 1.3-1.4 1.3-.6 0-.7.1-.7 1v1.8c0 .6 0 1-.3 1-.2 0-.2 0 .1.3.6.4.6 1 0 1-.4 0-.4.1-.4 1.1 0 .6 0 1.3.2 1.4.4.4.2 2-.4 2.5-.3.3-.5.8-.5 1 0 .6 1 2.3 1.5 2.5.6.2 1.6-2 1.8-3.8l.7-4.2c.3-1.5.5-4.5.6-7 .2-4.5.7-8.2 1.2-8.8.2-.2.3-.8.2-1.4-.2-1-.2-1.1.4-1 .5 0 .8.2 1.2 1 .3.7.6 1.6.6 2 0 .5.2 1.2.5 1.7.5.8.6 1.4.6 8.4v7.6l-1.6.8c-1.4.8-1.5.8-1.6 2 0 .5 0 1.2.3 1.4l.4 2.7c.2 3 .3 3.2 1.4 2.6 1-.5 1-.5.8.3-.2 1.1-.6 1.6-1.5 2-.5.3-.9.7-.9.9 0 .3-1.4.3-9.6.4-8.6 0-9.7 0-9.9-.4zm17.7-10c.1-.3 0-.7-.1-.8-.4-.4-1.2.4-1 1 .2.6.9.5 1.1-.2zM0 24.6c0-.4.1-.5.2-.3v.6c-.1.2-.2 0-.2-.3zm1.5-.3c-.3-.2-.4-.6-.4-1.7C1 21.4 1 21.2.5 21 0 21 0 20.6 0 10.4V0h1.6C3.1 0 3.2 0 3 .5c-.6 1.5-.7 2.4-.2 3.1 1 1.5 1.4 3.6 1.4 6.2 0 1.4.2 4.2.5 6.2.5 3.9.4 4.2-.8 4.8-.5.3-.7.7-1 1.8-.4 1.7-.7 2-1.4 1.7zm11.6-10.8c-.3-.1-.7-.4-.8-.7-.1-.4.4-1.8 1-2 .3-.3 2.5.3 2.7.7.1.5-1.4 2.3-2 2.2-.2 0-.6 0-1-.2z" fill="#503d41"/><path d="M12 33.5c-.5-.5-.5-.5.2-.3l1.4.2 2.6-.1c1 0 2-.3 2.4-.6.4-.2 1-.4 1.3-.3.4.1.8 0 1-.2.2-.3.5-.4.7-.4l.6-.4c.2-.2.6-.5 1-.5.6 0 .4-.2-.6-.3-2-.3-2.6-.5-2.7-1.1 0-.5.2-.7 1-1.1.7-.4 1-.7 1-1.3 0-.5 0-.6-.3-.6-.2 0-.5 0-.7-.2l-1-.7c-.4-.4-.4-.4.7-1.1 1-.7 1.2-1.3.4-1.6a.6.6 0 0 1-.4-.5c0-.2-.1-.4-.3-.5-.5-.2.8-1.5 1.4-1.5.7 0 1.1-1 .9-1.8-.2-.6-.1-.7.4-.5l.8.2c.3 0 1 2 1 2.9 0 1-.2 1-1.6.2-.8-.4-1.2-.4-1.4-.2-.5.4-.5.6.7 1a4 4 0 0 1 1.6 1.8l.8 1.7c.3.7.3 1.7 0 2l-.3.6c.2.6 1.3-.5 2.4-2.4.9-1.4 1.2-1.8 1.6-1.7.6.1 1.2-.7 1-1.3-.2-.5-1-.5-1.1 0 0 .1-.2.2-.3 0l.2-3c.7-4.4 1-6.6 1-9.6 0-2.8.5-6.7 1-7.7.2-.3.3-1 .2-1.6-.2-1-.1-1 .4-1 .7 0 1.8 2 1.8 3.1 0 .4.2 1.3.5 1.9.5 1 .6 1.6.6 8.4v7.4l-1.6.8c-1.4.7-1.5.8-1.6 1.8 0 .6 0 1.3.2 1.6.2.3.3 1.6.4 2.8 0 2.7.3 3.2 1.4 2.7.7-.3.7-.3.6.5 0 .7-.3 1-1 1.5-.6.4-1 .8-1 1 0 .2-.4.4-1.1.4-.7 0-1.1-.2-1.1-.4s0-.2-.3 0c-.2.3-2.5.4-8.3.4-6.9 0-8 0-8.5-.4zM29.5 30c0-.2-.1-.1-.1.2 0 .3 0 .4.1.3V30zM1.2 24v-1.2c0-1-.3-1.8-.8-1.8-.3 0-.4-1.4-.4-10.4V0h1.5C2.9 0 3 0 2.8.6c-.5 1.5-.5 2.6 0 3.3.9 1.2 1.4 3.6 1.6 7.5 0 2 .2 4.6.3 5.8.2 2.9.2 3-.7 3.6-.6.2-.8.7-1 1.6L2.2 24c-.3.5-1 .4-1.1 0zm23.5-7.4c-.2-.4-1.1-1-1.9-1.4-1-.5-1.5-.9-1.8-1.6l-.7-1.4c-.5-1-.3-1.4 1-1.4a7 7 0 0 0 2.5-.6c1.5-.8 3-.7 3.1.2.1.4.3.8.6 1 .6.4.2 1-.8 1.2-.8 0-.9.2-1.3 1.7-.4 1.2-.5 1.7-.3 2.2.4.9.2 1-.4.1zm-12.2-3.7c0-.5 0-1 .3-1.4.3-.5.6-.7 1.3-.6.4 0 1.1.2 1.4.5l.7.4-.7.9c-.6.7-1 .9-1.8.9-.9 0-1-.1-1.2-.7z" fill="#4a3937"/><path d="M21.4 33.4a9.5 9.5 0 0 0 3-3c.1-.4.4-.8.5-.8.1 0 .2-.1.2-.3 0-.2.5-.7 1-1.3a8 8 0 0 0 1.4-2 3 3 0 0 1 1.2-1.4c.6-.3.8-.6.9-1.3 0-.8 0-.9-.6-.7-.6 0-.7 0-.7-.8l.6-3.6c.3-1.8.5-4 .6-6.8 0-4.4.4-7.3 1-8.7.4-.6.4-1 .2-1.8-.2-.9-.2-.9.4-.9.4 0 .6.2.6.4l.6 1.2c.3.5.5 1.3.5 1.7l.2 1 .2.4.4 1c.2.5.3 2.8.2 7.9v7.1l-1.2.6-1.5 1c-.5.3-.5 2.7-.1 3 .1 0 .2 1.2.2 2.5 0 2.5.3 3 1.5 2.8 1.4-.4.5 1.6-1 2a1 1 0 0 0-.6.7c0 .4-.3.6-1 .6-.4 0-.7-.2-.7-.3 0-.1-.2-.3-.4-.3s-.4.2-.4.3c0 .2-1.5.3-4 .3-3.7 0-3.8 0-3.2-.5zm8.5-3c0-.3-.1-.5-.3-.6-.1-.1-.2-.1-.2 0l-.2.5c-.1.2 0 .4.3.4.2 0 .4-.2.4-.4zm-7.7-4.7c-1-.3-1-.8.3-.8 1 0 1.6.4 1 .8-.4.2-.4.2-1.3 0zM1.4 24c-.2-.2-.3-1-.3-1.7 0-1.1 0-1.3-.5-1.4H0V12A168.1 168.1 0 0 1 .4 1C0 1 0 .8 0 .5 0 .1.2 0 1.4 0s1.3 0 1.1.6c-.4 1.4-.4 2.8 0 3.3a11.5 11.5 0 0 1 1.7 7l.3 5.5c.4 3 .3 3.8-.6 4.2-.4.2-.8.7-1 1.3-.8 2.5-1 2.8-1.5 2zm21.2-9.5c-2-1-1.9-3.4.1-3.4.3 0 .8-.2 1.2-.5.8-.7 1.5-.7 1.5 0 0 .3.3.7.6.9.5.3.5.4.1.4-.3 0-.6.4-.9 1-.7 1.8-1.4 2.2-2.6 1.6zm-9.5-1.7c-.3-.4-.1-.9.5-1.3s.7-.4 1.4 0l.7.3-1 .4c-.5.2-1 .4-1 .6 0 .2-.3.2-.6 0z" fill="#2c292a"/><path d="M23.5 33c0-.4.2-.7.3-.7.2 0 .5-.5.7-1 .5-1.3.9-1.5 1.6-1 .9.6 1.8.4 2-.4a730.4 730.4 0 0 0 1.8-6.4c0-.8-.1-1-.7-1.2-.7-.1-.7-.3-.3-2.5.5-3.3.8-5.6 1-9.6.2-3.9.5-6 1-7 .2-.3.2-1 .1-1.6 0-.7 0-1 .2-1s.3.1.2.4c-.1.2 0 .6.2.8.3.4.7 1.5.8 2.7 0 .3.3.7.4.8.2.1.5.9.6 1.6 0 .8.3 1.9.4 2.4a3 3 0 0 1-.3 2c-.5 1-.5 2.2 0 2.9.2.3.4 1.3.4 3.5 0 2.8 0 3-.6 3-.3 0-.6.2-.8.5-.2.3-.5.5-.8.5-.5 0-.8.4-1.2 1.6-.3.8-.3 1.2 0 1.6.1.4.3 1.6.3 2.7.2 4.3 0 3.9 1 3.5.4-.1.8-.2.9-.1.2.3-.2 1-.7 1.2-.3 0-.7.5-1 .9-.5.9-1.4 1-1.4.2 0-.3-.1-.5-.5-.5-.3 0-.7.2-.9.5-.1.3-.5.6-.7.6-.3 0-.5-.3-.6-.6 0-.3-.4-.5-.7-.5-.4 0-.6.2-.7.5-.1.4-.4.6-1 .6-.9 0-1-.1-1-.8zm6.7-2.6c.2-.5.2-.7-.2-1-.6-.4-.9-.2-.9.8s.6 1 1 .2zM1.3 23c0-.4.1-.8.3-.8.1 0 .3.4.3.8 0 .5-.2.8-.3.8-.2 0-.3-.3-.3-.8zm.3-1.4c.2-.3.4-.4.6-.3.3.2 0 .7-.5.7-.4 0-.4-.1-.1-.4zm.1-1H.8l-.8.1v-7.8C0 6.5 0 4.9.4 4 .9 2.8.9.8.4.6-.4.3 0 0 1.2 0 2.5 0 2.5 0 2 1.5c-.5 1.4-.5 1.7.3 2.7C3.5 5.5 4 7.6 4.1 11.9c0 2.1.2 4.8.3 5.9.2 2 .2 2-.5 2.3-.4.1-.7.4-.7.5 0 .4-1.3.4-1.5 0zM3.2 17c0-.1-.1-.2-.3-.2-.1 0-.3 0-.3.2s.2.3.3.3c.2 0 .3-.1.3-.3zm-1-10.6c-.1-.5-.2-.5-.4-.1-.1.2-.2.7 0 1 .1.5.1.5.4.1v-1zm20 6.8c-.3-.3-.3-1.2 0-1.2.2 0 .3.3.3.7 0 .7 0 .7-.4.5zm1.7-.6c-.5-.2-.4-.8 0-1 .7-.2 1.2.3.7.8-.2.2-.5.3-.7.2z" fill="#211d1c"/><path d="M29.8 33.3c.1-.3.4-.5.7-.5.5 0 .6.3.1.7-.5.6-1 .4-.8-.2zm-2.5-.3c-.3-.2-.9-.5-1.4-.6h-1c-.3-.1 0-1.4.4-1.7.2-.2.5-.2 1.1 0 .7.2 1 .2 1.6-.1.8-.4.8-.4.8.4 0 .6.2.7.6.7.5 0 .5.1.2.4-.1.3-.4.4-.6.4l-.8.5c-.5.5-.6.5-1 0zm2.9-1.4c0-.2 0-.4.2-.4s.3.2.3.4-.1.4-.3.4l-.2-.4zm1.6-.1c.4-.6.6-.5.4.1l-.4.4c-.2 0-.2-.2 0-.5zm-2-3.3c-.5-.8-.4-2 .2-2.7.3-.3.4-.2.5.6v2l-.2.9zM30 27c-.1-.2-.2-.1-.2.2 0 .3 0 .4.2.3V27zM1.4 23.2c0-.5 0-.6.1-.4v.8l-.1-.4zM30 23c0-.5-.1-.7-.6-.7-.5-.1-.6-.2-.4-.8l.2-1.1a30 30 0 0 0 1.3-8.8c0-.8 0-1 .5-1.3.4-.1.8 0 1.1.1.5.3.6.7.6 2.7 0 1.3 0 2.5.2 2.7.3.5.4 2.5.2 2.8-.3.4-.3 1.2 0 1.2l.5-.3c.3-.3.3-.2 0 .3-.1.3-.5.6-.8.6-.3 0-.5.2-.6.6 0 .3-.3.6-.7.7-.5.1-.8.4-1 1-.2 1-.6 1.1-.5.3zM0 20c0-.2.1-.5.3-.6.3-.2.2-3-.1-3.2C-.1 16 0 13 .2 13s.3-.9.2-2.2c0-1.9 0-2 .3-1.5.2.3.3 1 .4 1.4 0 1.2.3 1.7.7 1 .3-.4.3-.4.3.3 0 .4-.1.7-.4.7-.5 0-.8.5-.4.9.2.2.3.1.4-.2.1-.2.3-.4.5-.3.1.1 0 .4-.2.7-.7.7-.5 4.4.3 4.9.2.2.5.6.5 1 0 .5 0 .5-1.4.6-1 0-1.4 0-1.4-.3zm3.5-1.2c-.3-.6-.3-.9 0-1.5.5-.8.7-.6.8.8 0 1.3-.4 1.7-.8.7zm.2-7.2c0-.7 0-.9-.3-1.1 0-.2 0-.5.2-.8.3-.5.4-.4.4 1 0 .8 0 1.5-.2 1.5l-.1-.6zM.2 6.7v-.3c.2 0 .3.1.3.3v.4c-.1 0-.2-.1-.3-.4zm31.2-.6v-.6c.5-.4.7 0 .4.5-.2.3-.3.3-.4.1zM.9 1.8C.9.3 1 .1 1.6 0 2 0 2 0 2 .6L1.6 2C1.2 3.8.8 3.7.9 1.8z" fill="#1b1a1b"/></svg>