<svg xmlns="http://www.w3.org/2000/svg" width="128" height="128" viewBox="0 0 33.87 33.87"><path d="M12.82 33.22c-.36-.36-.65-.89-.65-1.17 0-.29-.17-.86-.38-1.27a9.23 9.23 0 0 1-.52-1.21c-.1-.32-.41-.47-1.03-.47-1.1 0-1.43-.36-2.67-2.84-.53-1.05-1.07-1.92-1.2-1.92-.12 0-.37.18-.55.4-.52.63-1.93.5-2.64-.26-.52-.56-.58-.82-.44-1.88.15-1.07.08-1.33-.5-2.03-.55-.65-.66-1.03-.6-2.02.08-1.2.09-1.22 1.14-1.35l1.06-.13.19-2.78c.1-1.53.38-3.65.62-4.72.37-1.7.38-2 .03-2.38-.2-.24-.6-.85-.84-1.35l-.47-.92.76-.6c.83-.66 1.3-.77 1.56-.35.32.52 1 .24 2.33-.95 2.44-2.2 4.83-3 8.91-3 4.09 0 6.47.8 8.92 3 1.33 1.2 2 1.47 2.33.95.26-.42.73-.31 1.55.35l.76.6-.46.92a7.8 7.8 0 0 1-.85 1.35c-.34.39-.33.68.04 2.38.23 1.07.51 3.19.62 4.72l.19 2.78 1.06.13c1.05.13 1.06.14 1.14 1.35.06 1-.05 1.37-.6 2.02-.58.7-.65.96-.5 2.03.14 1.06.08 1.32-.45 1.88-.7.75-2.11.89-2.63.26-.19-.22-.44-.4-.56-.4-.13 0-.66.87-1.19 1.92-1.24 2.48-1.58 2.84-2.67 2.84-.62 0-.93.15-1.03.47-.08.25-.31.8-.52 1.21a3.5 3.5 0 0 0-.38 1.27c0 .72-1.17 1.82-1.95 1.82-.64 0-1.1-.62-.82-1.08.08-.14-.15-.38-.53-.55-.37-.17-.67-.47-.67-.66 0-.22-.31-.36-.8-.36-.48 0-.79.14-.79.36 0 .2-.3.49-.68.66-.37.17-.6.41-.53.55.3.46-.18 1.08-.82 1.08-.35 0-.93-.3-1.29-.65zm5.43-12.38c.36-.66.36-.8 0-1.46-.55-.99-1.88-1.14-2.48-.29-.23.34-.42.8-.42 1.02 0 .22.19.68.42 1.01.6.86 1.93.7 2.48-.28zm-6.34-8.58a2.71 2.71 0 0 0 1.32-2.12c0-.3-.16-.21-.55.28-.67.85-1.86.93-2.63.16-.67-.67-.67-1.33.02-2.21.58-.74 1.27-.87 2.12-.42.68.36.65.14-.07-.53-.42-.4-.94-.54-1.88-.54-1.1 0-1.4.12-2.06.82-1.26 1.35-.95 3.78.58 4.63.88.49 2.26.45 3.15-.07zm13.19.06c.89-.46 1.36-1.42 1.36-2.78 0-2.15-2.34-3.39-4.42-2.35-.32.16-.64.46-.72.66-.11.28-.03.3.36.1.84-.45 1.53-.31 2.11.42.7.88.7 1.54.02 2.21-.76.77-1.95.69-2.62-.16-.39-.5-.55-.58-.55-.28 0 1.95 2.52 3.18 4.46 2.18z" fill="#ae9f95"/><path d="M13.14 33.47a2.94 2.94 0 0 1-.57-1.25c-.17-.83-.7-2.26-1.17-3.12-.13-.23-.6-.4-1.16-.4-.53 0-1-.07-1.06-.13-.06-.07-.54-.96-1.07-1.98-1.14-2.2-1.83-2.77-2.56-2.11-.65.59-1.55.4-2.19-.45-.46-.61-.48-.82-.2-1.48.29-.72.25-.84-.65-1.73-.87-.87-.95-1.07-.87-2.22l.08-1.27 1.26-.08c1.47-.1 1.43.02 1.62-4.02.08-1.53.3-3.39.51-4.13.37-1.34.37-1.37-.38-2.49-.9-1.34-1.01-2-.27-1.6.6.31.86.13.64-.45-.13-.33-.05-.37.34-.21 1.17.48 1.41.45 2.01-.25a12.44 12.44 0 0 1 4.8-3.22c1.66-.65 2.27-.74 4.68-.74 2.42 0 3.03.1 4.68.74 1.95.76 3.7 1.94 4.8 3.22.6.7.85.73 2.01.25.4-.16.48-.12.35.2-.22.59.05.77.63.46.75-.4.64.26-.26 1.6-.75 1.12-.76 1.15-.39 2.49.21.74.44 2.6.52 4.13.2 4.04.14 3.93 1.62 4.02l1.26.08.08 1.27c.07 1.15 0 1.35-.88 2.22-.89.9-.93 1.01-.63 1.73.27.66.24.87-.21 1.48-.64.86-1.54 1.04-2.2.45-.72-.66-1.41-.09-2.55 2.1-.53 1.03-1 1.91-1.05 1.97a3.3 3.3 0 0 1-1.06.13c-.57.02-1.06.2-1.18.42-.47.86-1 2.3-1.17 3.12-.22 1.06-.77 1.65-1.58 1.65-.53 0-.61-.13-.58-.86.03-.65-.1-.92-.54-1.11-.32-.15-.63-.47-.7-.73-.09-.33-.38-.48-.97-.48-.58 0-.88.15-.96.48-.07.26-.39.58-.7.73-.45.19-.58.46-.55 1.1.04.74-.05.87-.57.87-.34 0-.8-.18-1.01-.4zm5.1-12.2c.7-.89.7-1.7 0-2.43-1.05-1.13-3.16-.36-3.16 1.15 0 .92.99 1.97 1.85 1.97.5 0 .94-.23 1.3-.7zm-6.79-8.4c1.46-.62 2.18-1.63 2.18-3.04 0-1.62-.84-2.82-2.27-3.25-2.31-.7-4.35.82-4.35 3.25 0 1.33.45 2.04 1.85 2.9.95.6 1.46.62 2.6.14zm-1.3-2.7a1.35 1.35 0 0 1 .83-2.12c1.33-.34 2.28 1.4 1.3 2.38-.63.64-1.62.52-2.12-.25zm14.67 2.69c1.88-.98 2.58-2.78 1.75-4.52-.86-1.82-2.77-2.46-4.59-1.53-2.55 1.3-2.33 4.84.38 6.05 1.03.45 1.58.45 2.46 0zm-3.24-2.43c-.98-.98-.03-2.72 1.3-2.38.38.09.82.46.98.81.63 1.38-1.2 2.64-2.28 1.57z" fill="#cebe35"/><path d="M13.43 33.69c-.27-.07-.58-.58-.76-1.23-.3-1.12-.88-2.63-1.27-3.36-.12-.23-.62-.4-1.18-.42a3.4 3.4 0 0 1-1.07-.13c-.05-.06-.58-1.09-1.18-2.28-.74-1.47-1.1-2.53-1.1-3.25 0-1.4-.38-1.35-.75.1a3.6 3.6 0 0 1-.68 1.47c-.57.48-1.48.24-2.06-.54-.48-.64-.49-.77-.12-1.85.64-1.9.98-4.11 1.24-8.04.14-2.04.41-4.32.62-5.06.36-1.34.36-1.38-.4-2.49-.9-1.34-1-2-.26-1.6.6.31.86.13.64-.45-.13-.33-.05-.37.34-.21 1.17.48 1.41.45 2.01-.25a12.44 12.44 0 0 1 4.8-3.22c1.66-.65 2.27-.74 4.68-.74 2.42 0 3.03.1 4.68.74 1.95.76 3.7 1.94 4.8 3.22.6.7.85.73 2.01.25.4-.16.48-.12.35.2-.22.59.05.77.63.46.75-.4.64.26-.26 1.6-.75 1.11-.76 1.15-.4 2.49.21.74.49 3.02.62 5.06.26 3.93.6 6.14 1.25 8.04.37 1.08.36 1.2-.12 1.85-.58.78-1.5 1.02-2.07.54a3.6 3.6 0 0 1-.68-1.48c-.36-1.44-.75-1.49-.75-.09 0 .72-.36 1.78-1.1 3.25-.6 1.2-1.12 2.22-1.18 2.28a3.4 3.4 0 0 1-1.06.13c-.57.02-1.06.2-1.18.42-.47.86-1 2.3-1.17 3.12-.22 1.06-.77 1.65-1.58 1.65-.53 0-.61-.13-.58-.86.03-.65-.1-.92-.54-1.11-.32-.15-.63-.47-.7-.73-.17-.67-1.76-.67-1.93 0-.07.26-.39.58-.7.73-.45.19-.58.46-.55 1.1.04.89-.14.99-1.29.69zm4.8-12.43c.7-.88.7-1.69.02-2.42-1.06-1.13-3.17-.36-3.17 1.15 0 .92.99 1.97 1.85 1.97.5 0 .94-.23 1.3-.7zm-2.09-5.46c0-.04-.54-.67-1.2-1.4-.97-1.06-1.24-1.23-1.45-.9-.36.56-.33.74.29 1.6.42.6.75.78 1.45.78.5 0 .91-.04.91-.08zm3.95-.7c.62-.86.65-1.04.28-1.6-.2-.33-.47-.16-1.45.9a17.2 17.2 0 0 0-1.2 1.4c0 .04.42.08.92.08.7 0 1.03-.18 1.45-.77zm-8.64-2.23c1.46-.62 2.18-1.63 2.18-3.04 0-1.62-.84-2.82-2.27-3.25-2.31-.7-4.35.82-4.35 3.25 0 1.33.45 2.04 1.85 2.9.95.6 1.46.62 2.6.14zm-1.3-2.7a1.35 1.35 0 0 1 .83-2.12c1.33-.34 2.28 1.4 1.3 2.38-.63.64-1.62.52-2.12-.25zm14.67 2.69c1.88-.98 2.58-2.78 1.75-4.52-.86-1.82-2.77-2.46-4.59-1.53-2.55 1.3-2.33 4.84.38 6.05 1.03.45 1.58.45 2.46 0zm-3.24-2.43c-.98-.98-.03-2.72 1.3-2.38.38.09.82.46.98.81.63 1.38-1.2 2.64-2.28 1.57z" fill="#8c6851"/><path d="M13.46 33.7c-.25-.08-.57-.64-.77-1.37a5.9 5.9 0 0 0-.56-1.5c-.12-.13-.22-.55-.22-.93 0-.97-.47-1.32-1.72-1.32H9.11l-1.03-2.06c-.6-1.18-1.1-2.6-1.18-3.37-.17-1.48-.52-1.54-1-.17-.42 1.25-.95 1.72-1.65 1.5-.72-.23-1.08-1.13-.77-1.95.46-1.24 1.05-5 1.27-8.25.13-1.83.43-4.06.66-4.97.44-1.7.35-2.24-.5-2.95-.58-.48-.51-.87.12-.67.35.11.58.03.69-.25.09-.23.4-.41.7-.41.3 0 1.16-.59 1.91-1.3C9.9 2.25 11.9 1.15 13.5.9c.6-.1.97-.27.8-.37-.45-.28 2.42-.51 4.12-.34.8.08 1.33.24 1.17.34-.17.1.19.27.8.37a11.1 11.1 0 0 1 5.27 2.91c.7.72 1.42 1.22 1.76 1.22.32 0 .65.18.74.41.1.28.34.36.69.25.63-.2.7.2.12.67-.85.7-.94 1.25-.5 2.95.23.9.53 3.14.65 4.97.23 3.25.81 7 1.28 8.25.3.82-.05 1.72-.77 1.95-.7.22-1.23-.25-1.66-1.5-.45-1.3-.82-1.22-.99.23-.08.7-.61 2.19-1.18 3.31l-1.04 2.06h-1.07c-1.26 0-1.72.35-1.72 1.32 0 .38-.1.8-.23.94-.12.14-.37.8-.55 1.48-.24.88-.5 1.28-.9 1.39-1.08.29-1.2.2-1.05-.76.13-.82.07-.95-.54-1.19-.41-.15-.7-.46-.7-.76 0-.4-.2-.5-1.06-.5-.86 0-1.06.1-1.06.5 0 .3-.28.6-.69.76-.61.24-.68.37-.55 1.19.16.95 0 1.05-1.17.74zm4.8-12.27c1.15-1.16.3-3.26-1.33-3.26-.59 0-1.03.2-1.36.6-1.05 1.3-.25 3.2 1.36 3.2.44 0 1.03-.24 1.33-.54zm-1.9-5.53c-.15-.39-2.33-2.67-2.56-2.67-.12 0-.38.3-.57.66-.33.61-.3.74.4 1.46.59.61.99.79 1.79.79.56 0 .99-.1.94-.24zm3.88-.55c.7-.72.73-.85.4-1.46-.2-.36-.45-.66-.57-.66-.23 0-2.42 2.28-2.56 2.67-.05.13.37.24.94.24.8 0 1.2-.18 1.79-.8zm-7.8-2.61a4.43 4.43 0 0 0 1.58-3.08c0-1.05-.84-2.4-1.91-3.05-3.15-1.92-6.94 2-4.9 5.06a3.7 3.7 0 0 0 5.23 1.07zm-1.92-2.18c-.72-.41-.6-1.73.2-2.25.6-.4.7-.4 1.32 0 .78.52.87 1.48.18 2.1-.55.5-1.03.54-1.7.15zm15.14 2.2a4.48 4.48 0 0 0 1.6-3.1c-.01-1.74-1.9-3.57-3.71-3.57-1.78 0-3.7 1.82-3.7 3.51 0 .96.58 2.32 1.25 2.92a3.88 3.88 0 0 0 4.56.23zm-4.06-2.4c-.63-.7-.53-1.55.23-2.05.61-.4.7-.4 1.32 0 1.2.8.7 2.54-.73 2.54-.21 0-.57-.22-.82-.49z" fill="#5c5553"/><path d="M13.46 33.7c-.25-.08-.57-.64-.77-1.37a5.9 5.9 0 0 0-.56-1.5c-.12-.13-.22-.55-.22-.93 0-.97-.47-1.32-1.72-1.32H9.11l-1.03-2.06c-.6-1.18-1.1-2.6-1.18-3.37-.17-1.48-.52-1.54-1-.17-.42 1.25-.95 1.72-1.65 1.5-.72-.23-1.08-1.13-.77-1.95.46-1.24 1.05-5 1.27-8.25.13-1.83.43-4.06.66-4.97.44-1.7.35-2.24-.5-2.95-.58-.48-.51-.87.12-.67.35.11.58.03.69-.25.09-.23.4-.41.7-.41.3 0 1.16-.59 1.91-1.3C9.9 2.25 11.9 1.15 13.5.9c.6-.1.97-.27.8-.37-.45-.28 2.42-.51 4.12-.34.8.08 1.33.24 1.17.34-.17.1.19.27.8.37a11.1 11.1 0 0 1 5.27 2.91c.7.72 1.42 1.22 1.76 1.22.32 0 .65.18.74.41.1.28.34.36.69.25.63-.2.7.2.12.67-.85.7-.94 1.25-.5 2.95.23.9.53 3.14.65 4.97.23 3.25.81 7 1.28 8.25.3.82-.05 1.72-.77 1.95-.7.22-1.23-.25-1.66-1.5-.45-1.3-.82-1.22-.99.23-.08.7-.61 2.19-1.18 3.31l-1.04 2.06h-1.07c-1.26 0-1.72.35-1.72 1.32 0 .38-.1.8-.23.94-.12.14-.37.8-.55 1.48-.24.88-.5 1.28-.9 1.39-1.08.29-1.2.2-1.05-.76.13-.82.07-.95-.54-1.19-.44-.16-.7-.46-.7-.8 0-.3-.12-.53-.26-.53-.28 0-.37-2.92-.11-3.86.09-.34.85-.93 1.95-1.52 1.63-.88 1.81-1.07 1.91-1.9.06-.5.08-.92.03-.92-.04 0-.24.4-.46.92-.37.89-1.86 2.07-2.4 1.9-.14-.04-.43-.46-.64-.92-.29-.64-.55-.85-1.08-.85s-.79.2-1.07.85c-.21.46-.5.88-.65.92-.54.17-2.03-1.01-2.4-1.9-.2-.51-.42-.92-.46-.92-.04 0-.02.4.03.91.1.82.3 1.02 1.87 1.88.97.53 1.84 1.1 1.95 1.27.3.46.24 4.14-.06 4.14-.15 0-.27.24-.27.53 0 .34-.26.64-.69.8-.61.24-.68.37-.55 1.19.16.95 0 1.05-1.17.74zm4.94-12.12c.8-.8.84-1.95.1-2.9-1.2-1.5-3.68-.51-3.68 1.48 0 1.04 1.05 2.07 2.11 2.07.52 0 1.06-.24 1.47-.65zM12 19.02c.17-.01.7 0 1.16.02.72.04.88-.06 1.03-.64.11-.47.03-.85-.26-1.17a2.2 2.2 0 0 1-.43-.58c0-.06 1.55-.11 3.44-.11 1.9 0 3.44.05 3.44.1 0 .07-.19.33-.43.6-.28.31-.37.7-.25 1.16.15.58.31.68 1.02.64 1.43-.07 1.51-.03 1.53.87v.86l.65-1.2c.78-1.46.82-2.6.12-3.97-.43-.85-.67-1.05-1.27-1.05-.53 0-.85-.2-1.1-.66-.2-.36-.49-.65-.64-.64a6.1 6.1 0 0 0-1.48 1.39c-.66.75-1.37 1.37-1.59 1.37-.21 0-.92-.62-1.58-1.37a6.27 6.27 0 0 0-1.48-1.39c-.16-.01-.45.28-.64.64-.25.47-.58.66-1.1.66-.6 0-.85.2-1.28 1.05-.69 1.35-.67 2.35.06 3.88l.6 1.23.08-.83c.05-.46.23-.84.4-.86zm.45-6.28a4.43 4.43 0 0 0 1.58-3.08c0-1.05-.84-2.4-1.91-3.05-3.15-1.92-6.94 2-4.9 5.06a3.7 3.7 0 0 0 5.23 1.07zm-2.17-2.83c-.27-.58-.23-.75.25-1.24.49-.48.67-.52 1.24-.26.44.2.68.52.68.92 0 1.34-1.63 1.77-2.17.58zm15.39 2.84a4.48 4.48 0 0 0 1.6-3.1c-.01-1.73-1.9-3.56-3.71-3.56-1.78 0-3.7 1.82-3.7 3.51 0 .96.58 2.32 1.25 2.92a3.88 3.88 0 0 0 4.56.23zm-3.91-2.48a1.15 1.15 0 0 1 .35-1.86c1-.45 1.95.5 1.5 1.5-.33.73-1.3.91-1.85.36z" fill="#795337"/><path d="M13.46 33.7c-.25-.08-.57-.64-.77-1.37a5.9 5.9 0 0 0-.56-1.5c-.12-.13-.22-.55-.22-.93 0-.97-.47-1.32-1.72-1.32H9.1L8 26.26a13.44 13.44 0 0 1-1.22-3.64c-.15-1.61.44-7.72.78-8.06.22-.22 5.14-1.6 5.7-1.6.35 0 .28.74-.09.97-.17.1-.74.26-1.25.35-.73.12-1.05.37-1.52 1.2-.87 1.54-.77 2.47.58 5.16a12 12 0 0 1 1.2 3.12c0 .6.17.83.98 1.19.55.24 1.38.68 1.86.97l.85.53v2.52c0 2.49 0 2.53-.69 2.8-.61.23-.68.36-.55 1.18.16.95 0 1.05-1.17.74zm5.77-.75c.13-.82.07-.95-.54-1.19-.69-.26-.7-.3-.7-2.79v-2.52l.86-.53c.47-.29 1.3-.73 1.85-.97.81-.36 1-.58 1-1.2a12 12 0 0 1 1.19-3.11c1.35-2.69 1.45-3.62.58-5.16-.47-.83-.79-1.08-1.53-1.2a4.74 4.74 0 0 1-1.25-.35c-.37-.23-.43-.97-.08-.97.53 0 5.47 1.38 5.68 1.58.33.34.95 6.49.8 8.04-.08.83-.56 2.27-1.23 3.68l-1.1 2.32h-1.08c-1.26 0-1.72.35-1.72 1.32 0 .38-.1.8-.23.94-.12.14-.37.8-.55 1.48-.24.88-.5 1.28-.9 1.39-1.08.29-1.2.2-1.05-.76zm-5.11-8.32c-1.02-.63-2.48-3.36-2.48-4.66 0-.96.07-1 1.51-.93.72.04.88-.06 1.03-.64.11-.47.03-.85-.26-1.17a2.2 2.2 0 0 1-.43-.58c0-.06 1.55-.11 3.44-.11 1.9 0 3.44.05 3.44.1 0 .07-.19.33-.43.6-.28.31-.37.7-.25 1.16.15.58.31.68 1.02.64 1.46-.08 1.52-.04 1.5 1-.01 1.38-1.47 4-2.57 4.65-.98.57-1.48.36-1.76-.76-.12-.5-.34-.65-.9-.65-.58 0-.83.19-1.12.85-.48 1.06-.71 1.13-1.74.5zm4.28-3.05c.8-.8.84-1.95.1-2.9-1.2-1.5-3.68-.51-3.68 1.48 0 1.04 1.05 2.07 2.11 2.07.52 0 1.06-.24 1.47-.65zm-2.49-6.9c-1.08-.92-1.93-2.34-1.72-2.9.23-.6 1.2-.93 2.74-.93 1.54 0 2.52.33 2.74.92.29.74-1.9 3.58-2.75 3.58-.12 0-.57-.3-1.01-.68zM10.27 9.9c-.27-.58-.23-.75.25-1.24.49-.48.67-.52 1.24-.26.44.2.68.52.68.92 0 1.34-1.63 1.77-2.17.58zm11.48.36a1.15 1.15 0 0 1 .35-1.86c1-.45 1.95.5 1.5 1.5-.33.73-1.3.91-1.85.36z" fill="#f70605"/><path d="M14.12 24.63c-1.02-.63-2.48-3.36-2.48-4.66 0-.96.07-1 1.51-.93.72.04.88-.06 1.03-.64.11-.47.03-.85-.26-1.17a2.2 2.2 0 0 1-.43-.58c0-.06 1.55-.11 3.44-.11 1.9 0 3.44.05 3.44.1 0 .07-.19.33-.43.6-.28.31-.37.7-.25 1.16.15.58.31.68 1.02.64 1.46-.08 1.52-.04 1.5 1-.01 1.38-1.47 4-2.57 4.65-.98.57-1.48.36-1.76-.76-.12-.5-.34-.65-.9-.65-.58 0-.83.19-1.12.85-.48 1.06-.71 1.13-1.74.5zm4.28-3.05c.8-.8.84-1.95.1-2.9-1.2-1.5-3.68-.51-3.68 1.48 0 1.04 1.05 2.07 2.11 2.07.52 0 1.06-.24 1.47-.65zm-2.49-6.9c-1.08-.92-1.93-2.34-1.72-2.9.23-.6 1.2-.93 2.74-.93 1.54 0 2.52.33 2.74.92.29.74-1.9 3.58-2.75 3.58-.12 0-.57-.3-1.01-.68zM10.27 9.9c-.27-.58-.23-.75.25-1.24.49-.48.67-.52 1.24-.26.44.2.68.52.68.92 0 1.34-1.63 1.77-2.17.58zm11.48.36a1.15 1.15 0 0 1 .35-1.86c1-.45 1.95.5 1.5 1.5-.33.73-1.3.91-1.85.36z" fill="#191514"/></svg>