<?xml version="1.0" encoding="UTF-8" standalone="no"?>
<!-- Created with Inkscape (http://www.inkscape.org/) -->

<svg
   xmlns:dc="http://purl.org/dc/elements/1.1/"
   xmlns:cc="http://creativecommons.org/ns#"
   xmlns:rdf="http://www.w3.org/1999/02/22-rdf-syntax-ns#"
   xmlns:svg="http://www.w3.org/2000/svg"
   xmlns="http://www.w3.org/2000/svg"
   xmlns:sodipodi="http://sodipodi.sourceforge.net/DTD/sodipodi-0.dtd"
   xmlns:inkscape="http://www.inkscape.org/namespaces/inkscape"
   width="33.867001mm"
   height="33.867001mm"
   viewBox="0 0 33.867 33.867"
   version="1.1"
   id="svg3791"
   inkscape:version="0.92.2 (5c3e80d, 2017-08-06)"
   sodipodi:docname="owlhat.svg">
  <defs
     id="defs3785" />
  <sodipodi:namedview
     id="base"
     pagecolor="#ffffff"
     bordercolor="#666666"
     borderopacity="1.0"
     inkscape:pageopacity="0.0"
     inkscape:pageshadow="2"
     inkscape:zoom="3.959798"
     inkscape:cx="11.363804"
     inkscape:cy="65.280897"
     inkscape:document-units="mm"
     inkscape:current-layer="layer1"
     showgrid="false"
     viewbox-width="33.867"
     inkscape:window-width="1920"
     inkscape:window-height="1027"
     inkscape:window-x="-8"
     inkscape:window-y="64"
     inkscape:window-maximized="1" />
  <metadata
     id="metadata3788">
    <rdf:RDF>
      <cc:Work
         rdf:about="">
        <dc:format>image/svg+xml</dc:format>
        <dc:type
           rdf:resource="http://purl.org/dc/dcmitype/StillImage" />
        <dc:title />
      </cc:Work>
    </rdf:RDF>
  </metadata>
  <g
     inkscape:label="Layer 1"
     inkscape:groupmode="layer"
     id="layer1"
     transform="translate(0,-263.133)">
    <g
       id="g3804"
       transform="translate(-72.269058,127.45358)">
      <path
         style="fill:#ae9f95;stroke-width:0.26458332"
         d="m 85.089322,168.89699 c -0.357187,-0.35719 -0.649431,-0.88332 -0.649431,-1.16918 0,-0.28586 -0.172508,-0.85682 -0.383351,-1.2688 -0.210843,-0.41197 -0.445231,-0.9574 -0.520863,-1.21206 -0.09575,-0.3224 -0.408826,-0.46302 -1.03085,-0.46302 -1.089507,0 -1.427532,-0.36021 -2.669089,-2.84428 -0.527312,-1.05502 -1.061737,-1.91822 -1.18761,-1.91822 -0.125873,0 -0.37708,0.17859 -0.558237,0.39687 -0.522886,0.63004 -1.933613,0.49354 -2.636969,-0.25515 -0.525542,-0.55941 -0.588613,-0.82662 -0.444054,-1.88129 0.146408,-1.06816 0.08023,-1.33416 -0.504945,-2.0296 -0.547093,-0.65019 -0.65858,-1.0294 -0.594254,-2.02131 0.07843,-1.20945 0.08918,-1.22223 1.137514,-1.35327 l 1.058333,-0.1323 0.192623,-2.77812 c 0.105942,-1.52797 0.383993,-3.65049 0.61789,-4.71672 0.373895,-1.70441 0.378452,-1.99207 0.03772,-2.38125 -0.213151,-0.24346 -0.595486,-0.85268 -0.849633,-1.35382 l -0.462087,-0.91116 0.76091,-0.60888 c 0.822422,-0.6581 1.296904,-0.76398 1.554659,-0.34692 0.322436,0.52171 1.002186,0.24516 2.328555,-0.94736 2.444797,-2.19808 4.834254,-3.0028 8.916237,-3.0028 4.081982,0 6.471439,0.80472 8.916236,3.0028 1.326369,1.19252 2.006114,1.46907 2.328554,0.94736 0.25776,-0.41706 0.73224,-0.31118 1.55466,0.34692 l 0.76091,0.60888 -0.46209,0.91116 c -0.25414,0.50114 -0.63648,1.11036 -0.84963,1.35382 -0.34073,0.38918 -0.33617,0.67684 0.0377,2.38125 0.2339,1.06623 0.51195,3.18875 0.61789,4.71672 l 0.19262,2.77812 1.05834,0.1323 c 1.04834,0.13104 1.05908,0.14382 1.13751,1.35327 0.0643,0.99191 -0.0472,1.37112 -0.59425,2.02131 -0.58517,0.69544 -0.65135,0.96144 -0.50495,2.0296 0.14456,1.05467 0.0815,1.32188 -0.44405,1.88129 -0.70336,0.74869 -2.11408,0.88519 -2.63697,0.25515 -0.18116,-0.21828 -0.432365,-0.39687 -0.558237,-0.39687 -0.125873,0 -0.6603,0.8632 -1.187611,1.91822 -1.241557,2.48407 -1.579582,2.84428 -2.669089,2.84428 -0.622024,0 -0.935102,0.14062 -1.03085,0.46302 -0.07563,0.25466 -0.31002,0.80009 -0.520863,1.21206 -0.210843,0.41198 -0.383351,0.98294 -0.383351,1.2688 0,0.72488 -1.169164,1.81861 -1.944041,1.81861 -0.638057,0 -1.106492,-0.61756 -0.820023,-1.08108 0.08144,-0.13177 -0.1563,-0.37826 -0.528308,-0.54776 -0.372008,-0.1695 -0.676378,-0.46766 -0.676378,-0.66258 0,-0.2174 -0.306857,-0.35441 -0.793749,-0.35441 -0.486893,0 -0.79375,0.13701 -0.79375,0.35441 0,0.19492 -0.30437,0.49308 -0.676378,0.66258 -0.372008,0.1695 -0.609747,0.41599 -0.528308,0.54776 0.286469,0.46352 -0.181966,1.08108 -0.820023,1.08108 -0.354848,0 -0.937422,-0.29224 -1.29461,-0.64943 z m 5.427731,-12.38129 c 0.363783,-0.65335 0.363783,-0.80186 0,-1.45521 -0.550622,-0.98891 -1.880356,-1.14265 -2.479871,-0.28673 -0.23226,0.3316 -0.422291,0.78805 -0.422291,1.01433 0,0.22629 0.190031,0.68273 0.422291,1.01433 0.599515,0.85593 1.929249,0.70218 2.479871,-0.28672 z m -6.338969,-8.57654 c 0.75526,-0.44615 1.32014,-1.35374 1.32014,-2.12107 0,-0.29465 -0.163769,-0.21191 -0.54837,0.27703 -0.67092,0.85294 -1.865287,0.92932 -2.62663,0.16797 -0.676071,-0.67607 -0.670339,-1.33666 0.0192,-2.21327 0.579691,-0.73696 1.270396,-0.87519 2.114857,-0.42325 0.677098,0.36237 0.648616,0.13879 -0.06728,-0.52817 -0.419738,-0.39105 -0.936504,-0.53947 -1.878222,-0.53947 -1.112186,0 -1.409641,0.11826 -2.066776,0.82173 -1.257246,1.34588 -0.950068,3.77937 0.584428,4.62987 0.875213,0.4851 2.259758,0.45371 3.148653,-0.0714 z m 13.188018,0.0636 c 0.888092,-0.45925 1.361288,-1.42645 1.361288,-2.78244 0,-2.14719 -2.335566,-3.38866 -4.417738,-2.34825 -0.319704,0.15975 -0.644446,0.45506 -0.721649,0.65625 -0.109605,0.28562 -0.02951,0.30647 0.365448,0.0951 0.838583,-0.44879 1.530499,-0.30888 2.108902,0.42644 0.689543,0.87661 0.695275,1.5372 0.0192,2.21327 -0.761343,0.76135 -1.95571,0.68497 -2.62663,-0.16797 -0.384601,-0.48894 -0.54837,-0.57168 -0.54837,-0.27703 0,1.94978 2.523315,3.1859 4.459545,2.18464 z"
         id="path3818"
         inkscape:connector-curvature="0" />
      <path
         style="fill:#cebe35;stroke-width:0.26458332"
         d="m 85.406451,169.15227 c -0.216784,-0.21678 -0.472292,-0.78233 -0.567796,-1.25677 -0.165416,-0.82175 -0.704199,-2.25638 -1.168568,-3.11157 -0.128085,-0.23589 -0.600577,-0.40044 -1.164795,-0.40567 -0.52211,-0.005 -0.997415,-0.0644 -1.056231,-0.13229 -0.05882,-0.0679 -0.540586,-0.95778 -1.070598,-1.97746 -1.141345,-2.19581 -1.832691,-2.7668 -2.556681,-2.1116 -0.654766,0.59255 -1.553984,0.4082 -2.191821,-0.44936 -0.455942,-0.61301 -0.484827,-0.81654 -0.210034,-1.47995 0.297137,-0.71735 0.254181,-0.83362 -0.637345,-1.72515 -0.869502,-0.8695 -0.948621,-1.07066 -0.874844,-2.22422 l 0.08111,-1.26826 1.255354,-0.0806 c 1.478507,-0.0949 1.430681,0.0233 1.626325,-4.02045 0.07393,-1.52797 0.30412,-3.38768 0.511544,-4.13269 0.371825,-1.33549 0.366426,-1.37049 -0.383566,-2.48721 -0.900758,-1.34119 -1.010179,-1.99891 -0.266321,-1.60081 0.588482,0.31495 0.853289,0.1264 0.632083,-0.45005 -0.125351,-0.32666 -0.04979,-0.37185 0.348959,-0.2087 1.166145,0.47714 1.409085,0.44637 2.009874,-0.25457 1.096053,-1.27877 2.852724,-2.45643 4.798456,-3.21684 1.655682,-0.64706 2.263388,-0.74361 4.680833,-0.74361 2.417444,0 3.02515,0.0966 4.680832,0.74361 1.945732,0.76041 3.702403,1.93807 4.798456,3.21684 0.600788,0.70094 0.843729,0.73171 2.009873,0.25457 0.39875,-0.16315 0.47431,-0.11796 0.34896,0.2087 -0.22121,0.57645 0.0436,0.765 0.63208,0.45005 0.74386,-0.3981 0.63444,0.25962 -0.26632,1.60081 -0.74999,1.11672 -0.75539,1.15172 -0.38356,2.48721 0.20742,0.74501 0.43762,2.60472 0.51154,4.13269 0.19564,4.04377 0.14782,3.92554 1.62633,4.02045 l 1.25535,0.0806 0.0811,1.26826 c 0.0738,1.15356 -0.005,1.35472 -0.87484,2.22422 -0.89153,0.89153 -0.93448,1.0078 -0.63735,1.72515 0.2748,0.66341 0.24591,0.86694 -0.21003,1.47995 -0.63784,0.85756 -1.53706,1.04191 -2.19182,0.44936 -0.723994,-0.6552 -1.41534,-0.0842 -2.556684,2.1116 -0.530012,1.01968 -1.003454,1.90121 -1.052093,1.95896 -0.04864,0.0577 -0.524177,0.11728 -1.05675,0.13229 -0.565583,0.0159 -1.057729,0.19236 -1.183299,0.42417 -0.465333,0.85903 -1.002864,2.29097 -1.16805,3.11157 -0.215004,1.06809 -0.771875,1.65092 -1.577376,1.65092 -0.525656,0 -0.609735,-0.12512 -0.576414,-0.85782 0.02955,-0.64984 -0.101384,-0.91996 -0.540014,-1.11406 -0.318465,-0.14093 -0.63474,-0.46929 -0.702834,-0.72968 -0.08628,-0.32994 -0.379411,-0.47343 -0.967097,-0.47343 -0.587687,0 -0.880817,0.14349 -0.967098,0.47343 -0.06809,0.26039 -0.384369,0.58875 -0.702834,0.72968 -0.43863,0.1941 -0.569567,0.46422 -0.540014,1.11406 0.03332,0.7327 -0.05076,0.85782 -0.576414,0.85782 -0.338484,0 -0.792795,-0.17736 -1.00958,-0.39415 z m 5.099653,-12.20923 c 0.694005,-0.88229 0.696963,-1.68942 0.0089,-2.42797 -1.051826,-1.12901 -3.164695,-0.35792 -3.164695,1.15494 0,0.92041 0.986843,1.97017 1.852084,1.97017 0.500872,0 0.940085,-0.23487 1.303713,-0.69714 z m -6.785319,-8.39689 c 1.453992,-0.61954 2.174314,-1.62399 2.174314,-3.03198 0,-1.62099 -0.839394,-2.82877 -2.262247,-3.25507 -2.316718,-0.6941 -4.352336,0.82529 -4.352336,3.24861 0,1.33636 0.449722,2.04271 1.852083,2.90894 0.948793,0.58607 1.456995,0.61149 2.588186,0.1295 z m -1.296701,-2.69077 c -0.561996,-0.85772 -0.16474,-1.88102 0.826845,-2.12989 1.332623,-0.33447 2.282569,1.4062 1.302354,2.38641 -0.633917,0.63392 -1.623911,0.51465 -2.129199,-0.25652 z m 14.662799,2.68181 c 1.883058,-0.97975 2.582556,-2.77925 1.756789,-4.51942 -0.865126,-1.82312 -2.771971,-2.45624 -4.59176,-1.52458 -2.548603,1.30479 -2.329498,4.84047 0.374437,6.04224 1.029011,0.45735 1.584148,0.45774 2.460534,0.002 z m -3.235385,-2.42529 c -0.980215,-0.98021 -0.03027,-2.72088 1.302354,-2.38641 0.374615,0.094 0.81302,0.46045 0.974234,0.81427 0.627189,1.37653 -1.206152,2.64258 -2.276588,1.57214 z"
         id="path3816"
         inkscape:connector-curvature="0" />
      <path
         style="fill:#8c6851;stroke-width:0.26458332"
         d="m 85.701764,169.36502 c -0.26919,-0.0705 -0.582766,-0.57587 -0.760842,-1.22608 -0.307486,-1.12271 -0.879606,-2.63373 -1.270317,-3.35501 -0.12557,-0.23181 -0.617716,-0.40823 -1.183299,-0.42417 -0.532573,-0.015 -1.011647,-0.0745 -1.064609,-0.13229 -0.05296,-0.0577 -0.586384,-1.08463 -1.185383,-2.28194 -0.734396,-1.46796 -1.08909,-2.52353 -1.08909,-3.24115 0,-1.40259 -0.392832,-1.35616 -0.756843,0.0895 -0.159773,0.63452 -0.46501,1.2985 -0.678305,1.47552 -0.575974,0.47802 -1.486946,0.23974 -2.067397,-0.54076 -0.478612,-0.64356 -0.486527,-0.76746 -0.118308,-1.85208 0.642788,-1.89339 0.986035,-4.11195 1.24416,-8.04155 0.133824,-2.03729 0.410797,-4.31372 0.615496,-5.05873 0.366217,-1.33285 0.359993,-1.3727 -0.38852,-2.48721 -0.900758,-1.34119 -1.010179,-1.99891 -0.266321,-1.60081 0.588482,0.31495 0.853289,0.1264 0.632083,-0.45005 -0.125351,-0.32666 -0.04979,-0.37185 0.348959,-0.2087 1.166145,0.47714 1.409085,0.44637 2.009874,-0.25457 1.096053,-1.27877 2.852724,-2.45643 4.798456,-3.21684 1.655682,-0.64706 2.263388,-0.74361 4.680833,-0.74361 2.417444,0 3.02515,0.0966 4.680832,0.74361 1.945732,0.76041 3.702403,1.93807 4.798456,3.21684 0.600788,0.70094 0.843729,0.73171 2.009871,0.25457 0.39875,-0.16315 0.47431,-0.11796 0.34896,0.2087 -0.22121,0.57645 0.0436,0.765 0.63208,0.45005 0.74386,-0.3981 0.63444,0.25962 -0.26632,1.60081 -0.74851,1.11451 -0.75473,1.15436 -0.38852,2.48721 0.2047,0.74501 0.48168,3.02144 0.6155,5.05873 0.25813,3.9296 0.60137,6.14816 1.24416,8.04155 0.36822,1.08462 0.3603,1.20852 -0.11831,1.85208 -0.58045,0.7805 -1.49142,1.01878 -2.0674,0.54076 -0.21329,-0.17702 -0.51853,-0.841 -0.6783,-1.47552 -0.364011,-1.44562 -0.756843,-1.49205 -0.756843,-0.0895 0,0.71762 -0.354693,1.77319 -1.08909,3.24115 -0.598999,1.19731 -1.132421,2.22419 -1.185383,2.28194 -0.05296,0.0577 -0.532036,0.11728 -1.064609,0.13229 -0.565583,0.0159 -1.057729,0.19236 -1.183299,0.42417 -0.465333,0.85903 -1.002864,2.29097 -1.16805,3.11157 -0.215004,1.06809 -0.771875,1.65092 -1.577376,1.65092 -0.525656,0 -0.609735,-0.12512 -0.576414,-0.85782 0.02955,-0.64984 -0.101384,-0.91996 -0.540014,-1.11406 -0.318465,-0.14093 -0.63474,-0.46929 -0.702834,-0.72968 -0.17304,-0.6617 -1.761155,-0.6617 -1.934195,0 -0.06809,0.26039 -0.384369,0.58875 -0.702834,0.72968 -0.43863,0.1941 -0.569567,0.46422 -0.540014,1.11406 0.03992,0.87788 -0.147425,0.97606 -1.290681,0.67642 z m 4.80434,-12.42198 c 0.694005,-0.88229 0.696963,-1.68942 0.0089,-2.42797 -1.051826,-1.12901 -3.164695,-0.35792 -3.164695,1.15494 0,0.92041 0.986843,1.97017 1.852084,1.97017 0.500872,0 0.940085,-0.23487 1.303713,-0.69714 z m -2.097463,-5.46552 c 0,-0.0425 -0.537624,-0.66756 -1.194719,-1.38906 -0.977798,-1.07364 -1.241279,-1.23977 -1.451157,-0.91495 -0.364771,0.56454 -0.332446,0.74899 0.282642,1.6128 0.421997,0.59264 0.754925,0.76845 1.455208,0.76845 0.499414,0 0.908026,-0.0348 0.908026,-0.0772 z m 3.950733,-0.69121 c 0.615088,-0.86381 0.647413,-1.04826 0.282642,-1.6128 -0.209878,-0.32482 -0.473359,-0.15869 -1.451157,0.91495 -0.657095,0.7215 -1.194719,1.34657 -1.194719,1.38906 0,0.0425 0.408612,0.0772 0.908026,0.0772 0.700283,0 1.033211,-0.17581 1.455208,-0.76845 z m -8.638589,-2.24016 c 1.453992,-0.61954 2.174314,-1.62399 2.174314,-3.03198 0,-1.62099 -0.839394,-2.82877 -2.262247,-3.25507 -2.316718,-0.6941 -4.352336,0.82529 -4.352336,3.24861 0,1.33636 0.449722,2.04271 1.852083,2.90894 0.948793,0.58607 1.456995,0.61149 2.588186,0.1295 z m -1.296701,-2.69077 c -0.561996,-0.85772 -0.16474,-1.88102 0.826845,-2.12989 1.332623,-0.33447 2.282569,1.4062 1.302354,2.38641 -0.633917,0.63392 -1.623911,0.51465 -2.129199,-0.25652 z m 14.662799,2.68181 c 1.883058,-0.97975 2.582556,-2.77925 1.756789,-4.51942 -0.865126,-1.82312 -2.771971,-2.45624 -4.59176,-1.52458 -2.548603,1.30479 -2.329498,4.84047 0.374437,6.04224 1.029011,0.45735 1.584148,0.45774 2.460534,0.002 z m -3.235385,-2.42529 c -0.980215,-0.98021 -0.03027,-2.72088 1.302354,-2.38641 0.374615,0.094 0.81302,0.46045 0.974234,0.81427 0.627189,1.37653 -1.206152,2.64258 -2.276588,1.57214 z"
         id="path3814"
         inkscape:connector-curvature="0" />
      <path
         style="fill:#5c5553;stroke-width:0.26458332"
         d="m 85.727265,169.36993 c -0.251838,-0.067 -0.571977,-0.63429 -0.76661,-1.35837 -0.183807,-0.68379 -0.435703,-1.35637 -0.55977,-1.49461 -0.124068,-0.13825 -0.225578,-0.56092 -0.225578,-0.93927 0,-0.96494 -0.463997,-1.32292 -1.714689,-1.32292 h -1.079689 l -1.033665,-2.05052 c -0.596243,-1.18279 -1.096648,-2.61035 -1.182499,-3.37344 -0.166538,-1.4803 -0.519842,-1.54126 -0.990919,-0.17099 -0.429141,1.24829 -0.953577,1.72175 -1.659085,1.49783 -0.720495,-0.22867 -1.076458,-1.13233 -0.768221,-1.95023 0.467426,-1.24029 1.048866,-5.00236 1.275184,-8.25079 0.127138,-1.82485 0.42305,-4.05845 0.657581,-4.96353 0.44098,-1.7018 0.348553,-2.24627 -0.50101,-2.95134 -0.580336,-0.48164 -0.511043,-0.87305 0.119149,-0.67304 0.352559,0.1119 0.583896,0.0292 0.689766,-0.24675 0.08761,-0.22831 0.402944,-0.41512 0.700736,-0.41512 0.297792,0 1.1581,-0.58321 1.911796,-1.29602 1.569052,-1.48395 3.564822,-2.58014 5.162685,-2.83565 0.605927,-0.0969 0.964522,-0.26094 0.796878,-0.36455 -0.451194,-0.27885 2.416423,-0.51602 4.117032,-0.3405 0.810671,0.0837 1.336783,0.23689 1.169139,0.3405 -0.167644,0.10361 0.19016,0.26754 0.795121,0.36427 1.624124,0.25971 3.942045,1.54055 5.281986,2.91873 0.691385,0.71111 1.418807,1.21322 1.75763,1.21322 0.317934,0 0.649747,0.18681 0.737357,0.41512 0.10587,0.2759 0.33721,0.35865 0.68977,0.24675 0.63019,-0.20001 0.69948,0.1914 0.11915,0.67304 -0.84957,0.70507 -0.94199,1.24954 -0.50101,2.95134 0.23453,0.90508 0.53044,3.13868 0.65758,4.96353 0.22631,3.24843 0.80775,7.0105 1.27518,8.25079 0.30824,0.8179 -0.0477,1.72156 -0.76822,1.95023 -0.70551,0.22392 -1.22994,-0.24954 -1.65908,-1.49783 -0.45031,-1.30985 -0.819787,-1.22426 -0.990925,0.22956 -0.08186,0.69539 -0.613982,2.18708 -1.182498,3.31487 l -1.033665,2.05052 h -1.079689 c -1.250692,0 -1.714689,0.35798 -1.714689,1.32292 0,0.37835 -0.10151,0.80102 -0.225578,0.93927 -0.124067,0.13824 -0.374693,0.80628 -0.556946,1.48453 -0.236223,0.87909 -0.494324,1.2769 -0.898902,1.38545 -1.082291,0.29038 -1.202758,0.20285 -1.046457,-0.76032 0.131921,-0.81293 0.0685,-0.95052 -0.545801,-1.18407 -0.411689,-0.15653 -0.695066,-0.46797 -0.695066,-0.7639 0,-0.40652 -0.19724,-0.49964 -1.058333,-0.49964 -0.861094,0 -1.058334,0.0931 -1.058334,0.49964 0,0.29593 -0.283377,0.60737 -0.695066,0.7639 -0.614301,0.23355 -0.677722,0.37114 -0.545801,1.18407 0.154769,0.95373 -0.0053,1.05493 -1.175925,0.74332 z m 4.798042,-12.25892 c 1.158012,-1.15801 0.304559,-3.2632 -1.322916,-3.2632 -0.592573,0 -1.034161,0.19506 -1.364148,0.60258 -1.054004,1.30164 -0.246517,3.18979 1.364148,3.18979 0.440972,0 1.028935,-0.23519 1.322916,-0.52917 z m -1.89618,-5.52734 c -0.147204,-0.39336 -2.332831,-2.67474 -2.562476,-2.67474 -0.117934,0 -0.374499,0.2991 -0.570144,0.66466 -0.325801,0.60877 -0.292018,0.73116 0.401666,1.45521 0.587107,0.61281 0.989154,0.79054 1.788268,0.79054 0.566984,0 0.991193,-0.10605 0.942686,-0.23567 z m 3.877481,-0.55487 c 0.693684,-0.72405 0.727467,-0.84644 0.401666,-1.45521 -0.195645,-0.36556 -0.45221,-0.66466 -0.570144,-0.66466 -0.229645,0 -2.415272,2.28138 -2.562476,2.67474 -0.04851,0.12962 0.375702,0.23567 0.942686,0.23567 0.799114,0 1.201161,-0.17773 1.788268,-0.79054 z m -7.802134,-2.60906 c 0.839087,-0.60189 1.586848,-2.05521 1.5861,-3.08269 -7.64e-4,-1.04928 -0.845405,-2.39236 -1.914411,-3.04414 -3.149401,-1.92021 -6.937082,1.99414 -4.891936,5.05553 1.192129,1.78451 3.551071,2.26861 5.220247,1.0713 z m -1.918229,-2.17784 c -0.714216,-0.41599 -0.598439,-1.72996 0.198437,-2.2521 0.612741,-0.40148 0.710176,-0.40148 1.322917,0 0.786416,0.51528 0.867627,1.47553 0.177604,2.09999 -0.550432,0.49814 -1.030996,0.54116 -1.698958,0.15211 z m 15.141191,2.1921 c 0.847471,-0.62035 1.59305,-2.07047 1.592304,-3.09695 -0.0013,-1.74043 -1.89882,-3.5699 -3.702766,-3.5699 -1.775357,0 -3.700913,1.82628 -3.703178,3.51225 -0.0013,0.96217 0.582288,2.31654 1.256981,2.9172 1.180744,1.05118 3.294516,1.16131 4.556659,0.2374 z m -4.05383,-2.39018 c -0.632332,-0.69872 -0.539212,-1.55422 0.223576,-2.05402 0.612741,-0.40148 0.710176,-0.40148 1.322917,0 1.205909,0.79015 0.699504,2.53788 -0.735349,2.53788 -0.205294,0 -0.570309,-0.21774 -0.811144,-0.48386 z"
         id="path3812"
         inkscape:connector-curvature="0" />
      <path
         style="fill:#795337;stroke-width:0.26458332"
         d="m 85.727265,169.36993 c -0.251838,-0.067 -0.571977,-0.63429 -0.76661,-1.35837 -0.183807,-0.68379 -0.435703,-1.35637 -0.55977,-1.49461 -0.124068,-0.13825 -0.225578,-0.56092 -0.225578,-0.93927 0,-0.96494 -0.463997,-1.32292 -1.714689,-1.32292 h -1.079689 l -1.033665,-2.05052 c -0.596243,-1.18279 -1.096648,-2.61035 -1.182499,-3.37344 -0.166538,-1.4803 -0.519842,-1.54126 -0.990919,-0.17099 -0.429141,1.24829 -0.953577,1.72175 -1.659085,1.49783 -0.720495,-0.22867 -1.076458,-1.13233 -0.768221,-1.95023 0.467426,-1.24029 1.048866,-5.00236 1.275184,-8.25079 0.127138,-1.82485 0.42305,-4.05845 0.657581,-4.96353 0.44098,-1.7018 0.348553,-2.24627 -0.50101,-2.95134 -0.580336,-0.48164 -0.511043,-0.87305 0.119149,-0.67304 0.352559,0.1119 0.583896,0.0292 0.689766,-0.24675 0.08761,-0.22831 0.402944,-0.41512 0.700736,-0.41512 0.297792,0 1.1581,-0.58321 1.911796,-1.29602 1.569052,-1.48395 3.564822,-2.58014 5.162685,-2.83565 0.605927,-0.0969 0.964522,-0.26094 0.796878,-0.36455 -0.451194,-0.27885 2.416423,-0.51602 4.117032,-0.3405 0.810671,0.0837 1.336783,0.23689 1.169139,0.3405 -0.167644,0.10361 0.19016,0.26754 0.795121,0.36427 1.624124,0.25971 3.942045,1.54055 5.281986,2.91873 0.691385,0.71111 1.418807,1.21322 1.75763,1.21322 0.317934,0 0.649747,0.18681 0.737357,0.41512 0.10587,0.2759 0.33721,0.35865 0.68977,0.24675 0.63019,-0.20001 0.69948,0.1914 0.11915,0.67304 -0.84957,0.70507 -0.94199,1.24954 -0.50101,2.95134 0.23453,0.90508 0.53044,3.13868 0.65758,4.96353 0.22631,3.24843 0.80775,7.0105 1.27518,8.25079 0.30824,0.8179 -0.0477,1.72156 -0.76822,1.95023 -0.70551,0.22392 -1.22994,-0.24954 -1.65908,-1.49783 -0.45031,-1.30985 -0.819787,-1.22426 -0.990925,0.22956 -0.08186,0.69539 -0.613982,2.18708 -1.182498,3.31487 l -1.033665,2.05052 h -1.079689 c -1.250692,0 -1.714689,0.35798 -1.714689,1.32292 0,0.37835 -0.10151,0.80102 -0.225578,0.93927 -0.124067,0.13824 -0.374693,0.80628 -0.556946,1.48453 -0.236223,0.87909 -0.494324,1.2769 -0.898902,1.38545 -1.082291,0.29038 -1.202758,0.20285 -1.046457,-0.76032 0.131921,-0.81293 0.0685,-0.95052 -0.545801,-1.18407 -0.434498,-0.1652 -0.695066,-0.4651 -0.695066,-0.79998 0,-0.29465 -0.119063,-0.53572 -0.264584,-0.53572 -0.279917,0 -0.362809,-2.91458 -0.109699,-3.85718 0.09014,-0.33568 0.850587,-0.92955 1.952189,-1.52455 1.628845,-0.87978 1.815019,-1.06451 1.912267,-1.89751 0.05926,-0.50756 0.07371,-0.92284 0.03212,-0.92284 -0.04159,0 -0.24864,0.41411 -0.460117,0.92025 -0.371806,0.88985 -1.860216,2.07233 -2.400722,1.90726 -0.145521,-0.0444 -0.434898,-0.46068 -0.643061,-0.92499 -0.287083,-0.64033 -0.547093,-0.84419 -1.07673,-0.84419 -0.529638,0 -0.789648,0.20386 -1.076731,0.84419 -0.208163,0.46431 -0.49754,0.88055 -0.643061,0.92499 -0.540506,0.16507 -2.028916,-1.01741 -2.400722,-1.90726 -0.211477,-0.50614 -0.41853,-0.92025 -0.460117,-0.92025 -0.04159,0 -0.02743,0.41269 0.03145,0.9171 0.09586,0.82112 0.291043,1.01805 1.8651,1.88182 0.966919,0.5306 1.845509,1.10017 1.952421,1.26572 0.297794,0.4611 0.24262,4.13744 -0.06209,4.13744 -0.145521,0 -0.264584,0.24107 -0.264584,0.53572 0,0.33488 -0.260568,0.63478 -0.695066,0.79998 -0.614301,0.23355 -0.677722,0.37114 -0.545801,1.18407 0.154769,0.95373 -0.0053,1.05493 -1.175925,0.74332 z m 4.94236,-12.1146 c 0.803388,-0.80339 0.843291,-1.94317 0.101062,-2.88676 -1.192572,-1.51611 -3.684963,-0.52372 -3.684963,1.46723 0,1.03864 1.054077,2.06896 2.116667,2.06896 0.515506,0 1.057861,-0.24006 1.467234,-0.64943 z m -6.411408,-2.55238 c 0.172681,-0.0147 0.696457,-0.006 1.163947,0.0194 0.713368,0.0388 0.877877,-0.0649 1.023546,-0.64531 0.116542,-0.46434 0.03287,-0.847 -0.254669,-1.16473 -0.235528,-0.26026 -0.428234,-0.52335 -0.428234,-0.58465 0,-0.0613 1.547813,-0.11146 3.439584,-0.11146 1.89177,0 3.439583,0.0502 3.439583,0.11146 0,0.0613 -0.192706,0.32439 -0.428234,0.58465 -0.287542,0.31773 -0.371211,0.70039 -0.254669,1.16473 0.145669,0.58039 0.310178,0.6841 1.023546,0.64531 1.425695,-0.0775 1.510934,-0.029 1.523396,0.86728 l 0.01196,0.8599 0.637546,-1.19062 c 0.786334,-1.46849 0.822902,-2.61505 0.126914,-3.97929 -0.431267,-0.84536 -0.678222,-1.0478 -1.278207,-1.0478 -0.522452,0 -0.848965,-0.19676 -1.097665,-0.66146 -0.194701,-0.3638 -0.482711,-0.65172 -0.640022,-0.63981 -0.157311,0.0119 -0.823375,0.63698 -1.480142,1.38906 -0.656768,0.75208 -1.369569,1.36742 -1.584002,1.36742 -0.214434,0 -0.927235,-0.61534 -1.584003,-1.36742 -0.656767,-0.75208 -1.322831,-1.37716 -1.480142,-1.38906 -0.157311,-0.0119 -0.445321,0.27601 -0.640022,0.63981 -0.2487,0.4647 -0.575213,0.66146 -1.097665,0.66146 -0.599985,0 -0.84694,0.20244 -1.278207,1.0478 -0.690807,1.35409 -0.675179,2.35081 0.06077,3.87572 l 0.595312,1.2335 0.08291,-0.82955 c 0.0456,-0.45625 0.224194,-0.84161 0.396875,-0.85636 z m 0.446257,-6.28321 c 0.839087,-0.60189 1.586848,-2.05521 1.5861,-3.08269 -7.64e-4,-1.04928 -0.845405,-2.39236 -1.914411,-3.04414 -3.149401,-1.92021 -6.937082,1.99414 -4.891936,5.05553 1.192129,1.78451 3.551071,2.26861 5.220247,1.0713 z m -2.169919,-2.82932 c -0.262481,-0.57608 -0.225284,-0.75388 0.25904,-1.23821 0.484324,-0.48432 0.662122,-0.52152 1.238205,-0.25904 0.439315,0.20017 0.672674,0.51957 0.672674,0.92071 0,1.3314 -1.628798,1.76417 -2.169919,0.57654 z m 15.392881,2.84358 c 0.847471,-0.62035 1.59305,-2.07047 1.592304,-3.09695 -0.0013,-1.74043 -1.89882,-3.5699 -3.702766,-3.5699 -1.775357,0 -3.700913,1.82628 -3.703178,3.51225 -0.0013,0.96217 0.582288,2.31654 1.256981,2.9172 1.180744,1.05118 3.294516,1.16131 4.556659,0.2374 z m -3.909629,-2.48841 c -0.558176,-0.55817 -0.373698,-1.52032 0.355174,-1.85242 0.992029,-0.45199 1.949243,0.50522 1.497245,1.49725 -0.332097,0.72887 -1.294243,0.91335 -1.852419,0.35517 z"
         id="path3810"
         inkscape:connector-curvature="0" />
      <path
         style="fill:#f70605;stroke-width:0.26458332"
         d="m 85.727265,169.36993 c -0.251838,-0.067 -0.571977,-0.63429 -0.76661,-1.35837 -0.183807,-0.68379 -0.435703,-1.35637 -0.55977,-1.49461 -0.124068,-0.13825 -0.225578,-0.56092 -0.225578,-0.93927 0,-0.96559 -0.464117,-1.32292 -1.71828,-1.32292 h -1.08328 l -1.098074,-2.31511 c -0.653936,-1.37871 -1.149585,-2.85249 -1.225429,-3.64372 -0.154028,-1.60689 0.437255,-7.71626 0.77967,-8.05584 0.221336,-0.21951 5.134908,-1.59575 5.697276,-1.59575 0.350576,0 0.284999,0.732 -0.08613,0.96137 -0.176959,0.10937 -0.739584,0.26677 -1.250279,0.34978 -0.734949,0.11946 -1.053097,0.37086 -1.525988,1.20583 -0.870257,1.53658 -0.764434,2.47012 0.584468,5.15594 0.654844,1.30387 1.190625,2.70733 1.190625,3.11879 0,0.60926 0.184166,0.83045 0.992187,1.19164 0.545703,0.24394 1.379141,0.68182 1.852083,0.97307 l 0.859896,0.52955 v 2.52398 c 0,2.48134 -0.01174,2.52845 -0.695066,2.78825 -0.614301,0.23355 -0.677722,0.37114 -0.545801,1.18407 0.154769,0.95373 -0.0053,1.05493 -1.175925,0.74332 z m 5.774326,-0.74332 c 0.131921,-0.81293 0.0685,-0.95052 -0.545801,-1.18407 -0.683323,-0.2598 -0.695066,-0.30691 -0.695066,-2.78825 v -2.52398 l 0.859896,-0.52955 c 0.472942,-0.29125 1.30638,-0.72913 1.852083,-0.97307 0.808021,-0.36119 0.992187,-0.58238 0.992187,-1.19164 0,-0.41146 0.535781,-1.81492 1.190625,-3.11879 1.348902,-2.68582 1.454725,-3.61936 0.584468,-5.15594 -0.472891,-0.83497 -0.791039,-1.08637 -1.525988,-1.20583 -0.510695,-0.083 -1.07332,-0.24041 -1.250279,-0.34978 -0.371124,-0.22937 -0.436701,-0.96137 -0.08613,-0.96137 0.533066,0 5.470099,1.37044 5.677507,1.57598 0.338892,0.33585 0.953371,6.48666 0.803416,8.04203 -0.07973,0.82699 -0.562766,2.27181 -1.229406,3.6773 l -1.098074,2.31511 h -1.08328 c -1.254163,0 -1.71828,0.35733 -1.71828,1.32292 0,0.37835 -0.10151,0.80102 -0.225578,0.93927 -0.124067,0.13824 -0.374693,0.80628 -0.556946,1.48453 -0.236223,0.87909 -0.494324,1.2769 -0.898902,1.38545 -1.082291,0.29038 -1.202758,0.20285 -1.046457,-0.76032 z m -5.116036,-8.32108 c -1.019786,-0.62175 -2.474831,-3.36015 -2.474831,-4.65764 0,-0.96123 0.06973,-1.00392 1.51144,-0.92552 0.713368,0.0388 0.877877,-0.0649 1.023546,-0.64531 0.116542,-0.46434 0.03287,-0.847 -0.254669,-1.16473 -0.235528,-0.26026 -0.428234,-0.52335 -0.428234,-0.58465 0,-0.0613 1.547813,-0.11146 3.439584,-0.11146 1.89177,0 3.439583,0.0502 3.439583,0.11146 0,0.0613 -0.192706,0.32439 -0.428234,0.58465 -0.287542,0.31773 -0.371211,0.70039 -0.254669,1.16473 0.145669,0.58039 0.310178,0.6841 1.023546,0.64531 1.458736,-0.0793 1.512073,-0.0438 1.499155,0.99958 -0.017,1.37276 -1.474359,4.00291 -2.57309,4.64373 -0.982211,0.57287 -1.480242,0.36 -1.759332,-0.75198 -0.124822,-0.49734 -0.33785,-0.65061 -0.904252,-0.65061 -0.577658,0 -0.824374,0.18606 -1.119438,0.84419 -0.476062,1.06185 -0.707165,1.12803 -1.740105,0.49825 z m 4.28407,-3.0502 c 0.803388,-0.80339 0.843291,-1.94317 0.101062,-2.88676 -1.192572,-1.51611 -3.684963,-0.52372 -3.684963,1.46723 0,1.03864 1.054077,2.06896 2.116667,2.06896 0.515506,0 1.057861,-0.24006 1.467234,-0.64943 z m -2.490593,-6.90237 c -1.082824,-0.91113 -1.933329,-2.33851 -1.721824,-2.88968 0.232669,-0.60633 1.198813,-0.9356 2.745183,-0.9356 1.531711,0 2.512193,0.32844 2.73813,0.91722 0.285553,0.74414 -1.895722,3.58069 -2.753512,3.58069 -0.114731,0 -0.56832,-0.30268 -1.007977,-0.67263 z m -5.644477,-4.76254 c -0.262481,-0.57608 -0.225284,-0.75388 0.25904,-1.23821 0.484324,-0.48432 0.662122,-0.52152 1.238205,-0.25904 0.439315,0.20017 0.672674,0.51957 0.672674,0.92071 0,1.3314 -1.628798,1.76417 -2.169919,0.57654 z m 11.483252,0.35517 c -0.558176,-0.55817 -0.373698,-1.52032 0.355174,-1.85242 0.992029,-0.45199 1.949243,0.50522 1.497245,1.49725 -0.332097,0.72887 -1.294243,0.91335 -1.852419,0.35517 z"
         id="path3808"
         inkscape:connector-curvature="0" />
      <path
         style="fill:#191514;stroke-width:0.26458332"
         d="m 86.385555,160.30553 c -1.019786,-0.62175 -2.474831,-3.36015 -2.474831,-4.65764 0,-0.96123 0.06973,-1.00392 1.51144,-0.92552 0.713368,0.0388 0.877877,-0.0649 1.023546,-0.64531 0.116542,-0.46434 0.03287,-0.847 -0.254669,-1.16473 -0.235528,-0.26026 -0.428234,-0.52335 -0.428234,-0.58465 0,-0.0613 1.547813,-0.11146 3.439584,-0.11146 1.89177,0 3.439583,0.0502 3.439583,0.11146 0,0.0613 -0.192706,0.32439 -0.428234,0.58465 -0.287542,0.31773 -0.371211,0.70039 -0.254669,1.16473 0.145669,0.58039 0.310178,0.6841 1.023546,0.64531 1.458736,-0.0793 1.512073,-0.0438 1.499155,0.99958 -0.017,1.37276 -1.474359,4.00291 -2.57309,4.64373 -0.982211,0.57287 -1.480242,0.36 -1.759332,-0.75198 -0.124822,-0.49734 -0.33785,-0.65061 -0.904252,-0.65061 -0.577658,0 -0.824374,0.18606 -1.119438,0.84419 -0.476062,1.06185 -0.707165,1.12803 -1.740105,0.49825 z m 4.28407,-3.0502 c 0.803388,-0.80339 0.843291,-1.94317 0.101062,-2.88676 -1.192572,-1.51611 -3.684963,-0.52372 -3.684963,1.46723 0,1.03864 1.054077,2.06896 2.116667,2.06896 0.515506,0 1.057861,-0.24006 1.467234,-0.64943 z m -2.490593,-6.90237 c -1.082824,-0.91113 -1.933329,-2.33851 -1.721824,-2.88968 0.232669,-0.60633 1.198813,-0.9356 2.745183,-0.9356 1.531711,0 2.512193,0.32844 2.73813,0.91722 0.285553,0.74414 -1.895722,3.58069 -2.753512,3.58069 -0.114731,0 -0.56832,-0.30268 -1.007977,-0.67263 z m -5.644477,-4.76254 c -0.262481,-0.57608 -0.225284,-0.75388 0.25904,-1.23821 0.484324,-0.48432 0.662122,-0.52152 1.238205,-0.25904 0.439315,0.20017 0.672674,0.51957 0.672674,0.92071 0,1.3314 -1.628798,1.76417 -2.169919,0.57654 z m 11.483252,0.35517 c -0.558176,-0.55817 -0.373698,-1.52032 0.355174,-1.85242 0.992029,-0.45199 1.949243,0.50522 1.497245,1.49725 -0.332097,0.72887 -1.294243,0.91335 -1.852419,0.35517 z"
         id="path3806"
         inkscape:connector-curvature="0" />
    </g>
  </g>
</svg>
