<?xml version="1.0" encoding="UTF-8" standalone="no"?>
<!-- Created with Inkscape (http://www.inkscape.org/) -->

<svg
   xmlns:dc="http://purl.org/dc/elements/1.1/"
   xmlns:cc="http://creativecommons.org/ns#"
   xmlns:rdf="http://www.w3.org/1999/02/22-rdf-syntax-ns#"
   xmlns:svg="http://www.w3.org/2000/svg"
   xmlns="http://www.w3.org/2000/svg"
   xmlns:sodipodi="http://sodipodi.sourceforge.net/DTD/sodipodi-0.dtd"
   xmlns:inkscape="http://www.inkscape.org/namespaces/inkscape"
   width="220"
   height="220"
   viewBox="0 0 58.21 58.208335"
   version="1.1"
   id="svg8"
   inkscape:version="0.92.2 (5c3e80d, 2017-08-06)"
   sodipodi:docname="Q1thinking.svg"
   style="shape-rendering:crispEdges">
  <defs
     id="defs2" />
  <sodipodi:namedview
     id="base"
     pagecolor="#ffffff"
     bordercolor="#666666"
     borderopacity="1.0"
     inkscape:pageopacity="0.0"
     inkscape:pageshadow="2"
     inkscape:zoom="0.7"
     inkscape:cx="67.204083"
     inkscape:cy="198.75032"
     inkscape:document-units="px"
     inkscape:current-layer="layer1"
     showgrid="false"
     fit-margin-top="0"
     fit-margin-left="0"
     fit-margin-right="0"
     fit-margin-bottom="0"
     inkscape:window-width="1920"
     inkscape:window-height="1027"
     inkscape:window-x="-8"
     inkscape:window-y="-8"
     inkscape:window-maximized="1"
     units="px" />
  <metadata
     id="metadata5">
    <rdf:RDF>
      <cc:Work
         rdf:about="">
        <dc:format>image/svg+xml</dc:format>
        <dc:type
           rdf:resource="http://purl.org/dc/dcmitype/StillImage" />
        <dc:title></dc:title>
      </cc:Work>
    </rdf:RDF>
  </metadata>
  <g
     inkscape:label="Layer 1"
     inkscape:groupmode="layer"
     id="layer1"
     transform="translate(6.7720846e-7,-238.79167)">
    <g
       id="g3782"
       transform="matrix(0.75002147,0,0,0.75002147,-43.468506,172.71008)">
      <path
         style="fill:#fcc046;stroke-width:0.35277781"
         d="M 57.956348,126.91071 V 88.105148 h 38.805557 38.805555 v 38.805562 38.80555 H 96.761905 57.956348 Z"
         id="path3850"
         inkscape:connector-curvature="0" />
      <path
         style="fill:#f6bc45;stroke-width:0.35277781"
         d="M 57.956348,126.91071 V 88.105148 h 38.805557 38.805555 v 38.805562 38.80555 H 116.16468 96.761905 v -3.52777 -3.52778 h -1.763888 -1.763889 v -1.76389 -1.76389 h 3.527777 3.527775 v -1.76389 -1.76389 h -7.055552 -7.055556 v 1.76389 1.76389 h -1.763889 -1.763889 v -1.76389 -1.76389 h -3.527778 -3.527778 v -7.05555 -7.05556 H 73.831349 72.06746 v 14.11111 14.11111 h -7.055556 -7.055556 z"
         id="path3848"
         inkscape:connector-curvature="0" />
      <path
         style="fill:#c99b82;stroke-width:0.35277781"
         d="M 57.956348,126.91071 V 88.105148 h 38.805557 38.805555 v 38.805562 38.80555 H 116.16468 96.761905 v -5.29166 -5.29167 h 5.291665 5.29167 v -1.76389 -1.76389 h 3.52778 3.52778 v -1.76389 -1.76389 h -7.05556 -7.05556 v 1.76389 1.76389 H 89.70635 79.123016 v -1.76389 -1.76389 h -1.763889 -1.763889 v -7.05555 -7.05556 H 73.831349 72.06746 v 8.81945 8.81944 h -1.763889 -1.763889 v 7.05556 7.05555 h -5.291667 -5.291667 z"
         id="path3846"
         inkscape:connector-curvature="0" />
      <path
         style="fill:#c2937a;stroke-width:0.35277781"
         d="M 57.956348,126.91071 V 88.105148 h 38.805557 38.805555 v 38.805562 38.80555 H 116.16468 96.761905 v -5.29166 -5.29167 h 5.291665 5.29167 v -1.76389 -1.76389 h 3.52778 3.52778 v -1.76389 -1.76389 h -7.05556 -7.05556 v 1.76389 1.76389 H 89.70635 79.123016 v -1.76389 -1.76389 h -1.763889 -1.763889 v -7.05555 -7.05556 H 73.831349 72.06746 v 8.81945 8.81944 h -1.763889 -1.763889 v 7.05556 7.05555 h -5.291667 -5.291667 z m 42.333332,-3.52778 v -3.52778 h -1.763886 -1.763889 v 3.52778 3.52778 h 1.763889 1.763886 z"
         id="path3844"
         inkscape:connector-curvature="0" />
      <path
         style="fill:#d6a741;stroke-width:0.35277781"
         d="M 57.956348,126.91071 V 88.105148 h 38.805557 38.805555 v 38.805562 38.80555 H 116.16468 96.761905 v -5.29166 -5.29167 h 5.291665 5.29167 v -1.76389 -1.76389 h 3.52778 3.52778 v -1.76389 -1.76389 h -7.05556 -7.05556 v 1.76389 1.76389 H 89.70635 79.123016 v -1.76389 -1.76389 h -1.763889 -1.763889 v -7.05555 -7.05556 H 73.831349 72.06746 v 8.81945 8.81944 h -1.763889 -1.763889 v 7.05556 7.05555 h -5.291667 -5.291667 z m 24.694446,-1.76389 v -1.76389 h -1.763889 -1.763889 v 1.76389 1.76389 h 1.763889 1.763889 z m 21.166666,-1.76389 v -3.52778 h -3.52778 -3.527775 v 3.52778 3.52778 h 3.527775 3.52778 z"
         id="path3842"
         inkscape:connector-curvature="0" />
      <path
         style="fill:#b7886d;stroke-width:0.35277781"
         d="M 57.956348,126.91071 V 88.105148 h 38.805557 38.805555 v 38.805562 38.80555 H 116.16468 96.761905 v -5.29166 -5.29167 h 5.291665 5.29167 v -1.76389 -1.76389 h 3.52778 3.52778 v -1.76389 -1.76389 h -8.81945 -8.819445 v 1.76389 1.76389 h -8.819444 -8.819445 v -1.76389 -1.76389 h -1.763889 -1.763889 v -7.05555 -7.05556 H 73.831349 72.06746 v 7.05556 7.05555 h -1.763889 -1.763889 v 8.81945 8.81944 h -5.291667 -5.291667 z m 24.694446,-1.76389 v -1.76389 h -1.763889 -1.763889 v 1.76389 1.76389 h 1.763889 1.763889 z m 21.166666,-1.76389 v -3.52778 h -3.52778 -3.527775 v 3.52778 3.52778 h 3.527775 3.52778 z"
         id="path3840"
         inkscape:connector-curvature="0" />
      <path
         style="fill:#c59a3e;stroke-width:0.35277781"
         d="M 57.956348,126.91071 V 88.105148 h 38.805557 38.805555 v 38.805562 38.80555 H 116.16468 96.761905 v -5.29166 -5.29167 h 5.291665 5.29167 v -1.76389 -1.76389 h 3.52778 3.52778 v -1.76389 -1.76389 h -8.81945 -8.819445 v 1.76389 1.76389 h -8.819444 -8.819445 v -1.76389 -1.76389 h -1.763889 -1.763889 v -7.05555 -7.05556 H 73.831349 72.06746 v 7.05556 7.05555 h -1.763889 -1.763889 v 8.81945 8.81944 h -5.291667 -5.291667 z m 24.694446,-3.52778 v -3.52778 h -1.763889 -1.763889 v 3.52778 3.52778 h 1.763889 1.763889 z m 21.166666,0 v -3.52778 h -3.52778 -3.527775 v 3.52778 3.52778 h 3.527775 3.52778 z m -10.583332,-15.875 v -1.76389 H 89.70635 86.178572 v 1.76389 1.76389 h 3.527778 3.527778 z"
         id="path3838"
         inkscape:connector-curvature="0" />
      <path
         style="fill:#9f8276;stroke-width:0.35277781"
         d="M 57.956348,126.91071 V 88.105148 h 38.805557 38.805555 v 38.805562 38.80555 H 116.16468 96.761905 v -1.76389 -1.76388 h 1.763889 1.763886 v -1.76389 -1.76389 h -1.763886 -1.763889 v -1.76389 -1.76389 h 7.055555 7.05556 v -1.76389 -1.76389 h 1.76389 1.76389 v -1.76389 -1.76389 H 103.81746 93.234128 v 1.76389 1.76389 h -7.055556 -7.055556 v -3.52778 -3.52777 h -1.763889 -1.763889 v -5.29167 -5.29167 H 72.06746 68.539682 v 1.76389 1.76389 h 1.763889 1.763889 v 5.29167 5.29166 h -1.763889 -1.763889 v 8.81945 8.81944 h -5.291667 -5.291667 z m 24.694446,-3.52778 v -3.52778 h -1.763889 -1.763889 v 3.52778 3.52778 h 1.763889 1.763889 z m 21.166666,0 v -3.52778 h -3.52778 -3.527775 v 3.52778 3.52778 h 3.527775 3.52778 z m -10.583332,-15.875 v -1.76389 H 89.70635 86.178572 v 1.76389 1.76389 h 3.527778 3.527778 z"
         id="path3836"
         inkscape:connector-curvature="0" />
      <path
         style="fill:#a6795d;stroke-width:0.35277781"
         d="M 57.956348,126.91071 V 88.105148 h 38.805557 38.805555 v 38.805562 38.80555 H 116.16468 96.761905 v -1.76389 -1.76388 h 1.763889 1.763886 v -1.76389 -1.76389 h -1.763886 -1.763889 v -1.76389 -1.76389 h 7.055555 7.05556 v -1.76389 -1.76389 h 1.76389 1.76389 v -1.76389 -1.76389 H 103.81746 93.234128 v 1.76389 1.76389 h -7.055556 -7.055556 v -3.52778 -3.52777 h -1.763889 -1.763889 v -5.29167 -5.29167 H 72.06746 68.539682 v 1.76389 1.76389 h 1.763889 1.763889 v 5.29167 5.29166 h -1.763889 -1.763889 v 8.81945 8.81944 h -5.291667 -5.291667 z m 24.694446,-3.52778 v -3.52778 h -1.763889 -1.763889 v 3.52778 3.52778 h 1.763889 1.763889 z m 21.166666,0 v -3.52778 h -3.52778 -3.527775 v 3.52778 3.52778 h 3.527775 3.52778 z m -10.583332,-15.875 v -1.76389 H 89.70635 86.178572 v 1.76389 1.76389 h 3.527778 3.527778 z M 96.761905,93.396815 V 91.632926 H 93.234128 89.70635 v 1.763889 1.763889 h 3.527778 3.527777 z"
         id="path3834"
         inkscape:connector-curvature="0" />
      <path
         style="fill:#af8b3c;stroke-width:0.35277781"
         d="M 57.956348,126.91071 V 88.105148 h 38.805557 38.805555 v 38.805562 38.80555 H 116.16468 96.761905 v -1.76389 -1.76388 h 1.763889 1.763886 v -1.76389 -1.76389 h -1.763886 -1.763889 v -1.76389 -1.76389 h 7.055555 7.05556 v -1.76389 -1.76389 h 1.76389 1.76389 v -1.76389 -1.76389 H 103.81746 93.234128 v 1.76389 1.76389 h -7.055556 -7.055556 v -3.52778 -3.52777 h -1.763889 -1.763889 v -5.29167 -5.29167 H 72.06746 68.539682 v 1.76389 1.76389 h 1.763889 1.763889 v 5.29167 5.29166 h -1.763889 -1.763889 v 8.81945 8.81944 h -5.291667 -5.291667 z m 28.222224,-3.52778 v -3.52778 h -3.527778 -3.527778 v 3.52778 3.52778 h 3.527778 3.527778 z m 17.638888,0 v -3.52778 h -3.52778 -3.527775 v 3.52778 3.52778 h 3.527775 3.52778 z m 14.11111,0 v -3.52778 h -1.76389 -1.76388 v 3.52778 3.52778 h 1.76388 1.76389 z m -24.694442,-15.875 v -1.76389 H 89.70635 86.178572 v 1.76389 1.76389 h 3.527778 3.527778 z m 10.583332,0 v -1.76389 h -3.52778 -3.527775 v 1.76389 1.76389 h 3.527775 3.52778 z M 96.761905,93.396815 V 91.632926 H 93.234128 89.70635 v 1.763889 1.763889 h 3.527778 3.527777 z"
         id="path3832"
         inkscape:connector-curvature="0" />
      <path
         style="fill:#997664;stroke-width:0.35277781"
         d="M 57.956348,126.91071 V 88.105148 h 38.805557 38.805555 v 38.805562 38.80555 H 116.16468 96.761905 v -1.76389 -1.76388 h 1.763889 1.763886 v -1.76389 -1.76389 h -1.763886 -1.763889 v -1.76389 -1.76389 h 7.055555 7.05556 v -1.76389 -1.76389 h 1.76389 1.76389 v -1.76389 -1.76389 H 100.28968 86.178572 v 1.76389 1.76389 h -1.763889 -1.763889 v -1.76389 -1.76389 h -1.763889 -1.763889 v -3.52777 -3.52778 h -1.763889 -1.763889 v -3.52778 -3.52778 H 72.06746 68.539682 v 15.875 15.875 h -5.291667 -5.291667 z m 28.222224,-3.52778 v -3.52778 h -3.527778 -3.527778 v 3.52778 3.52778 h 3.527778 3.527778 z m 17.638888,0 v -3.52778 h -3.52778 -3.527775 v 3.52778 3.52778 h 3.527775 3.52778 z m 14.11111,0 v -3.52778 h -1.76389 -1.76388 v 3.52778 3.52778 h 1.76388 1.76389 z m -24.694442,-15.875 v -1.76389 H 89.70635 86.178572 v 1.76389 1.76389 h 3.527778 3.527778 z m 10.583332,0 v -1.76389 h -3.52778 -3.527775 v 1.76389 1.76389 h 3.527775 3.52778 z M 96.761905,93.396815 V 91.632926 H 93.234128 89.70635 v 1.763889 1.763889 h 3.527778 3.527777 z"
         id="path3830"
         inkscape:connector-curvature="0" />
      <path
         style="fill:#926751;stroke-width:0.35277781"
         d="M 57.956348,126.91071 V 88.105148 h 38.805557 38.805555 v 38.805562 38.80555 H 116.16468 96.761905 v -1.76389 -1.76388 h 1.763889 1.763886 v -1.76389 -1.76389 h -1.763886 -1.763889 v -1.76389 -1.76389 h 7.055555 7.05556 v -1.76389 -1.76389 h 1.76389 1.76389 v -1.76389 -1.76389 H 100.28968 86.178572 v 1.76389 1.76389 h -1.763889 -1.763889 v -1.76389 -1.76389 h -1.763889 -1.763889 v -3.52777 -3.52778 h -1.763889 -1.763889 v -3.52778 -3.52778 H 72.06746 68.539682 v 15.875 15.875 h -5.291667 -5.291667 z m 28.222224,-3.52778 v -3.52778 h -3.527778 -3.527778 v 3.52778 3.52778 h 3.527778 3.527778 z m 17.638888,0 v -3.52778 h -5.291666 -5.291666 v 3.52778 3.52778 h 5.291666 5.291666 z m 14.11111,0 v -3.52778 h -1.76389 -1.76388 v 3.52778 3.52778 h 1.76388 1.76389 z m -24.694442,-15.875 v -1.76389 H 89.70635 86.178572 v 1.76389 1.76389 h 3.527778 3.527778 z m 10.583332,0 v -1.76389 h -3.52778 -3.527775 v 1.76389 1.76389 h 3.527775 3.52778 z M 96.761905,93.396815 V 91.632926 H 93.234128 89.70635 v 1.763889 1.763889 h 3.527778 3.527777 z"
         id="path3828"
         inkscape:connector-curvature="0" />
      <path
         style="fill:#8b6f39;stroke-width:0.35277781"
         d="M 57.956348,126.91071 V 88.105148 h 38.805557 38.805555 v 38.805562 38.80555 H 116.16468 96.761905 v -1.76389 -1.76388 h 1.763889 1.763886 v -1.76389 -1.76389 h -1.763886 -1.763889 v -1.76389 -1.76389 h 7.055555 7.05556 v -1.76389 -1.76389 h 1.76389 1.76389 v -1.76389 -1.76389 H 100.28968 86.178572 v 1.76389 1.76389 h -1.763889 -1.763889 v -1.76389 -1.76389 h -1.763889 -1.763889 v -3.52777 -3.52778 h -1.763889 -1.763889 v -3.52778 -3.52778 H 72.06746 68.539682 v 15.875 15.875 h -5.291667 -5.291667 z m 28.222224,-3.52778 v -3.52778 h -5.291667 -5.291667 v 3.52778 3.52778 h 5.291667 5.291667 z m 17.638888,-1.76389 v -5.29167 h -3.52778 -3.527775 v 1.76389 1.76389 h -1.763888 -1.763889 v 3.52778 3.52778 h 5.291666 5.291666 z m 14.11111,3.52778 v -1.76389 h 1.76389 1.76389 v -1.76389 -1.76389 h -5.29167 -5.29166 v 3.52778 3.52778 h 3.52778 3.52777 z m -10.58333,-19.40278 v -3.52778 h -1.76389 -1.76389 v 1.76389 1.76389 H 93.234128 82.650794 v 1.76389 1.76389 H 94.998017 107.34524 Z M 96.761905,93.396815 V 91.632926 H 93.234128 89.70635 v 1.763889 1.763889 h 3.527778 3.527777 z"
         id="path3826"
         inkscape:connector-curvature="0" />
      <path
         style="fill:#7b6354;stroke-width:0.35277781"
         d="M 57.956348,126.91071 V 88.105148 h 38.805557 38.805555 v 38.805562 38.80555 H 116.16468 96.761905 v -1.76389 -1.76388 h 1.763889 1.763886 v -3.52778 -3.52778 h 7.05556 7.05556 v -3.52778 -3.52778 H 96.761905 79.123016 v -5.29166 -5.29167 h -1.763889 -1.763889 v -1.76389 -1.76389 H 72.06746 68.539682 v 15.875 15.875 h -5.291667 -5.291667 z m 28.222224,-3.52778 v -3.52778 h -5.291667 -5.291667 v 3.52778 3.52778 h 5.291667 5.291667 z m 17.638888,-1.76389 v -5.29167 h -3.52778 -3.527775 v 1.76389 1.76389 h -1.763888 -1.763889 v 3.52778 3.52778 h 5.291666 5.291666 z m 14.11111,3.52778 v -1.76389 h 1.76389 1.76389 v -1.76389 -1.76389 h -5.29167 -5.29166 v 3.52778 3.52778 h 3.52778 3.52777 z m -10.58333,-19.40278 v -3.52778 h -1.76389 -1.76389 v 1.76389 1.76389 H 93.234128 82.650794 v 1.76389 1.76389 H 94.998017 107.34524 Z M 96.761905,93.396815 V 91.632926 H 93.234128 89.70635 v 1.763889 1.763889 h 3.527778 3.527777 z"
         id="path3824"
         inkscape:connector-curvature="0" />
      <path
         style="fill:#855943;stroke-width:0.35277781"
         d="M 57.956348,126.91071 V 88.105148 h 38.805557 38.805555 v 38.805562 38.80555 H 116.16468 96.761905 v -1.76389 -1.76388 h 1.763889 1.763886 v -3.52778 -3.52778 h 7.05556 7.05556 v -3.52778 -3.52778 H 96.761905 79.123016 v -5.29166 -5.29167 h -1.763889 -1.763889 v -1.76389 -1.76389 H 72.06746 68.539682 v 15.875 15.875 h -5.291667 -5.291667 z m 45.861112,15.875 v -1.76389 h -3.52778 -3.527775 v 1.76389 1.76389 h 3.527775 3.52778 z m 28.22223,-7.05556 v -1.76389 h -3.52778 -3.52778 v 1.76389 1.76389 h 3.52778 3.52778 z M 86.178572,123.38293 v -3.52778 h -5.291667 -5.291667 v 3.52778 3.52778 h 5.291667 5.291667 z m 17.638888,-1.76389 v -5.29167 h -3.52778 -3.527775 v 1.76389 1.76389 h -1.763888 -1.763889 v 3.52778 3.52778 h 5.291666 5.291666 z m 14.11111,3.52778 v -1.76389 h 1.76389 1.76389 v -1.76389 -1.76389 h -5.29167 -5.29166 v 3.52778 3.52778 h 3.52778 3.52777 z m -10.58333,-19.40278 v -3.52778 h -1.76389 -1.76389 v 1.76389 1.76389 H 93.234128 82.650794 v 1.76389 1.76389 h 12.347223 12.347223 z m -3.52778,-12.347225 v -1.763889 h -8.819443 -8.819445 v 1.763889 1.763889 h 8.819445 8.819443 z"
         id="path3822"
         inkscape:connector-curvature="0" />
      <path
         style="fill:#7a6537;stroke-width:0.35277781"
         d="M 57.956348,126.91071 V 88.105148 h 38.805557 38.805555 v 38.805562 38.80555 H 116.16468 96.761905 v -1.76389 -1.76388 h 1.763889 1.763886 v -3.52778 -3.52778 h 7.05556 7.05556 v -3.52778 -3.52778 H 96.761905 79.123016 v -5.29166 -5.29167 h -1.763889 -1.763889 v -1.76389 -1.76389 H 72.06746 68.539682 v 15.875 15.875 h -5.291667 -5.291667 z m 45.861112,14.11111 v -3.52778 h -5.291666 -5.291666 v 1.76389 1.76389 h 1.763889 1.763888 v 1.76389 1.76389 h 3.527775 3.52778 z m 28.22223,-5.29167 v -1.76389 h -3.52778 -3.52778 v 1.76389 1.76389 h 3.52778 3.52778 z M 86.178572,123.38293 v -3.52778 h -5.291667 -5.291667 v 3.52778 3.52778 h 5.291667 5.291667 z m 35.277778,-1.76389 v -5.29167 h -1.76389 -1.76389 v 1.76389 1.76389 h -7.05555 -7.05556 v -1.76389 -1.76389 h -3.52778 -3.527775 v 1.76389 1.76389 h -1.763888 -1.763889 v 3.52778 3.52778 h 14.111112 14.11111 z m -14.11111,-15.875 v -3.52778 h -5.29167 -5.291665 v 1.76389 1.76389 h -8.819444 -8.819445 v 1.76389 1.76389 h 14.111112 14.111112 z m -3.52778,-12.347225 v -1.763889 h -8.819443 -8.819445 v 1.763889 1.763889 h 8.819445 8.819443 z"
         id="path3820"
         inkscape:connector-curvature="0" />
      <path
         style="fill:#7b543b;stroke-width:0.35277781"
         d="M 57.956348,126.91071 V 88.105148 h 38.805557 38.805555 v 38.805562 38.80555 h -17.63889 -17.63889 v -5.29166 -5.29167 h 7.05556 7.05556 v -1.76389 -1.76389 h 1.76388 1.76389 v -1.76389 -1.76389 h -1.76389 -1.76388 v -1.76389 -1.76388 h -1.76389 -1.76389 v 1.76388 1.76389 H 94.998017 79.123016 v -5.29166 -5.29167 h -1.763889 -1.763889 v -1.76389 -1.76389 H 72.06746 68.539682 v 10.58334 10.58333 h -1.763889 -1.763889 v 5.29167 5.29166 h -3.527778 -3.527778 z m 45.861112,14.11111 v -3.52778 h -5.291666 -5.291666 v 1.76389 1.76389 h 1.763889 1.763888 v 1.76389 1.76389 h 3.527775 3.52778 z m 28.22223,-5.29167 v -1.76389 h -3.52778 -3.52778 v 1.76389 1.76389 h 3.52778 3.52778 z M 86.178572,123.38293 v -3.52778 h -5.291667 -5.291667 v 3.52778 3.52778 h 5.291667 5.291667 z m 35.277778,-1.76389 v -5.29167 h -1.76389 -1.76389 v 1.76389 1.76389 h -7.05555 -7.05556 v -1.76389 -1.76389 h -3.52778 -3.527775 v 1.76389 1.76389 h -1.763888 -1.763889 v 3.52778 3.52778 h 14.111112 14.11111 z m -14.11111,-15.875 v -3.52778 h -5.29167 -5.291665 v 1.76389 1.76389 h -8.819444 -8.819445 v 1.76389 1.76389 h 14.111112 14.111112 z m -3.52778,-12.347225 v -1.763889 h -8.819443 -8.819445 v 1.763889 1.763889 h 8.819445 8.819443 z"
         id="path3818"
         inkscape:connector-curvature="0" />
      <path
         style="fill:#6e5443;stroke-width:0.35277781"
         d="M 57.956348,126.91071 V 88.105148 h 38.805557 38.805555 v 38.805562 38.80555 h -17.63889 -17.63889 v -5.29166 -5.29167 h 7.05556 7.05556 v -1.76389 -1.76389 h 1.76388 1.76389 v -1.76389 -1.76389 h -1.76389 -1.76388 v -1.76389 -1.76388 h -1.76389 -1.76389 v 1.76388 1.76389 H 94.998017 79.123016 v -5.29166 -5.29167 h -1.763889 -1.763889 v -1.76389 -1.76389 H 72.06746 68.539682 v 10.58334 10.58333 h -1.763889 -1.763889 v 5.29167 5.29166 h -3.527778 -3.527778 z m 49.388892,15.875 v -1.76389 h -1.76389 -1.76389 v -1.76389 -1.76389 h -5.291666 -5.291666 v 1.76389 1.76389 h 1.763889 1.763888 v 1.76389 1.76389 h 5.291665 5.29167 z m 24.69445,-7.05556 v -1.76389 h -3.52778 -3.52778 v 1.76389 1.76389 h 3.52778 3.52778 z m -49.388896,-7.05556 v -1.76388 h 3.527778 3.527778 v -3.52778 -3.52778 h -7.055556 -7.055556 v 3.52778 3.52778 h 1.763889 1.763889 v 1.76388 1.76389 h 1.763889 1.763889 z m 38.805556,-7.05555 v -5.29167 h -3.52778 -3.52777 v 1.76389 1.76389 h -5.29167 -5.29167 v -1.76389 -1.76389 h -5.291666 -5.291666 v 5.29167 5.29167 h 14.111112 14.11111 z M 93.234128,111.0357 v -1.76388 h 1.763889 1.763888 v 1.76388 1.76389 h 1.763889 1.763886 v -1.76389 -1.76388 h 3.52778 3.52778 v -1.76389 -1.76389 h 1.76389 1.76389 v -1.76389 -1.76389 h -7.05556 -7.055555 v 1.76389 1.76389 h -8.819444 -8.819445 v 1.76389 1.76389 h 5.291667 5.291667 v 1.76388 1.76389 h 1.763889 1.763889 z M 103.81746,93.396815 v -1.763889 h -8.819443 -8.819445 v 1.763889 1.763889 h 8.819445 8.819443 z"
         id="path3816"
         inkscape:connector-curvature="0" />
      <path
         style="fill:#754c38;stroke-width:0.35277781"
         d="M 57.956348,126.91071 V 88.105148 h 38.805557 38.805555 v 38.805562 38.80555 h -17.63889 -17.63889 v -5.29166 -5.29167 h 7.05556 7.05556 v -1.76389 -1.76389 h 1.76388 1.76389 v -1.76389 -1.76389 h -1.76389 -1.76388 v -1.76389 -1.76388 h -3.52778 -3.52778 v 1.76388 1.76389 H 93.234128 79.123016 v -5.29166 -5.29167 h -1.763889 -1.763889 v -1.76389 -1.76389 H 72.06746 68.539682 v 10.58334 10.58333 h -1.763889 -1.763889 v 5.29167 5.29166 h -3.527778 -3.527778 z m 49.388892,15.875 v -1.76389 h -1.76389 -1.76389 v -1.76389 -1.76389 h -5.291666 -5.291666 v 3.52778 3.52778 h 7.055552 7.05556 z m 24.69445,0 v -1.76389 h -1.76389 -1.76389 v -1.76389 -1.76389 h 1.76389 1.76389 v -1.76389 -1.76389 h -3.52778 -3.52778 v 3.52778 3.52778 h 1.76389 1.76389 v 1.76389 1.76389 h 1.76389 1.76389 z M 82.650794,128.67459 v -1.76388 h 3.527778 3.527778 v -3.52778 -3.52778 h -7.055556 -7.055556 v 3.52778 3.52778 h 1.763889 1.763889 v 1.76388 1.76389 h 1.763889 1.763889 z m 38.805556,-7.05555 v -5.29167 h -3.52778 -3.52777 v 1.76389 1.76389 h -5.29167 -5.29167 v -1.76389 -1.76389 h -5.291666 -5.291666 v 5.29167 5.29167 h 14.111112 14.11111 z M 93.234128,111.0357 v -1.76388 h 1.763889 1.763888 v 1.76388 1.76389 h 1.763889 1.763886 v -1.76389 -1.76388 h 3.52778 3.52778 v -1.76389 -1.76389 h 1.76389 1.76389 v -1.76389 -1.76389 h -7.05556 -7.055555 v 1.76389 1.76389 h -8.819444 -8.819445 v 1.76389 1.76389 h 5.291667 5.291667 v 1.76388 1.76389 h 1.763889 1.763889 z M 79.123016,96.924593 v -1.763889 h -1.763889 -1.763889 v 1.763889 1.763889 h 1.763889 1.763889 z M 107.34524,93.396815 V 91.632926 H 94.998017 82.650794 v 1.763889 1.763889 h 12.347223 12.347223 z"
         id="path3814"
         inkscape:connector-curvature="0" />
      <path
         style="fill:#843c2c;stroke-width:0.35277781"
         d="M 57.956348,126.91071 V 88.105148 h 38.805557 38.805555 v 38.805562 38.80555 h -17.63889 -17.63889 v -5.29166 -5.29167 h 7.05556 7.05556 v -1.76389 -1.76389 h 1.76388 1.76389 v -1.76389 -1.76389 h -1.76389 -1.76388 v -1.76389 -1.76388 h -3.52778 -3.52778 v 1.76388 1.76389 H 93.234128 79.123016 v -5.29166 -5.29167 h -1.763889 -1.763889 v -1.76389 -1.76389 H 72.06746 68.539682 v 10.58334 10.58333 h -1.763889 -1.763889 v 5.29167 5.29166 h -3.527778 -3.527778 z m 49.388892,14.11111 v -3.52778 h -7.05556 -7.055552 v 3.52778 3.52778 h 7.055552 7.05556 z m 14.11111,1.76389 v -1.76389 h -1.76389 -1.76389 v 1.76389 1.76389 h 1.76389 1.76389 z m 10.58334,0 v -1.76389 h -1.76389 -1.76389 v -1.76389 -1.76389 h 1.76389 1.76389 v -1.76389 -1.76389 h -3.52778 -3.52778 v 3.52778 3.52778 h 1.76389 1.76389 v 1.76389 1.76389 h 1.76389 1.76389 z M 82.650794,128.67459 v -1.76388 h 15.875 15.875006 v 1.76388 1.76389 h 1.76388 1.76389 v -1.76389 -1.76388 h 1.76389 1.76389 v -5.29167 -5.29167 h -3.52778 -3.52777 v 1.76389 1.76389 h -5.29167 -5.29167 v -1.76389 -1.76389 h -5.291666 -5.291666 v 1.76389 1.76389 h -8.819445 -8.819445 v 3.52778 3.52778 h 1.763889 1.763889 v 1.76388 1.76389 h 1.763889 1.763889 z M 93.234128,111.0357 v -1.76388 h 1.763889 1.763888 v 1.76388 1.76389 h 3.527775 3.52778 v -1.76389 -1.76388 h 1.76389 1.76389 v -1.76389 -1.76389 h 1.76389 1.76389 v -1.76389 -1.76389 H 98.525794 86.178572 v 1.76389 1.76389 h -3.527778 -3.527778 v 1.76389 1.76389 h 5.291667 5.291667 v 1.76388 1.76389 h 1.763889 1.763889 z M 79.123016,96.924593 v -1.763889 h -1.763889 -1.763889 v 1.763889 1.763889 h 1.763889 1.763889 z M 107.34524,93.396815 V 91.632926 H 94.998017 82.650794 v 1.763889 1.763889 h 12.347223 12.347223 z"
         id="path3812"
         inkscape:connector-curvature="0" />
      <path
         style="fill:#66432d;stroke-width:0.35277781"
         d="M 57.956348,126.91071 V 88.105148 h 38.805557 38.805555 v 26.458332 26.45834 h -3.52777 -3.52778 v 1.76389 1.76389 h 3.52778 3.52777 v 10.58333 10.58333 h -17.63889 -17.63889 v -5.29166 -5.29167 h 7.05556 7.05556 v -1.76389 -1.76389 h 1.76388 1.76389 v -1.76389 -1.76389 h -1.76389 -1.76388 v -1.76389 -1.76388 h -3.52778 -3.52778 v 1.76388 1.76389 H 93.234128 79.123016 v -5.29166 -5.29167 h -1.763889 -1.763889 v -1.76389 -1.76389 H 72.06746 68.539682 v 10.58334 10.58333 h -1.763889 -1.763889 v 5.29167 5.29166 h -3.527778 -3.527778 z m 49.388892,14.11111 v -3.52778 h -7.05556 -7.055552 v 3.52778 3.52778 h 7.055552 7.05556 z m 14.11111,1.76389 v -1.76389 h -1.76389 -1.76389 v 1.76389 1.76389 h 1.76389 1.76389 z m 7.05556,-3.52778 v -1.76389 h 1.76389 1.76389 v -1.76389 -1.76389 h -3.52778 -3.52778 v 3.52778 3.52778 h 1.76389 1.76389 z M 82.650794,128.67459 v -1.76388 h 15.875 15.875006 v 1.76388 1.76389 h 1.76388 1.76389 v -1.76389 -1.76388 h 1.76389 1.76389 v -5.29167 -5.29167 h -3.52778 -3.52777 v 1.76389 1.76389 h -5.29167 -5.29167 v -1.76389 -1.76389 h -5.291666 -5.291666 v 1.76389 1.76389 h -8.819445 -8.819445 v 3.52778 3.52778 h 1.763889 1.763889 v 1.76388 1.76389 h 1.763889 1.763889 z M 93.234128,111.0357 v -1.76388 h 1.763889 1.763888 v 1.76388 1.76389 h 3.527775 3.52778 v -1.76389 -1.76388 h 1.76389 1.76389 v -1.76389 -1.76389 h 1.76389 1.76389 v -1.76389 -1.76389 H 98.525794 86.178572 v 1.76389 1.76389 h -3.527778 -3.527778 v 1.76389 1.76389 h 5.291667 5.291667 v 1.76388 1.76389 h 1.763889 1.763889 z M 79.123016,96.924593 v -1.763889 h -1.763889 -1.763889 v 1.763889 1.763889 h 1.763889 1.763889 z M 107.34524,93.396815 V 91.632926 H 94.998017 82.650794 v 1.763889 1.763889 h 12.347223 12.347223 z"
         id="path3810"
         inkscape:connector-curvature="0" />
      <path
         style="fill:#554333;stroke-width:0.35277781"
         d="M 57.956348,126.91071 V 88.105148 h 38.805557 38.805555 v 26.458332 26.45834 h -3.52777 -3.52778 v 1.76389 1.76389 h 3.52778 3.52777 v 10.58333 10.58333 h -17.63889 -17.63889 v -5.29166 -5.29167 h 7.05556 7.05556 v -1.76389 -1.76389 h 1.76388 1.76389 v -1.76389 -1.76389 h -1.76389 -1.76388 v -1.76389 -1.76388 h -3.52778 -3.52778 v 1.76388 1.76389 H 93.234128 79.123016 v -5.29166 -5.29167 h -1.763889 -1.763889 v -1.76389 -1.76389 H 72.06746 68.539682 v 10.58334 10.58333 h -1.763889 -1.763889 v 5.29167 5.29166 h -3.527778 -3.527778 z m 63.500002,17.63889 v -3.52778 h -3.52778 -3.52777 v 1.76389 1.76389 h 1.76388 1.76389 v 1.76388 1.76389 h 1.76389 1.76389 z m -14.11111,-3.52778 v -3.52778 h -7.05556 -7.055552 v 3.52778 3.52778 h 7.055552 7.05556 z m 21.16667,-1.76389 v -1.76389 h 1.76389 1.76389 v -3.52778 -3.52778 h -1.76389 -1.76389 v 1.76389 1.76389 h -1.76389 -1.76389 v 3.52778 3.52778 h 1.76389 1.76389 z M 86.178572,128.67459 v -1.76388 h 12.347222 12.347226 v 1.76388 1.76389 h 3.52778 3.52777 v -1.76389 -1.76388 h 1.76389 1.76389 v -5.29167 -5.29167 h -5.29167 -5.29166 v 1.76389 1.76389 h -3.52778 -3.52778 v -1.76389 -1.76389 h -5.291666 -5.291666 v 1.76389 1.76389 H 82.650794 72.06746 v 3.52778 3.52778 h 3.527778 3.527778 v 1.76388 1.76389 h 3.527778 3.527778 z m 7.055556,-17.63889 v -1.76388 h 1.763889 1.763888 v 1.76388 1.76389 h 3.527775 3.52778 v -1.76389 -1.76388 h 1.76389 1.76389 v -1.76389 -1.76389 h 1.76389 1.76389 v -1.76389 -1.76389 H 96.761905 82.650794 v 1.76389 1.76389 h -3.527778 -3.527778 v 1.76389 1.76389 h 5.291667 5.291667 v 1.76388 1.76389 h 3.527778 3.527778 z M 79.123016,96.924593 v -1.763889 h -1.763889 -1.763889 v 1.763889 1.763889 h 1.763889 1.763889 z M 107.34524,93.396815 V 91.632926 H 94.998017 82.650794 v 1.763889 1.763889 h 12.347223 12.347223 z"
         id="path3808"
         inkscape:connector-curvature="0" />
      <path
         style="fill:#613d2a;stroke-width:0.35277781"
         d="M 57.956348,126.91071 V 88.105148 h 17.63889 17.63889 v 1.763889 1.763889 h -8.819445 -8.819445 v 1.763889 1.763889 H 72.06746 68.539682 v 1.763889 1.763889 h 7.055556 7.055556 v -1.763889 -1.763889 h 14.111111 14.111115 v -1.763889 -1.763889 h -7.05556 -7.055555 v -1.763889 -1.763889 h 19.402775 19.40278 v 21.166672 21.16666 h -3.52777 -3.52778 v 1.76389 1.76389 h -1.76389 -1.76389 v 3.52778 3.52778 h 1.76389 1.76389 v 1.76389 1.76389 h 1.76389 1.76389 v 1.76388 1.76389 h 1.76388 1.76389 v 8.81945 8.81944 h -17.63889 -17.63889 v -5.29166 -5.29167 h 7.05556 7.05556 v -1.76389 -1.76389 h 1.76388 1.76389 v -1.76389 -1.76389 h -1.76389 -1.76388 v -1.76389 -1.76388 h -3.52778 -3.52778 v -3.52778 -3.52778 h -7.05556 -7.055552 v 3.52778 3.52778 H 91.470239 89.70635 v 1.76388 1.76389 h -3.527778 -3.527778 v -5.29166 -5.29167 h -3.527778 -3.527778 v -1.76389 -1.76389 H 72.06746 68.539682 v 1.76389 1.76389 h -1.763889 -1.763889 v 1.76389 1.76389 h 1.763889 1.763889 v 5.29166 5.29167 h -1.763889 -1.763889 v 7.05556 7.05555 h -3.527778 -3.527778 z m 63.500002,17.63889 v -3.52778 h -1.76389 -1.76389 v -3.52778 -3.52778 h -1.76389 -1.76388 v -1.76389 -1.76389 h 1.76388 1.76389 v -1.76389 -1.76388 h 1.76389 1.76389 v -5.29167 -5.29167 h -5.29167 -5.29166 v 1.76389 1.76389 h -3.52778 -3.52778 v -1.76389 -1.76389 h -5.291666 -5.291666 v 1.76389 1.76389 H 82.650794 72.06746 v 3.52778 3.52778 h 3.527778 3.527778 v 1.76388 1.76389 h 3.527778 3.527778 v -1.76389 -1.76388 h 12.347222 12.347226 v 1.76388 1.76389 h -1.76389 -1.76389 v 3.52778 3.52778 h 1.76389 1.76389 v -1.76389 -1.76389 h 1.76389 1.76389 v 5.29167 5.29167 h 1.76388 1.76389 v 1.76388 1.76389 h 1.76389 1.76389 z M 93.234128,132.20237 v -1.76389 H 91.470239 89.70635 v 1.76389 1.76389 h 1.763889 1.763889 z m 0,-21.16667 v -1.76388 h 1.763889 1.763888 v 1.76388 1.76389 h 3.527775 3.52778 v -1.76389 -1.76388 h 1.76389 1.76389 v -1.76389 -1.76389 h 1.76389 1.76389 v -1.76389 -1.76389 H 96.761905 82.650794 v 1.76389 1.76389 h -3.527778 -3.527778 v 1.76389 1.76389 h 5.291667 5.291667 v 1.76388 1.76389 h 3.527778 3.527778 z m 7.055552,35.27778 v -1.76388 h 1.76389 1.76389 v 1.76388 1.76389 h -1.76389 -1.76389 z m 31.75001,-7.05555 v -1.76389 h 1.76388 1.76389 v 1.76389 1.76389 h -1.76389 -1.76388 z"
         id="path3806"
         inkscape:connector-curvature="0" />
      <path
         style="fill:#553924;stroke-width:0.35277781"
         d="M 57.956348,126.91071 V 88.105148 h 17.63889 17.63889 v 1.763889 1.763889 h -8.819445 -8.819445 v 1.763889 1.763889 H 72.06746 68.539682 v 1.763889 1.763889 h 7.055556 7.055556 v -1.763889 -1.763889 h 14.111111 14.111115 v -1.763889 -1.763889 h -7.05556 -7.055555 v -1.763889 -1.763889 h 19.402775 19.40278 v 21.166672 21.16666 h -3.52777 -3.52778 v 1.76389 1.76389 h -1.76389 -1.76389 v 3.52778 3.52778 h 1.76389 1.76389 v 1.76389 1.76389 h 1.76389 1.76389 v 1.76388 1.76389 h 1.76388 1.76389 v 8.81945 8.81944 h -17.63889 -17.63889 v -5.29166 -5.29167 h 7.05556 7.05556 v -1.76389 -1.76389 h 1.76388 1.76389 v -1.76389 -1.76389 h -1.76389 -1.76388 v -1.76389 -1.76388 h -3.52778 -3.52778 v -3.52778 -3.52778 h -7.05556 -7.055552 v 3.52778 3.52778 H 91.470239 89.70635 v 1.76388 1.76389 h -3.527778 -3.527778 v -5.29166 -5.29167 h -3.527778 -3.527778 v -1.76389 -1.76389 H 72.06746 68.539682 v 1.76389 1.76389 h -1.763889 -1.763889 v 1.76389 1.76389 h 1.763889 1.763889 v 5.29166 5.29167 h -1.763889 -1.763889 v 7.05556 7.05555 h -3.527778 -3.527778 z m 63.500002,17.63889 v -3.52778 h -1.76389 -1.76389 v -3.52778 -3.52778 h -1.76389 -1.76388 v -1.76389 -1.76389 h 3.52777 3.52778 v -1.76389 -1.76388 h 1.76389 1.76389 v -3.52778 -3.52778 h -1.76389 -1.76389 v -1.76389 -1.76389 H 107.34524 93.234128 v 1.76389 1.76389 h -8.819445 -8.819445 v -1.76389 -1.76389 H 73.831349 72.06746 v 5.29167 5.29167 h 1.763889 1.763889 v 1.76388 1.76389 h 5.291667 5.291667 v -1.76389 -1.76388 h 12.347222 12.347226 v 1.76388 1.76389 h -1.76389 -1.76389 v 3.52778 3.52778 h 1.76389 1.76389 v -1.76389 -1.76389 h 1.76389 1.76389 v 5.29167 5.29167 h 1.76388 1.76389 v 1.76388 1.76389 h 1.76389 1.76389 z M 93.234128,132.20237 v -1.76389 H 91.470239 89.70635 v 1.76389 1.76389 h 1.763889 1.763889 z M 103.81746,111.0357 v -1.76388 h 1.76389 1.76389 v -1.76389 -1.76389 h 1.76389 1.76389 v -1.76389 -1.76389 H 96.761905 82.650794 v 1.76389 1.76389 h -3.527778 -3.527778 v 1.76389 1.76389 h 5.291667 5.291667 v 1.76388 1.76389 h 8.819445 8.819443 z m -3.52778,35.27778 v -1.76388 h 1.76389 1.76389 v 1.76388 1.76389 h -1.76389 -1.76389 z m 31.75001,-7.05555 v -1.76389 h 1.76388 1.76389 v 1.76389 1.76389 h -1.76389 -1.76388 z"
         id="path3804"
         inkscape:connector-curvature="0" />
      <path
         style="fill:#453426;stroke-width:0.35277781"
         d="M 57.956348,126.91071 V 88.105148 h 17.63889 17.63889 v 1.763889 1.763889 h -8.819445 -8.819445 v 1.763889 1.763889 H 72.06746 68.539682 v 1.763889 1.763889 h 7.055556 7.055556 v -1.763889 -1.763889 h 14.111111 14.111115 v -1.763889 -1.763889 h -7.05556 -7.055555 v -1.763889 -1.763889 h 19.402775 19.40278 v 21.166672 21.16666 h -3.52777 -3.52778 v 1.76389 1.76389 h -1.76389 -1.76389 v 1.76389 1.76389 h -1.76389 -1.76389 v 1.76389 1.76389 h 3.52778 3.52778 v 1.76389 1.76389 h 1.76389 1.76389 v 1.76388 1.76389 h 1.76388 1.76389 v 8.81945 8.81944 h -17.63889 -17.63889 v -5.29166 -5.29167 h 7.05556 7.05556 v -1.76389 -1.76389 h 1.76388 1.76389 v -1.76389 -1.76389 h -1.76389 -1.76388 v -1.76389 -1.76388 h -1.76389 -1.76389 v -1.76389 -1.76389 h -1.76389 -1.76389 v -1.76389 -1.76389 h -5.29167 -5.291665 v -1.76389 -1.76389 h -1.763888 -1.763889 v 5.29167 5.29167 H 91.470239 89.70635 v 1.76388 1.76389 h -3.527778 -3.527778 v -5.29166 -5.29167 h -3.527778 -3.527778 v -1.76389 -1.76389 H 72.06746 68.539682 v 1.76389 1.76389 h -1.763889 -1.763889 v 1.76389 1.76389 h 1.763889 1.763889 v 5.29166 5.29167 h -1.763889 -1.763889 v 7.05556 7.05555 h -3.527778 -3.527778 z m 63.500002,17.63889 v -3.52778 h -1.76389 -1.76389 v -3.52778 -3.52778 h -1.76389 -1.76388 v -1.76389 -1.76389 h 3.52777 3.52778 v -1.76389 -1.76388 h 1.76389 1.76389 v -5.29167 -5.29167 h -3.52778 -3.52778 v -1.76389 -1.76389 h -1.76389 -1.76388 v 1.76389 1.76389 h -5.29167 -5.29167 v -3.52778 -3.52777 h 3.52778 3.52778 v -5.29167 -5.291668 h -3.52778 -3.52778 v 1.763888 1.76389 H 91.470239 79.123016 v 1.76389 1.76389 h -1.763889 -1.763889 v 1.76389 1.76389 h 3.527778 3.527778 v 1.76388 1.76389 h 7.055556 7.055555 v 1.76389 1.76389 H 89.70635 82.650794 v 1.76389 1.76389 h -1.763889 -1.763889 v -1.76389 -1.76389 H 75.595238 72.06746 v 7.05556 7.05555 h 7.055556 7.055556 v -1.76389 -1.76388 h 5.291667 5.291666 v 1.76388 1.76389 h 1.763889 1.763886 v -1.76389 -1.76388 h 5.29167 5.29167 v 1.76388 1.76389 h -1.76389 -1.76389 v 3.52778 3.52778 h 1.76389 1.76389 v -1.76389 -1.76389 h 1.76389 1.76389 v 5.29167 5.29167 h 1.76388 1.76389 v 1.76388 1.76389 h 1.76389 1.76389 z M 93.234128,132.20237 v -1.76389 H 91.470239 89.70635 v 1.76389 1.76389 h 1.763889 1.763889 z m 7.055552,14.11111 v -1.76388 h 1.76389 1.76389 v 1.76388 1.76389 h -1.76389 -1.76389 z m 31.75001,-7.05555 v -1.76389 h 1.76388 1.76389 v 1.76389 1.76389 h -1.76389 -1.76388 z"
         id="path3802"
         inkscape:connector-curvature="0" />
      <path
         style="fill:#46321a;stroke-width:0.35277781"
         d="M 57.956348,126.91071 V 88.105148 H 73.831349 89.70635 v 1.763889 1.763889 H 80.886905 72.06746 v 1.763889 1.763889 h -1.763889 -1.763889 v 1.763889 1.763889 H 79.123016 89.70635 v -1.763889 -1.763889 h 14.11111 14.11111 v -1.763889 -1.763889 h -5.29166 -5.29167 v -1.763889 -1.763889 h 14.11111 14.11111 v 21.166672 21.16666 h -7.05555 -7.05556 v 3.52778 3.52778 h -1.76389 -1.76389 v -3.52778 -3.52778 h 1.76389 1.76389 v -1.76389 -1.76388 h 1.76389 1.76389 v -5.29167 -5.29167 h -3.52778 -3.52778 v -1.76389 -1.76389 h -1.76389 -1.76388 v 1.76389 1.76389 h -5.29167 -5.29167 v -3.52778 -3.52777 h 3.52778 3.52778 v -5.29167 -5.291668 h -3.52778 -3.52778 v 1.763888 1.76389 H 91.470239 79.123016 v 1.76389 1.76389 h -1.763889 -1.763889 v 1.76389 1.76389 h 3.527778 3.527778 v 1.76388 1.76389 h 7.055556 7.055555 v 1.76389 1.76389 H 89.70635 82.650794 v 1.76389 1.76389 h -1.763889 -1.763889 v -1.76389 -1.76389 H 75.595238 72.06746 v 7.05556 7.05555 h -1.763889 -1.763889 v 3.52778 3.52778 h -3.527778 -3.527778 v 1.76389 1.76389 h 1.763889 1.763889 v 1.76389 1.76389 h 1.763889 1.763889 v 3.52777 3.52778 h -1.763889 -1.763889 v 7.05556 7.05555 h -3.527778 -3.527778 z m 10.583334,-22.93056 v -5.291668 h -1.763889 -1.763889 v 5.291668 5.29167 h 1.763889 1.763889 z m 31.749998,58.20834 v -3.52778 h 1.76389 1.76389 v -1.76389 -1.76389 h 5.29167 5.29167 v -1.76389 -1.76389 h 3.52777 3.52778 v -1.76389 -1.76389 h 1.76389 1.76389 v -1.76389 -1.76388 h -1.76389 -1.76389 v -1.76389 -1.76389 h 3.52778 3.52778 v 3.52778 3.52777 h 3.52778 3.52777 v 8.81945 8.81944 H 117.92857 100.28968 Z M 82.650794,139.25793 v -5.29167 h -3.527778 -3.527778 v -1.76389 -1.76389 h 5.291667 5.291667 v -1.76389 -1.76388 h 5.291667 5.291666 v 1.76388 1.76389 h 1.763889 1.763886 v -1.76389 -1.76388 h 3.52778 3.52778 v 1.76388 1.76389 h -1.76389 -1.76389 v 1.76389 1.76389 h -3.52778 -3.527775 v -1.76389 -1.76389 h -5.291666 -5.291667 v 1.76389 1.76389 h 3.527778 3.527778 v 5.29167 5.29167 h -5.291667 -5.291667 z m 28.222226,3.52778 v -1.76389 h -1.76389 -1.76389 v -1.76389 -1.76389 h 3.52778 3.52778 v 3.52778 3.52778 h -1.76389 -1.76389 z m 21.16667,-3.52778 v -1.76389 h 1.76388 1.76389 v 1.76389 1.76389 h -1.76389 -1.76388 z"
         id="path3800"
         inkscape:connector-curvature="0" />
      <path
         style="fill:#3a3126;stroke-width:0.35277781"
         d="M 57.956348,126.91071 V 88.105148 H 73.831349 89.70635 v 1.763889 1.763889 H 80.886905 72.06746 v 1.763889 1.763889 h -1.763889 -1.763889 v 1.763889 1.763889 H 79.123016 89.70635 v -1.763889 -1.763889 h 14.11111 14.11111 v -1.763889 -1.763889 h -5.29166 -5.29167 v -1.763889 -1.763889 h 14.11111 14.11111 v 21.166672 21.16666 h -5.29166 -5.29167 v -1.76389 -1.76388 h 1.76389 1.76389 v -3.52778 -3.52778 h -1.76389 -1.76389 v -1.76389 -1.76389 h -1.76389 -1.76389 v -1.76389 -1.76389 h -3.52778 -3.52777 v 1.76389 1.76389 h -5.29167 -5.29167 v -1.76389 -1.76389 h 1.76389 1.76389 v -1.76389 -1.76388 h 1.76389 1.76389 v -1.76389 -1.76389 h 1.76389 1.76389 v -3.52778 -3.527778 h -5.29167 -5.29167 v 1.763888 1.76389 H 91.470239 79.123016 v 1.76389 1.76389 h -1.763889 -1.763889 v 1.76389 1.76389 H 73.831349 72.06746 v 1.76388 1.76389 h 3.527778 3.527778 v -1.76389 -1.76388 h 1.763889 1.763889 v 1.76388 1.76389 h 7.055556 7.055555 v 1.76389 1.76389 H 84.414683 72.06746 v 1.76389 1.76389 h -1.763889 -1.763889 v 3.52778 3.52778 h 1.763889 1.763889 v 1.76388 1.76389 h -1.763889 -1.763889 v 3.52778 3.52778 h -3.527778 -3.527778 v 1.76389 1.76389 h 1.763889 1.763889 v 1.76389 1.76389 h 1.763889 1.763889 v 3.52777 3.52778 h -1.763889 -1.763889 v 7.05556 7.05555 h -3.527778 -3.527778 z m 10.583334,-22.93056 v -5.291668 h -1.763889 -1.763889 v 5.291668 5.29167 h 1.763889 1.763889 z m 31.749998,58.20834 v -3.52778 h 1.76389 1.76389 v -1.76389 -1.76389 h 5.29167 5.29167 v -1.76389 -1.76389 h 3.52777 3.52778 v -1.76389 -1.76389 h 1.76389 1.76389 v -1.76389 -1.76388 h -1.76389 -1.76389 v -1.76389 -1.76389 h 3.52778 3.52778 v 3.52778 3.52777 h 3.52778 3.52777 v 8.81945 8.81944 h -17.63889 -17.63889 z m 24.69445,-1.76389 v -1.76389 h -1.76389 -1.76389 v 1.76389 1.76389 h 1.76389 1.76389 z M 82.650794,137.49404 v -7.05556 h 1.763889 1.763889 v -1.76389 -1.76388 h 1.763889 1.763889 v 1.76388 1.76389 h -1.763889 -1.763889 v 1.76389 1.76389 h 1.763889 1.763889 v 1.76389 1.76389 h 1.763889 1.763889 v 3.52778 3.52778 h -5.291667 -5.291667 z m 28.222226,3.52778 v -3.52778 h 1.76389 1.76389 v 3.52778 3.52778 h -1.76389 -1.76389 z m 21.16667,-1.76389 v -1.76389 h 1.76388 1.76389 v 1.76389 1.76389 h -1.76389 -1.76388 z m -14.11112,-3.52778 v -1.76389 h 1.76389 1.76389 v 1.76389 1.76389 h -1.76389 -1.76389 z m -42.333332,-3.52778 v -1.76389 h 1.763889 1.763889 v 1.76389 1.76389 h -1.763889 -1.763889 z m 21.166667,0 v -1.76389 h 3.527775 3.52778 v 1.76389 1.76389 h -3.52778 -3.527775 z"
         id="path3798"
         inkscape:connector-curvature="0" />
      <path
         style="fill:#362918;stroke-width:0.35277781"
         d="M 57.956348,126.91071 V 88.105148 H 73.831349 89.70635 v 1.763889 1.763889 H 80.886905 72.06746 v 1.763889 1.763889 h -1.763889 -1.763889 v 1.763889 1.763889 h -1.763889 -1.763889 v 5.291668 5.29167 h 1.763889 1.763889 v -3.52778 -3.52778 h 1.763889 1.763889 v -1.76389 -1.763888 h 8.819445 8.819445 v -1.763889 -1.763889 h 15.875 15.875 v -1.763889 -1.763889 h -7.05555 -7.05556 v -1.763889 -1.763889 h 14.11111 14.11111 v 21.166672 21.16666 h -5.29166 -5.29167 v -1.76389 -1.76388 h 1.76389 1.76389 v -3.52778 -3.52778 h -1.76389 -1.76389 v -1.76389 -1.76389 h -1.76389 -1.76389 v -1.76389 -1.76389 h -3.52778 -3.52777 v 1.76389 1.76389 h -5.29167 -5.29167 v -1.76389 -1.76389 h 1.76389 1.76389 v -1.76389 -1.76388 h 1.76389 1.76389 v -1.76389 -1.76389 h 1.76389 1.76389 v -3.52778 -3.527778 h -5.29167 -5.29167 v 1.763888 1.76389 H 91.470239 79.123016 v 1.76389 1.76389 h -1.763889 -1.763889 v 1.76389 1.76389 H 73.831349 72.06746 v 1.76388 1.76389 h 3.527778 3.527778 v -1.76389 -1.76388 h 1.763889 1.763889 v 1.76388 1.76389 h 7.055556 7.055555 v 1.76389 1.76389 H 84.414683 72.06746 v 1.76389 1.76389 h -1.763889 -1.763889 v 3.52778 3.52778 h 1.763889 1.763889 v 1.76388 1.76389 h -1.763889 -1.763889 v 1.76389 1.76389 h -1.763889 -1.763889 v 1.76389 1.76389 h -1.763889 -1.763889 v 1.76389 1.76389 h 1.763889 1.763889 v 1.76389 1.76389 h 1.763889 1.763889 v 3.52777 3.52778 h -1.763889 -1.763889 v 7.05556 7.05555 h -3.527778 -3.527778 z m 42.333332,37.04166 v -1.76388 h 1.76389 1.76389 v -1.76389 -1.76389 h 5.29167 5.29167 v -1.76389 -1.76389 h 3.52777 3.52778 v -3.52778 -3.52778 h 1.76389 1.76389 v -1.76389 -1.76388 h 1.76389 1.76389 v 1.76388 1.76389 h 3.52778 3.52777 v 8.81945 8.81944 h -17.63889 -17.63889 z m 24.69445,-3.52777 v -1.76389 h -1.76389 -1.76389 v 1.76389 1.76389 h 1.76389 1.76389 z M 82.650794,137.49404 v -7.05556 h 1.763889 1.763889 v -1.76389 -1.76388 h 1.763889 1.763889 v 1.76388 1.76389 h -1.763889 -1.763889 v 1.76389 1.76389 h 1.763889 1.763889 v 1.76389 1.76389 h 1.763889 1.763889 v 3.52778 3.52778 h -5.291667 -5.291667 z m 28.222226,3.52778 v -3.52778 h 1.76389 1.76389 v 3.52778 3.52778 h -1.76389 -1.76389 z m 21.16667,-1.76389 v -1.76389 h 1.76388 1.76389 v 1.76389 1.76389 h -1.76389 -1.76388 z m -35.277785,-7.05556 v -1.76389 h 3.527775 3.52778 v 1.76389 1.76389 h -3.52778 -3.527775 z"
         id="path3796"
         inkscape:connector-curvature="0" />
      <path
         style="fill:#2c2212;stroke-width:0.35277781"
         d="M 57.956348,126.91071 V 88.105148 h 10.583334 10.583334 v 1.763889 1.763889 h -5.291667 -5.291667 v 1.763889 1.763889 h -1.763889 -1.763889 v 3.527778 3.527778 h -1.763889 -1.763889 v 7.05556 7.05555 h 1.763889 1.763889 v -3.52778 -3.52777 h 1.763889 1.763889 v -3.52778 -3.52778 h 1.763889 1.763889 v -1.76389 -1.763888 h 7.055556 7.055556 v 1.763888 1.76389 h -5.291667 -5.291667 v 3.52778 3.52778 H 73.831349 72.06746 v 1.76388 1.76389 h 10.583334 10.583334 v 1.76389 1.76389 H 80.886905 68.539682 v 7.05556 7.05555 h -1.763889 -1.763889 v 1.76389 1.76389 h -1.763889 -1.763889 v 3.52778 3.52778 h 1.763889 1.763889 v 12.34722 12.34722 h -3.527778 -3.527778 z m 42.333332,37.04166 v -1.76388 h 3.52778 3.52778 v -1.76389 -1.76389 h 3.52778 3.52778 v -1.76389 -1.76389 h 3.52777 3.52778 v 3.52778 3.52778 h 1.76389 1.76389 v -8.81945 -8.81944 h 1.76389 1.76389 v 1.76388 1.76389 h 3.52778 3.52777 v 8.81945 8.81944 H 117.92857 100.28968 Z M 86.178572,142.78571 v -1.76389 h -1.763889 -1.763889 v -3.52778 -3.52778 h 3.527778 3.527778 v 5.29167 5.29167 h -1.763889 -1.763889 z m 24.694448,-3.52778 v -1.76389 h 1.76389 1.76389 v 1.76389 1.76389 h -1.76389 -1.76389 z m 21.16667,0 v -1.76389 h 1.76388 1.76389 v 1.76389 1.76389 h -1.76389 -1.76388 z m -7.05556,-10.58334 v -1.76388 h 1.76389 1.76389 v -5.29167 -5.29167 h -1.76389 -1.76389 v -1.76389 -1.76389 h -1.76389 -1.76389 v -5.29166 -5.29167 h -1.76389 -1.76389 v -1.76389 -1.763888 h -7.05555 -7.05556 v 1.763888 1.76389 H 96.761905 89.70635 v -1.76389 -1.763888 h 1.763889 1.763889 v -1.763889 -1.763889 h 15.875002 15.875 v 3.527778 3.527778 h 1.76389 1.76389 v -5.291667 -5.291667 h -1.76389 -1.76389 v -1.763889 -1.763889 h 5.29167 5.29166 v 19.402782 19.40278 h -1.76389 -1.76388 v 1.76388 1.76389 h -3.52778 -3.52778 z m -21.16667,-14.11111 v -1.76389 h 1.76389 1.76389 v -1.76389 -1.76388 h 1.76389 1.76389 v -1.76389 -1.76389 h 3.52778 3.52777 v 3.52778 3.52777 h -1.76389 -1.76388 v 1.76389 1.76389 h -5.29167 -5.29167 z M 114.4008,89.869037 v -1.763889 h 1.76388 1.76389 v 1.763889 1.763889 h -1.76389 -1.76388 z"
         id="path3794"
         inkscape:connector-curvature="0" />
      <path
         style="fill:#29210d;stroke-width:0.35277781"
         d="M 57.956348,126.91071 V 88.105148 h 10.583334 10.583334 v 1.763889 1.763889 h -5.291667 -5.291667 v 1.763889 1.763889 h -1.763889 -1.763889 v 3.527778 3.527778 h -1.763889 -1.763889 v 8.81944 8.81945 h 1.763889 1.763889 v -3.52778 -3.52778 h 1.763889 1.763889 v -5.29166 -5.29167 h 1.763889 1.763889 v -1.76389 -1.763888 h 5.291667 5.291667 v 1.763888 1.76389 h -3.527778 -3.527778 v 3.52778 3.52778 H 73.831349 72.06746 v 3.52777 3.52778 h -1.763889 -1.763889 v 7.05556 7.05555 h -1.763889 -1.763889 v 1.76389 1.76389 h -1.763889 -1.763889 v 7.05556 7.05555 h 1.763889 1.763889 v 8.81945 8.81944 h -3.527778 -3.527778 z m 42.333332,37.04166 v -1.76388 h 3.52778 3.52778 v -1.76389 -1.76389 h 5.29167 5.29166 v -1.76389 -1.76389 h 1.76389 1.76389 v 1.76389 1.76389 h -1.76389 -1.76389 v 1.76389 1.76389 h 3.52778 3.52778 v -5.29167 -5.29167 h 1.76389 1.76389 v -1.76389 -1.76389 h -1.76389 -1.76389 v -1.76389 -1.76388 h 1.76389 1.76389 v 1.76388 1.76389 h 1.76389 1.76389 v 1.76389 1.76389 h 1.76388 1.76389 v 7.05556 7.05555 H 117.92857 100.28968 Z M 86.178572,142.78571 v -1.76389 h -1.763889 -1.763889 v -3.52778 -3.52778 h 1.763889 1.763889 v 1.76389 1.76389 h 1.763889 1.763889 v 3.52778 3.52778 h -1.763889 -1.763889 z m 24.694448,-3.52778 v -1.76389 h 1.76389 1.76389 v 1.76389 1.76389 h -1.76389 -1.76389 z m 14.11111,-10.58334 v -1.76388 h 1.76389 1.76389 v -5.29167 -5.29167 h 1.76389 1.76389 v -8.81944 -8.819448 h -1.76389 -1.76389 v -1.763889 -1.763889 h 1.76389 1.76389 v -1.763889 -1.763889 h -1.76389 -1.76389 v -1.763889 -1.763889 h 3.52778 3.52777 v 19.402782 19.40278 h -3.52777 -3.52778 v 1.76388 1.76389 h -1.76389 -1.76389 z M 79.123016,114.56348 v -1.76389 h 7.055556 7.055556 v 1.76389 1.76389 h -7.055556 -7.055556 z m 31.750004,0 v -1.76389 h -1.76389 -1.76389 v -1.76389 -1.76388 h 1.76389 1.76389 v -1.76389 -1.76389 h 1.76389 1.76389 v 5.29166 5.29167 h -1.76389 -1.76389 z m 10.58333,-7.05555 v -5.29167 h -1.76389 -1.76389 v -1.76389 -1.763888 h -8.81944 -8.81945 v 1.763888 1.76389 h -3.527775 -3.527777 v -1.76389 -1.763888 h 1.763889 1.763888 v -1.763889 -1.763889 h 12.347225 12.34722 v 1.763889 1.763889 h 1.76389 1.76389 v 3.527778 3.52778 h 1.76389 1.76389 v 3.52778 3.52777 h -3.52778 -3.52778 z"
         id="path3792"
         inkscape:connector-curvature="0" />
      <path
         style="fill:#241c14;stroke-width:0.35277781"
         d="M 57.956348,126.91071 V 88.105148 h 3.527778 3.527778 v 1.763889 1.763889 h 1.763889 1.763889 v -1.763889 -1.763889 h 5.291667 5.291667 v 1.763889 1.763889 h -5.291667 -5.291667 v 1.763889 1.763889 h -1.763889 -1.763889 v 3.527778 3.527778 h -1.763889 -1.763889 v 8.81944 8.81945 h 1.763889 1.763889 v -3.52778 -3.52778 h 1.763889 1.763889 v -5.29166 -5.29167 h 1.763889 1.763889 v -1.76389 -1.763888 h 5.291667 5.291667 v 1.763888 1.76389 h -3.527778 -3.527778 v 3.52778 3.52778 H 73.831349 72.06746 v 3.52777 3.52778 h -1.763889 -1.763889 v 7.05556 7.05555 h -1.763889 -1.763889 v 1.76389 1.76389 h -1.763889 -1.763889 v 8.81945 8.81944 h 1.763889 1.763889 v 7.05556 7.05555 h -3.527778 -3.527778 z m 42.333332,37.04166 v -1.76388 h 5.29167 5.29167 v -1.76389 -1.76389 h 3.52778 3.52777 v 1.76389 1.76389 h 3.52778 3.52778 v -3.52778 -3.52778 h 1.76389 1.76389 v -3.52778 -3.52778 h -1.76389 -1.76389 v -1.76389 -1.76388 h 1.76389 1.76389 v 1.76388 1.76389 h 1.76389 1.76389 v 1.76389 1.76389 h 1.76388 1.76389 v 7.05556 7.05555 H 117.92857 100.28968 Z M 86.178572,141.02182 v -3.52778 h 1.763889 1.763889 v 3.52778 3.52778 h -1.763889 -1.763889 z m 42.333338,-19.40278 v -5.29167 h 1.76389 1.76389 v -8.81944 -8.819448 h -1.76389 -1.76389 v -1.763889 -1.763889 h 1.76389 1.76389 v -1.763889 -1.763889 h -1.76389 -1.76389 v -1.763889 -1.763889 h 3.52778 3.52777 v 19.402782 19.40278 h -3.52777 -3.52778 z m -49.388894,-7.05556 v -1.76389 h 7.055556 7.055556 v 1.76389 1.76389 h -7.055556 -7.055556 z m 28.222224,-3.52778 v -1.76388 h 3.52778 3.52778 v 1.76388 1.76389 h -3.52778 -3.52778 z m 14.11111,-5.29166 v -7.055558 h -10.58333 -10.58334 v 1.763888 1.76389 h -3.527775 -3.527777 v -1.76389 -1.763888 h 1.763889 1.763888 v -1.763889 -1.763889 h 12.347225 12.34722 v 1.763889 1.763889 h 1.76389 1.76389 v 3.527778 3.52778 h 1.76389 1.76389 v 3.52778 3.52777 h -3.52778 -3.52778 z"
         id="path3790"
         inkscape:connector-curvature="0" />
      <path
         style="fill:#24180c;stroke-width:0.35277781"
         d="m 57.956348,153.36904 v -12.34722 h 1.763889 1.763889 v 5.29166 5.29167 h 1.763889 1.763889 v 1.76389 1.76389 h -1.763889 -1.763889 v 5.29167 5.29166 h -1.763889 -1.763889 z m 45.861112,10.58333 v -1.76388 h 3.52778 3.52778 v -1.76389 -1.76389 h 3.52778 3.52777 v 1.76389 1.76389 h 3.52778 3.52778 v -3.52778 -3.52778 h 1.76389 1.76389 v -3.52778 -3.52778 h -1.76389 -1.76389 v -1.76389 -1.76388 h 1.76389 1.76389 v 1.76388 1.76389 h 1.76389 1.76389 v 1.76389 1.76389 h 1.76388 1.76389 v 7.05556 7.05555 h -15.875 -15.875 z M 86.178572,141.02182 v -3.52778 h 1.763889 1.763889 v 3.52778 3.52778 H 87.942461 86.178572 Z M 57.956348,111.0357 V 88.105148 h 3.527778 3.527778 v 1.763889 1.763889 h 1.763889 1.763889 v -1.763889 -1.763889 h 5.291667 5.291667 v 1.763889 1.763889 h -5.291667 -5.291667 v 1.763889 1.763889 h -1.763889 -1.763889 v 3.527778 3.527778 h -1.763889 -1.763889 v 8.81944 8.81945 h 1.763889 1.763889 v -3.52778 -3.52778 h 1.763889 1.763889 v -5.29166 -5.29167 h 1.763889 1.763889 v -1.76389 -1.763888 h 5.291667 5.291667 v 1.763888 1.76389 h -3.527778 -3.527778 v 3.52778 3.52778 H 73.831349 72.06746 v 3.52777 3.52778 h -1.763889 -1.763889 v 7.05556 7.05555 h -1.763889 -1.763889 v 1.76389 1.76389 h -3.527778 -3.527778 z m 70.555562,12.34723 v -3.52778 h 1.76389 1.76389 v -7.05556 -7.05555 h 1.76388 1.76389 v 10.58333 10.58334 h -3.52777 -3.52778 z m -49.388894,-8.81945 v -1.76389 h 1.763889 1.763889 v 1.76389 1.76389 h -1.763889 -1.763889 z m 7.055556,0 v -1.76389 h 3.527778 3.527778 v 1.76389 1.76389 H 89.70635 86.178572 Z m 21.166668,-3.52778 v -1.76388 h 3.52778 3.52778 v 1.76388 1.76389 h -3.52778 -3.52778 z m 14.11111,-5.29166 v -7.055558 h -3.52778 -3.52777 v -1.763889 -1.763889 h 3.52777 3.52778 v 1.763889 1.763889 h 1.76389 1.76389 v 3.527778 3.52778 h 1.76389 1.76389 v 3.52778 3.52777 h -3.52778 -3.52778 z m 7.05556,-15.875003 v -1.763889 h 3.52778 3.52777 v 1.763889 1.763889 h -3.52777 -3.52778 z"
         id="path3788"
         inkscape:connector-curvature="0" />
      <path
         style="fill:#1b130a;stroke-width:0.35277781"
         d="m 57.956348,160.4246 v -5.29167 h 1.763889 1.763889 v 5.29167 5.29166 h -1.763889 -1.763889 z m 45.861112,3.52777 v -1.76388 h 5.29167 5.29167 v -1.76389 -1.76389 h 1.76388 1.76389 v 1.76389 1.76389 h 3.52778 3.52778 v -3.52778 -3.52778 h 1.76389 1.76389 v -1.76389 -1.76389 h 3.52778 3.52777 v 7.05556 7.05555 h -15.875 -15.875 z m -45.861112,-15.875 v -3.52777 h 1.763889 1.763889 v 3.52777 3.52778 h -1.763889 -1.763889 z m 28.222224,-8.81944 v -1.76389 h 1.763889 1.763889 v 1.76389 1.76389 H 87.942461 86.178572 Z M 57.956348,125.14682 v -1.76389 h 1.763889 1.763889 v 1.76389 1.76389 h -1.763889 -1.763889 z m 74.083342,-5.29167 v -7.05556 h 1.76388 1.76389 v 7.05556 7.05556 h -1.76389 -1.76388 z m -74.083342,-7.05556 v -3.52777 h 1.763889 1.763889 v 3.52777 3.52778 h -1.763889 -1.763889 z m 28.222224,1.76389 v -1.76389 h 1.763889 1.763889 v 1.76389 1.76389 h -1.763889 -1.763889 z m -17.63889,-5.29166 v -3.52778 h 1.763889 1.763889 v -1.76389 -1.76389 h 1.763889 1.763889 v 1.76389 1.76389 H 73.831349 72.06746 v 3.52778 3.52777 h -1.763889 -1.763889 z m 56.444448,0 v -3.52778 h 1.76389 1.76389 v 3.52778 3.52777 h -1.76389 -1.76389 z m -67.027782,-7.05556 v -3.527778 h 1.763889 1.763889 v 3.527778 3.52778 h -1.763889 -1.763889 z m 63.500002,-1.76389 v -1.763888 h -1.76389 -1.76389 v -1.763889 -1.763889 h 1.76389 1.76389 v 1.763889 1.763889 h 1.76389 1.76389 v 1.763888 1.76389 h -1.76389 -1.76389 z M 57.956348,91.632926 v -3.527778 h 3.527778 3.527778 v 1.763889 1.763889 h -1.763889 -1.763889 v 1.763889 1.763889 H 59.720237 57.956348 Z M 72.06746,89.869037 v -1.763889 h 1.763889 1.763889 v 1.763889 1.763889 H 73.831349 72.06746 Z m 56.44445,0 v -1.763889 h 3.52778 3.52777 v 1.763889 1.763889 h -3.52777 -3.52778 z"
         id="path3786"
         inkscape:connector-curvature="0" />
      <path
         style="fill:#150b09;stroke-width:0.35277781"
         d="m 103.81746,163.95237 v -1.76388 h 15.875 15.875 v 1.76388 1.76389 h -15.875 -15.875 z M 57.956348,160.4246 v -1.76389 h 1.763889 1.763889 v 1.76389 1.76389 h -1.763889 -1.763889 z m 0,-10.58334 v -1.76389 h 1.763889 1.763889 v 1.76389 1.76389 H 59.720237 57.956348 Z M 132.03969,89.869037 v -1.763889 h 1.76388 1.76389 v 1.763889 1.763889 h -1.76389 -1.76388 z"
         id="path3784"
         inkscape:connector-curvature="0" />
    </g>
  </g>
</svg>
