<?xml version="1.0" encoding="UTF-8" standalone="no"?>
<!-- Created with Inkscape (http://www.inkscape.org/) -->

<svg
   xmlns:dc="http://purl.org/dc/elements/1.1/"
   xmlns:cc="http://creativecommons.org/ns#"
   xmlns:rdf="http://www.w3.org/1999/02/22-rdf-syntax-ns#"
   xmlns:svg="http://www.w3.org/2000/svg"
   xmlns="http://www.w3.org/2000/svg"
   xmlns:sodipodi="http://sodipodi.sourceforge.net/DTD/sodipodi-0.dtd"
   xmlns:inkscape="http://www.inkscape.org/namespaces/inkscape"
   width="33.867001mm"
   height="33.867001mm"
   viewBox="0 0 33.867001 33.867001"
   version="1.1"
   id="svg3828"
   inkscape:version="0.92.2 (5c3e80d, 2017-08-06)"
   sodipodi:docname="Q1thinking.svg">
  <defs
     id="defs3822" />
  <sodipodi:namedview
     id="base"
     pagecolor="#ffffff"
     bordercolor="#666666"
     borderopacity="1.0"
     inkscape:pageopacity="0.0"
     inkscape:pageshadow="2"
     inkscape:zoom="0.35"
     inkscape:cx="41.115029"
     inkscape:cy="-55.854875"
     inkscape:document-units="mm"
     inkscape:current-layer="layer1"
     showgrid="false"
     inkscape:window-width="1920"
     inkscape:window-height="1027"
     inkscape:window-x="-8"
     inkscape:window-y="64"
     inkscape:window-maximized="1" />
  <metadata
     id="metadata3825">
    <rdf:RDF>
      <cc:Work
         rdf:about="">
        <dc:format>image/svg+xml</dc:format>
        <dc:type
           rdf:resource="http://purl.org/dc/dcmitype/StillImage" />
        <dc:title></dc:title>
      </cc:Work>
    </rdf:RDF>
  </metadata>
  <g
     inkscape:label="Layer 1"
     inkscape:groupmode="layer"
     id="layer1"
     transform="translate(0,-263.133)">
    <g
       id="g3841"
       transform="translate(-170.54242,24.644021)">
      <path
         style="fill:#f0b844;stroke-width:0.26458332"
         d="m 170.54286,255.42262 v -16.93333 h 16.93333 16.93333 v 16.93333 16.93333 h -16.93333 -16.93333 z"
         id="path3857"
         inkscape:connector-curvature="0" />
      <path
         style="fill:#af8a3c;stroke-width:0.26458332"
         d="m 170.54286,255.42262 v -16.93333 h 16.93333 16.93333 v 16.93333 16.93333 h -8.73124 c -5.72237,0 -8.73125,-0.0924 -8.73125,-0.26817 0,-0.14749 0.14584,-0.50171 0.3241,-0.78714 0.25575,-0.40952 0.25575,-0.58733 0,-0.84308 -0.17826,-0.17826 -0.3241,-0.65521 -0.3241,-1.0599 0,-0.8275 0.14554,-0.88436 2.88109,-1.12556 1.03524,-0.0913 1.80439,-0.30074 1.98438,-0.54039 0.16164,-0.21523 0.77015,-0.48807 1.35223,-0.6063 0.83335,-0.16926 1.07745,-0.3479 1.14823,-0.84032 l 0.0899,-0.62536 -3.52286,0.18598 c -2.75987,0.1457 -3.63049,0.28347 -4.01979,0.63613 -0.41274,0.3739 -1.06381,0.45016 -3.84308,0.45016 -3.27939,0 -3.34785,-0.012 -3.43155,-0.60183 -0.047,-0.33101 -0.35827,-0.78062 -0.69178,-0.99915 -0.48974,-0.32089 -0.64028,-0.72824 -0.78265,-2.11787 -0.31547,-3.0792 -0.40782,-3.3311 -1.18804,-3.24058 -0.5623,0.0652 -0.67908,0.20401 -0.6242,0.74172 0.0371,0.3638 0.0967,1.53409 0.13229,2.60064 0.0555,1.66117 -0.009,1.99327 -0.45058,2.31641 -0.56229,0.41156 -0.87818,2.15743 -0.91752,5.07097 l -0.0223,1.65364 h -2.24896 -2.24896 z m 17.99167,-0.94809 c 0,-0.23041 -0.14139,-0.37179 -0.3142,-0.31419 -0.49059,0.16353 -0.57196,0.73312 -0.10473,0.73312 0.23041,0 0.41893,-0.18852 0.41893,-0.41893 z"
         id="path3855"
         inkscape:connector-curvature="0" />
      <path
         style="fill:#91694b;stroke-width:0.26458332"
         d="m 170.54286,255.42262 v -16.93333 h 16.93333 16.93333 v 16.93333 16.93333 h -8.59895 c -4.72943,0 -8.59896,-0.0908 -8.59896,-0.20184 0,-0.11101 0.26789,-0.31937 0.59531,-0.46302 0.79708,-0.3497 0.92022,-1.3301 0.2145,-1.70779 -0.29988,-0.16049 -0.54523,-0.45574 -0.54523,-0.65611 0,-0.38285 0.66188,-0.52571 3.7874,-0.81746 1.18658,-0.11076 1.85209,-0.29617 1.94654,-0.54229 0.0789,-0.20569 0.29091,-0.37398 0.47107,-0.37398 0.58825,0 1.263,-0.98266 1.07705,-1.56854 -0.15772,-0.49695 -0.37614,-0.54706 -2.33895,-0.53668 -4.61972,0.0245 -9.1393,0.44278 -9.58358,0.88706 -0.53281,0.53281 -1.28019,0.54484 -1.70953,0.0275 -0.18115,-0.21828 -0.47881,-0.39687 -0.66146,-0.39687 -0.61194,0 -1.02704,-0.8267 -1.21484,-2.41941 -0.10248,-0.86914 -0.36109,-1.78166 -0.57468,-2.02782 -0.2136,-0.24616 -0.46615,-0.77499 -0.56123,-1.17517 -0.15995,-0.67323 -0.27136,-0.7276 -1.49074,-0.7276 -0.86889,0 -1.32365,0.11267 -1.33481,0.33072 -0.009,0.18191 -0.005,1.4023 0.01,2.71198 0.0285,2.53234 -0.6406,7.08465 -1.06299,7.23195 -0.13909,0.0485 -0.2529,0.42572 -0.2529,0.83826 0,1.4227 -0.19476,1.58708 -1.88039,1.58708 h -1.55919 z m 9.29489,-0.28303 c 0.42233,-0.22602 0.4656,-0.35927 0.2148,-0.66146 -0.17274,-0.20813 -0.54135,-0.37842 -0.81914,-0.37842 -0.63097,0 -0.95771,0.76638 -0.46088,1.08098 0.46543,0.29471 0.43561,0.29586 1.06522,-0.0411 z m 9.35919,-0.24768 c 0.0905,-0.14637 0.0121,-0.68756 -0.17418,-1.20265 -0.28101,-0.77712 -0.45271,-0.92322 -1.00876,-0.85835 -0.51584,0.0602 -0.68987,0.25081 -0.75598,0.82813 -0.0472,0.41247 -0.0212,0.91849 0.0579,1.12447 0.16389,0.4271 1.63182,0.5117 1.88107,0.1084 z m -4.69731,-7.73752 c -0.0679,-0.20376 -0.60119,-0.33073 -1.38906,-0.33073 -0.78787,0 -1.32114,0.12697 -1.38906,0.33073 -0.0795,0.23865 0.30721,0.33073 1.38906,0.33073 1.08185,0 1.46861,-0.0921 1.38906,-0.33073 z"
         id="path3853"
         inkscape:connector-curvature="0" />
      <path
         style="fill:#6f5848;stroke-width:0.26458332"
         d="m 170.54286,255.42262 v -16.93333 h 16.93333 16.93333 v 16.93333 16.93333 h -7.93749 c -4.36563,0 -7.9431,-0.0893 -7.94995,-0.19843 -0.2187,-3.48806 -0.20547,-3.50573 2.62366,-3.50573 2.04807,0 3.20962,-0.32104 3.20962,-0.8871 0,-0.20406 0.17859,-0.51924 0.39687,-0.7004 0.21829,-0.18116 0.39688,-0.48876 0.39688,-0.68355 0,-0.55075 -1.12239,-1.46562 -1.57821,-1.28641 -0.22339,0.0878 -3.30221,0.27663 -6.84182,0.41957 -4.89314,0.19759 -6.5261,0.18482 -6.81302,-0.0533 -0.26073,-0.21639 -0.37737,-0.88329 -0.37737,-2.15764 0,-1.62529 -0.0632,-1.86099 -0.53206,-1.9836 -0.29319,-0.0767 -0.60844,-0.4516 -0.70219,-0.83512 -0.0936,-0.3828 -0.30064,-0.78347 -0.46013,-0.89038 -0.37532,-0.25158 -2.05339,-0.25158 -2.44348,0 -0.19625,0.12657 -0.33517,1.59514 -0.3982,4.20938 -0.0899,3.72639 -0.1395,4.06044 -0.69079,4.64726 -0.48342,0.51459 -0.59398,0.93689 -0.59398,2.26886 v 1.63659 h -1.5875 -1.5875 z m 19.57917,7.91273 c 0,-0.15914 -0.23813,-0.35162 -0.52917,-0.42773 -0.29104,-0.0761 -0.52917,-0.29035 -0.52917,-0.47609 0,-0.43225 -0.59902,-0.65891 -1.74143,-0.65891 -1.24037,0 -1.18599,0.66273 0.0878,1.06978 0.5457,0.17438 1.10529,0.42174 1.24354,0.54968 0.35804,0.33136 1.46844,0.28846 1.46844,-0.0567 z m 12.03854,-2.73493 c 0,-0.66395 -0.4278,-0.78064 -1.06904,-0.2916 -0.4488,0.34228 -0.46514,0.43159 -0.12159,0.66469 0.58236,0.39513 1.19063,0.20452 1.19063,-0.37309 z m -22.53034,-4.50555 c 0.0815,-0.21235 0.54071,-0.48781 1.0205,-0.61213 0.73736,-0.19107 0.87234,-0.34626 0.87234,-1.00298 v -0.77693 l -2.0095,-0.0765 c -1.54815,-0.059 -2.08646,0.0162 -2.34471,0.32736 -0.47209,0.56884 -0.15544,1.18171 0.77884,1.5074 0.43849,0.15286 0.79724,0.44487 0.79724,0.64891 0,0.49012 0.69598,0.47825 0.88529,-0.0151 z m 10.69023,-0.99914 c 0.1819,-0.14689 0.33073,-0.72647 0.33073,-1.28796 0,-0.8973 -0.0881,-1.04089 -0.7276,-1.18599 -0.40018,-0.0908 -0.97765,-0.4596 -1.28326,-0.81955 -0.46744,-0.55055 -0.61446,-0.59816 -0.92604,-0.29988 -0.20372,0.19501 -0.69781,0.49946 -1.09799,0.67654 -0.51232,0.2267 -0.72761,0.51661 -0.72761,0.97979 0,0.38704 -0.21783,0.7744 -0.52916,0.94103 -0.29105,0.15576 -0.52917,0.37901 -0.52917,0.49612 0,0.19599 1.23806,0.65275 2.51354,0.92733 0.73681,0.15861 2.57828,-0.10582 2.97656,-0.42743 z m 6.33578,0.27209 c 0.70367,-0.25445 0.94018,-0.53085 1.16332,-1.35955 0.21905,-0.81348 0.20218,-1.11807 -0.0774,-1.39766 -0.55511,-0.55511 -3.60406,0.0491 -4.36636,0.86524 -0.32047,0.34312 -0.70742,0.62386 -0.85989,0.62386 -0.31161,0 -0.38861,0.78719 -0.0788,0.80542 0.10914,0.006 0.79375,0.17698 1.52135,0.37902 1.67516,0.46515 1.64536,0.46422 2.69776,0.0837 z m -10.67658,-7.67124 c 0.6112,-0.24062 0.89582,-0.21152 1.51634,0.15503 0.57735,0.34105 0.89012,0.38371 1.2807,0.17467 0.28423,-0.15211 0.73297,-0.27858 0.9972,-0.28103 0.61307,-0.006 2.57717,-1.98092 2.34434,-2.35763 -0.0964,-0.15606 -0.81899,-0.28375 -1.60565,-0.28375 -1.15949,0 -1.4839,0.10019 -1.71348,0.52917 -0.15576,0.29104 -0.49333,0.52917 -0.75014,0.52917 -0.25682,0 -0.58631,0.11936 -0.7322,0.26525 -0.17729,0.17729 -0.78712,0.16771 -1.83886,-0.0289 -1.52529,-0.28513 -4.26399,-0.19189 -5.22786,0.17799 -0.26001,0.0998 -0.43553,0.37469 -0.39003,0.61092 0.0583,0.30286 0.58877,0.51991 1.79892,0.73606 1.81809,0.32475 3.08889,0.258 4.32072,-0.22695 z m 1.64307,-6.31993 c 0.37183,-0.60162 -0.46138,-0.90267 -2.42336,-0.87558 -1.95362,0.027 -2.71751,0.30948 -2.36763,0.87558 0.23694,0.38338 4.55405,0.38338 4.79099,0 z m -0.41112,30.65842 c 0,-0.11456 0.23812,-0.20828 0.52917,-0.20828 0.29104,0 0.52916,0.11166 0.52916,0.24814 0,0.13648 -0.23812,0.2302 -0.52916,0.20828 -0.29105,-0.0219 -0.52917,-0.13359 -0.52917,-0.24814 z"
         id="path3851"
         inkscape:connector-curvature="0" />
      <path
         style="fill:#674a34;stroke-width:0.26458332"
         d="m 170.54286,255.42262 v -16.93333 h 16.93333 16.93333 v 16.93333 16.93333 h -7.88814 -7.88815 l -0.016,-1.70034 -0.016,-1.70034 1.88487,-0.1533 c 1.03668,-0.0843 2.30076,-0.18236 2.80907,-0.21789 0.72543,-0.0507 1.0022,-0.22809 1.28686,-0.82482 0.19945,-0.41814 0.58723,-0.81898 0.86173,-0.89076 0.70424,-0.18416 0.62001,-0.82967 -0.14628,-1.12101 -0.35496,-0.13495 -0.77586,-0.4892 -0.93535,-0.7872 -0.3499,-0.65379 -0.71427,-0.6763 -1.8418,-0.11382 -0.56826,0.28349 -1.76579,0.45993 -3.54638,0.52253 -6.26527,0.22026 -8.87368,0.22711 -9.07758,0.0238 -0.1193,-0.11893 -0.26234,-1.11594 -0.31787,-2.21558 -0.0808,-1.6007 -0.19012,-2.02265 -0.54812,-2.11627 -0.24594,-0.0643 -0.57903,-0.46629 -0.7402,-0.89328 -0.27061,-0.71694 -0.39482,-0.77634 -1.62332,-0.77634 -0.73165,0 -1.39184,0.0996 -1.46707,0.22133 -0.0752,0.12173 -0.18685,1.84072 -0.24803,3.81997 -0.0964,3.11863 -0.1832,3.69014 -0.65074,4.28452 -0.37619,0.47824 -0.59557,1.28419 -0.72472,2.66232 l -0.1852,1.97644 h -1.42413 -1.42412 z m 20.16094,8.2986 c 0.41006,-0.11274 0.40426,-0.16881 -0.0661,-0.63922 -0.2836,-0.28359 -0.51563,-0.68475 -0.51563,-0.89144 0,-0.46619 -3.33064,-0.89731 -3.7434,-0.48454 -0.14514,0.14514 -0.22546,0.66547 -0.17848,1.15628 0.0717,0.74905 0.21291,0.91986 0.87917,1.06348 0.76043,0.16391 2.67794,0.0557 3.62448,-0.20456 z m 11.47101,0.14502 c 0.0978,-0.15821 0.0403,-0.4251 -0.12769,-0.59311 -0.2309,-0.23089 -0.3631,-0.2122 -0.54157,0.0766 -0.25218,0.40803 -0.12502,0.80417 0.25814,0.80417 0.12835,0 0.31335,-0.12943 0.41112,-0.28763 z m -1.20487,-1.69674 c 0,-0.21828 0.21431,-0.39688 0.47625,-0.39688 0.68192,0 1.11125,-0.5232 1.11125,-1.35419 0,-1.51416 -0.75043,-2.09676 -1.32291,-1.02706 -0.15577,0.29104 -0.52088,0.52917 -0.81137,0.52917 -0.67031,0 -0.88098,0.5488 -0.66093,1.72178 0.12783,0.6814 0.30917,0.92405 0.69053,0.92405 0.28445,0 0.51718,-0.17859 0.51718,-0.39687 z m -20.99783,-5.82065 c 0.0837,-0.21819 0.73966,-0.66467 1.45765,-0.99219 1.23585,-0.56376 1.30132,-0.64484 1.22853,-1.52154 l -0.0769,-0.92604 -2.56801,-0.0756 -2.56801,-0.0756 -0.42218,0.81641 c -0.5418,1.04771 -0.31211,1.7458 0.63685,1.9356 0.45793,0.0916 0.80698,0.3623 0.89344,0.69296 0.16699,0.63857 1.18923,0.74375 1.41862,0.14597 z m 16.32235,-0.2422 c 0.079,-0.20587 0.47369,-0.53329 0.87708,-0.72761 1.00025,-0.48181 1.34912,-2.05557 0.69948,-3.15533 -0.48882,-0.82751 -0.99178,-0.994 -1.21844,-0.40334 -0.21273,0.55437 -4.30483,1.09411 -6.05044,0.79804 -1.07422,-0.1822 -1.46781,-0.37903 -1.66733,-0.83381 -0.59186,-1.34905 -2.87858,-0.41237 -3.22965,1.32292 -0.0977,0.48271 -0.31417,0.7276 -0.64329,0.7276 -0.46802,0 -0.53744,0.0958 -0.60193,0.83069 -0.0331,0.37721 2.03468,1.01202 3.31391,1.01738 1.87404,0.008 2.64848,-0.28406 2.93512,-1.10634 0.31594,-0.9063 1.08869,-0.91356 1.2174,-0.0114 0.0489,0.34296 0.27185,0.59429 0.52916,0.59659 0.72435,0.006 2.53485,0.71045 2.64022,1.02657 0.14035,0.42104 1.02901,0.3603 1.19871,-0.0819 z m -7.55675,-7.56319 c 0.18175,-0.29105 0.57541,-0.52917 0.87479,-0.52917 0.29937,0 0.79873,-0.13616 1.10969,-0.30258 0.55075,-0.29475 2.38639,-2.10445 2.24755,-2.21578 -1.21156,-0.97146 -4.50676,-0.74726 -5.38,0.36603 -0.21126,0.26934 -1.05247,0.35739 -3.30729,0.34618 -3.00239,-0.0149 -5.28258,0.35906 -5.45665,0.89497 -0.087,0.26801 1.32155,0.69489 3.42487,1.03792 0.54571,0.089 0.99219,0.27549 0.99219,0.41442 0,0.13892 0.23812,0.25259 0.52917,0.25259 0.29104,0 0.52916,-0.11906 0.52916,-0.26458 0,-0.14552 0.19991,-0.26459 0.44424,-0.26459 0.24433,0 0.85235,-0.14757 1.35115,-0.32794 0.85112,-0.30777 0.94182,-0.28437 1.474,0.38037 0.69261,0.86512 0.75254,0.87602 1.16713,0.21216 z m -0.188,-6.91795 c 1.84904,-0.30536 2.34372,-0.64765 1.24159,-0.85911 -0.32743,-0.0628 -1.28822,-0.26469 -2.1351,-0.44859 -1.3035,-0.28307 -1.98989,-0.26676 -4.47298,0.10629 -1.61326,0.24237 -2.99403,0.5015 -3.06838,0.57584 -0.74675,0.74676 5.083,1.17912 8.43487,0.62557 z"
         id="path3849"
         inkscape:connector-curvature="0" />
      <path
         style="fill:#4c3624;stroke-width:0.26458332"
         d="m 170.54286,255.42262 v -16.93333 h 16.93333 16.93333 v 16.93333 16.93333 h -7.89312 -7.89312 l 0.12074,-1.52135 c 0.0664,-0.83674 0.17521,-1.58088 0.24179,-1.65364 0.0666,-0.0728 1.2722,-0.17368 2.67916,-0.22427 2.63109,-0.0946 3.21956,-0.29528 3.21956,-1.09797 0,-0.30356 0.27413,-0.51853 0.79375,-0.62245 0.55933,-0.11187 0.79375,-0.31255 0.79375,-0.67953 0,-0.28643 0.24186,-0.69019 0.53748,-0.89724 0.58497,-0.40973 1.09546,-1.79808 0.82295,-2.23813 -0.25585,-0.41313 -2.22262,-0.51741 -2.35349,-0.12478 -0.0601,0.18031 0.0792,0.40017 0.30959,0.48858 0.55155,0.21164 0.53958,1.39733 -0.0162,1.61062 -0.39788,0.15268 -0.98648,-0.34737 -1.21466,-1.03192 -0.0448,-0.13427 -0.58076,-0.31112 -1.19113,-0.39298 -1.01549,-0.13621 -1.14636,-0.24474 -1.5409,-1.27783 -0.49797,-1.30389 -0.89267,-1.4496 -3.92675,-1.4496 -1.27221,0 -2.08226,0.13295 -2.47163,0.40568 l -0.5792,0.40569 0.53812,1.03241 c 0.6128,1.17568 1.01741,1.31376 3.76352,1.28439 0.99318,-0.0106 1.93028,0.10518 2.08244,0.25734 0.46078,0.46078 -2.07331,0.68948 -4.3334,0.39109 -1.18503,-0.15645 -2.52367,-0.1777 -3.18156,-0.0505 -0.62467,0.12078 -1.76084,0.22479 -2.52482,0.23112 l -1.38906,0.0115 v -2.01968 c 0,-1.97562 -0.0216,-2.04198 -0.99219,-3.04247 -0.83904,-0.86493 -1.16242,-1.02284 -2.09503,-1.02304 -1.81631,-3.8e-4 -1.93987,0.12225 -1.93987,1.92547 0,1.12171 -0.13175,1.7501 -0.43788,2.08836 -0.40745,0.45023 -0.40745,0.51748 0,0.96771 0.66506,0.73488 0.56843,2.37719 -0.18072,3.07147 -0.49168,0.45568 -0.6545,0.95966 -0.79361,2.45644 -0.0963,1.03573 -0.10281,2.07132 -0.0146,2.30131 0.13452,0.35054 -0.0795,0.41817 -1.32304,0.41817 h -1.48352 z m 33.07292,8.46667 c 0,-0.62145 -0.11668,-0.79375 -0.53747,-0.79375 -0.86897,0 -0.91642,-0.75698 -0.14043,-2.2402 0.65272,-1.2476 0.85527,-2.75782 0.34717,-2.58845 -0.10914,0.0364 -0.55563,0.0661 -0.99219,0.0661 -0.43656,0 -1.02286,0.22911 -1.30289,0.50914 -0.28003,0.28002 -0.75628,0.6414 -1.05834,0.80306 -0.45348,0.24269 -0.54919,0.54705 -0.54919,1.74643 0,1.39625 0.0302,1.45855 0.77931,1.60838 0.53012,0.10602 0.80507,0.33601 0.85989,0.71928 0.0548,0.38301 0.33476,0.61749 0.87434,0.73227 1.56862,0.33365 1.7198,0.28422 1.7198,-0.56231 z m -30.1625,-1.73541 c 0,-0.20969 -0.1786,-0.38126 -0.39688,-0.38126 -0.39852,0 -0.5439,0.55854 -0.22768,0.87475 0.24692,0.24692 0.62456,-0.0515 0.62456,-0.49349 z m 19.88906,-2.40664 c 0.26612,-0.24084 0.48385,-0.65755 0.48385,-0.92604 0,-0.26849 0.1786,-0.48816 0.39688,-0.48816 0.21828,0 0.39687,-0.17441 0.39687,-0.38757 0,-0.45832 0.59601,-0.79822 1.80015,-1.0266 1.26262,-0.23947 2.68231,-1.83874 2.87404,-3.2376 0.13129,-0.95787 0.078,-1.13668 -0.38243,-1.28281 -0.29424,-0.0934 -0.60862,-0.46319 -0.69862,-0.82178 -0.12428,-0.49516 -0.33743,-0.65111 -0.8862,-0.64836 -1.12381,0.006 -1.91319,0.2877 -1.91319,0.68366 0,0.41757 -0.57742,0.56681 -2.76229,0.71396 -1.98526,0.13371 -3.18483,-0.2258 -3.56935,-1.06973 -0.27596,-0.60566 -0.39014,-0.64012 -1.54721,-0.46695 -1.47465,0.2207 -1.64615,0.30603 -1.64615,0.81907 0,0.70938 -1.39142,0.93553 -5.54845,0.90181 -2.25986,-0.0183 -4.25767,-0.0254 -4.43957,-0.0156 -0.21835,0.0117 -0.33073,0.46942 -0.33073,1.34716 0,1.16282 0.0802,1.35997 0.64011,1.57283 0.35205,0.13385 0.739,0.3988 0.85989,0.58877 0.21214,0.33336 0.90085,0.83099 1.62853,1.17668 0.58155,0.27628 2.3522,-0.45509 2.64208,-1.0913 0.19236,-0.42219 0.57184,-0.63083 1.33307,-0.73293 1.28043,-0.17174 4.81881,0.45882 5.09657,0.90824 0.15131,0.24483 0.40507,0.22128 1.07647,-0.0999 1.57735,-0.75456 2.41997,-0.90504 3.59047,-0.64118 1.1099,0.25019 1.12448,0.26827 1.12448,1.39449 0,0.99134 -0.0853,1.16242 -0.65061,1.3043 -0.95994,0.24093 -1.30159,0.75284 -0.94594,1.41737 0.35338,0.66031 0.73415,0.69022 1.37728,0.1082 z m -7.27792,-0.24136 c 0.22582,-0.58849 -0.12854,-0.8208 -1.56479,-1.02584 -1.21062,-0.17284 -1.25677,-0.15525 -1.25677,0.47885 0,0.70461 0.33694,0.87944 1.79424,0.93096 0.5653,0.02 0.92371,-0.11398 1.02732,-0.38397 z m 2.97749,-10.50827 c 0.16819,-0.44235 0.60058,-0.69923 1.61436,-0.95905 0.86098,-0.22066 1.4282,-0.52144 1.49982,-0.7953 0.0633,-0.24224 0.37574,-0.55481 0.6942,-0.6946 0.34934,-0.15334 0.61188,-0.53913 0.66186,-0.97254 0.069,-0.59872 -0.0411,-0.74787 -0.66146,-0.89543 -0.40936,-0.0974 -0.95265,-0.35811 -1.20731,-0.5794 -0.41441,-0.3601 -0.51164,-0.36 -0.92604,9.8e-4 -0.70339,0.61271 -1.69402,0.77066 -6.04124,0.96324 -3.27953,0.14528 -4.07269,0.25876 -4.45067,0.63674 -0.25297,0.25298 -0.62039,0.45996 -0.81649,0.45996 -0.4234,0 -1.98284,0.85519 -1.98524,1.0887 -9.3e-4,0.0895 0.82688,0.36405 1.83955,0.61018 1.01268,0.24613 2.23307,0.64918 2.71198,0.89567 1.14032,0.58689 3.62619,0.55521 3.96519,-0.0505 0.28519,-0.50961 1.27119,-0.57429 1.27119,-0.0834 0,1.01329 1.47288,1.31488 1.8303,0.37478 z m -10.29029,-6.55205 c 0.27353,-0.5111 0.50158,-0.53844 4.0442,-0.48498 4.09667,0.0618 8.63198,-0.22324 9.20711,-0.57869 0.68123,-0.42102 -0.15859,-0.79662 -2.43731,-1.09005 -2.98749,-0.3847 -4.63389,-0.38775 -7.80434,-0.0144 -3.04583,0.35863 -3.5455,0.50215 -3.5455,1.01832 0,0.20271 -0.16014,0.36857 -0.35587,0.36857 -0.45215,0 -1.29115,0.91062 -1.05582,1.14595 0.40019,0.40019 1.66493,0.16337 1.94753,-0.36468 z"
         id="path3847"
         inkscape:connector-curvature="0" />
      <path
         style="fill:#322615;stroke-width:0.26458332"
         d="m 170.54286,255.42262 v -16.93333 h 16.93333 16.93333 v 16.93333 16.93333 h -7.8052 c -4.29287,0 -7.80145,-0.0893 -7.79685,-0.19843 0.005,-0.10914 0.27249,-0.4961 0.59531,-0.8599 0.48201,-0.54319 0.85578,-0.67042 2.09048,-0.71159 1.46454,-0.0488 3.12668,-0.64839 3.12668,-1.12783 0,-0.13108 0.66982,-0.56604 1.48849,-0.96657 1.11098,-0.54356 1.5816,-0.9511 1.85563,-1.60696 0.20193,-0.48329 0.54415,-0.87871 0.76047,-0.87871 0.23776,0 0.39333,-0.24881 0.39333,-0.62907 0,-1.34301 1.4589,-1.62019 2.04886,-0.38927 0.23435,0.48895 0.61775,0.7484 1.29325,0.87512 1.17784,0.22096 1.32866,0.0754 1.56026,-1.50582 0.17291,-1.18044 0.14385,-1.2672 -0.5074,-1.51481 -0.87511,-0.33271 -0.88994,-1.00687 -0.0294,-1.33407 0.62971,-0.23942 0.66146,-0.35339 0.66146,-2.3747 v -2.12322 h -0.81852 c -0.58453,0 -0.85648,0.14517 -0.95132,0.50782 -0.0994,0.38031 -0.46481,0.55348 -1.45512,0.68968 -0.72729,0.10003 -1.42342,0.0799 -1.54696,-0.0448 -0.44424,-0.44827 0.0509,-2.49058 0.70818,-2.92127 0.84889,-0.55621 0.91776,-2.59086 0.095,-2.80602 -0.31908,-0.0834 -0.52916,-0.36089 -0.52916,-0.69886 0,-0.3692 -0.24832,-0.65319 -0.72761,-0.83211 -0.40018,-0.14939 -0.9062,-0.4946 -1.12448,-0.76713 -0.34737,-0.4337 -1.25152,-0.65385 -2.3151,-0.56369 -0.1819,0.0154 -0.33073,0.24235 -0.33073,0.50429 0,0.77929 -0.56063,1.11125 -1.87669,1.11125 -0.85965,0 -1.28855,0.12211 -1.39399,0.39687 -0.23553,0.61377 -0.63267,0.47992 -1.67818,-0.56559 l -0.96248,-0.96248 0.70671,-0.5148 c 0.38869,-0.28314 0.70671,-0.66194 0.70671,-0.84178 0,-0.17984 0.58642,-0.48667 1.30316,-0.68184 0.87053,-0.23705 1.34673,-0.52147 1.43439,-0.85671 0.0722,-0.27601 0.49779,-0.6402 0.9458,-0.8093 0.73217,-0.27636 0.81457,-0.42024 0.81457,-1.42226 0,-1.35104 -0.13714,-1.41307 -3.29624,-1.49092 -2.16339,-0.0533 -2.31624,-0.0201 -2.78848,0.60506 -0.49558,0.65609 -0.53466,0.66166 -4.81423,0.68631 -4.14029,0.0238 -5.7698,0.27459 -5.7698,0.88785 0,0.14538 -0.36372,0.45242 -0.80826,0.6823 -0.73193,0.3785 -0.80065,0.52261 -0.72761,1.52587 0.0613,0.84209 0.20145,1.13084 0.5841,1.20351 0.27689,0.0526 0.61023,-0.0952 0.74075,-0.32845 0.31465,-0.56225 1.25879,-0.54035 1.67983,0.039 0.2699,0.37136 1.00482,0.5154 3.71228,0.72761 1.85667,0.14552 3.41603,0.38672 3.46524,0.53599 0.0492,0.14928 -0.65569,0.48825 -1.56645,0.75328 -0.91076,0.26502 -1.92511,0.6525 -2.25411,0.86105 -0.39039,0.24746 -1.47523,0.39939 -3.12297,0.43735 -2.38656,0.055 -2.55099,0.0235 -3.00337,-0.57499 -0.60351,-0.79843 -1.87443,-0.61801 -1.87443,0.26609 0,0.32638 -0.21452,0.60499 -0.52917,0.68727 -0.7478,0.19556 -0.76869,2.48462 -0.0276,3.02096 0.27588,0.19965 0.57788,0.80389 0.67111,1.34276 0.15099,0.87266 0.0889,1.03021 -0.56774,1.44127 -0.4055,0.25384 -0.78909,0.49976 -0.85242,0.54651 -0.0633,0.0468 -0.1824,0.5836 -0.26459,1.19302 -0.1403,1.04035 -0.21338,1.12129 -1.19665,1.3253 -1.60388,0.33278 -1.60332,0.69414 0.003,2.18941 0.79241,0.73746 1.44074,1.46934 1.44074,1.62639 0,0.15706 -0.36183,1.38353 -0.80407,2.7255 -0.44224,1.34197 -0.73423,2.65998 -0.64888,2.9289 0.23902,0.75308 -0.41876,1.58039 -1.25652,1.58039 h -0.73011 z m 28.575,15.74271 c 0,-0.21828 -0.1786,-0.39687 -0.39688,-0.39687 -0.21828,0 -0.39687,0.17859 -0.39687,0.39687 0,0.21828 0.17859,0.39688 0.39687,0.39688 0.21828,0 0.39688,-0.1786 0.39688,-0.39688 z m -25.53148,-24.67239 c 0.2748,-2.08644 0.42416,-2.69812 0.70055,-2.86894 0.14508,-0.0897 2.07068,-0.21548 4.27912,-0.2796 2.90447,-0.0843 4.08953,-0.21338 4.28348,-0.46644 0.2545,-0.33205 1.77708,-0.48965 10.60429,-1.09757 3.75863,-0.25886 4.06211,-0.82038 0.76925,-1.42334 -1.01865,-0.18653 -1.98493,-0.50538 -2.14729,-0.70856 -0.43893,-0.54928 -8.74851,-0.66112 -9.08316,-0.12225 -0.15632,0.25171 -1.00392,0.43751 -2.57116,0.56363 -2.67425,0.2152 -5.1161,0.71766 -5.1161,1.05274 0,0.12552 -0.32742,0.38466 -0.7276,0.57587 -0.41054,0.19615 -0.76445,0.60598 -0.81216,0.94048 -0.0465,0.32605 -0.24212,0.59283 -0.43471,0.59283 -0.46156,0 -0.65447,0.55451 -0.8527,2.4511 -0.12493,1.19527 -0.0756,1.62476 0.20712,1.80376 0.62916,0.39834 0.73004,0.28486 0.90107,-1.01371 z m 7.20047,17.09636 c -0.20669,-0.49469 -0.4623,-1.49276 -0.56801,-2.21795 -0.10572,-0.72518 -0.35712,-1.57549 -0.55867,-1.88957 -0.28476,-0.44372 -0.29491,-0.62629 -0.0455,-0.81882 0.94465,-0.72933 2.04072,-0.61076 2.04072,0.22076 0,0.28136 0.34173,0.67078 0.79375,0.90453 0.43656,0.22575 0.79375,0.59714 0.79375,0.82531 0,0.22817 0.23812,0.47712 0.52917,0.55323 0.37031,0.0968 0.52916,0.3609 0.52916,0.87963 0,0.40769 0.0583,0.89982 0.12952,1.09363 0.24572,0.66854 -0.31609,1.044 -1.78972,1.1961 l -1.47834,0.15257 z m 12.81723,-0.6385 c -0.43975,-0.96515 -0.38136,-1.38352 0.21974,-1.5743 0.70958,-0.22521 1.06071,0.0353 1.06071,0.78697 0,1.49751 -0.74746,1.95711 -1.28045,0.78733 z m 3.2656,-1.77349 c -0.0632,-0.1819 -0.14877,-0.80698 -0.19014,-1.38906 -0.0691,-0.97256 -0.0216,-1.05834 0.58624,-1.05834 0.57558,0 0.67226,0.13121 0.74467,1.01066 0.10738,1.30411 -0.79291,2.43797 -1.14077,1.43674 z m -10.05495,-2.81113 c -0.53508,-0.11382 -0.81967,-0.34986 -0.8733,-0.72432 -0.0743,-0.51877 0.0726,-0.56497 2.22348,-0.69916 1.73001,-0.10793 2.36201,-0.24908 2.54009,-0.56729 0.27957,-0.49956 1.3659,-0.58336 1.20412,-0.0929 -0.06,0.1819 -0.36687,0.46042 -0.68194,0.61893 -0.31507,0.15851 -0.50438,0.35667 -0.42069,0.44036 0.0837,0.0837 0.0193,0.40048 -0.14317,0.70399 -0.24535,0.45844 -0.52881,0.54653 -1.67508,0.52052 -0.75887,-0.0172 -1.73694,-0.10728 -2.17351,-0.20014 z m -5.04645,-1.708 c -0.2571,-0.66999 0.11257,-0.97097 1.19254,-0.97097 1.54572,0 2.66329,0.29143 2.66329,0.69453 0,0.24609 -0.33173,0.3638 -1.02526,0.3638 -0.56389,0 -1.3955,0.074 -1.84801,0.16455 -0.61142,0.12228 -0.8638,0.0576 -0.98256,-0.25191 z"
         id="path3845"
         inkscape:connector-curvature="0" />
      <path
         style="fill:#261a0e;stroke-width:0.26458332"
         d="m 170.54286,255.42262 v -16.93333 h 16.93333 16.93333 v 16.93333 16.93333 h -7.14374 c -4.58612,0 -7.14375,-0.0947 -7.14375,-0.26458 0,-0.14552 0.37757,-0.26458 0.83906,-0.26458 0.46148,0 1.02703,-0.16078 1.25677,-0.3573 0.22974,-0.19651 1.22661,-0.63709 2.21526,-0.97907 0.98865,-0.34198 1.91576,-0.76421 2.06025,-0.9383 0.29371,-0.35391 1.30157,-0.18848 1.30157,0.21363 0,0.14217 -0.24453,0.32244 -0.5434,0.4006 -0.40386,0.10561 -0.52276,0.32007 -0.46302,0.83512 0.0677,0.58356 0.26181,0.73111 1.22901,0.93415 1.39582,0.29302 1.71102,-0.0305 1.47419,-1.51306 -0.17047,-1.06718 0.26972,-2.5432 0.86737,-2.9084 0.49978,-0.30539 0.42645,-0.79278 -0.19998,-1.32915 -0.63087,-0.54017 -0.58437,-1.32304 0.0863,-1.45219 0.35635,-0.0686 0.45998,0.0946 0.45998,0.72457 0,0.74731 0.0724,0.81315 0.89364,0.81315 0.49151,0 1.04187,0.17859 1.22303,0.39687 0.971,1.16999 1.30255,-0.31287 1.2423,-5.55625 l -0.0517,-4.49791 -1.03311,-0.0846 c -1.49922,-0.12271 -2.27418,0.13323 -2.27418,0.75106 0,0.2895 -0.17766,0.52412 -0.39688,0.52412 -0.2653,0 -0.39687,-0.26531 -0.39687,-0.8003 0,-0.6102 0.15712,-0.86003 0.66146,-1.05178 0.63774,-0.24247 0.66146,-0.33663 0.66146,-2.62614 0,-1.88843 0.0855,-2.42252 0.41774,-2.60843 0.33441,-0.18715 0.44192,-0.88747 0.5389,-3.5104 0.11568,-3.12889 0.0951,-3.29623 -0.45558,-3.71165 -0.44289,-0.33407 -0.53609,-0.597 -0.40157,-1.13295 0.0963,-0.38386 0.3515,-0.69793 0.567,-0.69793 0.21551,0 0.39184,-0.17859 0.39184,-0.39688 0,-0.21828 -0.16996,-0.39687 -0.3777,-0.39687 -0.20773,0 -0.68046,-0.38695 -1.0505,-0.8599 l -0.6728,-0.85989 -3.91044,-0.13229 c -2.15074,-0.0728 -6.93902,-0.1118 -10.64063,-0.0868 -6.50593,0.044 -6.74419,0.0641 -7.15036,0.60257 -0.33832,0.44853 -0.83113,0.59426 -2.53022,0.74821 -1.88835,0.1711 -2.1186,0.25112 -2.19135,0.76161 -0.0478,0.33576 -0.33156,0.63325 -0.68964,0.72312 -0.49505,0.12425 -0.65239,0.41225 -0.84476,1.54624 -0.20047,1.18177 -0.33164,1.40702 -0.86314,1.48222 l -0.62675,0.0887 0.13633,3.08634 c 0.075,1.69748 0.22092,3.29469 0.32432,3.54935 0.34261,0.84378 0.91075,0.51388 1.09456,-0.63557 0.0966,-0.60422 0.36591,-1.29245 0.59844,-1.52939 0.64156,-0.65376 1.03075,-1.60766 1.21043,-2.96671 0.12356,-0.93459 0.29109,-1.2627 0.69924,-1.36943 0.29521,-0.0772 0.60248,-0.39174 0.68282,-0.69898 0.13645,-0.52176 0.29659,-0.5536 2.42776,-0.48265 2.38593,0.0794 3.02914,0.47465 1.24456,0.76473 -1.1195,0.18197 -2.5143,1.53109 -2.52764,2.44485 -0.004,0.26829 -0.24654,0.5504 -0.53917,0.62693 -0.66396,0.17363 -0.9354,1.16354 -0.52786,1.92503 0.25548,0.47737 0.22548,0.63804 -0.17594,0.94227 -0.26616,0.20173 -0.685,0.37056 -0.93074,0.37519 -0.32667,0.006 -0.49626,0.33815 -0.6307,1.23468 -0.25028,1.66896 0.0434,4.89204 0.47042,5.16294 0.24246,0.15381 0.18208,0.21846 -0.20669,0.22133 -0.65246,0.005 -1.69977,1.04078 -1.69977,1.68136 0,0.29379 -0.28584,0.50975 -0.81467,0.61552 l -0.81468,0.16294 0.13472,1.61638 c 0.28018,3.36147 0.61023,4.39452 1.40405,4.39452 0.2879,0 0.31069,-0.11791 0.0992,-0.51311 -0.30515,-0.57017 0.0277,-0.95403 0.6276,-0.72383 0.49488,0.18991 0.15181,2.16298 -0.3761,2.16298 -0.31637,0 -0.407,0.5254 -0.46779,2.71198 l -0.0754,2.71197 h -0.7845 -0.78449 z m 11.17865,8.55602 c -0.21636,-0.0873 -0.33073,-0.72056 -0.33073,-1.83119 0,-1.50162 0.0591,-1.69774 0.51133,-1.69774 0.28124,0 0.58118,0.22005 0.66655,0.48901 0.0854,0.26896 0.45057,0.62359 0.81158,0.78808 0.4809,0.21911 0.65637,0.50585 0.65637,1.0726 0,0.62976 -0.15488,0.82753 -0.83323,1.06401 -0.89556,0.31219 -0.9779,0.31859 -1.48187,0.11523 z m 6.94531,-6.17477 -1.05834,-0.18949 1.27239,-0.0376 c 0.78937,-0.0233 1.21031,0.0629 1.10886,0.22704 -0.0899,0.14552 -0.18626,0.24769 -0.21405,0.22704 -0.0278,-0.0206 -0.52678,-0.12282 -1.10886,-0.22704 z m -9.92188,-6.44989 c 0,-0.20047 -0.19082,-0.52285 -0.42404,-0.7164 -0.38613,-0.32046 -0.37909,-0.3884 0.0788,-0.76 0.40824,-0.33131 1.03325,-0.38319 3.32231,-0.27579 2.97974,0.13981 3.90887,0.48831 2.83464,1.06322 -0.32731,0.17517 -1.47999,0.31849 -2.56153,0.31849 -1.43394,0 -2.00461,0.0995 -2.10743,0.36748 -0.18287,0.47654 -1.14274,0.47906 -1.14274,0.003 z m 11.96036,-1.1871 c 0.0447,-0.23804 0.34114,-0.54717 0.65876,-0.68696 0.31761,-0.1398 0.62847,-0.44916 0.69079,-0.68748 0.0623,-0.23833 0.4768,-0.50601 0.92105,-0.59486 0.49081,-0.0982 0.87498,-0.37344 0.97913,-0.70159 0.24373,-0.7679 0.89386,-0.6682 1.21898,0.18692 0.21437,0.56384 0.18322,0.88469 -0.13884,1.42989 -0.22837,0.38661 -0.41523,0.87352 -0.41523,1.08203 0,0.29448 -0.446,0.38198 -1.99795,0.39198 -1.7105,0.011 -1.98627,-0.0494 -1.91669,-0.41993 z m 8.41256,-0.6962 c -0.89483,-0.32134 -0.9305,-0.38645 -1.05833,-1.93179 -0.0931,-1.12563 -0.29831,-1.78177 -0.69288,-2.21557 -0.30833,-0.33898 -0.63404,-0.92789 -0.72381,-1.30869 -0.17968,-0.76224 -1.03072,-1.01896 -3.39635,-1.02451 -0.68263,-0.002 -1.31001,-0.11434 -1.39418,-0.25052 -0.15908,-0.2574 0.76263,-0.41376 4.04251,-0.68576 l 1.93635,-0.16058 0.90792,0.96269 c 0.50284,0.53316 0.90794,1.23975 0.90794,1.58366 0,0.94176 0.27233,1.45801 0.76914,1.45801 0.76499,0 1.08294,0.58262 1.08294,1.98438 0,1.971 -0.46072,2.27837 -2.38125,1.58868 z m -14.55208,-5.30661 c 0,-0.0803 0.35718,-0.27057 0.79375,-0.42276 0.50677,-0.17666 0.79375,-0.45866 0.79375,-0.77999 0,-0.45609 0.21585,-0.50328 2.30187,-0.50328 1.41181,0 2.20468,0.0944 2.05052,0.24422 -0.13824,0.13433 -0.60854,0.28316 -1.0451,0.33073 -0.58881,0.0642 -0.81558,0.24021 -0.8783,0.68182 -0.079,0.55636 -0.21317,0.59531 -2.05052,0.59531 -1.08129,0 -1.96597,-0.0657 -1.96597,-0.14605 z"
         id="path3843"
         inkscape:connector-curvature="0" />
    </g>
  </g>
</svg>
