<svg xmlns="http://www.w3.org/2000/svg" width="220" height="220" viewBox="0 0 58.21 58.21" shape-rendering="crispEdges"><path d="M0 29.1V0h58.21v58.2H0z" fill="#fcc046"/><path d="M0 29.1V0h58.21v58.2h-29.1v-5.28h-2.65v-2.65h5.29v-2.64H21.17v2.64h-2.65v-2.64h-5.29V37.04h-2.65v21.17H0z" fill="#f6bc45"/><path d="M0 29.1V0h58.21v58.2h-29.1v-7.93h7.93v-2.64h5.29v-2.65H31.75v2.65H15.88v-2.65h-2.65V34.4h-2.65v13.23H7.94V58.2H0z" fill="#c99b82"/><path d="M0 29.1V0h58.21v58.2h-29.1v-7.93h7.93v-2.64h5.29v-2.65H31.75v2.65H15.88v-2.65h-2.65V34.4h-2.65v13.23H7.94V58.2H0zm31.75-2.64V23.8h-2.64v5.29h2.64z" fill="#c2937a"/><path d="M0 29.1V0h58.21v58.2h-29.1v-7.93h7.93v-2.64h5.29v-2.65H31.75v2.65H15.88v-2.65h-2.65V34.4h-2.65v13.23H7.94V58.2H0zm18.52-1.32v-1.32h-2.64v2.64h2.64zm15.88-1.32V23.8h-5.3v5.29h5.29z" fill="#d6a741"/><path d="M0 29.1V0h58.21v58.2h-29.1v-7.93h7.93v-2.64h5.29v-2.65H29.11v2.65H15.88v-2.65h-2.65V34.4h-2.65v10.58H7.94v13.23H0zm18.52-1.32v-1.32h-2.64v2.64h2.64zm15.88-1.32V23.8h-5.3v5.29h5.29z" fill="#b7886d"/><path d="M0 29.1V0h58.21v58.2h-29.1v-7.93h7.93v-2.64h5.29v-2.65H29.11v2.65H15.88v-2.65h-2.65V34.4h-2.65v10.58H7.94v13.23H0zm18.52-2.64V23.8h-2.64v5.29h2.64zm15.88 0V23.8h-5.3v5.29h5.29zm-7.94-11.9v-1.33h-5.29v2.64h5.29z" fill="#c59a3e"/><path d="M0 29.1V0h58.21v58.2h-29.1v-2.64h2.64v-2.64h-2.64v-2.65h10.58v-2.64h2.64v-2.65H26.46v2.65H15.88v-5.3h-2.65V34.4H7.94v2.64h2.64v7.94H7.94v13.23H0zm18.52-2.64V23.8h-2.64v5.29h2.64zm15.88 0V23.8h-5.3v5.29h5.29zm-7.94-11.9v-1.33h-5.29v2.64h5.29z" fill="#9f8276"/><path d="M0 29.1V0h58.21v58.2h-29.1v-2.64h2.64v-2.64h-2.64v-2.65h10.58v-2.64h2.64v-2.65H26.46v2.65H15.88v-5.3h-2.65V34.4H7.94v2.64h2.64v7.94H7.94v13.23H0zm18.52-2.64V23.8h-2.64v5.29h2.64zm15.88 0V23.8h-5.3v5.29h5.29zm-7.94-11.9v-1.33h-5.29v2.64h5.29zm2.65-10.6v-1.3h-5.3V5.3h5.3z" fill="#a6795d"/><path d="M0 29.1V0h58.21v58.2h-29.1v-2.64h2.64v-2.64h-2.64v-2.65h10.58v-2.64h2.64v-2.65H26.46v2.65H15.88v-5.3h-2.65V34.4H7.94v2.64h2.64v7.94H7.94v13.23H0zm21.17-2.64V23.8h-5.29v5.29h5.29zm13.23 0V23.8h-5.3v5.29h5.29zm10.58 0V23.8h-2.65v5.29h2.65zm-18.52-11.9v-1.33h-5.29v2.64h5.29zm7.94 0v-1.33h-5.3v2.64h5.29zm-5.3-10.6v-1.3h-5.29V5.3h5.3z" fill="#af8b3c"/><path d="M0 29.1V0h58.21v58.2h-29.1v-2.64h2.64v-2.64h-2.64v-2.65h10.58v-2.64h2.64v-2.65H21.17v2.65h-2.65v-2.65h-2.64v-5.29h-2.65V34.4H7.94v23.8H0zm21.17-2.64V23.8h-5.29v5.29h5.29zm13.23 0V23.8h-5.3v5.29h5.29zm10.58 0V23.8h-2.65v5.29h2.65zm-18.52-11.9v-1.33h-5.29v2.64h5.29zm7.94 0v-1.33h-5.3v2.64h5.29zm-5.3-10.6v-1.3h-5.29V5.3h5.3z" fill="#997664"/><path d="M0 29.1V0h58.21v58.2h-29.1v-2.64h2.64v-2.64h-2.64v-2.65h10.58v-2.64h2.64v-2.65H21.17v2.65h-2.65v-2.65h-2.64v-5.29h-2.65V34.4H7.94v23.8H0zm21.17-2.64V23.8h-5.29v5.29h5.29zm13.23 0V23.8h-7.94v5.29h7.94zm10.58 0V23.8h-2.65v5.29h2.65zm-18.52-11.9v-1.33h-5.29v2.64h5.29zm7.94 0v-1.33h-5.3v2.64h5.29zm-5.3-10.6v-1.3h-5.29V5.3h5.3z" fill="#926751"/><path d="M0 29.1V0h58.21v58.2h-29.1v-2.64h2.64v-2.64h-2.64v-2.65h10.58v-2.64h2.64v-2.65H21.17v2.65h-2.65v-2.65h-2.64v-5.29h-2.65V34.4H7.94v23.8H0zm21.17-2.64V23.8h-7.94v5.29h7.94zm13.23-1.32v-3.97h-5.3v2.64h-2.64v5.29h7.94zm10.58 2.64v-1.32h2.65V23.8h-7.94v5.29h5.29zm-7.94-14.55v-2.65H34.4v2.65H18.52v2.64h18.52zm-7.93-9.26V2.65h-5.3v2.64h5.3z" fill="#8b6f39"/><path d="M0 29.1V0h58.21v58.2h-29.1v-2.64h2.64v-5.29h10.58v-5.29H15.88v-7.94h-2.65V34.4H7.94v23.8H0zm21.17-2.64V23.8h-7.94v5.29h7.94zm13.23-1.32v-3.97h-5.3v2.64h-2.64v5.29h7.94zm10.58 2.64v-1.32h2.65V23.8h-7.94v5.29h5.29zm-7.94-14.55v-2.65H34.4v2.65H18.52v2.64h18.52zm-7.93-9.26V2.65h-5.3v2.64h5.3z" fill="#7b6354"/><path d="M0 29.1V0h58.21v58.2h-29.1v-2.64h2.64v-5.29h10.58v-5.29H15.88v-7.94h-2.65V34.4H7.94v23.8H0zm34.4 11.91V39.7h-5.3v2.64h5.29zm21.16-5.3V34.4h-5.29v2.64h5.29zm-34.4-9.25V23.8h-7.93v5.29h7.94zm13.24-1.32v-3.97h-5.3v2.64h-2.64v5.29h7.94zm10.58 2.64v-1.32h2.65V23.8h-7.94v5.29h5.29zm-7.94-14.55v-2.65H34.4v2.65H18.52v2.64h18.52zM34.4 3.97V2.65H21.17v2.64H34.4z" fill="#855943"/><path d="M0 29.1V0h58.21v58.2h-29.1v-2.64h2.64v-5.29h10.58v-5.29H15.88v-7.94h-2.65V34.4H7.94v23.8H0zm34.4 10.6v-2.65h-7.94v2.65h2.64v2.64h5.29zm21.16-3.97V34.4h-5.29v2.64h5.29zm-34.4-9.26V23.8h-7.93v5.29h7.94zm26.47-1.32v-3.97h-2.65v2.64H34.4v-2.64h-5.3v2.64h-2.64v5.29h21.17zM37.04 13.23v-2.65h-7.93v2.65H15.88v2.64h21.16zM34.4 3.97V2.65H21.17v2.64H34.4z" fill="#7a6537"/><path d="M0 29.1V0h58.21v58.2H31.75v-7.93h10.58v-2.64h2.65v-2.65h-2.65v-2.65H39.7v2.65H15.88v-7.94h-2.65V34.4H7.94v15.87H5.29v7.94H0zm34.4 10.6v-2.65h-7.94v2.65h2.64v2.64h5.29zm21.16-3.97V34.4h-5.29v2.64h5.29zm-34.4-9.26V23.8h-7.93v5.29h7.94zm26.47-1.32v-3.97h-2.65v2.64H34.4v-2.64h-5.3v2.64h-2.64v5.29h21.17zM37.04 13.23v-2.65h-7.93v2.65H15.88v2.64h21.16zM34.4 3.97V2.65H21.17v2.64H34.4z" fill="#7b543b"/><path d="M0 29.1V0h58.21v58.2H31.75v-7.93h10.58v-2.64h2.65v-2.65h-2.65v-2.65H39.7v2.65H15.88v-7.94h-2.65V34.4H7.94v15.87H5.29v7.94H0zm37.04 11.91V39.7H34.4v-2.66h-7.94v2.66h2.64v2.64h7.93zm18.52-5.3V34.4h-5.29v2.64h5.29zm-37.04-5.28V29.1h5.29v-5.29H13.23v5.29h2.65v2.65h2.64zm29.1-5.3v-3.96h-5.29v2.64H34.4v-2.64h-7.94v7.93h21.17zM26.47 17.2v-1.33h2.63v2.65h2.64v-2.65h5.29v-2.64h2.67v-2.65H29.1v2.65H15.88v2.64h7.93v2.65h2.65zM34.4 3.97V2.65H21.17v2.64H34.4z" fill="#6e5443"/><path d="M0 29.1V0h58.21v58.2H31.75v-7.93h10.58v-2.64h2.65v-2.65h-2.65v-2.65h-5.29v2.65H15.88v-7.94h-2.65V34.4H7.94v15.87H5.29v7.94H0zm37.04 11.91V39.7H34.4v-2.66h-7.94v5.29h10.58zm18.52 0V39.7h-2.64v-2.66h2.64V34.4h-5.29v5.29h2.65v2.64h2.64zM18.52 30.43V29.1h5.29v-5.29H13.23v5.29h2.65v2.65h2.64zm29.1-5.3v-3.96h-5.29v2.64H34.4v-2.64h-7.94v7.93h21.17zM26.47 17.2v-1.33h2.63v2.65h2.64v-2.65h5.29v-2.64h2.67v-2.65H29.1v2.65H15.88v2.64h7.93v2.65h2.65zM15.88 6.6V5.3h-2.65v2.64h2.65zm21.16-2.64V2.65H18.52v2.64h18.52z" fill="#754c38"/><path d="M0 29.1V0h58.21v58.2H31.75v-7.93h10.58v-2.64h2.65v-2.65h-2.65v-2.65h-5.29v2.65H15.88v-7.94h-2.65V34.4H7.94v15.87H5.29v7.94H0zm37.04 10.6v-2.65H26.45v5.29h10.6zM47.63 41v-1.3h-2.65v2.64h2.65zm7.93 0v-1.3h-2.64v-2.66h2.64V34.4h-5.29v5.29h2.65v2.64h2.64zM18.52 30.43V29.1h23.81v2.65h2.65V29.1h2.65v-7.93h-5.3v2.64H34.4v-2.64h-7.94v2.64H13.23v5.29h2.65v2.65h2.64zm7.94-13.23v-1.33h2.64v2.65h5.29v-2.65h2.64v-2.64h2.67v-2.65H21.17v2.65h-5.29v2.64h7.93v2.65h2.65zM15.88 6.6V5.3h-2.65v2.64h2.65zm21.16-2.64V2.65H18.52v2.64h18.52z" fill="#843c2c"/><path d="M0 29.1V0h58.21v39.69h-5.29v2.64h5.29v15.88H31.75v-7.94h10.58v-2.64h2.65v-2.65h-2.65v-2.65h-5.29v2.65H15.88v-7.94h-2.65V34.4H7.94v15.87H5.29v7.94H0zm37.04 10.6v-2.65H26.45v5.29h10.6zM47.63 41v-1.3h-2.65v2.64h2.65zm5.29-2.65v-1.32h2.64V34.4h-5.29v5.29h2.65zm-34.4-7.93V29.1h23.81v2.65h2.65V29.1h2.65v-7.93h-5.3v2.64H34.4v-2.64h-7.94v2.64H13.23v5.29h2.65v2.65h2.64zm7.94-13.23v-1.33h2.64v2.66h5.29v-2.65h2.64v-2.64h2.67v-2.65H21.17v2.65h-5.29v2.64h7.93v2.65h2.65zM15.88 6.6V5.3h-2.65v2.64h2.65zm21.16-2.64V2.65H18.52v2.64h18.52z" fill="#66432d"/><path d="M0 29.1V0h58.21v39.69h-5.29v2.64h5.29v15.88H31.75v-7.94h10.58v-2.64h2.65v-2.65h-2.65v-2.65h-5.29v2.65H15.88v-7.94h-2.65V34.4H7.94v15.87H5.29v7.94H0zm47.63 13.23V39.7h-5.3v2.64h2.65v2.64h2.65zM37.04 39.7v-2.65H26.45v5.29h10.6zm15.88-1.33v-1.32h2.64v-5.29h-2.64v2.64h-2.65v5.29h2.65zm-31.75-7.93V29.1h18.52v2.65h5.29V29.1h2.65v-7.93h-7.94v2.64H34.4v-2.64h-7.94v2.64H10.58v5.29h5.3v2.65h5.29zm5.29-13.23v-1.33h2.64v2.64h5.29v-2.65h2.64v-2.64h2.67v-2.65H18.52v2.65h-5.29v2.64h7.94v2.65h5.29zM15.88 6.6V5.3h-2.65v2.64h2.65zm21.16-2.64V2.65H18.52v2.64h18.52z" fill="#554333"/><path d="M0 29.1V0h26.46v2.65H13.23v2.64H7.94v2.65h10.59V5.29h21.16V2.65H29.1V0h29.1v31.75h-5.29v2.65h-2.64v5.29h2.65v2.64h2.64v2.65h2.65v13.23H31.75v-7.94h10.58v-2.64h2.65v-2.65h-2.65v-2.65h-5.29v-5.29H26.45v5.29h-2.64v2.65h-5.29v-7.94h-5.29V34.4H7.94v2.64H5.29v2.66h2.65v7.94H5.29V58.2H0zm47.63 13.23V39.7h-2.65v-5.3h-2.65v-2.65h2.65V29.1h2.65v-7.93h-7.94v2.64H34.4v-2.64h-7.94v2.64H10.58v5.29h5.3v2.65h5.29V29.1h18.52v2.65h-2.65v5.29h2.66V34.4h2.64v7.93h2.64v2.65h2.65zm-21.17-9.26v-1.32H23.8v2.65h2.66zm0-15.87v-1.33h2.64v2.65h5.29v-2.65h2.64v-2.64h2.67v-2.65H18.52v2.65h-5.29v2.64h7.94v2.65h5.29zm5.3 26.46v-1.33h2.64v2.65h-2.65zm23.8-5.3v-1.32h2.65v2.66h-2.65z" fill="#613d2a"/><path d="M0 29.1V0h26.46v2.65H13.23v2.64H7.94v2.65h10.59V5.29h21.16V2.65H29.1V0h29.1v31.75h-5.29v2.65h-2.64v5.29h2.65v2.64h2.64v2.65h2.65v13.23H31.75v-7.94h10.58v-2.64h2.65v-2.65h-2.65v-2.65h-5.29v-5.29H26.45v5.29h-2.64v2.65h-5.29v-7.94h-5.29V34.4H7.94v2.64H5.29v2.66h2.65v7.94H5.29V58.2H0zm47.63 13.23V39.7h-2.65v-5.3h-2.65v-2.65h5.3V29.1h2.64v-5.29h-2.64v-2.64H26.46v2.64H13.23v-2.64h-2.65v7.93h2.65v2.65h7.94V29.1h18.52v2.65h-2.65v5.29h2.66V34.4h2.64v7.93h2.64v2.65h2.65zm-21.17-9.26v-1.32H23.8v2.65h2.66zM34.4 17.2v-1.33h2.64v-2.64h2.66v-2.65H18.52v2.65h-5.29v2.64h7.94v2.65H34.4zm-2.65 26.46v-1.33h2.65v2.65h-2.65zm23.81-5.3v-1.32h2.65v2.66h-2.65z" fill="#553924"/><path d="M0 29.1V0h26.46v2.65H13.23v2.64H7.94v2.65h10.59V5.29h21.16V2.65H29.1V0h29.1v31.75h-5.29v2.65h-2.64v2.64h-2.64v2.66h5.29v2.64h2.64v2.64h2.65v13.23H31.75v-7.94h10.58v-2.64h2.65v-2.65h-2.65v-2.65H39.7V39.7h-2.66v-2.66h-7.93V34.4h-2.65v7.93H23.8v2.65h-5.29v-7.94h-5.29V34.4H7.94v2.64H5.29v2.66h2.65v7.94H5.29V58.2H0zm47.63 13.23V39.7h-2.65v-5.3h-2.65v-2.65h5.3V29.1h2.64v-7.93h-5.29v-2.65h-2.65v2.65H34.4v-5.3h5.29V7.94H34.4v2.64H15.88v2.65h-2.65v2.64h5.29v2.65h10.59v2.65H18.52v2.64h-2.64v-2.64h-5.3v10.58h10.59V29.1h7.94v2.65h2.64V29.1h7.94v2.65h-2.65v5.29h2.66V34.4h2.64v7.93h2.64v2.65h2.65zm-21.17-9.26v-1.32H23.8v2.65h2.66zm5.3 10.59v-1.33h2.64v2.65h-2.65zm23.8-5.3v-1.32h2.65v2.66h-2.65z" fill="#453426"/><path d="M0 29.1V0h23.81v2.65H10.58v2.64H7.94v2.65H23.8V5.29h21.17V2.65h-7.94V0H58.2v31.75H47.63v5.29h-2.65v-5.29h2.65V29.1h2.64v-7.93h-5.29v-2.65h-2.65v2.65H34.4v-5.3h5.29V7.94H34.4v2.64H15.88v2.65h-2.65v2.64h5.29v2.65h10.59v2.65H18.52v2.64h-2.64v-2.64h-5.3v10.58H7.94v5.29H2.65v2.66h2.64v2.64h2.65v5.3H5.29V58.2H0zm7.94-17.2V7.95H5.29v7.93h2.65zm23.81 43.66v-2.64h2.65v-2.65h7.93v-2.64h5.3v-2.65h2.64v-2.65h-2.64V39.7h5.29v5.29h5.29v13.23H31.75zm-13.23-17.2V34.4h-5.29v-2.65h7.94V29.1h7.94v2.65h2.64V29.1h5.29v2.65H34.4v2.65h-5.3v-2.65h-7.94v2.65h5.29v7.93h-7.94zm21.17 2.65V39.7h-2.65v-2.66h5.29v5.29H39.7zm15.87-2.65v-1.32h2.65v2.66h-2.65z" fill="#46321a"/><path d="M0 29.1V0h23.81v2.65H10.58v2.64H7.94v2.65H23.8V5.29h21.17V2.65h-7.94V0H58.2v31.75h-7.94V29.1h2.66v-5.29h-2.65v-2.64h-2.64v-2.65h-5.3v2.65H34.4v-2.65h2.64v-2.65h2.66v-2.64h2.64V7.94H34.4v2.64H15.88v2.65h-2.65v2.64h-2.65v2.65h5.3v-2.65h2.64v2.65h10.59v2.65H10.58v2.64H7.94v5.29h2.64v2.65H7.94v5.29H2.65v2.66h2.64v2.64h2.65v5.3H5.29V58.2H0zm7.94-17.2V7.95H5.29v7.93h2.65zm23.81 43.66v-2.64h2.65v-2.65h7.93v-2.64h5.3v-2.65h2.64v-2.65h-2.64V39.7h5.29v5.29h5.29v13.23H31.75zm18.52-1.32v-1.32h-2.64v2.64h2.64zm-31.75-17.2v-5.29h2.65V29.1h2.64v2.65h-2.64v2.65h2.64v2.64h2.65v5.29h-7.94zM39.7 39.7v-2.65h2.64v5.29H39.7zm15.87-1.33v-1.32h2.64v2.65h-2.65zm-10.58-2.64V34.4h2.64v2.64h-2.65zm-31.75-2.65v-1.32h2.64v2.64h-2.65zm15.88 0v-1.32h5.29v2.64H29.1z" fill="#3a3126"/><path d="M0 29.1V0h23.81v2.65H10.58v2.64H7.94v2.65H5.29v7.93h2.65v-5.29h2.64V7.94h13.23V5.29h23.81V2.65H37.05V0h21.17v31.75h-7.94V29.1h2.64v-5.29h-2.65v-2.64h-2.64v-2.65h-5.3v2.65H34.4v-2.65h2.64v-2.65h2.66v-2.64h2.64V7.94H34.4v2.64H15.88v2.65h-2.65v2.64h-2.65v2.65h5.3v-2.65h2.64v2.65h10.59v2.65H10.58v2.64H7.94v5.29h2.64v2.65H7.94v2.65H5.29v2.64H2.65v2.66h2.64v2.64h2.65v5.3H5.29V58.2H0zm31.75 27.8v-1.33h2.65v-2.64h7.93v-2.66h5.3v-5.29h2.64v-2.65h2.65v2.65h5.29v13.23H31.75zm18.52-2.65v-1.32h-2.64v2.64h2.64zm-31.75-17.2v-5.29h2.65V29.1h2.64v2.65h-2.64v2.65h2.64v2.64h2.65v5.29h-7.94zM39.7 39.7v-2.65h2.64v5.29H39.7zm15.87-1.33v-1.32h2.64v2.65h-2.65zm-26.45-5.29v-1.32h5.29v2.64H29.1z" fill="#362918"/><path d="M0 29.1V0h15.88v2.65H7.94v2.64H5.29v5.29H2.65v10.59h2.64v-5.3h2.65v-5.29h2.64V7.94h10.59v2.64h-7.94v5.29h-2.65v2.65h15.88v2.65H7.94v10.58H5.29v2.65H2.65v5.29h2.64V58.2H0zm31.75 27.8v-1.33h5.29v-2.64h5.29v-2.66h5.3v5.29h2.64V42.33h2.65v2.65h5.29v13.23H31.75zM21.17 41v-1.3h-2.65v-5.3h5.29v7.93h-2.64zm18.52-2.65v-1.32h2.64v2.67H39.7zm15.87 0v-1.32h2.65v2.67h-2.65zm-5.29-7.93V29.1h2.65v-7.93h-2.65v-2.65h-2.64v-7.94h-2.65V7.94H34.4v2.64H23.8V7.94h2.66V5.29h23.81v5.29h2.65V2.65h-2.65V0h7.94v29.1h-2.65v2.65h-5.29zM34.4 19.84v-1.32h2.64v-2.65h2.66v-2.64h5.29v5.29h-2.66v2.65H34.4zm7.93-18.52V0h2.65v2.65h-2.65z" fill="#2c2212"/><path d="M0 29.1V0h15.88v2.65H7.94v2.64H5.29v5.29H2.65v13.23h2.64v-5.29h2.65v-7.94h2.64V7.94h7.94v2.64h-5.29v5.29h-2.65v5.3H7.94v10.58H5.29v2.65H2.65v10.58h2.64v13.23H0zm31.75 27.8v-1.33h5.29v-2.64h7.94v-2.66h2.65v2.65h-2.65v2.64h5.29v-7.93h2.65v-2.65h-2.65v-2.65h2.65v2.65h2.64v2.65h2.65V58.2H31.75zM21.17 41v-1.3h-2.65v-5.3h2.65v2.64h2.64v5.29h-2.64zm18.52-2.65v-1.32h2.64v2.67H39.7zm10.58-7.93V29.1h2.65v-7.93h2.64V7.94h-2.64V5.29h2.64V2.65h-2.64V0h5.29v29.1h-5.29v2.65h-2.65zm-34.4-10.59v-1.32h10.59v2.66H15.88zm23.82 0v-1.32h-2.65v-2.64h2.66v-2.64h2.64v7.94H39.7zm7.94-5.29v-3.97h-2.65V7.94H31.75v2.64h-5.29V7.94h2.64V5.29h18.52v2.65h2.64v5.29h2.66v5.29h-5.29z" fill="#29210d"/><path d="M0 29.1V0h5.29v2.65h2.65V0h7.94v2.65H7.94v2.64H5.29v5.29H2.65v13.23h2.64v-5.29h2.65v-7.94h2.64V7.94h7.94v2.64h-5.29v5.29h-2.65v5.3H7.94v10.58H5.29v2.65H2.65v13.23h2.64V58.2H0zm31.75 27.8v-1.33h7.94v-2.64h5.29v2.64h5.29v-5.29h2.65v-5.29h-2.65v-2.66h2.65v2.65h2.64v2.65h2.65V58.2H31.75zM21.17 39.7v-2.65h2.64v5.29h-2.64zm31.75-14.55v-3.97h2.64V7.94h-2.64V5.29h2.64V2.65h-2.64V0h5.29v29.1h-5.29zm-37.04-5.3v-1.32h10.58v2.64H15.88zm21.16-2.64v-1.33h5.29v2.64h-5.29zm10.59-3.97v-5.3H31.75v2.65h-5.29V7.94h2.64V5.29h18.52v2.65h2.64v5.29h2.66v5.29h-5.29z" fill="#241c14"/><path d="M0 48.95v-9.26h2.65v7.94h2.64v2.64H2.65v7.94H0zm34.4 7.94v-1.33h5.29v-2.64h5.29v2.64h5.29v-5.29h2.65v-5.29h-2.65v-2.65h2.65v2.65h2.64v2.65h2.65V58.2H34.4zm-13.23-17.2v-2.65h2.64v5.29h-2.64zM0 17.19V0h5.29v2.66h2.65V0h7.94v2.65H7.94v2.64H5.29v5.29H2.65v13.23h2.64v-5.29h2.65v-7.94h2.64V7.94h7.94v2.64h-5.29v5.29h-2.65v5.3H7.94v10.58H5.29v2.65H0zm52.92 9.27V23.8h2.64V13.22h2.65V29.1h-5.29zm-37.04-6.62v-1.32h2.64v2.65h-2.64zm5.29 0v-1.32h5.29v2.65h-5.29zm15.87-2.64v-1.33h5.29v2.65h-5.29zm10.59-3.97v-5.3h-5.3V5.3h5.3v2.64h2.64v5.29h2.65v5.29h-5.29zm5.29-11.9V0h5.29v2.65h-5.29z" fill="#24180c"/><path d="M0 54.24v-3.97h2.65v7.94H0zm34.4 2.65v-1.33h7.93v-2.64h2.65v2.64h5.29v-5.29h2.65v-2.64h5.29V58.2H34.4zM0 44.98v-2.65h2.65v5.3H0zm21.17-6.62v-1.32h2.64v2.66h-2.64zM0 27.78v-1.32h2.65v2.64H0zm55.56-3.97v-5.29h2.65V29.1h-2.65zM0 18.52v-2.65h2.65v5.3H0zm21.17 1.32v-1.32h2.64v2.65h-2.64zM7.94 15.87v-2.64h2.64v-2.65h2.65v2.65h-2.65v5.29H7.94zm42.33 0v-2.64h2.65v5.29h-2.65zM0 10.58V7.94h2.65v5.29H0zm47.63-1.32V7.94h-2.65V5.29h2.65v2.65h2.64v2.64h-2.64zM0 2.65V0h5.29v2.65H2.65v2.64H0zm10.58-1.33V0h2.65v2.65h-2.65zm42.34 0V0h5.29v2.65h-5.29z" fill="#1b130a"/><path d="M34.4 56.89v-1.33h23.8v2.65H34.4zM0 54.24v-1.32h2.65v2.64H0zm0-7.94v-1.32h2.65v2.65H0zM55.56 1.32V0h2.65v2.65h-2.65z" fill="#150b09"/></svg>