<svg xmlns="http://www.w3.org/2000/svg" width="800" height="800" viewBox="0 0 212 212" version="1"><path d="M0 106V0h212v212H0z" fill="#f9f9f9"/><path d="M0 106V0h212v212H0zm69 104l1-2 7-19a255 255 0 0 0 6-17l1-5c1-9 3-14 8-16l2-1h-6l-4-4-1-1v18l-1 3-4 12a216 216 0 0 0-11 31l-1 1h3zm26-5l3-5 5-15c6-16 7-19 9-21l2-2-2-2-3-5-4-5-2-2-2 1h-1l-3 1v2l2 9 1 3v2c-2 1-3 3-3 5v18a196 196 0 0 0-3 11l-1 3 1 4 1-2zm3-84l2-2h-2l-2 3 2-1zm-13-11l1-2c1-3 2-4 7-6l5-3c2-1 1-3 0-5-3-4-6-4-9-1a25 25 0 0 0-4 6c-2 3-3 12-1 12l1-1zm10-2zm-20-1c1-2 2-2 3-2 2-1 4-4 5-7v-1h-2l-4-1c-2 0-3-2-3-4s0-3 3-4c3-2 4-3 3-5l-4-2-5-2-2-6v-2h-2v6l1 6a104 104 0 0 0 4 23l2 2 1-1zM65 96c1-1 2-2 1-3h-4l-1-6c0-2 0-2-1-1l-1 1c-1 4 0 8 3 10 1 1 2 1 3-1zm21-2l4-6 2-7-10 7-3 4 2 2h5zm8-8l3-3 4-1c5-1 5-1 3-4v-4l-1-5-1-2h-3l-3 10c0 4-1 5-2 7v2zm-31-6l-4-2h-2l-1 2 2-1h1l4 2v-1zm7-16l3-3c4-4 5-4 17-4l14-2a236 236 0 0 1 4-3 396 396 0 0 1 9-11l4-7c2-3 3-4 0-6-1-2-2-2-4-1-4 1-6 0-13-2-5-2-8-2-11 0-5 3-8 3-11 3l-7 1-4 5-2 4c-3 4-4 6-2 11 2 6 1 5 1 12v3h2z" fill="#ededed"/><path d="M0 106V0h212v212H0zm70 103c0-4 3-10 7-19a217 217 0 0 0 6-18l2-10c1-6 4-10 8-12h3l1 3 2 7 1 5-1 1c-2 2-2 3-2 10v7l-1 8-1 5-1 3-1 7v1h1l1-1 3-6 7-17 5-15 5-6 1-2-4-8c-3-5-3-5-8-4l-4 1v-1c0-2-1-3-3-5a187 187 0 0 1-17-24v1l2 11 3 8c1 6 1 7 3 9l1 1-5-3-1-1v18l-6 17a220 220 0 0 0-11 30l2 1h2zm27-84l5-5c1-2 1-3-1-4s-3 0-4 2c-1 1-1 2-3 2h-2v3l4 2h1zm-9-5l-2-2v2h2zm-3-7h2l1 1 4-3 8-4 8-3h-2c-4-2-12 1-17 5l-2 2v-2c0-2 1-4 4-5l6-2c6-1 8-2 8-3l-5-5c-3-2-5-4-5-6s1-2 7-3l5-2v-5l-1-4c0-3 0-4-2-7l-1-2-5-1-1 4c-2 6-3 9-5 10-2 2-4 2-8 2-6 0-9 0-11-2l-2-6-1-2h-4v4l1 12v6h-1l-2-1h-2l-1-4-1-3-1 2-1 1v-4l1-3 4 3 2 1-1-3-3-4c-2 0-4 0-5 2l-1 3 2 10c3 9 5 12 9 12 3 0 4-1 3-2l-3-1-3-1c-1-1 0-1 1-2l3-3v-1l1 2 5 14c0 2 1 2 3 2l4 1 3 1 2-1zm35-16c1-1 0-2-1-4-1-3-2-4-4-4l-1 1c0 2 1 6 3 7h3zM69 67l2-1c1-3 5-4 10-5l18-1c6 0 7 0 12-2l9-3 4 1c3 2 4 1 4-1l-3-1c-4-1-3-4 1-10 3-4 3-5 3-7v-1l1 2c1 2 2 3 3 2s0-4-2-9c-4-7-7-11-9-8v1c0 2 0 1-2 0-2-2-3-3-5-3l-3 2c0 2-1 2-7 0-8-3-9-3-15 0-4 2-5 2-9 2s-5 1-7 3l-6 9c-2 4-3 5-3 3s0-3 3-7l3-5v-2h-1c-4 2-7 7-8 12-1 4-1 7 2 14a32 32 0 0 1 2 15h3zm60-33l-1-1 1 2v-1z" fill="#a1a1a1"/><path d="M0 106V0h212v212H0zm70 105v-1l6-17a9671 9671 0 0 1 8-20v-5c1-9 4-14 8-17 3-1 5-1 4 1l2 7 2 4v2l-1 1c-2 2-3 4-3 12a1216 1216 0 0 1-2 21c-1 2-2 5-1 7l1 2 2-3a6338 6338 0 0 1 9-22l5-15 4-5c3-2 3-3 2-6l-5-8-4-2-6 1c-1 1-1 1-1-1l-3-4a114 114 0 0 1-15-22l-2-2v2l2 10 2 8c2 5 2 7 4 9v1l-4-3-1-2v-1 1l-1 9v10l-4 12a227 227 0 0 0-12 36h4zm28-86l4-5 1-3-4-2-2 3-1 1h-4c-1 2-1 3 1 5 1 1 3 2 5 1zm-10-5l-1-2h-1c-1 1 0 3 2 3v-1zm-4-6l1-1h2l1 1 4-3 7-3 9-4-4-1c-4 0-11 2-15 7l-2 1v-2c0-3 3-4 9-6 7-2 8-2 9-4 0-1-1-3-5-5-3-2-4-4-4-6s0-2 4-3c6 0 8-1 8-3v-3l-1-6-3-7-1-2h-5l-1 4-2 6c-2 4-5 6-12 6-5 0-8-1-10-3l-2-6-1-1h-4v14l1 8-1-1h-2l-2-1-1-3c0-3 0-4-1-3l-2 2v-5c1-1 2 0 4 2 3 2 3 2 3 0s-2-6-5-6c-1-1-2 0-3 1-2 1-2 5-1 10 3 11 5 16 10 17l3-1 1-1 1 3c2 5 2 6 5 7l4 1h4zm-16-13h-2c-3-1-4-2-2-3l2-2 1-1a45 45 0 0 1 2 6h-1zm52-4v-5c-2-3-6-5-6-2-1 2 1 6 2 7l3 1 1-1zM69 67h2c1-3 4-5 9-5a183 183 0 0 1 25-2l8-3 7-2 4 1 3 1 1-1-2-3-3-1v-2l4-7 2-4c0-2 1-2 1 0 1 2 3 2 3-1 0-4-5-14-8-16-2-1-4 0-4 2v1l-1-2c-2-2-3-2-5-2l-2 1-1 1-2 1-5-2-8-2-8 2c-4 2-4 3-8 3s-5 0-7 2l-6 9-3 4 1-3 2-4 3-6c0-2 0-2-2-1-4 3-8 9-8 16l2 11c3 7 3 7 3 11v4l3-1z" fill="#585858"/><path d="M0 106V0h212v212H0zm70 105v-1c0-3 3-11 8-22a242 242 0 0 0 6-16l1-11 2-4c2-3 5-6 8-6h1v2l1 5 2 5 1 2-1 1c-3 2-3 4-3 15a55 55 0 0 1-2 18c-2 2-2 7-1 9 1 1 1 0 2-1l3-6 8-19c4-14 5-16 9-19l3-2h1l-1-1-1-2c-1-3-1-3 1-7 1-2 2-3 1-4l-4-1-2-2-2-2-2 2a22 22 0 0 1-8 4l-1-1c0-1 0-2-3-5l-13-19c-3-5-4-6-4-4-1 2 0 6 2 13l2 8 3 7c1 1 0 1-1 1l-2-4c-1-2-1-2-2 2v18l-6 15a160 160 0 0 0-10 32h4zm28-86l5-5c1-2 0-4-2-4-2-1-3-1-5 2v1h-5c-1 2 0 3 1 5 2 2 4 2 6 1zm-10-4c1-1-1-4-2-4v4h2zm-3-7l1-1h1l2 1 3-2c2-2 3-3 8-4 7-2 10-4 7-5h-8l-10 6-2 2v-1l1-4 8-3 8-3c2-1 1-3-4-6l-4-5c-1-2 0-3 4-3l7-3 1-2v-3l-1-4-2-7-2-2-2-1a62 62 0 0 1-3 0l-1 4c-3 10-6 12-15 12l-6-1-4-3-1-6v-1h-3l-2 1v13l1 8h-5v-4l-1-3-1-1-2 2v1l1-5 3 2 3 2v-4c-2-5-6-6-9-3l-1 5 2 9c2 7 4 11 7 12h5l2 3 3 5 2 1 3 1h6zm-19-14c-3 0-3-1-1-2l1-1 1-1 2 4-1 1-2-1zm54-2l1-2c0-4-3-8-6-8-1 0-2 1-2 3 1 3 2 6 4 7h3zM69 67h2c1-3 3-4 5-4 4-1 11-2 23-2 6 0 7-1 11-2 6-3 7-3 10-3l4 1c3 1 4 1 4-1s-1-3-3-3c-3 0-3-3 2-9l2-5h1c1 2 2 2 3 1v-5c-2-5-6-12-8-13s-3 0-4 1v1l-1-1c-2-2-3-2-5-2l-3 1-1 2-4-1c-10-4-11-4-18-1l-8 3c-4 0-5 0-7 2s-4 4-6 9c-2 4-3 4-3 3l3-6c3-3 3-4 3-6 1-2 0-2-2-1-5 3-9 12-8 19l2 8 3 12v3l3-1zm38-55l-1-5-2-1h-2v1l-2-2c-2-2-3-2-2 0v1h-7l-1 1h-1l-1 1h-1v1l-2 1-2 1h8l2 1h1v-1l1-1h1l1 1 1 2v-2l1-1h1l1 1 1-1V9h1c1-1 1 1 1 3l1 1c1-1 1-1 1 1 1 1 2 1 1-2zm-30 2l2-1c3 0 3 0 1-1l-6 2h3z" fill="#303030"/><path d="M0 106V0h212v212h-43a1983 1983 0 0 1-35-2l4-5 4-5 5-6c2-3 4-6 6-6h1l-1 7-1 5 1 5h5c1 0 2-2 3-8a49 49 0 0 1 9-20l2-2 2-2 2-4v2l1 3 4-4 2-3v3l-2 7-3 17c-2 9-3 14-2 15l4 1c3 0 4 0 6-2l4-3c3-2 4-3 3-4l-9 5c-4 3-5 4-7 3-1-1-1-3 1-9l2-6 1-4v-1l-1-2 3-4 1-2c-1 0-2-1-1-2l4-1c4 1 7 0 10-3l2-2-2 1c-7 2-9 3-11 2l-3-4 3-2c3-1 3-2 5-5l1-3v-2c0-2 2-3 4-5s4-2 8-3a28 28 0 0 0 7-2l-1-1h-5l-11-2-3 1h-10l-9-1c-7 1-9 1-15 6l-12 5-4 1c-3 0-4 0-4 2l-4 6a262 262 0 0 0-10 12l-7 8c-4 5-7 11-9 17 0 4-1 5-2 5l-1 1a32 32 0 0 0 8 1l3-2 11-17a131 131 0 0 1 11-17 1536 1536 0 0 0 7-6l-12 18-10 18-4 5 2 1h2l-61 1H0zm77 104l4-3 7-4 4-2h1l-1 2 1 5v2l3 1 4-1h-1c-3-1-3-4 0-9l4-5 4-6 4-8c5-4 5-6 7-13l2-6-1-3c-2-2-3-5-2-7a1098 1098 0 0 0 3-6l-4-2c-2 0-3 0-3-2l-1-1-3 1-8 5v-1l-3-4c-4-4-10-13-15-22-3-4-3-4-3 0l2 11 2 7 2 8 1 1-1-1-2-4-1-1-1 2v21l-6 13c-5 13-10 27-10 31v2h6l5-1zm9-20l-1-1v-10l1-9-1 2c-1 1-1 1-1-2 1-8 3-13 5-16l6-3h1v1l2 8 1 4-1 2c-1 1-2 3-2 9v6l-1 1s-2 1-2 3c-3 4-5 6-7 5zm1-25l8-13-4 2c-3 3-4 6-5 10-1 3 0 3 1 1zm-26 44l4-12 7-18 6-15c2-4 2-6 0-5l-3 5-2 5-4 8c-3 7-3 9-6 13l-4 11-1 5v-5l5-13 4-11 2-5 3-6c0-2 0-2-2-1a159 159 0 0 1-8 6l-5 4-5 4-6 5a36 36 0 0 0-12 13c-1 2-2 4-1 9v5h28zm37-84c3-2 5-5 5-7 0-1-1-3-3-3s-2 0-3 2l-2 2h-3c-2 1-2 3-1 4l2 2h5zm-10-4c1-1 0-4-2-4l-1 3 3 1zm-4-6l2-1v-1l1 1c1 1 3 0 5-2s3-2 9-4 8-3 7-4c0-1-5-2-8-1-4 1-8 3-11 6l-2 1v-1c0-2 3-4 11-6l6-2c3-2 2-4-3-7l-5-5c-1-2 0-3 4-3 8-1 9-3 8-8l-1-4-2-7-2-2-3-1h-2l-1 4c-3 7-4 9-7 10-2 1-6 2-10 1-4 0-7-1-7-3l-2-6v-1l-5 1-1 3 1 12 1 5-1 1h-2l-2-1v-3c0-2 0-4-2-4l-2 2 1-4 3 2 3 2v-1c1-2-2-7-5-8l-3 1c-2 2-3 5-2 9l4 13c3 5 6 7 10 5h1v2l3 6 3 1 4 1 4 1zm-18-15l-2-1 1-1 2-1 1 1v2h-2zm54-2c2-2 0-8-3-9h-3c-2 2 0 8 3 9h3zM70 67l1-1 4-3c4-1 9-2 22-2l9-1 6-2c4-2 7-3 9-2l3 1h4c1-1 0-4-3-4s-2-3 2-9l2-5h1l2 2c3 0 2-5-1-11s-6-9-8-9l-2 2v1l-2-2-4-2-3 3-1 1-6-2-8-2-8 2c-3 2-4 2-8 2-4 1-5 1-7 3s-4 4-6 9l-2 3 2-6 4-6c0-3-2-2-5 0-4 4-6 9-6 14-1 4 0 5 2 13l2 6v8l5-1zm38-54l-1-4-1-3-1-1h-2c-1-1-1-1 0 0h-1l-1 1-1-1-3-2 1 1v1h-4v1h-3l-3 1-1 1v1l-2 1h-2v1l-3 1-6 2h6l2-1 2-1h2l3-1h2l2 1c1 1 1 1 2-1l1-1 1 2 1 2v-1l1-1v-1h1l2 1v-1l1-1V9l1 3c0 1 0 2 1 1l1 1c1 2 2 2 2-1z" fill="#171717"/><path d="M0 106V0h212v212h-43a481 481 0 0 1-36-1l5-6 5-5 4-6c3-4 6-7 7-6l-2 6-1 6c0 3 1 4 2 5 3 2 6 1 7-2l2-5a55 55 0 0 1 10-23l2-2 1-2v1l1 2 1 1 4-4 1-2v1a267 267 0 0 0-4 23l-3 13 1 4 5 1c2 0 3-1 5-3l4-3c4-2 5-4 2-4-2 0-3 1-8 5-4 3-6 4-7 2l2-7 1-6c0-3 0-3 2-5l-1-1-1-2 4-4c1-1 2-2 0-2l-1-1c0-2 1-2 3-1l8-1 5-5-4 1-7 2-4-2c-1-1-1-2 2-3 2-1 4-3 5-6l2-3v-1c-2 0-1-2 1-4l7-4 3-1 5-1 2-1c1-1 0-1-1-1h-2l-15-3-16-3c-3-2-4-1-7 0l-7 3-7 3c-4 1-4 2-7 4l-3 3-6 2-3 1c-4 2-9 3-14 3h-2l-2-2c-2-3-3-4-1-7 2-2 2-4 2-5 0-2-2-3-4-3s-2-1-3-2l-2-2-2 2-8 5v-1l-3-5a178 178 0 0 1-18-24l-1 3 3 11 1 6 1 2-1 1-1 13v9l-1 2-5 14a234 234 0 0 0-11 32h3c7 0 7 0 13-3 3-3 4-3 7-4l3-2h1v2l1 3v4h4a81 81 0 0 1 16 0h8l-60 1H0zm61 104l4-12 6-16a238 238 0 0 1 9-22c0-2-1-2-2-2-1 1-3 3-4 7l-1 2-1-1v-2h-1a432 432 0 0 1-14 10l-5 4-5 5-9 7c-6 7-6 8-6 17v4h29zm37-85c2-1 5-4 5-6v-2c0-1-1-2-3-2-2-1-2 0-3 2s-1 2-4 1c-2 0-3 2-2 4 0 2 3 4 5 4l2-1zm-10-4c1 0 1-3-1-4h-2c-1 1 0 4 2 4h1zm-4-6l2-1h1c2 1 4 0 6-2 1-2 2-2 7-4 7-2 9-3 8-4l-1-1c-5-2-12 1-18 6-1 1-2 1-1-1 0-2 3-3 10-5l6-2c3-2 2-4-3-7-3-2-5-4-5-6l2-2a1660 1660 0 0 0 8-2c3-1 3-2 2-6l-1-5c0-3 0-4-2-7l-2-2-5-1-1 3-3 8c-2 4-5 6-13 5-5 0-7-1-8-3l-2-6-3-1-2 1-1 10v1-1c-1-2-3-4-5-4s-4 1-5 3v6c0 4 2 11 4 14 2 5 6 7 9 6h2l2 6c1 2 2 2 4 2l3 1c3 1 4 2 5 1zm-18-15l-2-1 2-2 1-1v1l1 2-2 1zm0-10h-4v-6h-4l1-3 4 3 2 1c1-1 1-1 1 1l1 5-1-1zm54 8c2-1 1-4-1-7l-3-3h-2l-1 2c0 1 1 5 3 7 1 2 3 2 4 1zM68 68l3-1c2-3 3-4 8-5l17-1c10 0 10 0 15-2l8-3 5 1c3 2 5 1 5-1s-2-3-4-3l-1-1v-2l2-6 3-4 1-1v1l2 1c1 0 2-1 2-3 0-4-6-15-10-17l-3 1v1l-1-1c-3-3-7-3-8 0-1 2-1 2-6 0l-9-2-8 2c-3 2-5 2-8 2l-5 1-5 5-1 1 1-1v-5l-5 3c-4 5-7 12-5 18l2 8 2 12c0 3 0 2 3 2zm-2-30l4-6a84 84 0 0 1-4 6zm42-23l-1-7-1-3-1-1h-6l-2-1v2h-6l-1 1h-1l-1 1-1 1-1 1h-2l-1 1-1 1v1h-2l-6 2c-1 1 1 2 3 0h3l2-1h2l3-1h2l2-1 2 1 1 2 1-2v-2l2 2 2 3v-3h1l1 1h1l1-1v-1c0-2 0-2 1 1 0 1 0 2-1 1l1 2h1c0-1 0-2 1-1v1h2zM86 189l-1-2 1-7v-10c0-1-1-1-1 1v-3c0-5 1-9 3-12 1-3 5-5 7-5l1 1c-1 1 0 4 1 7l2 4v2c-2 1-3 3-3 5v10l-1 1-3 3c-2 5-5 6-6 5zm1-23l8-14c0-1-1-1-5 3-2 1-3 4-4 8s-1 5 1 3zm-2-19l-1-4c0-2 0-2 1 0l1 3-1 1z"/></svg>