<?xml version="1.0" encoding="UTF-8" standalone="no"?>
<!-- Created with Inkscape (http://www.inkscape.org/) -->

<svg
   xmlns:dc="http://purl.org/dc/elements/1.1/"
   xmlns:cc="http://creativecommons.org/ns#"
   xmlns:rdf="http://www.w3.org/1999/02/22-rdf-syntax-ns#"
   xmlns:svg="http://www.w3.org/2000/svg"
   xmlns="http://www.w3.org/2000/svg"
   xmlns:sodipodi="http://sodipodi.sourceforge.net/DTD/sodipodi-0.dtd"
   xmlns:inkscape="http://www.inkscape.org/namespaces/inkscape"
   width="112.889mm"
   height="112.889mm"
   viewBox="0 0 112.889 112.889"
   version="1.1"
   id="svg3865"
   inkscape:version="0.92.2 (5c3e80d, 2017-08-06)"
   sodipodi:docname="reflexpicardia.svg">
  <defs
     id="defs3859" />
  <sodipodi:namedview
     id="base"
     pagecolor="#ffffff"
     bordercolor="#666666"
     borderopacity="1.0"
     inkscape:pageopacity="0.0"
     inkscape:pageshadow="2"
     inkscape:zoom="0.49497475"
     inkscape:cx="554.35624"
     inkscape:cy="267.59566"
     inkscape:document-units="mm"
     inkscape:current-layer="layer1"
     showgrid="false"
     inkscape:window-width="1920"
     inkscape:window-height="1027"
     inkscape:window-x="-8"
     inkscape:window-y="64"
     inkscape:window-maximized="1" />
  <metadata
     id="metadata3862">
    <rdf:RDF>
      <cc:Work
         rdf:about="">
        <dc:format>image/svg+xml</dc:format>
        <dc:type
           rdf:resource="http://purl.org/dc/dcmitype/StillImage" />
        <dc:title />
      </cc:Work>
    </rdf:RDF>
  </metadata>
  <g
     inkscape:label="Layer 1"
     inkscape:groupmode="layer"
     id="layer1"
     transform="translate(0,-184.111)">
    <g
       id="g3987"
       transform="translate(-48.592476,52.60153)">
      <path
         style="fill:#f0a39e;stroke-width:0.35277778"
         d="m 83.870254,232.05125 v -1.76389 h -1.763889 -1.763889 v -1.76389 -1.76389 h -1.763889 -1.763889 v -5.29167 -5.29166 h 3.527778 3.527778 v -1.76389 -1.76389 h -1.763889 -1.763889 v -3.52778 -3.52778 h -1.763889 -1.763889 v -3.52777 -3.52778 h -5.291666 -5.291667 v 1.76389 1.76389 h -1.763889 -1.763889 v 1.76389 1.76388 h -3.527778 -3.527777 v -1.76388 -1.76389 h -3.527778 -3.527778 v -5.29167 -5.29167 h 1.763889 1.763889 v -12.34722 -12.34722 h 5.291667 5.291666 v -1.76389 -1.76389 h 5.291667 5.291667 v 3.52778 3.52778 h 3.527777 3.527778 v -1.76389 -1.76389 h 1.763889 1.763889 v -1.76389 -1.76389 h 1.763889 1.763889 v -1.76389 -1.76389 h 1.763889 1.763889 v -1.76389 -1.76389 h 1.763889 1.763889 v -1.76388 -1.76389 h 3.527777 3.527775 v -1.76389 -1.76389 h 3.52778 3.52778 v -3.52778 -3.52778 h 10.58333 10.58334 v 3.52778 3.52778 h 1.76388 1.76389 v 1.76389 1.76389 h 3.52778 3.52778 v 1.76389 1.76388 h 1.76389 1.76389 v 1.76389 1.76389 h 1.76389 1.76388 v 1.76389 1.76389 h 1.76389 1.76389 v 3.52778 3.52778 h 1.76389 1.76389 v 1.76388 1.76389 h 3.52778 3.52778 v 7.05556 7.05555 h -1.76389 -1.76389 v -1.76388 -1.76389 h -1.76389 -1.76389 v 3.52777 3.52778 h 1.76389 1.76389 v 7.05556 7.05555 h -1.76389 -1.76389 v 5.29167 5.29167 h 1.76389 1.76389 v 5.29166 5.29167 h -1.76389 -1.76389 v 1.76389 1.76389 h -1.76389 -1.76389 v 1.76389 1.76389 h -3.52778 -3.52777 v -1.76389 -1.76389 h -1.76389 -1.76389 v -1.76389 -1.76389 h -1.76389 -1.76389 v 1.76389 1.76389 h -5.29167 -5.29166 v 1.76389 1.76389 h -8.81945 -8.81944 v -1.76389 -1.76389 h -5.29167 -5.291665 v -1.76389 -1.76389 h -1.763889 -1.763888 v 3.52778 3.52778 h -5.291667 -5.291667 z m 42.333336,-31.75 v -5.29167 h -1.76389 -1.76389 v -1.76389 -1.76389 h -1.76389 -1.76389 v 3.52778 3.52778 h -1.76389 -1.76389 v 1.76389 1.76389 h -3.52777 -3.52778 v 1.76389 1.76388 h 8.81944 8.81945 z M 73.286921,182.66236 v -1.76389 h -1.763889 -1.763889 v 1.76389 1.76389 h 1.763889 1.763889 z m 56.444449,-7.05556 v -1.76389 h 3.52777 3.52778 v -1.76389 -1.76388 h -3.52778 -3.52777 v -1.76389 -1.76389 h -1.76389 -1.76389 v 3.52778 3.52777 h -5.29167 -5.29167 v -1.76389 -1.76388 h -1.76388 -1.76389 v -1.76389 -1.76389 h -3.52778 -3.52778 v 1.76389 1.76389 h -3.52778 -3.527775 v 1.76388 1.76389 h 7.055555 7.05556 v 1.76389 1.76389 h 8.81944 8.81945 z"
         id="path4001"
         inkscape:connector-curvature="0" />
      <path
         style="fill:#a6a398;stroke-width:0.35277778"
         d="m 87.398032,232.05125 v -1.76389 h -1.763889 -1.763889 v -1.76389 -1.76389 h -1.763889 -1.763889 v -1.76389 -1.76389 h -1.763889 -1.763889 v -1.76389 -1.76388 h 1.763889 1.763889 v -1.76389 -1.76389 h 1.763889 1.763889 v -3.52778 -3.52778 h -1.763889 -1.763889 v -3.52778 -3.52777 h -1.763889 -1.763889 v -3.52778 -3.52778 H 75.05081 73.286921 v 1.76389 1.76389 h -3.527778 -3.527778 v 1.76389 1.76389 h -1.763889 -1.763889 v 1.76389 1.76388 h -3.527778 -3.527777 v -1.76388 -1.76389 h -3.527778 -3.527778 v -3.52778 -3.52778 h 1.763889 1.763889 v -14.11111 -14.11111 h 7.055555 7.055556 v -1.76389 -1.76389 h 3.527778 3.527778 v 3.52778 3.52778 h 5.291666 5.291667 v -1.76389 -1.76389 h 1.763889 1.763889 v -1.76389 -1.76389 h 1.763889 1.763889 v -3.52778 -3.52778 h 3.527778 3.527777 v -1.76388 -1.76389 h 5.291665 5.29167 v -3.52778 -3.52778 h 1.76389 1.76389 v -1.76389 -1.76389 h 7.05555 7.05556 v 5.29167 5.29167 h 5.29166 5.29167 v 1.76389 1.76388 h 3.52778 3.52778 v 1.76389 1.76389 h 1.76389 1.76388 v 3.52778 3.52778 h 1.76389 1.76389 v 3.52778 3.52777 h 1.76389 1.76389 v 1.76389 1.76389 h 1.76389 1.76389 v -1.76389 -1.76389 h 1.76389 1.76389 v 5.29167 5.29167 h -3.52778 -3.52778 v 3.52777 3.52778 h 1.76389 1.76389 v 5.29167 5.29167 h -1.76389 -1.76389 v 5.29166 5.29167 h -1.76389 -1.76389 v 1.76389 1.76389 h 3.52778 3.52778 v 3.52778 3.52777 h -1.76389 -1.76389 v 1.76389 1.76389 h -1.76389 -1.76389 v 1.76389 1.76389 h -1.76389 -1.76389 v 1.76389 1.76389 h -1.76388 -1.76389 v -3.52778 -3.52778 h -5.29167 -5.29167 v 1.76389 1.76389 h -15.875 -15.875 v -1.76389 -1.76389 h -3.527775 -3.527777 v 1.76389 1.76389 H 92.689699 90.92581 v 1.76389 1.76389 h -1.763889 -1.763889 z m 28.222218,-15.875 v -3.52778 h -1.76388 -1.76389 v 3.52778 3.52778 h 1.76389 1.76388 z m -7.05555,-1.76389 v -1.76389 h -1.76389 -1.76389 v 1.76389 1.76389 h 1.76389 1.76389 z m 21.16667,0 v -1.76389 h -5.29167 -5.29167 v 1.76389 1.76389 h 5.29167 5.29167 z M 108.5647,207.3568 v -1.76389 h 1.76389 1.76389 v 1.76389 1.76389 h 1.76389 1.76388 v -1.76389 -1.76389 h 8.81945 8.81944 v -1.76388 -1.76389 h -1.76389 -1.76388 v -1.76389 -1.76389 h -1.76389 -1.76389 v -1.76389 -1.76389 h -1.76389 -1.76389 v -1.76389 -1.76389 h -1.76389 -1.76389 v 3.52778 3.52778 h -1.76389 -1.76389 v 1.76389 1.76389 h -3.52777 -3.52778 v 1.76389 1.76388 h -1.76389 -1.76389 v 1.76389 1.76389 h 1.76389 1.76389 z m 38.80555,-3.52777 v -1.76389 h -1.76388 -1.76389 v 1.76389 1.76388 h 1.76389 1.76388 z m -52.916662,-3.52778 v -1.76389 H 92.689699 90.92581 v 1.76389 1.76389 h 1.763889 1.763889 z m 59.972222,-7.05556 v -1.76389 h -1.76389 -1.76389 v 1.76389 1.76389 h 1.76389 1.76389 z M 73.286921,182.66236 v -1.76389 h -1.763889 -1.763889 v 1.76389 1.76389 h 1.763889 1.763889 z m 56.444449,-7.05556 v -1.76389 h 5.29166 5.29167 v -1.76389 -1.76388 h -3.52778 -3.52778 v -1.76389 -1.76389 h -3.52777 -3.52778 v 3.52778 3.52777 h -1.76389 -1.76389 v -1.76389 -1.76388 h -1.76389 -1.76389 v 1.76388 1.76389 h -1.76389 -1.76389 v -1.76389 -1.76388 h -1.76388 -1.76389 v -3.52778 -3.52778 h -1.76389 -1.76389 v 1.76389 1.76389 h -3.52778 -3.52778 v 1.76389 1.76389 h -1.763886 -1.763889 v 1.76388 1.76389 h 7.055555 7.05556 v 1.76389 1.76389 h 8.81944 8.81945 z"
         id="path3999"
         inkscape:connector-curvature="0" />
      <path
         style="fill:#ae8d70;stroke-width:0.35277778"
         d="m 87.398032,232.05125 v -1.76389 h -1.763889 -1.763889 v -1.76389 -1.76389 h -1.763889 -1.763889 v -1.76389 -1.76389 h -1.763889 -1.763889 v -1.76389 -1.76388 h 1.763889 1.763889 v -1.76389 -1.76389 h 1.763889 1.763889 v -3.52778 -3.52778 h -1.763889 -1.763889 v -3.52778 -3.52777 h -1.763889 -1.763889 v -3.52778 -3.52778 H 75.05081 73.286921 v -1.76389 -1.76389 h 1.763889 1.763888 v -1.76389 -1.76389 h 1.763889 1.763889 v -1.76388 -1.76389 h -1.763889 -1.763889 v -1.76389 -1.76389 h -3.527777 -3.527778 v 3.52778 3.52777 h -1.763889 -1.763889 v 1.76389 1.76389 h 1.763889 1.763889 v 3.52778 3.52778 h -3.527778 -3.527778 v 1.76389 1.76389 h -5.291666 -5.291667 v -1.76389 -1.76389 h 1.763889 1.763889 v -1.76389 -1.76389 h 1.763889 1.763888 v -7.05556 -7.05555 h -1.763888 -1.763889 v -7.05556 -7.05555 h 1.763889 1.763888 v 1.76389 1.76389 h 1.763889 1.763889 v 1.76388 1.76389 h 1.763889 1.763889 v -1.76389 -1.76388 h 1.763889 1.763889 v -1.76389 -1.76389 h 1.763889 1.763889 v 1.76389 1.76389 h -1.763889 -1.763889 v 3.52777 3.52778 h 5.291667 5.291666 v -3.52778 -3.52777 h 1.763889 1.763889 v -1.76389 -1.76389 h 1.763889 1.763889 v -1.76389 -1.76389 h 1.763889 1.763889 v -3.52778 -3.52778 h 3.527778 3.527777 v -1.76388 -1.76389 h 5.291665 5.29167 v -3.52778 -3.52778 h 1.76389 1.76389 v -1.76389 -1.76389 h 7.05555 7.05556 v 5.29167 5.29167 h 5.29166 5.29167 v 1.76389 1.76388 h 3.52778 3.52778 v 1.76389 1.76389 h 1.76389 1.76388 v 3.52778 3.52778 h 1.76389 1.76389 v 3.52778 3.52777 h 1.76389 1.76389 v 1.76389 1.76389 h 1.76389 1.76389 v -1.76389 -1.76389 h 1.76389 1.76389 v 3.52778 3.52778 h -3.52778 -3.52778 v 5.29167 5.29166 h 1.76389 1.76389 v 5.29167 5.29167 h -1.76389 -1.76389 v 5.29166 5.29167 h -1.76389 -1.76389 v 1.76389 1.76389 h 3.52778 3.52778 v 3.52778 3.52777 h -1.76389 -1.76389 v 1.76389 1.76389 h -1.76389 -1.76389 v 1.76389 1.76389 h -1.76389 -1.76389 v 1.76389 1.76389 h -1.76388 -1.76389 v -3.52778 -3.52778 h -5.29167 -5.29167 v 1.76389 1.76389 h -15.875 -15.875 v -1.76389 -1.76389 h -3.527775 -3.527777 v 1.76389 1.76389 H 92.689699 90.92581 v 1.76389 1.76389 h -1.763889 -1.763889 z m 28.222218,-15.875 v -3.52778 h -5.29166 -5.29167 v 1.76389 1.76389 h 3.52778 3.52778 v 1.76389 1.76389 h 1.76389 1.76388 z m 14.11112,-1.76389 v -1.76389 h -5.29167 -5.29167 v 1.76389 1.76389 h 5.29167 5.29167 z m -7.05556,-7.05556 v -1.76389 h 5.29167 5.29166 v -3.52777 -3.52778 h -3.52777 -3.52778 v -1.76389 -1.76389 h -1.76389 -1.76389 v -1.76389 -1.76389 h -1.76389 -1.76389 v 1.76389 1.76389 h -1.76389 -1.76389 v 1.76389 1.76389 h -1.76388 -1.76389 v 1.76389 1.76389 h -1.76389 -1.76389 v 1.76389 1.76388 h -1.76389 -1.76389 v 1.76389 1.76389 h 8.81945 8.81944 z m 24.69444,-5.29166 v -3.52778 h 1.76389 1.76389 v -1.76389 -1.76389 h 1.76389 1.76389 v -1.76389 -1.76389 h -1.76389 -1.76389 v 1.76389 1.76389 h -1.76389 -1.76389 v 1.76389 1.76389 h -1.76388 -1.76389 v 1.76389 1.76389 h -3.52778 -3.52778 v 1.76389 1.76388 h 5.29167 5.29166 z m -52.916662,-1.76389 v -1.76389 H 92.689699 90.92581 v 1.76389 1.76389 h 1.763889 1.763889 z M 69.759143,179.13458 v -1.76389 h -1.763889 -1.763889 v 1.76389 1.76389 h 1.763889 1.763889 z m 52.916667,0 v -1.76389 h 5.29167 5.29166 v -1.76389 -1.76389 h 3.52778 3.52778 v -1.76389 -1.76388 h -3.52778 -3.52778 v -1.76389 -1.76389 h -3.52777 -3.52778 v 3.52778 3.52777 h -1.76389 -1.76389 v -1.76389 -1.76388 h -1.76389 -1.76389 v 1.76388 1.76389 h -1.76389 -1.76389 v -1.76389 -1.76388 h -1.76388 -1.76389 v -3.52778 -3.52778 h -1.76389 -1.76389 v 1.76389 1.76389 h -3.52778 -3.52778 v 1.76389 1.76389 h -1.763886 -1.763889 v 1.76388 1.76389 h 7.055555 7.05556 v 1.76389 1.76389 h 3.52777 3.52778 v 1.76389 1.76389 h 1.76389 1.76389 z"
         id="path3997"
         inkscape:connector-curvature="0" />
      <path
         style="fill:#65615c;stroke-width:0.35277778"
         d="m 87.398032,232.05125 v -1.76389 h -1.763889 -1.763889 v -1.76389 -1.76389 h -1.763889 -1.763889 v -1.76389 -1.76389 h -1.763889 -1.763889 v -1.76389 -1.76388 h 1.763889 1.763889 v -1.76389 -1.76389 h 1.763889 1.763889 v -3.52778 -3.52778 h -1.763889 -1.763889 v -3.52778 -3.52777 h -1.763889 -1.763889 v -7.05556 -7.05556 h 1.763889 1.763889 v -1.76388 -1.76389 h -1.763889 -1.763889 v -1.76389 -1.76389 h -3.527777 -3.527778 v 3.52778 3.52777 h -1.763889 -1.763889 v 5.29167 5.29167 h -1.763889 -1.763889 v 1.76389 1.76389 h -3.527778 -3.527777 v -3.52778 -3.52778 h 1.763889 1.763888 v -7.05556 -7.05555 h -1.763888 -1.763889 v -5.29167 -5.29166 h 1.763889 1.763888 v 1.76388 1.76389 h 3.527778 3.527778 v -1.76389 -1.76388 h 1.763889 1.763889 v -1.76389 -1.76389 h 1.763889 1.763889 v 1.76389 1.76389 h -1.763889 -1.763889 v 1.76388 1.76389 h -1.763889 -1.763889 v 3.52778 3.52778 h 1.763889 1.763889 v -1.76389 -1.76389 h 5.291667 5.291666 v -3.52778 -3.52777 h 1.763889 1.763889 v -1.76389 -1.76389 h 1.763889 1.763889 v -1.76389 -1.76389 h 1.763889 1.763889 v -1.76389 -1.76389 h 1.763889 1.763889 v -1.76389 -1.76389 h 1.763888 1.763889 v -1.76388 -1.76389 h 5.291665 5.29167 v -3.52778 -3.52778 h 1.76389 1.76389 v -1.76389 -1.76389 h 7.05555 7.05556 v 5.29167 5.29167 h 5.29166 5.29167 v 1.76389 1.76388 h 1.76389 1.76389 v 1.76389 1.76389 h 3.52778 3.52777 v 3.52778 3.52778 h 1.76389 1.76389 v 3.52778 3.52777 h 1.76389 1.76389 v 1.76389 1.76389 h 3.52778 3.52778 v 1.76389 1.76389 h -3.52778 -3.52778 v 5.29167 5.29166 h 1.76389 1.76389 v 5.29167 5.29167 h -1.76389 -1.76389 v 5.29166 5.29167 h -1.76389 -1.76389 v 1.76389 1.76389 h 3.52778 3.52778 v 3.52778 3.52777 h -1.76389 -1.76389 v 1.76389 1.76389 h -1.76389 -1.76389 v 1.76389 1.76389 h -1.76389 -1.76389 v 1.76389 1.76389 h -1.76388 -1.76389 v -3.52778 -3.52778 h -5.29167 -5.29167 v 1.76389 1.76389 h -15.875 -15.875 v -1.76389 -1.76389 h -3.527775 -3.527777 v 1.76389 1.76389 H 92.689699 90.92581 v 1.76389 1.76389 h -1.763889 -1.763889 z m 42.333338,-14.11111 v -1.76389 h 1.76388 1.76389 v -1.76389 -1.76389 h 1.76389 1.76389 v -1.76389 -1.76389 h -1.76389 -1.76389 v -1.76389 -1.76389 h 7.05556 7.05555 v -1.76388 -1.76389 h 1.76389 1.76389 v -3.52778 -3.52778 h 1.76389 1.76389 v -1.76389 -1.76389 h -1.76389 -1.76389 v 1.76389 1.76389 h -1.76389 -1.76389 v 1.76389 1.76389 h -1.76388 -1.76389 v 1.76389 1.76389 h -5.29167 -5.29167 v -1.76389 -1.76389 h -3.52777 -3.52778 v -1.76389 -1.76389 h -1.76389 -1.76389 v -1.76389 -1.76389 h -1.76389 -1.76389 v 1.76389 1.76389 h -1.76389 -1.76389 v 1.76389 1.76389 h -1.76388 -1.76389 v 1.76389 1.76389 h -1.76389 -1.76389 v 1.76389 1.76388 h -7.05556 -7.055552 v -3.52777 -3.52778 H 92.689699 90.92581 v 3.52778 3.52777 h 1.763889 1.763889 v 1.76389 1.76389 h 1.763888 1.763889 v 1.76389 1.76389 h 1.763889 1.763886 v 1.76389 1.76389 h 3.52778 3.52778 v 1.76389 1.76389 h 10.58333 10.58334 z m -28.22223,-7.05556 v -1.76389 h 1.76389 1.76389 v 1.76389 1.76389 h -1.76389 -1.76389 z m 14.11111,0 v -1.76389 h 3.52778 3.52778 v 1.76389 1.76389 h -3.52778 -3.52778 z m 7.05556,-31.75 v -1.76389 h 5.29167 5.29166 v -1.76389 -1.76389 h 3.52778 3.52778 v -1.76389 -1.76388 h -3.52778 -3.52778 v -1.76389 -1.76389 h -3.52777 -3.52778 v 1.76389 1.76389 h -3.52778 -3.52778 v 1.76388 1.76389 h -1.76389 -1.76389 v -1.76389 -1.76388 h -1.76388 -1.76389 v -3.52778 -3.52778 h -1.76389 -1.76389 v 1.76389 1.76389 h -3.52778 -3.52778 v 1.76389 1.76389 h -1.763886 -1.763889 v 1.76388 1.76389 h 5.291665 5.29167 v 1.76389 1.76389 h 5.29167 5.29166 v 1.76389 1.76389 h 1.76389 1.76389 z"
         id="path3995"
         inkscape:connector-curvature="0" />
      <path
         style="fill:#ef1a18;stroke-width:0.35277778"
         d="m 87.398032,232.05125 v -1.76389 h -1.763889 -1.763889 v -1.76389 -1.76389 h -1.763889 -1.763889 v -1.76389 -1.76389 h -1.763889 -1.763889 v -1.76389 -1.76388 h 1.763889 1.763889 v -1.76389 -1.76389 h 1.763889 1.763889 v -3.52778 -3.52778 h -1.763889 -1.763889 v -3.52778 -3.52777 h -1.763889 -1.763889 v -5.29167 -5.29167 h 1.763889 1.763889 v -1.76389 -1.76389 h 1.763889 1.763889 v -3.52777 -3.52778 h -1.763889 -1.763889 v -5.29167 -5.29166 h 1.763889 1.763889 v -1.76389 -1.76389 h 1.763889 1.763889 v -1.76389 -1.76389 h 1.763889 1.763889 v -1.76389 -1.76389 h 1.763889 1.763889 v -1.76389 -1.76389 h 1.763888 1.763889 v -1.76388 -1.76389 h 5.291665 5.29167 v -3.52778 -3.52778 h 1.76389 1.76389 v -1.76389 -1.76389 h 7.05555 7.05556 v 5.29167 5.29167 h 5.29166 5.29167 v 1.76389 1.76388 h 1.76389 1.76389 v 1.76389 1.76389 h 3.52778 3.52777 v 3.52778 3.52778 h 1.76389 1.76389 v 3.52778 3.52777 h 1.76389 1.76389 v 1.76389 1.76389 h 1.76389 1.76389 v 1.76389 1.76389 h -1.76389 -1.76389 v 3.52778 3.52777 h -1.76389 -1.76389 v 3.52778 3.52778 h 1.76389 1.76389 v -1.76389 -1.76389 h 1.76389 1.76389 v 5.29167 5.29167 h -1.76389 -1.76389 v 5.29166 5.29167 h -1.76389 -1.76389 v 1.76389 1.76389 h 3.52778 3.52778 v 3.52778 3.52777 h -1.76389 -1.76389 v 1.76389 1.76389 h -1.76389 -1.76389 v 1.76389 1.76389 h -1.76389 -1.76389 v 1.76389 1.76389 h -1.76388 -1.76389 v -3.52778 -3.52778 h -5.29167 -5.29167 v 1.76389 1.76389 h -15.875 -15.875 v -1.76389 -1.76389 h -3.527775 -3.527777 v 1.76389 1.76389 H 92.689699 90.92581 v 1.76389 1.76389 h -1.763889 -1.763889 z m 42.333338,-14.11111 v -1.76389 h 1.76388 1.76389 v -1.76389 -1.76389 h 1.76389 1.76389 v -1.76389 -1.76389 h 1.76389 1.76389 v -1.76389 -1.76389 h 3.52778 3.52777 v -1.76388 -1.76389 h 1.76389 1.76389 v -3.52778 -3.52778 h -1.76389 -1.76389 v 1.76389 1.76389 h -10.58333 -10.58333 v -3.52778 -3.52778 h -1.76389 -1.76389 v -1.76389 -1.76389 h -1.76389 -1.76389 v 3.52778 3.52778 h -1.76389 -1.76389 v 1.76389 1.76389 h -3.52777 -3.52778 v 3.52778 3.52777 h -7.05556 -7.055552 v -1.76388 -1.76389 h 1.763888 1.763889 v -1.76389 -1.76389 h -1.763889 -1.763888 v -1.76389 -1.76389 H 92.689699 90.92581 v 5.29167 5.29166 h 1.763889 1.763889 v 1.76389 1.76389 h 1.763888 1.763889 v 1.76389 1.76389 h 1.763889 1.763886 v 1.76389 1.76389 h 3.52778 3.52778 v 1.76389 1.76389 h 10.58333 10.58334 z m -3.52778,-38.80556 v -1.76389 h 3.52778 3.52777 v -1.76389 -1.76389 h 3.52778 3.52778 v -1.76389 -1.76388 h -3.52778 -3.52778 v -1.76389 -1.76389 h -3.52777 -3.52778 v 1.76389 1.76389 h -3.52778 -3.52778 v 1.76388 1.76389 h -1.76389 -1.76389 v -1.76389 -1.76388 h -1.76388 -1.76389 v -3.52778 -3.52778 h -1.76389 -1.76389 v 1.76389 1.76389 h -3.52778 -3.52778 v 1.76389 1.76389 h -1.763886 -1.763889 v 1.76388 1.76389 h -1.763889 -1.763888 v 1.76389 1.76389 h 3.527777 3.527775 v -1.76389 -1.76389 h 3.52778 3.52778 v 1.76389 1.76389 h 3.52778 3.52777 v 1.76389 1.76389 h 5.29167 5.29167 z m -24.69445,-21.16667 v -1.76389 h -1.763886 -1.763889 v 1.76389 1.76389 h 1.763889 1.763886 z m -38.805553,26.45834 v -3.52778 h 1.763889 1.763889 v 3.52778 3.52777 h -1.763889 -1.763889 z"
         id="path3993"
         inkscape:connector-curvature="0" />
      <path
         style="fill:#092646;stroke-width:0.35277778"
         d="m 97.981365,200.30125 v -1.76389 h -1.763889 -1.763888 v -1.76389 -1.76389 H 90.92581 87.398032 v -5.29167 -5.29166 h -1.763889 -1.763889 v -1.76389 -1.76389 h -1.763889 -1.763889 v -1.76389 -1.76389 h 10.583334 10.58333 v -1.76389 -1.76389 h 3.52778 3.52778 v 1.76389 1.76389 h 3.52778 3.52777 v 1.76389 1.76389 h 5.29167 5.29167 v -1.76389 -1.76389 h 3.52778 3.52777 v -1.76389 -1.76389 h 7.05556 7.05555 v 1.76389 1.76389 h 5.29167 5.29167 v 1.76389 1.76389 h -1.76389 -1.76389 v 3.52778 3.52777 h -1.76389 -1.76389 v 3.52778 3.52778 h -1.76389 -1.76389 v 1.76389 1.76389 h -10.58333 -10.58333 v -3.52778 -3.52778 h -1.76389 -1.76389 v -1.76389 -1.76389 h -1.76389 -1.76389 v 3.52778 3.52778 h -1.76389 -1.76389 v 1.76389 1.76389 h -3.52777 -3.52778 v 1.76389 1.76389 h -5.29167 -5.291665 z m -35.277778,-15.875 v -3.52778 h 1.763889 1.763889 v 3.52778 3.52777 h -1.763889 -1.763889 z m 31.750001,-22.93056 v -1.76389 h 3.527777 3.527775 v -1.76389 -1.76389 h 3.52778 3.52778 v 1.76389 1.76389 h -1.76389 -1.76389 v 1.76389 1.76389 h -5.291666 -5.291666 z m 35.277782,-1.76389 v -3.52778 h 3.52777 3.52778 v 1.76389 1.76389 h 1.76389 1.76389 v 1.76389 1.76389 h -5.29167 -5.29166 z"
         id="path3991"
         inkscape:connector-curvature="0" />
      <path
         style="fill:#0b1829;stroke-width:0.35277778"
         d="m 97.981365,200.30125 v -1.76389 h -1.763889 -1.763888 v -1.76389 -1.76389 H 90.92581 87.398032 v -5.29167 -5.29166 h -1.763889 -1.763889 v -1.76389 -1.76389 h -1.763889 -1.763889 v -1.76389 -1.76389 h 10.583334 10.58333 v -1.76389 -1.76389 h 1.76389 1.76389 v 1.76389 1.76389 h 5.29167 5.29166 v 1.76389 1.76389 h 5.29167 5.29167 v -1.76389 -1.76389 h 5.29166 5.29167 v -1.76389 -1.76389 h 5.29167 5.29166 v 1.76389 1.76389 h 5.29167 5.29167 v 1.76389 1.76389 h -1.76389 -1.76389 v 3.52778 3.52777 h -3.52778 -3.52778 v -3.52777 -3.52778 h -8.81944 -8.81944 v 5.29167 5.29166 h 1.76388 1.76389 v 1.76389 1.76389 h 3.52778 3.52778 v 1.76389 1.76389 h -5.29167 -5.29166 v -1.76389 -1.76389 h -1.76389 -1.76389 v -1.76389 -1.76389 h -1.76389 -1.76389 v -1.76389 -1.76389 h -3.52778 -3.52778 v -1.76388 -1.76389 h -1.76388 -1.76389 v -1.76389 -1.76389 h -8.81945 -8.819442 v 5.29167 5.29166 h 1.763888 1.763889 v 1.76389 1.76389 h 1.763889 1.763886 v 1.76389 1.76389 h 3.52778 3.52778 v 1.76389 1.76389 h -5.29167 -5.291665 z M 62.703587,186.19014 v -1.76389 h 1.763889 1.763889 v 1.76389 1.76388 h -1.763889 -1.763889 z m 31.750001,-24.69445 v -1.76389 h 3.527777 3.527775 v -1.76389 -1.76389 h 3.52778 3.52778 v 1.76389 1.76389 h -1.76389 -1.76389 v 1.76389 1.76389 h -5.291666 -5.291666 z m 35.277782,-1.76389 v -3.52778 h 3.52777 3.52778 v 1.76389 1.76389 h 1.76389 1.76389 v 1.76389 1.76389 h -5.29167 -5.29166 z"
         id="path3989"
         inkscape:connector-curvature="0" />
    </g>
  </g>
</svg>
