<svg xmlns="http://www.w3.org/2000/svg" width="409.3" height="409.3" viewBox="0 0 108.3 108.3"><path d="M38.8 98.1c0-.2-.5-.4-1-.6-.6 0-1.1-.3-1.1-.5s-.3-.4-.7-.5c-.4-.2-2-1.6-3.7-3.2a18.4 18.4 0 0 1-4-5.2c-1.8-3.7-1.5-5 1.3-5.3 1-.1 2-.6 3-1.5l1.6-1.3-1.3-2a27.5 27.5 0 0 1-3-5.4c-.8-1.7-2.7-9-2.7-10.8v-1l-1.7.7c-1 .5-2.7 1.1-4 1.5-2.5.6-6.5 2.4-7.5 3.2-.3.3-.6 1-.6 1.4 0 3.2-9 2.9-12.2-.4-1-1-1.1-1.3-.8-2.3.1-.6.5-1.3.8-1.5.3-.3.6-1.4.7-2.9 0-1.4.7-4.2 1.3-6.3l1.1-3.8-.8-1.7c-.8-1.8-1.5-7.6-1.1-10 .4-3.2 2.7-5.9 4.8-5.9 1.3 0 3.2 1 3.7 2.1.4.7.5.6 2.8-1.5 4-4 6-4.6 8.2-2.4 2 2 1.7 4.5-.6 6.8l-1.2 1.3 1.5-.7c2.6-1.1 4.7-.8 7.7 1.2l1 .6.7-1.5A40 40 0 0 1 57.6 18c.5 0 .6-.2.5-.6l-.5-1.4c0-.4-.4-.8-.7-.8-.8 0-.5-2 .4-3 2-2.1 11.2-3.1 15.5-1.6 3 1 3.8 1.6 3.8 3 0 .6-.4 1.4-.7 1.8-.4.4-.8 1.1-1 1.6-.1.8.1.9 3.7 2a35.4 35.4 0 0 1 18 12.6c0 .3.2.5.3.5.2 0 .7.9 1.2 2l1 1.9c.2 0 .6 1 .9 2.2 1.2 4 1.7 5.2 2.5 5.2.4 0 1-.4 1.4-.9.4-.6.9-.9 1.6-.9 1.4 0 1.8 1 1.5 3.7-.1 1.7 0 2.8.5 4.8.7 2.4.8 2.7.2 3.5-.5.8-.6.8-.8.2-.2-.4-.5-2.1-.7-3.8l-.6-3-1.6.6c-1.6.9-1.8 1.2-2.7 5.3-.9 3.4-2.2 6-4.7 8.7-3.5 3.8-7 5.4-12 5.4-4.7 0-8.8-2-11.6-5.9a15.3 15.3 0 0 1-2.8-7.7L70 51v2.3c0 1.5-.3 3.2-.8 4.4a18 18 0 0 1-10 10c-1.8.5-2.5 1.2-1.5 1.5.3.1.3.4 0 1.3-.3.6-.7 1.1-.8 1.1-.2 0-.4.2-.4.4a169 169 0 0 0 19.1-.4c.9 0 1-.1 1-1 0-.6-.2-1-.7-1.3-.7-.3-.9-.7-1-2.2 0-1.8 0-1.9.8-1.8.6.1.8.4.9 1.1 0 .5 0 1-.3 1-.2 0-.4-.2-.4-.4 0-.3 0-.3-.2-.2v1c.2.5.5.6 1 .5.5-.2.7 0 1 .6.5 1.3 1 1.5 1 .4 0-.6.2-.9.5-.7l1 .4c.4.1.7.6.8 1 .2.6.3.6.6.2.2-.3.3-1 .3-1.5 0-.8.2-1 .6-.8.3 0 .5 0 .5-.2s.2-.3.4-.3.3.4.3 1v1.4c0 .4 1.4.6 1.4.1a25.7 25.7 0 0 0 5.6-1.8l3.8-1.4-2.3 2.7c-1.4 1.5-2.5 2.9-2.5 3.1 0 .3.3.7.7.9.6.3.8.1 1.8-1.2l1.5-1.6.2-.4 1-1.8c.6-.9 1.5-2.5 2-3.8a8 8 0 0 1 1.3-2.2c.5 0 1.6-2.2 1.9-3.6.3-1.8 1-1.7.8.1-.3 2 .3 1.7 1.8-.8.8-1.4 1.3-2 1.7-1.8.5.2.5.8.4 4.3a33.7 33.7 0 0 1-5.4 18.1c-.5.6-.5.7 0 1.2.2.3.6.5.7.5.2 0 .8.5 1.5 1 .8.8 1.4 1.1 2 1 .4-.1 1 0 1.4.3.6.4.6.7.3 2.5-.4 2-1.7 4.5-2.9 5.6-.4.4-.7.9-.7 1.2 0 .2-.2.4-.5.4s-.6.3-.6.6c0 .2 0 .4-.2.4s-1 .6-1.8 1.4c-2 2-4.2 3-6.3 3h-1.8l-.2-1.9c0-1.2-.4-2-.7-2.1-.3-.2-.6-.5-.6-.7 0-.2-.4-.8-1-1.3-.9-1-1-1-1.8-.5l-1 .8c-.2.2-.7.4-1.2.5-.6.1-1 .4-1 .6 0 .1-.3.3-.6.3a42 42 0 0 1-21.4 2.9 41.8 41.8 0 0 1-14.4-4.9c-.8-.2-1 0-1.7 1-.4.7-.9 1.3-1.1 1.4-.2 0-.5.8-.6 1.7-.2 2-1 2.8-2.9 2.8-.8 0-1.4-.1-1.4-.3zm6.3-29.4c0-.1.4-.3.7-.3.4 0 .4 0 .1-.2-.2 0-.4-.5-.4-1s-.6-1-1.8-1.9c-1-.7-2.1-1.7-2.6-2.2-.7-.8-.9-1-.9-.5 0 .7 1 3.6 1.8 5.6.5 1.2.6 1.3 1.7 1 .7 0 1.3-.3 1.4-.5zM25 51.7c.6-.7 1.1-1.5 1.1-1.8 0-.3.3-.8.7-1.1.7-.6.6-.6-2.2-1.4l-3.1-.8c-.4 0-1.7 3.2-1.7 4 0 .6.3 1 1.5 1.6 2 1 2.3 1 3.7-.5zm50.9-7.9A42 42 0 0 1 87 40.3c0-.3-3.3-3.2-3.6-3.3-.2 0-.7-.3-1.1-.8-.5-.5-1.3-1-1.8-1.1-.5-.1-.9-.4-.9-.5 0-.3-3.5-2.1-4-2.1-.2 0-.6.4-.8 1-.2.6-.3 1 0 1l.2.8c0 .8-.5 1-.8.2 0-.2-.2 0-.2.5 0 1.6-.7 2.9-1.3 2.7-.3-.2-.5 0-.5.6 0 .4.2.5.3.3.3-.9.8-.4.8.8 0 1-.2 1.2-.7 1.2-.4 0-.9-.3-1-.6-.4-.5-.5-.5-.7-.1-.5.7-1.1.1-1.1-.9 0-.7.1-.8.8-.8.5 0 1-.2 1-.4s-.6-.3-1.1-.3c-.8 0-1.1-.2-1.1-.6 0-.6 0-.6-.5 0-.3.4-.5 1.2-.5 1.9 0 .8-.2 1.1-.6 1.1-.3 0-.6.3-.7.6-.2.2-.5.5-.7.5-.3 0-.5-.3-.5-.5 0-.6-.2-.9-2.7-3.5-1.5-1.6-1.6-1.6-1.8-.8 0 .5-.3.8-.5.7-.5-.3-.4-1.8.1-2 .3-.1.4-.3 0-.7-.1-.2-.4-1.1-.5-2l-.4-1.7a28.7 28.7 0 0 0-11.5 6.1c-.3.5-.8.9-1 .9-.3 0-.4.2-.4.4s-.5.8-1.1 1.3c-.6.5-1 1-1 1.3 0 .2-.2.5-.5.6-.5.3.9 0 3.5-.5 4.8-1 8.8-.4 16.9 2.6 2.3 1 4.5 1.6 5 1.6.3 0 3-.9 5.8-2zm-1.5-2.1c0-.7.5-1.5.8-1.5.2 0 .3.4.3.9s-.2.9-.5.9-.6-.2-.6-.3zm.4-3.2c0-.4.1-.8.3-.8.2 0 .4.4.4.8 0 .3-.2.7-.4.7s-.3-.4-.3-.7zM77.3 67c0-.4.1-.7.3-.7.2 0 .4.3.4.7 0 .4-.2.7-.4.7s-.3-.3-.3-.7z" fill="#d9cab3"/><path d="M38.8 98.1c0-.2-.4-.4-1-.5l-1.3-.7a31.5 31.5 0 0 1-8-8.4c-1.5-3-1.3-5.6.4-5.6 1.7 0 3-.6 4.6-2.2.7-.7.7-.7-.6-2.7a27.3 27.3 0 0 1-3-5.5 26.7 26.7 0 0 1-2-6.5l-.6-3.7c-.2-1.9-.2-2-.8-1.5-1 .8-2 1.3-5.1 2.2-5.6 1.6-7.8 2.9-8 4.7-.4 2.3-5.6 2.8-9.7 1A15 15 0 0 1 1 67C0 66.4.2 65 1 63.8c.5-.7.8-1.5.8-2.6 0-1 .5-3.8 1.3-6.2l1.2-4.5-.8-1.9c-1-2.4-1.4-10-.6-12 .8-1.8 2.3-3.4 3.6-3.6 1.5-.3 3.6.6 4.3 1.8l.6 1 2.5-2.5c1.4-1.3 3.2-2.7 4-3 1.4-.7 1.5-.7 2.8 0 1.7.8 2.7 2.7 2.4 4.5-.2 1-.7 1.8-2 3l-1.6 1.6 2.1-.8c2.7-1.1 4.2-1 6.7.5 2 1.2 2 1.2 3-.8l1-1.8c1.8-3.1 2.7-4.4 3-4.4a41.9 41.9 0 0 1 7.6-7.5A39.3 39.3 0 0 1 57.7 18c.4 0 .5-.2.4-.6l-.5-1.4c0-.4-.4-.8-.7-.8-.8 0-.6-2 .3-3 2-2.1 11.3-3.1 15.6-1.6 2.9 1 3.8 1.6 3.8 2.9 0 .6-.4 1.5-1 2-1.4 1.9-1.2 2.2 3 3.5a43.9 43.9 0 0 1 10.7 5.2c2.2 1.6 5.5 4.9 7.7 7.7a80.5 80.5 0 0 1 3.5 8.1c0 .3.3 1.2.7 2 .4 1 .8 1.4 1.5 1.4.5 0 1-.3 1.2-.8.5-1.2 2-1.2 2.8 0 .5.7.6 1 .3 2.1-.3 1-.3 1.8.1 3.8.8 3.3.8 5.3.2 5.3-.4 0-.6-.4-.7-1.2 0-1.7-.8-5.7-1-5.7l-1.3.5c-1.6.7-2.1 1.6-3 5-.4 1.7-1.3 4-1.9 5.2a21 21 0 0 1-8.2 8c-2.3 1.2-2.6 1.3-6.3 1.3-3.5 0-4.1-.1-6-1a17.8 17.8 0 0 1-6.5-5.9c-1.2-1.8-2.2-5-2.2-7.4 0-1-.2-.6-.4 1.3-.3 3.8-1.6 6.5-4.6 9.5-2 2.1-6.2 4.7-7.6 4.7-.6 0-.6 1 0 1.1.4.2-.4 2.4-1 2.4 0 0-.2.2 0 .4a114.4 114.4 0 0 0 17.8-.2c2-.2 2.2-.2 2.2.6 0 .7 0 .7.6.2.6-.6.6-.7 0-1-.4-.2-.6-.8-.6-1.2 0-.6-.3-.9-.6-.9-.7 0-1.2-1.1-1.2-2.8 0-1.3 0-1.5.8-1.4.6.1.8.4.9 1.1.1 1-.4 1.4-.8.5 0-.2-.2 0-.2.3 0 .5.2 1 .5 1.2.4.3.6.4.6 0 0-.6.7-.3 1 .5.5 1.3 1 1.5 1 .4 0-.6.2-.9.5-.7l1 .4c.4.1.7.6.8 1 .2.6.3.6.6.2.2-.3.3-.9.3-1.3 0-.5.3-.8.6-.8s.5-.2.5-.4.2-.3.4-.3.3.4.3 1c-.2 1.8 0 2.1.7 2 .4-.2.7-.4.7-.6 0-.2.3-.3.6-.2.3.1 2.2-.4 4.2-1.2L94 67c.2 0-.7 1.2-2 2.6a14.2 14.2 0 0 0-2.3 3c0 .2.3.6.7.8.6.3.8.1 1.8-1.2l1.5-1.6.2-.5.5-1c.3-.2 1.2-1.8 2-3.4.8-1.5 1.7-3 2-3.3.7-.6 1.4-2 1.7-3.6.3-1.8 1-1.7.8.1-.3 2 .3 1.7 1.7-.6.7-1.2 1.3-1.8 1.7-1.8.6 0 .7.2.5 4a33.7 33.7 0 0 1-5.4 18c-.4.8-.4 1 0 1.4l.7.5c.2 0 .7.5 1.1 1 .6.6 1.3 1 2 1 .6 0 1.4.1 1.8.4.6.3.6.5.3 2.4-.5 2.6-2 4.8-5.3 8.2-3 3-5.4 4.3-7.8 4.3h-1.7l-.2-1.8c0-1.2-.4-2-.7-2.1-.3-.2-.6-.6-.6-.8 0-.7-2.2-2.5-2.4-2-.3.4-3.8 2.3-5 2.7l-2.3.9c-3.4 1.5-6.4 1.9-13.5 1.9-4 0-7-.2-7-.4a1 1 0 0 0-.7-.3 29 29 0 0 1-9.2-3.2L46 91.4c-.4 0-1.5 1.3-1.5 1.7l-.8.8c-.6.6-.8 1.4-.7 2.8 0 .4-.2.7-.5.7s-.5.2-.5.5c0 .4-.4.5-1.6.5-.9 0-1.6-.1-1.6-.3zm25.7-14.8c.3-.4.5-1.7.6-2.9l.3-2.1h-2.5c-2.2.2-2.4.3-2.5 1 0 .4 0 .8.2.8s.8.7 1.3 1.7c1.4 2.3 2 2.7 2.6 1.5zm-7-2c.4-2.8.3-3-1.8-3h-1.4v2.2c0 2 0 2.1 1.2 2.6l1.3.5c.2 0 .4-1 .6-2.4zm20.3 0l.3-2.2c.1-1.2 0-1.5-.6-1.6-.4-.1-1 0-1 .1-.5.4-.8 4-.5 4.8.3.8 1.5 0 1.8-1zm-5-1.1c.7-2.3.5-2.6-1.7-2.6-2.1 0-2.7.5-2.7 2.4 0 1 .1 1.8.3 2l1.8.2h1.7zm-21.3-.8c0-1.3-.6-1.8-2.3-1.8h-1.4l1.5 1.4c1.7 1.7 2.2 1.8 2.2.4zm4.9-6.1c.5-.6.2-1-.9-1-.7 0-.8 0-.4.7.5.9.8.9 1.3.3zm-11.3-4.6c0-.1.4-.3.7-.3.4 0 .4 0 .1-.2-.2 0-.4-.6-.4-1 0-.5-.1-.9-.3-.9-.2 0-1.4-1-2.7-2.1-1.6-1.5-2.3-2-2.3-1.6 0 .6.9 3.5 1.5 5.1l.6 1.6c0 .3 2.7-.2 2.8-.6zM6.4 67.5c0-.2-.8-.6-1.6-1-1.8-.6-2.2-.2-.7.7 1.1.6 2.3.7 2.3.3zm17.1-9c2.2-1 2-2.8-.3-2.8-1.3 0-2 .9-2 2.4 0 1.4.3 1.4 2.3.5zm3.7-4.3c-.3-.3-.6-.5-.8-.4-.4.3 0 .9.7.9.4 0 .4-.1 0-.5zm-3-1.8l1.1-.9c.4-.2.8-.7.8-1 0-.4.3-1 .7-1.5l.6-.8-2.6-.8c-1.5-.5-3-.8-3.2-.8-.5 0-1.8 2.8-1.8 4 0 1.5 3.7 3 4.4 1.8zm5.4-2c0-.4-1.1-.4-1.5 0-.1 0 0 .4.2.6.3.4.5.4.9.1l.4-.7zm-16.8-4.8c-.2-2.1-.8-2.8-.8-1 0 1.1.5 2.7.8 2.7v-1.7zm5.4-1l.1-1c0-.3.9-.5 2-.6 1.2-.1 2-.4 2.6-1 1-1 1.2-1 2 0 .4.5 1 1.2 1.6 1.5 1 .7 2.1.5 1.9-.3-.3-.6-4-3-4.6-3-.4 0-1.5.4-2.5 1-1 .5-2 .8-2.1.7-.1-.1-.6.2-1 .8-.7.7-1 1.4-.9 2.5 0 1.3 0 1.4.4.9l.5-1.4zm58-.9c4.9-2 8.9-3.1 11-3.1h.8l-.9-.6-1.2-1-2.1-1.8-2-1.5-1.4-1-2.7-1.4c-2-1-2.3-1-2.8.2-.2.6-.3 1 0 1l.2.8c0 .8-.5 1-.8.2 0-.2-.2 0-.2.5 0 1.6-.7 2.9-1.3 2.7-.3-.2-.5 0-.5.6 0 .4.2.5.3.3.3-.8.8-.4.8.6 0 .9-.2 1-.8 1-.4 0-1-.2-1.2-.5-.4-.6-.5-.6-.5 0 0 1-.9.5-1-.6 0-.8 0-1 .8-1 .5 0 1-.1 1-.3 0-.2-.5-.3-1-.3s-.8-.2-.8-.6c0-.3-.2-.5-.3-.5-.5 0-1.1 1.3-1.1 2.4 0 .7-.2 1.1-.5 1.1s-.7.3-1 .6l-.7.5c-.2 0-.3-.3-.3-.5 0-.6-.2-.9-2.7-3.5-1.3-1.4-1.6-1.6-1.7-1-.2.4-.4.7-.6.7-.5 0-.4-1.6.1-1.8.3-.1.4-.3 0-.7-.1-.2-.4-1.1-.5-2a6 6 0 0 0-.4-1.7c-.3-.3-5.2 1.7-6.9 2.8l-1.8 1c-.2 0-.3.1-.3.3l-.8.6a27.6 27.6 0 0 0-5.9 6c-.4.3.4.2 2.2-.2 5.8-1.4 10.1-.9 18.3 2.3 2.2.8 4.4 1.5 5 1.5.4 0 3.2-.9 6.1-2zm-1.8-2c0-.7.5-1.5.8-1.5.2 0 .3.4.3.9s-.2.9-.5.9-.6-.2-.6-.3zm.4-3.2c0-.4.1-.8.3-.8.2 0 .4.4.4.8 0 .3-.2.7-.4.7s-.3-.4-.3-.7zM6.4 43c0-.2-.2-.3-.4-.3s-.4.1-.4.3c0 .2.2.4.4.4s.4-.2.4-.4zm8-4.3c0-.1 0-.4-.2-.7-.3-.8-.8-.7-.8.1 0 .4.2.7.5.7l.6-.1zm-8.3-.5c.7-.2.8-1 .2-2-.5-.9-1.4-.2-1.4 1.2 0 1 .3 1.2 1.2.8zm11.6-3.5c.8-.7.9-1.9.2-1.9-.6 0-1.5 1-1.8 1.9-.3.8.7.8 1.6 0zM77.3 67c0-.4.1-.7.3-.7.2 0 .4.3.4.5 0 .3-.2.6-.4.8-.2 0-.3-.2-.3-.6z" fill="#d4b0a2"/><path d="M39.9 98a12 12 0 0 1-5-2.3c-5-4.5-7.5-8.1-7.3-10.8 0-1.4.2-1.5 1.3-1.6 1.4-.1 3-1 4.6-2.6.6-.7.6-.7-.7-2.9-2.6-4.2-5-10.8-5.5-15.5-.2-1.9-.2-2-.8-1.5-1 .8-2 1.3-5.1 2.2-5.6 1.6-7.8 2.9-8 4.7-.4 2.3-5.6 2.8-9.7 1A15 15 0 0 1 1 67c-.8-.7-.8-2.2 0-3.3a6 6 0 0 0 .8-3c.1-1.1.7-4 1.4-6.2l1.2-4-.8-2c-1-2.2-1.5-9-.8-11.4.5-2 2.3-4 3.7-4.2 1.5-.3 3.6.6 4.3 1.8l.6 1 2.5-2.5a20 20 0 0 1 4-3.1c1.4-.6 1.5-.6 2.8 0 .7.4 1.6 1.2 2 2 1 2 .5 3.5-1.6 5.6l-1.7 1.7 1.3-.6c3.6-1.5 5-1.5 7.6.3l2 1a37.9 37.9 0 0 1 9-12.4 38.1 38.1 0 0 1 18.8-9.9c.3-.3-.4-2.7-.8-2.7-.7 0-.7-2.5 0-2.7.3-.1.6-.4.6-.6 0-1.5 12.5-2.3 15.7-1 3.1 1.2 3.7 2.5 2 4.6-1.2 1.7-1.1 2.8.2 2.8a37.9 37.9 0 0 1 20.5 12.9c0 .2.2.6.5.9.9 1 2.7 4.6 2.9 5.9.1.6.3 1.2.5 1.2.1 0 .4.7.5 1.5.1 1 .4 1.6.6 1.6.2 0 .3.3.3.6 0 .9 1.9.6 2.3-.3.5-1.2 2-1.2 2.8-.1.5.8.6 1.1.3 2.2-.4 1-.3 1.9.1 3.8.8 3.3.8 5.3.2 5.3-.4 0-.6-.4-.7-1.2 0-1.7-.8-5.7-1-5.7l-1.3.5c-1.6.7-2.1 1.6-3 5-.4 1.7-1.3 4-1.9 5.2a21 21 0 0 1-8.2 8c-2.3 1.2-2.6 1.3-6.3 1.3-3.5 0-4.1-.1-6-1-3.4-1.6-7-5.5-8-8.8l-.7-3.8-.3-2.7V53c0 4.3-1.6 7.5-5.2 11.1-1.5 1.5-6 4-7 4-.3 0-.4.7-.4 1.6 0 1.9-.7 2.7-2.4 2.7h-1.3l.5 1c.9 1.7 1.5 2 2.6 1.5.5-.3 1.1-1 1.3-1.6l.4-1 2.6.2c1.4.1 2.8.4 3 .6.2.2.5.2.8-.2.4-.3 1.3-.5 3-.4 1.4 0 3.7-.2 5-.4 3.3-.5 3.8-.5 3.6 0v1.4l.3 1L78 73l1.2-1.4h-1c-1.2 0-1.5-.5-1.5-2.3 0-1.5.3-1.6 1-.1.5 1.2 1.1 1.2 1.5 0 .1-.6.2-.7.2-.5 0 .2.4.4.8.4s.7.3.7.7c0 .4.1.8.3 1 .4.1.7-.7.7-1.8 0-.4.4-.9 1-1.2.8-.4.9-.3.7.4V70c.3.6.4.9.4.6 0-.2.3-.4.6-.4s.5-.2.5-.4.3-.3.6-.2c.3.1 2.2-.4 4.2-1.2A45 45 0 0 1 94 67c.2 0-.7 1.2-2 2.5a14 14 0 0 0-2.3 3c0 .2.3.6.6.9.4.4.7.3 1.7-.9.7-.7 1.2-1.4 1.2-1.5 0 0 .2-.4.5-.6.9-1 1.1-1.5 2.5-4.2a25 25 0 0 1 2.1-3.6c1.2-1.3 2-2.9 2-4 0-.6.2-1.1.4-1.1.3 0 .3.5.2 1.4-.2 1.8.3 1.7 1.4 0 1.6-2.5 1.8-2.7 2.2-2.1.8 1-.3 11.3-1.5 14.1a39 39 0 0 1-4 8.3c-.4.3-.4.5-.2.5.3 0 .7.3 1 .6 1.7 1.5 2.5 2 3.5 2 1.6 0 2.3 1 2 2.4-.3 2.3-.9 3.4-3 6.1-1 1.3-2 2.3-2.2 2 0 0-.2 0-.2.2 0 .8-3.3 3.6-4.3 3.7-.2 0-.7.2-1.1.5-.4.3-1.4.5-2.4.5h-1.7v-1.3c0-1.8-.3-3-1-3-.2 0-.4-.1-.4-.4 0-.5-1.6-2.3-2.1-2.3a29.5 29.5 0 0 1-8 3.9c-.3 0-.5 0-.5.3 0 .1-1 .4-2.2.5-1.2.2-2.3.5-2.4.7-.4.5-14.7.5-15 0-.2-.2-1.1-.5-2.2-.7-1-.1-1.8-.4-1.8-.5 0-.2-.3-.4-.6-.4a33 33 0 0 1-7-2.8L46 91l-.9 1.1-1.3 1.6c-.7.7-1 2.1-.9 3 .2.5 0 .7-.3.7-.4 0-.6.2-.6.5s-.1.5-.3.5L40 98zm25-14c.6-.8.8-1.6.8-3.4V78H64c-3.2-.3-3.6 0-3.6 2s.7 3.5 1.9 4.4c1 .7 2 .5 2.8-.6zm-6.5-2.3l.6-2.5c.3-.6-1.4-1.2-3.3-1.2-2.2 0-2.4.2-2.4 2 0 1.6.1 1.9 1 2.6 1.2.8 2.8 1.4 3.4 1.2.2 0 .5-1 .7-2zM72.7 83l.9-2.8c.6-2.3.4-2.7-1.8-2.6-2.8 0-3.3.3-3.6 2v2.9c.2 1 .4 1.2 1.8 1.3 2.2.2 2.5.1 2.7-.8zm5.2-.6c1-1 1.1-1.4 1-3 0-1.6-.2-1.9-1-2-1.7-.5-2 0-2 3.3 0 3.5.3 3.8 2 1.7zm-27-4.6c-.7-.5-3.8-.6-3.4 0 0 .1 1 1 2 1.7l1.8 1.5.1-1.4c.1-1 0-1.5-.5-1.8zm33 .4c0-1-.3-1.9-.7-1.9-.2 0-.3.8-.3 1.8 0 1.6 0 1.8.5 1.4.3-.3.6-.8.6-1.3zm-32.4-5.4c0-.6-.2-.7-1-.7h-1.2l.8.7c1.1.8 1.4.8 1.4 0zm-7.4-1c0-.8-.2-1.1-.5-1.1-.7 0-.7.4-.2 1.4.5 1 .7.8.7-.4zm1-3c0-.1.4-.3.7-.3.4 0 .5 0 .1-.4-.2-.2-.4-.7-.4-1 0-.4-.1-.7-.3-.7-.2 0-1.5-1-2.9-2.3l-2.5-2.4.2 1.2c.2.7.4 1.4.6 1.6l.4 1.4.8 2.4c.6 1.3.6 1.4 1.9 1.1.7-.1 1.3-.4 1.4-.5zm-37.9-1c.2-.3-4.7-2.2-5-2-.3.4.6 1.2 1.9 1.8 1.1.6 2.8.8 3.1.3zm40.4 0c0-.2-.1-.3-.3-.3-.3 0-.3.1-.2.3l.4.4.1-.4zm-24.2-8.6c1-.4 2-1 2.1-1.4.3-.7-1.6-2.7-2.6-2.7-.5 0-1.4 0-2.1-.2-1.2-.2-1.3-.1-1.5.7-.2 1 .4 2.7.9 2.7.1 0 .3.3.3.7 0 1.3.4 1.3 2.9.2zm4.8-4.3c.2-.2-1.1-1.2-1.6-1.2-.2 0-.5.4-.8.8-.3.5-.3.8 0 1.2.3.4 1 .2 2.4-.8zm-4-2.4l1.1-.9c.4-.2.8-.7.8-1 0-.4.3-1 .7-1.5l.6-.8-2.6-.8a25 25 0 0 0-3.2-.8c-.6 0-2 3-1.8 4 .2 1.6 3.7 3 4.4 1.8zm5.8-2c0-.8-1.5-.9-2.1-.1-.4.4-.4.7 0 1.4l.4.9.9-.8c.4-.4.8-1 .8-1.4zM7 48.5c0-.3-.3-.5-.7-.5-.8 0-.8 0-.1.5.8.7.9.7.9 0zm6.4-2.8c0-1-.2-1.7-.7-2.1-.6-.6-.7-.6-.8.6-.1 1.2.6 3 1.2 3 .2 0 .3-.6.3-1.5zm4.8-.4l.6-1.9 1.5.2c1.3.2 1.6.1 2.6-.9 1.2-1.2 1.7-1.1 2.2.2.4 1 1.7 1.7 3 1.4.8-.2 1.1-1 .6-1.8-.7-.9-4-3-4.9-3-.5 0-1.4.3-2 .7a5 5 0 0 1-1.9.7c-1.2 0-2.6 2.6-2.6 4.6l.1 1.8c.1 0 .5-.9.8-2zm58-1.6c4.8-2 8.9-3.1 10.9-3.1.7 0 .4-.4-1.6-2L82.2 36c-1-.8-6.5-3.8-7-3.8-.2 0-.3.2-.2.5.1.3-.1 1.1-.5 1.8s-.8 1.7-.8 2.3c0 1.4-.3 2-.9 1.9-.3-.2-.5 0-.5.5s.2.7.5.5c.4-.1.6 0 .6.8 0 1-.8 1.2-1.7.3-.5-.5-.6-.5-.9 0-.4.7-1 .4-1-.5 0-.5.3-.7 1-.7.6 0 .8-.2.8-.6 0-.6-.2-.7-.9-.5-.6 0-.8 0-.8-.4 0-.8-.2-.8-1.1 0-.4.4-.7 1-.7 1.7 0 .8-.2 1.2-1 1.5-1 .5-1.1.5-1.1-.1 0-.3-.2-.5-.4-.5s-.5-.3-.6-.6c-.1-.4-.9-1.3-1.7-2.1-1.4-1.3-1.6-1.4-1.8-.8-.3 1-.8.8-.8-.2 0-.6.2-1 .6-1 .5 0 .5 0 0-.6-.4-.3-.6-1.2-.6-1.8 0-2-.4-2.3-2.3-1.6-2.6.9-6.2 2.6-6.2 3 0 .2-.2.4-.4.4-.9 0-5.3 4-6.9 6.2l-.7 1 2.7-.6c5.6-1.3 10-.7 18.1 2.4 2.2.8 4.4 1.5 5 1.5.4 0 3.2-.9 6.1-2zm-1.8-2c0-.7.5-1.5.8-1.3.5.3.3 1.6-.2 1.6-.3 0-.6-.2-.6-.3zm.4-3.2c0-.5.1-.7.2-.5v.9c0 .2-.2 0-.2-.4zm-.4-3.2c0-.2.2-.4.4-.4s.3.2.3.4-.1.3-.3.3a.4.4 0 0 1-.4-.3zM6.8 43.6c.3-.7-.4-1.3-1.6-1.3-1 0-1.1.1-.6 1.1.4.8 2 1 2.2.2zm8.2-4.4c.2-.5-1-2.2-1.5-2.2-.1 0-.4.9-.6 1.9l-.4 1.9 1.1-.5c.7-.3 1.3-.8 1.4-1zm-8-1.8c0-.7-.1-1.5-.4-1.7-1.2-1.3-2.8.5-2 2.3.3.9.5 1 1.4.9 1-.2 1-.3 1-1.5zm10.7-1.8c1.3-.7 1.5-2.9.4-3.3-1-.4-2.1.7-2.7 2.5l-.6 1.6L16 36c.6 0 1.4-.4 1.7-.5zm57.5 33.2a5 5 0 0 1-.4-2.1c0-1.2.1-1.4.7-1.4s.7.2.7 1.1c0 1-.1 1-.4.5-.2-.7-.3-.7-.3.2 0 .5.2 1 .3 1.2.5.2.5 1.2.1 1.2l-.7-.7zm2-2c0-.2.2-.5.4-.5s.4.3.4.6c0 .2-.2.5-.4.5s-.3-.3-.3-.5z" fill="#a8a297"/><path d="M39.9 98a12 12 0 0 1-5-2.3c-5-4.5-7.5-8.1-7.3-10.8 0-1.4.2-1.5 1.3-1.6 1.4-.1 3-1 4.6-2.6.6-.7.6-.7-.7-2.9-2.6-4.2-5-10.8-5.5-15.4l-.2-2-1.2.8c-.7.4-2 1-3 1.3-2.6.6-6.2 2-8 3-1.2.7-1.5 1-1.5 1.9 0 1.6-1.3 2.3-4.4 2.3-1.7 0-3.1-.3-4.7-.9-3.7-1.4-4.8-3-3.2-5a4 4 0 0 0 .7-2.5c0-.9.4-3.2 1-5.1 1.5-5.2 1.6-6 .8-7.7-1-1.9-1.5-9.2-.8-11.2.7-2.2 2.3-4 3.7-4.3 1.5-.3 3.5.6 4.3 2 .7 1 1.2 1.3 1.2.5a21 21 0 0 1 6.1-5.3c1.2-.5 1.4-.5 2.6 0 .9.4 1.5 1 2 2 .8 2.1.3 3.8-1.8 5.8l-1.5 1.5 1.3-.5c3.5-1.5 5-1.5 7.7.2.9.6 1.7 1 1.9 1a37.9 37.9 0 0 1 9-12.4 38.1 38.1 0 0 1 18.8-9.9c.3-.3-.4-2.7-.8-2.7-.7 0-.7-2.5 0-2.7.3-.1.6-.4.6-.6 0-1.5 12.5-2.3 15.7-1 3.1 1.2 3.7 2.5 2 4.6-1.2 1.7-1.1 2.8.2 2.8a37.9 37.9 0 0 1 20.5 12.9c0 .2.2.6.5.9.9 1 2.7 4.6 2.9 5.9.1.6.3 1.2.5 1.2.1 0 .4.7.5 1.5.1 1 .4 1.6.6 1.6.2 0 .3.3.3.6 0 .8 2 .7 2.2-.2.2-.9 1.9-1.3 2.6-.7.4.3.5 1 .4 3 0 1.4.2 3.6.6 5.1.6 2.6.6 3.9 0 3.9-.3 0-.7-1.6-1-3.4l-.7-3.6c-.3-.2-2.5.8-3.1 1.5-.3.4-1 2.1-1.3 3.8-1 3.9-2.4 6.6-4.8 9.3-4.1 4.5-10 6.4-15.5 5-2.7-.8-4-1.6-6.2-3.8-2.8-2.7-3.8-5-4.4-9.1l-.5-3.4v2.3c0 2.7-1 6-2.2 7.8a18 18 0 0 1-8.4 7l-2 .7v1.5c0 2-.7 2.7-3 2.7-1.7 0-1.7 0-1.5 1 .2.9 2.4 3.2 3 3.2l2-.7c1.4-.6 1.8-1 1.8-1.6 0-.4.1-1 .3-1.4.2-.5.3-.2.4 1 .2 1.5.2 1.5 2 2.1 1.6.6 1.8.6 2.4 0 .4-.3 1-1.3 1.3-2 .6-1.2.9-1.6 1.6-1.6.7 0 .8.2 1 1.6l.3 1.6h1.9c1.7 0 1.9 0 2.4-1.1.3-.6.5-1.4.4-1.8-.1-.4 0-.6.4-.7h1.4c.7-.2.8 0 .8 1l.2 1.7c.4 1.6 3 0 3.7-2.2l.3-1-1.6.1c-1.9.2-2.2-.1-2.2-2 0-1.7.3-1.8 1-.3.5 1.2 1.1 1.2 1.5 0 .1-.6.2-.7.2-.5 0 .2.4.4.8.4s.7.3.7.7c0 .4.1.8.3 1 .4.1.7-.7.7-1.8 0-.4.4-.9.9-1.1l.9-.4-.2 2.7c0 1.6 0 2.8.2 2.8.4 0 1.2-2 1-2.3-.4-.4.6-1 1.7-1.1.6 0 2.5-.6 4.2-1.3l3.4-1.3c.2 0-.8 1.3-2.2 2.7l-2.5 2.8.8.7.7.7 1.2-1.3a9 9 0 0 0 1.2-1.6s.2-.4.5-.6c.9-1 1.1-1.5 2.5-4.2a25 25 0 0 1 2.1-3.6c1.2-1.3 2-2.9 2-4 0-.6.2-1.1.4-1.1.3 0 .3.5.2 1.4-.2 1.8.3 1.7 1.4 0 1.6-2.5 1.8-2.7 2.2-2.1.8 1-.3 11.3-1.5 14.1a39 39 0 0 1-4 8.3c-.4.3-.4.5-.2.5.3 0 .7.3 1 .6 1.7 1.5 2.5 2 3.5 2 1.6 0 2.3 1 2 2.4-.3 2.3-.9 3.4-3 6.1-1 1.3-2 2.3-2.2 2 0 0-.2 0-.2.2 0 .8-3.3 3.6-4.3 3.7-.2 0-.7.2-1.1.5-.4.3-1.4.5-2.4.5h-1.7v-1.3c0-1.8-.3-3-1-3-.2 0-.4-.1-.4-.4 0-.5-1.6-2.3-2.1-2.3a29.5 29.5 0 0 1-8 3.9c-.3 0-.5 0-.5.3 0 .1-1 .4-2.2.5-1.2.2-2.3.5-2.4.7-.4.5-14.7.5-15 0-.2-.2-1.1-.5-2.2-.7-1-.1-1.8-.4-1.8-.5 0-.2-.3-.4-.6-.4a33 33 0 0 1-7-2.8L46 91l-.9 1.1-1.3 1.6c-.7.7-1 2.1-.9 3 .2.5 0 .7-.3.7-.4 0-.6.2-.6.5s-.1.5-.3.5L40 98zm25.7-13.3c1-.8 1.8-5.6 1.1-6.5-.6-.7-4.9-.8-5.8-.1-.4.3-.6 1.2-.8 3.3-.2 3.2-.2 3.3 2.2 3.7 2.2.3 2.5.3 3.3-.4zm7.4-.3c.7-.8 2-5.8 1.7-6.6-.3-.7-4.4-.7-5.7-.1-.8.3-.9.5-1 3.7-.1 3.6-.2 3.5 2.6 3.6 1.3 0 1.9-.2 2.4-.6zm-13.4-3c0-3.2-.3-3.5-3.4-3.7-3-.2-4 .3-4 2 0 1.3.2 1.5 1.7 2.5 1.5 1.1 4.8 2.2 5.5 1.9a8 8 0 0 0 .2-2.8zM78.1 83l2-1v-2.4c.1-1.3 0-2.5-.2-2.7-.5-.5-2.7-.4-3.4.1-.5.4-.7 1-.7 3.7 0 1.8.1 3.3.2 3.3l2.1-1zm-26.3-4.2c0-.4-.3-1-.7-1.3-1-.6-4.2-1.1-4.2-.7 0 .4 1.8 2 3.4 3.2 1 .8 1 .8 1.3.2l.2-1.4zm32.7-.5c.8-1.2.3-2.8-.9-2.8-1 0-1.1.4-.8 2.5.2 1.5.3 1.7.8 1.3l.9-1zm-33-4.6V72l-1.3-.3c-1.8-.3-3.3-.2-3.3 0l.4 1.6c.4 1.4 1.4 2.1 3 2 1 0 1-.2 1.1-1.7zm36.3.4c0-.2-.1-.4-.3-.4-.2 0-.4.2-.4.4s.2.3.4.3.3-.1.3-.3zm-43.5-1.8c0-1.5 0-1.6-1.2-1.7-1 0-1.1 0-1 .9.4 1.4 1.3 2.7 1.8 2.5.2 0 .4-.8.4-1.7zm.8-3.5c0-.2.4-.4.7-.4.4 0 .5 0 .1-.4-.2-.2-.4-.7-.4-1 0-.4-.3-.8-.8-1a22 22 0 0 1-2.9-2.5l-2-2 .2 1.3c.2.7.4 1.4.6 1.6l.4 1.4.8 2.4c.6 1.3.6 1.4 1.9 1.1.7-.1 1.3-.4 1.4-.5zm-36.7-.5c.4-.4.1-.6-1.2-1.1-1-.3-2.6-1-3.6-1.5-2.3-1-2.5-1-2.5-.1 0 .8 1.7 2.2 3.3 2.8 1.5.5 3.6.5 4-.1zm39.2-.6c0-.2-.1-.3-.3-.3-.3 0-.3.1-.2.3l.4.4.1-.4zM8.8 61.6c.8-1.7.9-2.2.9-6.7 0-5.8-.4-7.3-2-7.3-1 0-2.7-1-1.6-1 .7 0 2.4-2.4 2.4-3.4 0-.6-.3-.8-1.2-1-.7-.1-1.4-.5-1.7-.8-.3-.4-.2-.5.5-.8 1.4-.5 2.4-1.7 2.4-2.9 0-1.3-.9-3-1.6-3.3-2.2-.8-3.2.7-3.5 5.2-.2 2.8-.2 3.5.4 5 .5 1.3.6 2 .4 2.4-.3.4 0 1 .6 2 1 1.5 1 1.5.4 3.1-1 2.7-2 7.1-2 8 0 2.1 1.3 3.4 3.3 3.3 1.3 0 1.5-.2 2.3-1.8zm15-1.1a6.2 6.2 0 0 0 3-3c.4-.6 1.3-1.4 2-1.8.9-.5 1.2-1 1.2-1.7 0-.5.2-1.5.5-2.3.6-1.8.2-2.7-1.2-2.7-.5 0-1.3.3-1.7.6-.8.5-.8.8-.7 2.1.2 1.5-.1 2-.6 1.2-.4-.6-1.6.3-1.6 1.3 0 .7-.1.8-.7.5-.4-.2-1-.4-1.5-.4s-1-.2-1.3-.5c-.3-.3-.6-.5-.8-.5-.7 0-2.8 1.8-2.8 2.4 0 .8 1.5 4.4 2.2 5.2.5.6 2 .5 4-.4zM26 50.3c0-.2.3-.9.7-1.4l.7-.8-2.7-.8-3.2-.7c-.5 0-1.7 2.2-2 3.7-.1 1 0 1.1 1 1.7 2.3 1.2 3 1.2 4.3 0 .7-.6 1.2-1.4 1.2-1.7zM14.6 47c.3-2 0-3-.8-3.3-.6-.2-.5-.4.9-1.8 1.7-1.7 1.9-2.4 1-3.4-.6-.6-.6-.7.3-.7 1.4 0 4.1-2.7 4.1-4 0-1.3-.9-2.7-1.8-2.7-.3 0-1.8 1-3.3 2.4-2.5 2.2-2.6 2.4-3.1 4.6a7.4 7.4 0 0 0-.2 3.4c.2.6.3 1.9.2 2.9 0 1.8 1.2 4.5 2 4.3.2 0 .5-.9.7-1.7zm4 .1c.2-.5.5-1.3.5-1.7.1-.5.5-.7 1.5-.8 1 0 1.8-.4 2.4-1 1-1 1-1 1.4-.3 1.1 2 3.6 2.9 5 1.7 1.3-1.2 1.4-1.8.4-2.6-2-1.7-4.9-3.5-5.8-3.5-1.7 0-4.6 1.6-5.4 2.9l-1 1.4c-.3.2-.5 3.3-.3 4.6 0 .7 1 .2 1.3-.7zm57.7-3.3c3-1.2 6.6-2.3 8.4-2.7l3-.6-2.3-1.8-3.2-2.7c-1-.8-6.5-3.8-7-3.8-.2 0-.3.2-.2.5.1.3-.1 1.1-.5 1.8s-.8 1.7-.8 2.3c0 1.4-.3 2-.9 1.9-.3-.2-.5 0-.5.5s.2.7.5.5c.4-.1.6 0 .6.8 0 1-.8 1.2-1.7.3-.5-.5-.6-.5-.9 0-.4.7-1 .4-1-.5 0-.5.3-.7 1-.7.6 0 .8-.2.8-.6 0-.6-.2-.7-.9-.5-.6 0-.8 0-.8-.4 0-.8-.2-.8-1.1 0-.4.4-.7 1-.7 1.7 0 .8-.2 1.2-1 1.5-1 .5-1.1.5-1.1-.1 0-.3-.2-.5-.4-.5s-.5-.3-.6-.6c-.1-.4-.9-1.3-1.7-2.1-1.4-1.3-1.6-1.4-1.8-.8-.3 1-.8.8-.8-.2 0-.6.2-1 .6-1 .5 0 .5 0 0-.6-.4-.3-.6-1.2-.6-1.8 0-2-.4-2.3-2.3-1.6-2.6.9-6.2 2.6-6.2 3 0 .2-.2.4-.4.4-.9 0-5.3 4-7 6.3-.7 1-.7 1.1-.1 1 6.7-2.1 11-1.8 20 1.6a30 30 0 0 0 5.3 1.6c.5 0 3.4-.9 6.3-2zm-1.9-2c0-.7.5-1.5.8-1.3.5.3.3 1.6-.2 1.6-.3 0-.6-.2-.6-.3zm.4-3.2c0-.5.1-.7.2-.5v.9c0 .2-.2 0-.2-.4zm-.4-3.2c0-.2.2-.4.4-.4s.3.2.3.4-.1.3-.3.3a.4.4 0 0 1-.4-.3zm.8 33.5a5 5 0 0 1-.4-2.1c0-1.2.1-1.4.7-1.4s.7.2.7 1.1c0 1-.1 1-.4.5-.2-.7-.3-.7-.3.2 0 .5.2 1 .3 1.2.5.2.5 1.2.1 1.2l-.7-.7zm2-2c0-.2.2-.5.4-.5s.4.3.4.6c0 .2-.2.5-.4.5s-.3-.3-.3-.5z" fill="#908779"/><path d="M39.9 98a12 12 0 0 1-5-2.3c-5-4.5-7.5-8.1-7.3-10.8 0-1.4.2-1.5 1.3-1.6 1.4-.1 3-1 4.6-2.6.6-.7.6-.7-.7-2.9-2.6-4.1-5-10.8-5.5-15.4l-.2-2-2 1-5 2c-1.7.4-3.8 1.3-4.8 1.8-1.4.8-1.7 1.1-1.8 2-.1.8-.4 1.4-1 1.8-1.2.7-3.9 1-5.4.6l-1.3-.4h1.3c3.2-.1 3.2-1.1 0-2.2l-4-1.6c-2.1-1-2.3-1-2.5.1l-.1 1v-1c-.1-.5.2-1.2.6-1.7.5-.5.7-1.2.8-2.7.1-2 1.6-8 1.9-7.7l-.6 3c-1 3.4-1 6-.2 7.2.8 1 1.2 1.3 3 1.7 1 .2 1.3.1 2.3-.8 1.7-1.5 2.2-3.6 2.3-9.6.1-6.1-.2-7.6-1.9-7.6-1 0-1 0-.5-.6.6-.8 1.5-3.8 1.2-4.3-.2-.2-.7-.4-1.3-.4-.6 0-1-.1-1-.2 0-.2.4-.8 1-1.5.9-1 1-1.5 1-2.9 0-2.3-1-3.7-2.9-3.7H4.9l1-.5c1.3-.7 3.3 0 4.7 1.6 1 1.2 1 1.4 1 3.8 0 5.5.2 7.3 1.2 9.1.6 1 1.2 1.7 1.3 1.7.4 0 1.4-3.3 1.4-4.3 0-.4-.3-.8-.7-1-.8-.6-.9-1-.2-1 .6 0 2.3-2.5 2.3-3.3 0-.2-.2-.7-.6-1-.5-.7-.5-.7 0-.5.8.3 3-1 3.8-2.5 1.3-2 .9-4.3-1-5.3l-1-.5h1.4c1 0 1.5.2 2.3 1.2 2 2.2 1.4 5-1.2 7.3-.8.6-1 1-.7.8 3.5-1.3 4.3-1.5 5.9-1.2.8.2 2.2.9 3 1.4l1.5 1.1.6-1.3.5-1.4a42.4 42.4 0 0 1 8-10.1A38.1 38.1 0 0 1 58 17.9c.3-.3-.4-2.7-.8-2.7-.7 0-.7-2.5 0-2.7.3-.1.6-.4.6-.6 0-1.5 12.5-2.3 15.7-1 3.1 1.2 3.7 2.5 2 4.6-1.2 1.7-1.1 2.8.2 2.8a37.9 37.9 0 0 1 20.5 12.9c0 .2.2.6.5.9.9 1 2.7 4.6 2.9 5.9.1.6.3 1.2.5 1.2.1 0 .4.7.5 1.5.1 1 .4 1.6.6 1.6.2 0 .3.3.3.6 0 .8 2 .7 2.3-.2.3-1 1.8-1.3 2.5-.7.4.4.5 1 .4 2.4-.1 1.3 0 3 .5 5.2.4 1.8.7 3.5.5 3.8-.4 1.3-.9.4-1.3-2.6-.5-4-.6-4.2-2.4-3.4-1.8.8-1.9 1-2.9 5-.9 3.7-1.6 5.2-3.7 8-4.8 6.2-12.4 8.3-19 5.1-2.4-1-5.6-4.3-6.8-6.8a20 20 0 0 1-1.3-5.2l-.4-3.2-.2 3c-.3 4-1.5 6.7-4.4 9.8a15 15 0 0 1-6.6 4.5c-1.5.5-1.5.5-1.5 2 0 1-.2 1.7-.6 2.2-.6.6-1 .6-4.3.2l-5-.6c-1.5-.2-1.5-.2-1.5.8 0 1.4.7 3.2 1.4 3.5 1 .4 3.3.8 3.7.6.3-.1.5-.5.5-.8 0-.4.2-.8.4-.9.2-.1.3.1.3.5s.2.8.5 1c.7.6 3.1 1 5 .9l2-.2.2-1.4.2-1.5.2 1.4c.2 1.4.2 1.4 2 1.6 1 .1 2.5 0 3.3-.1 1.5-.3 1.8-.7 2.3-2.9.2-.6.3-.8.4-.5l.3 1.8c.2 1.3.2 1.4 2 1.4 3 0 3.9-.4 4.5-1.9l.7-1.4.2 1.3c.2 1.2.3 1.2 1.5 1.2.8 0 1.7 0 2.1-.2 1.3-.3 2-2.6 2.2-6.5 0-.5.4-1 .9-1.2l.9-.4-.2 2-.3 3.3c-.2 1-.2 1.3.3 1.5 1 .3 2.3-1.3 2.5-3 .2-1.2.5-1.5 1.3-1.8l1.1-.4v1.5l-.1 1.5.5-1c.3-.6.5-1.3.5-1.6 0-.6 3.7-2.5 4.7-2.5.2 0-.6 1-1.8 2.2-2.8 2.8-3 3.2-2.1 4 .7.7.7.6 2-.7L93 71s.2-.4.5-.6c.8-1 1.1-1.5 2.5-4.2a25 25 0 0 1 2.1-3.6c1.2-1.3 2-2.9 2-4 0-.6.2-1.1.4-1.1.3 0 .3.5.2 1.4-.2 1.8.3 1.7 1.4 0 1.6-2.5 1.8-2.7 2.2-2.1.8 1-.3 11.3-1.5 14.1a39 39 0 0 1-4 8.3c-.4.3-.4.5-.2.5.3 0 .7.3 1 .6 1.7 1.5 2.5 2 3.5 2 1.6 0 2.3 1 2 2.4-.3 2.3-.9 3.4-3 6.1-1 1.3-2 2.3-2.2 2 0 0-.2 0-.2.2 0 .8-3.3 3.6-4.3 3.7-.2 0-.7.2-1.1.5-.4.3-1.4.5-2.4.5h-1.7v-1.3c0-1.8-.3-3-1-3-.2 0-.4-.1-.4-.4 0-.5-1.6-2.3-2.1-2.3a29.5 29.5 0 0 1-8 3.9c-.3 0-.5 0-.5.3 0 .1-1 .4-2.2.5-1.2.2-2.3.5-2.4.7-.4.5-14.7.5-15 0-.2-.2-1.1-.5-2.2-.7-1-.1-1.8-.4-1.8-.5 0-.2-.3-.4-.6-.4a33 33 0 0 1-7-2.8L46 91l-.9 1.1-1.3 1.6c-.7.7-1 2.1-.9 3 .2.5 0 .7-.3.7-.4 0-.6.2-.6.5s-.1.5-.3.5L40 98zm26.7-12.8c.4-.2 1-.7 1.1-1.2.3-.7.4-.7.3-.1-.2.9.3 1.1 2.3 1.1 3 0 4.2-.4 4.7-1.5.5-1 .5-1 .7-.3.3 1 .5 1 3-.3 1.3-.7 2.2-1.4 2.4-1.9.4-1.1.6-3.8.2-4.4-.4-.6-4.8-.2-5.4.6-.3.4-.5.5-.8.1-.6-.5-4.4-.5-5.9 0-1 .3-1.1.5-1.2 2V81l-.3-1.4c-.3-2-1-2.3-4.2-2-1.5 0-2.9.3-3.2.6-.5.4-.6.4-1 0-.5-.6-5.6-1-6.5-.5-.3.3-.6.8-.6 1.1 0 .5-.2.4-.3-.3-.3-1.3-1.2-1.8-4.1-2l-2.1-.3 1.7 1.6A38 38 0 0 0 57.7 84l3.2.9c1.4.5 4.4.6 5.7.3zm18.2-7c1.3-1.5 1.7-3 .8-3.3l-1.9.1-1.3.3.1 2c.2 3 .5 3.1 2.3 1zm-40.2-5.4l-.3-2.1-2-.3-1.8-.3.2 1c.3 1 2.9 3.6 3.7 3.7.4 0 .4-.4.2-2zm43.9.4l-1 .2c-.7.3-.7.4-.4.9.4.4.6.4 1-.2.3-.4.5-.8.4-.9zM39 70c0-.3-.4-.4-.6-.3-.2.1-.2.4 0 .7.6.6 1 .4.6-.4zm6.1-1.2c0-.2.4-.4.7-.4.4 0 .5 0 .1-.4-.2-.2-.4-.7-.4-1 0-.3-.4-.9-1-1.2l-2.8-2.5-2-1.7.3 1.2c.2.7.4 1.4.6 1.6l.4 1.4.8 2.4c.6 1.3.6 1.4 1.9 1.1.7-.1 1.3-.4 1.4-.5zm2.5-1c0-.3-.1-.4-.3-.4-.3 0-.3.1-.2.3l.4.4.1-.4zm-43-2.4L3.4 65c-.2 0 0 .3.5.5L5 66c.2 0 0-.2-.5-.5zm10-1.6c.9-.7 2-3.5 2-5.1 0-.9-1.3-1.5-1.8-1-.4.5-1.7 5.2-1.7 6.2 0 .8.3.8 1.5 0zm7.6-2c2-.6 3.7-1.8 5-3.6.5-.9 1.5-1.9 2.2-2.3 1.5-.8 1.5-.9 1.8-4.3.2-2.3.2-2.5-.5-3-1-.4-2.7-.1-3.6.7-.8.7-.9.2-.1-.6.5-.6.3-.7-2-1.4l-3.3-.7c-.6 0-1.7 2-2 3.7-.3 1-.2 1.1 1 1.8 2 1.1 3 1.1 4.2 0 .6-.7 1.2-1.4 1.3-1.7.1-.2.2.1.2.8 0 1 0 1.3-.5 1.1-.7-.2-1.6.5-1.6 1.3 0 .6-.1.6-1.1.3l-2-.8c-1-.4-1.1-.3-2.6 1-1.4 1.3-1.7 1.8-1.7 2.8 0 .6.2 1.3.3 1.5l1 2c.7 1.9 1 2 4 1.3zm-2.8-15.4c.4-1.5.5-1.5 1.6-1.4 1 .2 1.2 0 1.8-.7l1-1c.2 0 .8.7 1.4 1.4 1 1.1 1.4 1.3 2.7 1.3 1.2 0 1.6-.2 2.3-1 1.5-1.7 1.2-2.6-2-4.7-2-1.4-3-1.8-4-1.8-1.3 0-4.8 1.2-4.8 1.7l-1 1.8c-1 1.2-1.2 1.9-1.3 3.6a8 8 0 0 0 .2 2.8c.4.6.4.7 1 .1.4-.3.9-1.3 1.1-2.1zM75 44.3a34 34 0 0 1 12.8-3.6c0-.2-1.1-1.2-2.5-2.2l-3.2-2.6c-.7-.7-6.4-3.8-7-3.8-.1 0-.2.2 0 .5 0 .3-.2 1.1-.6 1.8-.4.7-.8 1.7-.8 2.3 0 1.4-.3 2-.9 1.9-.3-.2-.5 0-.5.5s.2.7.5.5c.4-.1.6 0 .6.8 0 1-.8 1.2-1.7.3-.5-.5-.6-.5-.9 0-.4.7-1 .4-1-.5 0-.5.3-.7 1-.7.6 0 .8-.2.8-.6 0-.6-.2-.7-.9-.5-.6 0-.8 0-.8-.4 0-.8-.2-.8-1.1 0-.4.4-.7 1-.7 1.7 0 .8-.2 1.2-1 1.5-1 .5-1.1.5-1.1-.1 0-.3-.2-.5-.4-.5s-.5-.3-.6-.6c-.1-.4-.9-1.3-1.7-2.1-1.4-1.3-1.6-1.4-1.8-.8-.3 1-.8.8-.8-.2 0-.6.2-1 .6-1 .5 0 .5 0 0-.6-.4-.3-.6-1.2-.6-1.8 0-2-.4-2.3-2.3-1.6-2.6.9-6.2 2.6-6.2 3 0 .2-.2.4-.4.4-.9 0-5.3 4-7 6.3-.7 1-.7 1.1 0 1 2-.7 5.7-1.3 7.8-1.3 2.5 0 6.9 1 9.9 2.1l7.6 2.8 4.9-1.9zm-.6-2.6c0-.7.5-1.5.8-1.3.5.3.3 1.6-.2 1.6-.3 0-.6-.2-.6-.3zm.4-3.2c0-.5.1-.7.2-.5v.9c0 .2-.2 0-.2-.4zm-.4-3.2c0-.2.2-.4.4-.4s.3.2.3.4-.1.3-.3.3a.4.4 0 0 1-.4-.3zM76 72c0-.4 0-.5.2-.2v.7c-.2 0-.2-.1-.2-.5zm.9-1c-.3-.8-.3-3 0-3 .2 0 .5.5.8 1 .5 1.3 1.1 1.3 1.5 0 .1-.5.2-.6.2-.4 0 .2.4.4.7.4.5 0 .8.4.9 1l.1 1-2 .3c-1.7.2-2 .2-2.2-.3zm8.2-1.2c0-.2.2-.4.4-.4s.3.2.3.4c0 .1-.1.3-.3.3a.4.4 0 0 1-.4-.3zm-9.8-1.1a5 5 0 0 1-.4-2.1c0-1.2.1-1.4.7-1.4s.7.2.7 1.1c0 1-.1 1-.4.5-.2-.7-.3-.7-.3.2 0 .5.2 1 .3 1.2.5.2.5 1.2.1 1.2l-.7-.7zm-72.6-.7c0-.2 0-.3.4-.1.6.2.7.4.2.4l-.6-.3zm74.7-1.2c0-.3.1-.6.3-.6.2 0 .4.3.4.6 0 .2-.2.5-.4.5s-.3-.3-.3-.5zM4 51.5c.1-1 0-2-.2-2.4l-.2-.8.7 1c.5 1 .5 1.3 0 2.4L4 53.1zM3 45.3c0-1 0-1.3.2-.8v1.8c-.1.4-.2 0-.2-1zm-.4-3.5c0-.6.1-.8.2-.4v1c-.1.3-.2 0-.2-.6zm0-2.6c0-.5.1-.7.2-.5v.9c0 .2-.2 0-.2-.4zm9.8-4.4a20.6 20.6 0 0 1 4-3.3c-.6.7-4 3.6-4 3.3zm4.9-4.2c.2-.2.5-.3.6-.2.1.1 0 .3-.4.4-.5.2-.6.2-.2-.2z" fill="#67635d"/><path d="M39.9 98a12 12 0 0 1-5-2.3c-5-4.5-7.5-8.1-7.3-10.8 0-1.4.2-1.5 1.3-1.6 1.4-.1 3-1 4.6-2.6.6-.7.6-.7-.7-2.9-2.6-4.2-5-10.8-5.5-15.4l-.2-2-1.1.6c-.6.4-1.3.7-1.5.7-.2 0 .2-.3.8-.6.5-.4 1.6-1.5 2.4-2.5.7-1 1.8-2 2.3-2.3 1.4-.8 1.6-1.4 2-4.6.1-2.5 0-3-.4-3.5-.6-.6-2.5-.8-3.3-.3-.3.2-1.3 0-2.5-.3l-3.3-1-1.3-.3-1 1.9c-1 2.2-1 2.9-.2 3.6.4.2.5.4.2.3-.2-.1-.5.1-.6.5 0 .4-.3.6-.5.5-.2-.1-.6.2-1 .7-.3.6-1.3 1.5-2.2 2.1-1.3 1-1.6 1.4-2.2 3.4l-1.2 4.5c-.8 2.9-.4 3.4 1.4 1.7.8-.7 2.3-1.5 3.6-2 3.4-1 3.5-.8.2.5s-4.2 2-4.4 3.3c-.1 1.2-1.5 2.1-3.4 2.4-1.4.1-1.5.1-.5-.2a4 4 0 0 0 1.5-.9c.4-.4.3-.5-.2-.7-1.5-.6-1.5-1.8-.1-4.5a14 14 0 0 0 1.4-4.7 30 30 0 0 0-.6-10.8c-.5-1.2-.7-1.3-1.5-1.1-.6.1-.8 0-.4-.2.5-.3 1-2.5 1-4 0-.9 0-1-1-1H8.3l.8-.8c1.8-2 1.8-5.2 0-6.7-.6-.5-.9-1-.7-1 .2 0 1 .6 1.7 1.2l1.3 1.2.1 5c.1 5 .2 5.1 1.3 7.2a7.8 7.8 0 0 0 1.6 2.3c.6.2 1.5-1.9 1.7-4 .2-1.5.1-2-.4-2.1-.4-.2-.4-.3.4-1 .5-.3 1.2-1.2 1.5-2l.7-1.3-.8-.4-.7-.3h.7c1-.1 3.2-2 3.9-3.3a4 4 0 0 0-.5-4.6c-.8-1-.8-1-.2-.7 2.9 1.5 2.9 5.8 0 8-.5.3-1.3 1.4-1.7 2.3l-1.3 2.3c-.5.5-.6 1.2-.6 3.5.2 4 .2 4 .5 4 .4 0 2.2-2.6 2.5-3.7.2-.9.4-1 1.4-1 .8 0 1.4-.3 1.8-.9l.8-.9.8 1c1 1.2 2 1.7 3.6 1.7 1.2 0 1.6-.2 2.3-1.1 1-1.2 1.5-2.6 1.1-3.1 0-.3-1.1-1-2.3-1.8-1.1-.8-2-1.6-2-1.7 0-.2.4 0 1.8 1l1 .7.5-1.3.5-1.4a42.4 42.4 0 0 1 8-10.1A38.1 38.1 0 0 1 58 17.9c.3-.3-.4-2.7-.8-2.7-.7 0-.7-2.5 0-2.7.3-.1.6-.4.6-.6 0-1.5 12.5-2.3 15.7-1 3.1 1.2 3.7 2.5 2 4.6-1.2 1.7-1.1 2.8.2 2.8a37.9 37.9 0 0 1 20.5 12.9c0 .2.2.6.5.9.9 1 2.7 4.6 2.9 5.9.1.6.3 1.2.5 1.2.1 0 .4.7.5 1.5.1 1 .4 1.6.6 1.6.2 0 .3.3.3.6s.4.5 1 .5 1.1-.2 1.1-.4c0-.1.4-.6.9-.9.6-.4 1-.4 1.5-.1.7.3.7.7.7 3.4 0 2.2.1 3.6.6 5 .6 1.7.5 3.6 0 3.6-.2 0-.6-1.5-.8-3.3-.6-4.3-.6-4.2-2.1-3.5-2 .8-2.4 1.4-3.4 5.3-1 4.3-2.5 7-5.4 9.8-6.2 6-15.4 6.2-21.1.3a12.3 12.3 0 0 1-4-9.2c-.1-3.5-.7-4.6-.7-1.4a15 15 0 0 1-4.3 11c-2 2-4.1 3.5-6.7 4.4-1.6.6-1.6.6-1.6 2.2 0 2.6-.5 2.8-4.9 2.4A92.8 92.8 0 0 1 40 69.8l-.1.7c0 1 4 4.5 5.3 4.8.6.1 1 .3.8.6-.2.7 2.9 3.3 6.5 5.6 4 2.5 9.3 4 12.7 3.8 1.3-.2 3.8-.3 5.5-.4a18 18 0 0 0 8.2-2c2-1 5.7-4.1 7-6 .4-.6 1.3-1.8 2-2.4.5-.7 1-1.4.9-1.6-.1-.2 0-.7.3-1a7 7 0 0 0 1-2c.3-1.4.6-1.6 2.1-2.2 2-.8 2.5-.7 1.1.2-.5.4-1.6 1.5-2.5 2.6l-1.6 2 .7.7.8.7 1.2-1.3a9 9 0 0 0 1.2-1.6s.2-.4.5-.6c.8-1 1.1-1.5 2.5-4.2a25 25 0 0 1 2.1-3.6c1.2-1.3 2-2.9 2-4 0-.6.2-1.1.4-1.1.3 0 .3.5.2 1.4-.2 1.8.3 1.7 1.4 0 1.6-2.5 1.8-2.7 2.2-2.1.8 1-.3 11.3-1.5 14.1a39 39 0 0 1-4 8.3c-.4.3-.4.5-.2.5.3 0 .7.3 1 .6 1.7 1.5 2.5 2 3.5 2 1.6 0 2.3 1 2 2.4-.3 2.3-.9 3.4-3 6.1-1 1.3-2 2.3-2.2 2 0 0-.2 0-.2.2 0 .8-3.3 3.6-4.3 3.7-.2 0-.7.2-1.1.5-.4.3-1.4.5-2.4.5h-1.7v-1.3c0-1.8-.3-3-1-3-.2 0-.4-.1-.4-.4 0-.5-1.6-2.3-2.1-2.3a29.5 29.5 0 0 1-8 3.9c-.3 0-.5 0-.5.3 0 .1-1 .4-2.2.5-1.2.2-2.3.5-2.4.7-.4.5-14.7.5-15 0-.2-.2-1.1-.5-2.2-.7-1-.1-1.8-.4-1.8-.5 0-.2-.3-.4-.6-.4a33 33 0 0 1-7-2.8L46 91l-.9 1.1-1.3 1.6c-.7.7-1 2.1-.9 3 .2.5 0 .7-.3.7-.4 0-.6.2-.6.5s-.1.5-.3.5L40 98zM39 70c0-.3-.5-.5-1-.5h-.8l.9.7c.9.8 1.3.7 1-.2zm6.1-1.2c0-.2.4-.4.7-.4.4 0 .4 0 0-.5-.2-.3-.3-.7-.2-1 .1-.3-.1-.6-.6-.9a20 20 0 0 1-3-2.4l-2.2-2 .2 1.2c.2.7.4 1.4.6 1.6l.4 1.4.8 2.4c.6 1.3.6 1.4 1.9 1.1.7-.1 1.3-.4 1.4-.5zm2.5-1c0-.3-.1-.4-.3-.4-.3 0-.3.1-.2.3l.4.4.1-.4zm27.6-23.5a36 36 0 0 1 12.6-3.6c0-.2-1.1-1.2-2.5-2.2l-3.2-2.6c-.7-.7-6.4-3.8-7-3.8-.1 0-.2.2 0 .5 0 .3-.2 1.1-.6 1.8-.4.7-.8 1.7-.8 2.3 0 1.4-.3 2-.9 1.9-.3-.2-.5 0-.5.5s.2.7.5.5c.4-.1.6 0 .6.8 0 1-.8 1.2-1.7.3-.5-.5-.6-.5-.9 0-.4.7-1 .4-1-.5 0-.5.3-.7 1-.7.6 0 .8-.2.8-.6 0-.6-.2-.7-.9-.5-.6 0-.8 0-.8-.4 0-.8-.2-.8-1.1 0-.4.4-.7 1-.7 1.7 0 .8-.2 1.2-1 1.5-1 .5-1.1.5-1.1-.1 0-.3-.2-.5-.4-.5s-.5-.3-.6-.6c-.1-.4-.9-1.3-1.7-2.1-1.4-1.3-1.6-1.4-1.8-.8-.3 1-.8.8-.8-.2 0-.6.2-1 .6-1 .5 0 .5 0 0-.6-.4-.3-.6-1.2-.6-1.8 0-2-.4-2.3-2.3-1.6-2.6.9-6.2 2.6-6.2 3 0 .2-.2.4-.4.4a20 20 0 0 0-4.9 3.9c-1.2 1.2-3 3.5-2.7 3.5l3.3-.7c5.6-1.3 8.4-.9 17 2.2l5.5 2 5.2-2zm-.8-2.6c0-.7.5-1.5.8-1.3.5.3.3 1.6-.2 1.6-.3 0-.6-.2-.6-.3zm.4-3.2c0-.5.1-.7.2-.5v.9c0 .2-.2 0-.2-.4zm-.4-3.2c0-.2.2-.4.4-.4s.3.2.3.4-.1.3-.3.3a.4.4 0 0 1-.4-.3zm-15 42.3c-.3-.6.4-1.2 1-.8.5.3.5.4 0 .7-.5.3-.8.3-1 0zm7.6-.1c-.3-.4-.2-.6.1-.8l.7-.7c0-.2.4-.1.7.2.6.6.5.7-.2 1.2s-1 .5-1.3 0zM51.6 77c-.7-.4-.7-.4-.2-.8.5-.2.8-.2 1.3.3.8.7 0 1-1 .5zm23.3-.2c-.2-.4.4-1 1-1s.6.5 0 1c-.5.2-.8.2-1 0zm6.2-1c-.8-.1-.8-.1.4-.6l1.5-.5c.3 0 0 .2-.4.4-.4.1-.7.4-.6.6l.1.4-1-.3zm4.9-2c.5-.3.8-1 1-2.1a6 6 0 0 1 .7-2.2c.4-.6.5-.4.3 1.3-.3 1.9-1.4 3.5-2.4 3.5-.2 0 0-.2.4-.5zm-9.2-2.8c-.3-.8-.3-3 0-3 .2 0 .5.5.8 1 .5 1.3 1.1 1.3 1.5 0 .1-.5.2-.6.2-.4 0 .2.4.4.7.4.5 0 .8.4.9 1 .2 1 .1 1-2.1 1.4-1.5.2-1.8 0-2-.4zm4.8-.7l.2-1.4c0-.4.4-.9.9-1.1.8-.4.8-.4.8 1 0 1.6-.4 2-1.4 2-.5 0-.6-.2-.5-.5zm3.4-.5c0-.2.2-.4.4-.4s.3.2.1.4l-.3.3-.2-.3zm-9.8-1.1a5 5 0 0 1-.4-2.1c0-1.2.1-1.4.7-1.4s.7.2.7 1.1c0 1-.1 1-.4.5-.2-.7-.3-.7-.3.2 0 .5.2 1 .3 1.2.5.2.5 1.2.1 1.2l-.7-.7zm2-2c0-.2.2-.5.4-.5s.4.3.4.6c0 .2-.2.5-.4.5s-.3-.3-.3-.5zM1.7 64.3c-.5-.5-.5-.6 0-.8.3-.1.5 0 .6.7.2 1 .2 1-.6.1zm19.5-1.6h.7c0 .1-.1.2-.5.2s-.5-.1-.2-.2zm1.4-.4h.7c.1.1-.1.2-.5.2s-.5 0-.2-.2zm.3-9c-.5-.1-.6-.2-.2-.3.3 0 .7.2 1 .4.7.4.1.4-.8 0z" fill="#fb0303"/><path d="M59.4 77.6c-.3-.6.4-1.2 1-.8.5.3.5.4 0 .7-.5.3-.8.3-1 0zm7.6-.1c-.3-.4-.2-.6.1-.8l.7-.7c0-.2.4-.1.7.2.6.6.5.7-.2 1.2s-1 .5-1.3 0zM51.6 77c-.7-.4-.7-.4-.2-.8.5-.2.8-.2 1.3.3.8.7 0 1-1 .5zm23.3-.2c-.2-.4.4-1 1-1s.6.5 0 1c-.5.2-.8.2-1 0zm-30.1-1.2c-.5-.6-.1-.7.9-.3.3 0 .4.3.3.5-.3.4-.7.4-1.2-.2zm36.3.2c-.8-.1-.8-.1.4-.6l1.5-.5c.3 0 0 .2-.4.4-.4.1-.7.4-.6.6l.1.4-1-.3zm4.9-2c.5-.3.8-1 1-2.1a6 6 0 0 1 .7-2.2c.4-.6.5-.4.3 1.3-.3 1.9-1.4 3.5-2.4 3.5-.2 0 0-.2.4-.5zm2.8-1.1c-.1-.1 0-.5.3-.8l1-2.1c.3-1.4.6-1.6 2.2-2.2L94 67l-1.8 2c-1 1-2.2 2.3-2.6 2.9-.4.6-.8 1-1 .9zm-49-1.3c-.7-.5-.9-1.7-.3-1.7.2 0 .4.3.4.7 0 .3.2.8.4 1 .5.6.3.6-.5 0zm-30.4-2a4 4 0 0 0 1.5-.9c.4-.4.3-.5-.2-.7-1.5-.6-1.5-1.8-.1-4.5a14 14 0 0 0 1.4-4.7 30 30 0 0 0-.6-10.8c-.5-1.2-.7-1.3-1.5-1.1-.6.1-.8 0-.4-.2.5-.3 1-2.5 1-4 0-.9 0-1-1-1H8.3l.8-.8c1.8-2 1.8-5.2 0-6.7-.6-.5-.9-1-.7-1 .2 0 1 .6 1.7 1.2l1.3 1.2.1 5c.1 5 .2 5.1 1.3 7.2a7.8 7.8 0 0 0 1.6 2.3c.6.2 1.5-1.9 1.7-4 .2-1.5.1-2-.4-2.1-.4-.2-.4-.3.4-1 .5-.3 1.2-1.2 1.5-2l.7-1.3-.8-.4-.7-.3h.7c1-.1 3.2-2 3.9-3.3a4 4 0 0 0-.5-4.6c-.8-1-.8-1-.2-.7 2.9 1.5 2.9 5.8 0 8-.5.3-1.3 1.4-1.7 2.3l-1.3 2.3c-.5.5-.6 1.2-.6 3.5.2 4 .2 4 .5 4 .4 0 2.2-2.6 2.5-3.7.2-.9.4-1 1.4-1 .8 0 1.4-.3 1.8-.9l.8-.9.8 1c1 1.2 2 1.7 3.6 1.7 1.2 0 1.6-.2 2.3-1.1 1-1.2 1.5-2.6 1.1-3.1 0-.3-1.1-1-2.3-1.8-1.1-.8-2-1.6-2-1.7l.4.1c4.2 2.6 5 3.4 4.7 5l-.2.9 2.7-.2c1.5-.2 3.8-.6 5.2-1a70.6 70.6 0 0 1 12.1-2.4c2.8 0 6.1.8 12.1 3l5.6 2 4.8-2c6.3-2.5 7.8-3 11.2-3.4 3-.3 5.5 0 11.1 1.6 3 .9 6.4 1.2 6.4.5 0-.1.4-.6.9-.9.6-.4 1-.4 1.5-.1.7.3.7.7.7 3.4 0 2.2.1 3.6.6 5 .6 1.7.5 3.6 0 3.6-.2 0-.6-1.5-.8-3.3-.6-4.3-.6-4.2-2.1-3.5-2 .8-2.4 1.4-3.4 5.3-1 4.3-2.5 7-5.4 9.8-6.2 6-15.4 6.2-21.1.3a12.3 12.3 0 0 1-4-9.2c-.1-3.5-.7-4.6-.7-1.4a15 15 0 0 1-4.2 10.8 16.5 16.5 0 0 1-13.5 5.5c-3.9-.2-6.7-1.5-9.8-4.3-3-2.8-4.4-5-5.7-9.5-.6-2.1-1.3-4-1.5-4.3a4 4 0 0 0-1.4-.8c-.9-.3-1-.3-.9.1v2.8l-.4 2.3-3 3.2c-3 2.9-4.3 4-5 4-.2 0 .2-.4.8-.7.5-.4 1.6-1.5 2.4-2.5.7-1 1.8-2 2.3-2.3 1.4-.8 1.6-1.4 2-4.6.1-2.5 0-3-.4-3.5-.6-.6-2.5-.8-3.3-.3-.3.2-1.3 0-2.5-.3l-3.3-1-1.3-.3-1 1.9c-1 2.2-1 2.9-.2 3.6.4.2.5.4.2.3-.2-.1-.5.1-.6.5 0 .4-.3.6-.5.5-.2-.1-.6.2-1 .7-.3.6-1.3 1.5-2.2 2.1-1.3 1-1.6 1.4-2.2 3.4l-1.2 4.5c-.8 2.9-.4 3.4 1.4 1.7.8-.7 2.3-1.5 3.6-2 3.4-1 3.5-.8.2.5s-4.2 2-4.4 3.3c-.1 1.2-1.5 2.1-3.4 2.4-1.4.1-1.5.1-.5-.2zm-7.8-5.3c-.5-.5-.5-.6 0-.8.3-.1.5 0 .6.7.2 1 .2 1-.6.1zm19.5-1.6h.7c0 .1-.1.2-.5.2s-.5-.1-.2-.2zm1.4-.4h.7c.1.1-.1.2-.5.2s-.5 0-.2-.2zm.3-9c-.5-.1-.6-.2-.2-.3.3 0 .7.2 1 .4.7.4.1.4-.8 0zm21.8-22.6a8.3 8.3 0 0 1-1.2-4.2c.2-1.3 1.4-1.6 6.7-2 5.6-.4 8.7-.1 9.4.8.5.8.6 2.5.2 2.8-.3.2-10.6 2.4-13.9 3-.5 0-1-.1-1.2-.4zm42.2.1l-5.3-1.3C75.3 28.2 75 28.1 75 27c0-1.8 1-2.4 5-2.5 1.8 0 4.6.1 6.1.4 3.3.5 4 1.2 3.6 3.6-.4 2-1.7 3-3 2.3z" fill="#12314a"/><path d="M59.4 77.6c-.3-.6.4-1.2 1-.8.5.3.5.4 0 .7-.5.3-.8.3-1 0zm7.7-.1c-.6-.7.7-1.7 1.5-1.1.5.4.5.5-.3 1-.7.4-1 .4-1.2 0zM51.8 77c-.5-.4-.6-.5-.2-.8.3-.3.6-.2 1 .3.6.4.6.6.2.8-.2 0-.7 0-1-.3zm23.1-.2c-.2-.4.4-1 1-1s.6.5 0 1c-.5.2-.8.2-1 0zm-30.1-1.2c-.5-.6-.1-.7.9-.3.3 0 .4.3.3.5-.3.4-.7.4-1.2-.2zm36.6.2c-.6-.2-.6-.3.3-.7l1.3-.4c.2 0 0 .2-.4.4-.4.1-.7.4-.6.6.3.4.3.4-.6 0zm5-2.3a9 9 0 0 0 .7-2.3c.6-2.5 1.2-2.7.9-.4-.2 1-.5 2.2-1 2.5-.7.8-1.2 1-.7.2zm2.4-.9c-.2-.2 0-.4.1-.6.5-.3.7 0 .4.5-.2.3-.4.4-.5.1zm-49-1.2c-.7-.5-.9-1.6-.3-1.6.2 0 .4.2.4.6 0 .3.2.8.4 1 .5.6.3.6-.5 0zm49.8 0l.5-1.6c.4-1.4.6-1.6 2.2-2.2l1.7-.6-2.2 2.3a29.8 29.8 0 0 1-2.2 2.2zm-79-2.4c.8-.4.9-1.4.2-1.4-.3 0-.7-.5-.9-1-.3-1-.2-1.3.5-2.4 1.6-2.7 1.8-3.5 1.8-9.6 0-5-.1-6-.7-7-.4-.9-.8-1.1-1.3-1-.6.2-.6.2-.2-.7.3-.6.6-1.8.7-2.7l.3-1.7H8.9l.8-1.5c1-1.7 1.1-3.7.3-5.3l-.5-1.1 1 1c1 1 1 1.3.8 5.2l.2 3.3c.2 2.2.4 3.1 1.3 4.7.7 1.1 1.4 2 1.7 2 .7 0 1.6-2 1.9-4.1.1-1.5 0-1.8-.6-2-.7-.3-.7-.3 0-.5.4 0 1.1-1 1.7-1.9 1-1.6 1-1.6.3-2.1-.6-.5-.6-.5.2-.5 1 0 3.4-2.4 4-4.2.3-1.2.2-1.6-.4-3l-.8-1.4.9 1c1.8 2 1.6 4.4-.6 6.7-.9.8-1.8 2-2.2 2.8-.3.8-.9 1.8-1.3 2.2a3 3 0 0 0-.6 1.7c0 2.5.4 6.2.6 6.2.4 0 2-2.6 2.5-4 .3-1 .5-1.2 1.2-1 .5 0 1.2-.2 1.8-.8l1-.8 1.2 1.1c2 2.1 4.8 1.9 6.2-.5.9-1.5.7-2.3-.7-3.5L29.5 40l1.1.6c1.5.8 2.3 2 2.1 3.3l-.2.9 2.7-.2c1.5-.2 3.8-.6 5.2-1a74.1 74.1 0 0 1 12-2.4c2.7 0 6.5 1 12.2 3l5.6 2 4.8-2c6.3-2.5 7.8-3 11.2-3.4 3-.3 5.5 0 11.1 1.6 3 .9 6.4 1.2 6.4.5 0-.1.4-.6.9-.9.6-.4 1-.4 1.5-.1.7.3.7.7.7 3.4 0 2.2.1 3.6.6 5 .6 1.8.5 3.6-.1 3.6-.2 0-.4-.5-.4-1 0-.8-.3-2.7-.9-5.6-.2-.8-.2-.8-1.5-.3-2 .9-2.4 1.5-3.2 4.9C99 61.9 91 68 82.5 66.7c-3.2-.5-5.7-1.8-8-4.1a12.3 12.3 0 0 1-3.9-9.2c-.1-3.6-.7-4.6-.8-1.3 0 7.3-4.7 13.5-12 15.6-2 .7-3 .8-5.5.6-3.5-.2-5-.7-8-2.9-4.3-3-6.1-5.6-7.6-11-.6-2-1.3-4-1.5-4.2a4 4 0 0 0-1.4-.8c-.9-.3-1-.3-.9.1v2.8c-.4 2.3-.4 2.3-3.3 5.3-3.6 3.5-5.9 5.3-3 2.2 2-2.2 2.1-2.3 4.1-4.1 1.2-1.1 1.3-1.4 1.4-3.5.1-3.4 0-3.5-.4-4.1-.4-.4-.9-.5-2.4-.4-1.5.2-2.7 0-5-.6l-3-.9c-.2 0-1.9 4-1.9 4.5 0 .3.3.8.6 1 .4.3.4.5.2.3-.3 0-.4 0-.4.4 0 .3-.3.5-.5.5-.3 0-1 .5-1.4 1-.4.6-1.4 1.6-2.2 2.1-1.2.8-1.6 1.4-1.7 2.4l-1.1 4c-1 2.6-1.1 4.3-.5 4.3.2 0 1-.6 1.7-1.2.8-.7 2.2-1.5 3.2-1.8 2.6-.8 2.6-.5 0 .5s-4.2 2.2-4 3.1c.2.8-1.4 2.2-2.5 2.2-.7 0-.7 0-.1-.4zm50.5-5c3.4-1.8 6-5.4 5.9-8.2 0-1.3 0-1.3-.3-.5-.6 2-2.7 5.4-4 6.6-.8.7-2.4 1.7-3.4 2.2-1.5.8-1.8 1-1.1 1 .4 0 1.7-.4 2.9-1zm30.7-1c3.2-1.6 6.1-5.2 6.9-8.4.5-2.4.5-2.6 0-2.3-.1.1-.3.5-.3.8 0 1-1.7 4.2-3.4 6a22 22 0 0 1-3.8 3.3c-2.2 1.4-1.9 1.9.6.6zM58.5 63c2.4-.8 3.7-2 4.5-4 .4-1.2 1-2 1.4-2.2.7-.3.9-.6.9-1.7 0-1.5-1-2.7-1.2-1.6-.1.4-.2.2-.2-.4 0-1-.1-1-1 .7l-1 2.5c-.2 1.1-1.8 3.3-3 4.3-.5.4-2 1-3.4 1.4-1.3.3-2.4.8-2.5 1-.2.7 3.2.6 5.5 0zm5.4-7.4c0-.6.1-.8.2-.5v1c-.1.3-.2 0-.2-.5zm26.1 6a7.3 7.3 0 0 0 4.6-4.3c.5-1 1-2 1.4-2 .3 0 .3 0 0-.1-.2-.2-.3-1-.1-2.7v-2.4l-1.2 2.6a16 16 0 0 1-1.6 3.2c-.4.4-.7 1-.7 1.1 0 .2-.4.8-1 1.4-.9 1.1-5 3-6.5 3-.7 0-.8.5-.1.8.6.3 3.7-.1 5.2-.7zm-47.3-7.8c0-1.2-.2-1.6-.5-1.6s-.6.2-.6.4c0 .5.8 2.8 1 2.8v-1.6zm34.2-4c.7-1.7 4.1-3.4 8.2-4.1.7-.1 1.3-.4 1.3-.6 0-1-5.5.6-8.1 2.4-2.5 1.7-3.7 4.7-2.8 7l.5 1 .2-2.3c.1-1.2.4-2.8.7-3.4zm-31-2.3c.8-.3 1.4-.7 1.4-1 0-.4-.2-.4-1.7.3-1.6.6-2.6 1.5-2.3 2 0 .1.4 0 .7-.2.4-.3 1.2-.8 2-1.1zm28.4-.9l4.4-2c4.2-1.8 2.3-1.3-2.4.6-5.3 2-5.9 2.4-4.8 2.4.4 0 1.6-.4 2.8-1zm-39.7 0c0-.2-.3-.4-.7-.4-.4 0-.8.2-1 .4 0 .2.3.3.8.3s.9-.1.9-.3zM1.8 64.4c-.4-.4-.4-.7-.1-1 .2-.2.4 0 .5.6.2 1 .2 1.1-.4.4zm26.4-25c-.7-.5-.8-.6 0-.3l1 .8c.2.5 0 .4-1-.4zm16.4-8.8a8.3 8.3 0 0 1-1.2-4.2c.2-1.3 1.4-1.6 6.7-2 5.6-.4 8.7-.1 9.4.8.5.8.6 2.5.2 2.8-.3.2-10.6 2.4-13.9 3-.5 0-1-.1-1.2-.4zm42.2.1l-5.3-1.3C75.3 28.2 75 28.1 75 27c0-1.8 1-2.4 5-2.5 1.8 0 4.6.1 6.1.4 3.3.5 4 1.2 3.6 3.6-.4 2-1.7 3-3 2.3z" fill="#562504"/><path d="M59.4 77.6c-.4-.7.4-1.2 1.2-.7.6.4.6.4-.1.3-.4 0-.7 0-.6.3 0 .6-.2.6-.5 0zm7.7 0c-.3-.5-.3-.7.2-1.1.6-.5.8-.5 1.3 0 .7.4.6.4 0 .4-.5 0-.9.3-1 .6 0 .5-.1.5-.5 0zM51.8 77c-.5-.4-.6-.5-.2-.8.3-.3.6-.2 1 .3.6.4.6.6.2.8-.2 0-.7 0-1-.3zM75 77a1 1 0 0 1-.2-.7c0-.2.2-.2.4 0 .2.3.3.6.2.7H75zm.7-.9c-.1-.2 0-.4.1-.4.2 0 .5.2.6.4.1.2 0 .4-.2.4s-.4-.2-.5-.4zm-30.5-.5c-.4-.4-.3-.5.3-.3.4 0 .6.3.5.5-.2.4-.3.4-.8-.2zm36.2.2c-.6-.2-.6-.3.3-.7l1.3-.4c.2 0 0 .2-.4.4-.4.1-.7.4-.6.6.3.4.3.4-.6 0zm5-2.3a9 9 0 0 0 .7-2.3c.6-2.5 1.2-2.7.9-.4-.2 1-.5 2.2-1 2.5-.7.8-1.2 1-.7.2zm2.3-1.3c.1-.2.4-.3.6-.3.2 0 .2.1.1.3 0 .2-.3.4-.5.4s-.3-.2-.2-.4zm1-1s0-.5.3-1c.3-.6.3-.6.3.1 0 .5-.1 1-.3 1-.2.2-.4.1-.4 0zm-50.4-.5c-.1-.3-.1-.7 0-.8.3-.4.6.1.5.8-.2.6-.2.6-.5 0zm-28.6-1.7c.7-.4.8-1.4 0-1.4-.2 0-.6-.5-.8-1-.3-1-.2-1.3.5-2.4 1.6-2.7 1.8-3.5 1.8-9.6 0-5-.1-6-.7-7-.4-.9-.8-1.1-1.3-1-.6.2-.6.2-.2-.7.3-.6.6-1.8.7-2.7l.3-1.7H8.9l.8-1.5c1-1.7 1.1-3.7.3-5.3l-.5-1.1 1 1c1 1 1 1.3.8 5.2l.2 3.3c.2 2.2.4 3.1 1.3 4.7.7 1.1 1.4 2 1.7 2 .7 0 1.6-2 1.9-4.1.1-1.5 0-1.8-.6-2-.7-.3-.7-.3 0-.5.4 0 1.1-1 1.7-1.9 1-1.6 1-1.6.3-2.1-.6-.5-.6-.5.2-.5 1 0 3.4-2.4 4-4.2.3-1.2.2-1.6-.4-3l-.8-1.4.9 1c1.8 2 1.6 4.4-.6 6.7-.9.8-1.8 2-2.2 2.8-.3.8-.9 1.8-1.3 2.2a3 3 0 0 0-.6 1.7c0 2.5.4 6.2.6 6.2.4 0 2-2.6 2.5-4 .3-1 .5-1.2 1.2-1 .5 0 1.2-.2 1.8-.8l1-.8 1.2 1.1c2 2.1 4.8 1.9 6.2-.5.8-1.3.8-2-.2-3.1-.7-1-.7-1 .2 0 .8.7 1 1.2 1 2V45l3-.2c2-.2 4.7-.7 7.3-1.5 9.1-2.6 11.8-2.5 21.4 1l6 2 5.2-2c7.4-3 9.2-3.4 13.4-3.2 2.3.2 4.6.6 7.2 1.3 3.6 1 7.7 1.5 7.7.7 0-.1.4-.6.9-.9.6-.4 1-.4 1.5-.1.7.3.7.7.7 3.4 0 2.2.1 3.6.6 5 .6 1.8.5 3.6-.1 3.6-.2 0-.4-.5-.4-1 0-.8-.3-2.7-.9-5.6-.2-.8-.2-.8-1.5-.3-2 .9-2.4 1.5-3.2 4.9C99 61.9 91 68 82.5 66.7c-3.2-.5-5.7-1.8-8-4.1a12.3 12.3 0 0 1-3.9-9.2c-.1-3.6-.7-4.6-.8-1.3 0 10-9.3 17.8-19.2 16a18.3 18.3 0 0 1-14-14c-.6-3.1-1.3-4.3-3-4.9-.7-.2-.7 0-.9 2.5-.1 2.5-.2 2.8-1.3 3.8l-1.2 1.1 1-1.1c.8-1 1-2.5 1-6.2 0-1.4-.8-1.8-3-1.6-1.4.2-2.6 0-4.8-.6l-3.1-.9c-.2 0-1.9 4-1.9 4.5 0 .3.3.8.6 1 .4.3.4.5.2.3-.3 0-.4 0-.4.4 0 .3-.3.5-.5.5-.3 0-1 .5-1.4 1-.4.6-1.4 1.6-2.2 2.1-1.2.8-1.6 1.4-1.7 2.4l-1.1 4c-1 2.6-1.1 4.3-.5 4.3.2 0 1-.6 1.7-1.2.8-.7 2.2-1.5 3.2-1.8 2.6-.8 2.6-.5 0 .5s-4.2 2.2-4 3.1c.2.8-1.4 2.2-2.5 2.2-.7 0-.7 0-.1-.4zm50.4-5c3.4-1.8 6-5.4 5.9-8.2 0-1.3 0-1.3-.3-.5-.6 2-2.7 5.4-4 6.6-.8.7-2.4 1.7-3.4 2.2-1.5.8-1.8 1-1.1 1 .4 0 1.7-.4 2.9-1zm30.7-1c3.2-1.6 6.1-5.2 6.9-8.4.5-2.4.5-2.6 0-2.3-.1.1-.3.5-.3.8 0 1-1.7 4.2-3.4 6a22 22 0 0 1-3.8 3.3c-2.2 1.4-1.9 1.9.6.6zM58.5 63c2.4-.8 3.7-2 4.5-4 .4-1.2 1-2 1.4-2.2.7-.3.9-.6.9-1.7 0-1.5-1-2.7-1.2-1.6-.1.4-.2.2-.2-.4 0-1-.1-1-1 .7l-1 2.5c-.2 1.1-1.8 3.3-3 4.3-.5.4-2 1-3.4 1.4-1.3.3-2.4.8-2.5 1-.2.7 3.2.6 5.5 0zm5.4-7.4c0-.6.1-.8.2-.5v1c-.1.3-.2 0-.2-.5zm26.1 6a7.3 7.3 0 0 0 4.6-4.3c.5-1 1-2 1.4-2 .3 0 .3 0 0-.1-.2-.2-.3-1-.1-2.7v-2.4l-1.2 2.6a16 16 0 0 1-1.6 3.2c-.4.4-.7 1-.7 1.1 0 .2-.4.8-1 1.4-.9 1.1-5 3-6.5 3-.7 0-.8.5-.1.8.6.3 3.7-.1 5.2-.7zm-47.3-7.8c0-1.2-.2-1.6-.5-1.6s-.6.2-.6.4c0 .5.8 2.8 1 2.8v-1.6zm34.2-4c.7-1.7 4.1-3.4 8.2-4.1.7-.1 1.3-.4 1.3-.6 0-1-5.5.6-8.1 2.4-2.5 1.7-3.7 4.7-2.8 7l.5 1 .2-2.3c.1-1.2.4-2.8.7-3.4zm-31-2.3c.8-.3 1.4-.7 1.4-1 0-.4-.2-.4-1.7.3-1.6.6-2.6 1.5-2.3 2 0 .1.4 0 .7-.2.4-.3 1.2-.8 2-1.1zm28.4-.9l4.4-2c4.2-1.8 2.3-1.3-2.4.6-5.3 2-5.9 2.4-4.8 2.4.4 0 1.6-.4 2.8-1zm-39.7 0c0-.2-.3-.4-.7-.4-.4 0-.8.2-1 .4 0 .2.3.3.8.3s.9-.1.9-.3zm55.7 22.3c0-.4.1-.5.3-.2v.7c-.2.1-.3 0-.3-.5zM1.8 64.4c-.4-.4-.4-.7-.1-1 .2-.2.4 0 .5.6.2 1 .2 1.1-.4.4zm24-3.6c.7-.6 1.7-1.8 2.2-2.5.5-.8 1.2-1.5 1.5-1.6 1-.4-2.6 3.8-3.8 4.5l-1.2.6zm2.4-21.3c-.7-.6-.8-.7 0-.4l1 .8c.2.5 0 .4-1-.4zm16.5-9c-.6-.6-1.2-2.6-.8-2.9.1-.1.2.1.2.5s.3 1.1.6 1.5c.6.8.8.8 2.4.5l6.8-1.4c5.4-1 5.5-1 5-3.1l-.3-1 .7.8c.8.9.9 1.9.2 2.4-.2.2-2.2.7-4.5 1.1-3.8.7-7.4 1.5-9 2-.4.1-1 0-1.3-.4zm42 0c-.7-.2-3-.8-5.3-1.2l-4-1 5.3.8c6 1 6 1 6.5-1.6.3-1.6.3-1.6.4-.3 0 1.7-.6 3.4-1.3 3.6-.4 0-1.1 0-1.7-.3zm-11.2-2.8c-.7-.9-.2-1.1.6-.3.5.5.6.8.3.8s-.7-.2-.9-.5z" fill="#152233"/><path d="M51.9 77.1c-.5-.6 0-1 .7-.5.3.2.4.4.1.7-.3.2-.5.2-.8-.2zm15.3.2c-.1-.3 0-.6.2-.8.6-.4.7-.4 1.4 0 .4.3.4.4-.2.4-.5 0-.9.2-1 .4 0 .3-.2.3-.4 0zm-8-.2c0-.3 1.1-.5 1.3-.3 0 .2-.2.3-.6.4l-.6-.1zm22.5-1.2v-.5c.2-.1.4 0 .4.3 0 .6-.1.6-.4.2zM45 75.5c-.1-.2 0-.3.3-.1.6.2.7.4.2.4-.2 0-.4-.1-.5-.3zm42.5-4c0-.5.1-.6.2-.3v.7c-.1 0-.2-.1-.2-.5zm-76-2.7c.7-.8.7-.8-.5-1.4-1-.6-1-1.8.3-4.1 1.6-2.8 2.2-7.8 1.6-12-.5-3-1.5-5.2-2.2-5-.3.2-.4.1-.3-.2.5-.7.9-3.2.6-4-.1-.7-.3-.8-1-.7l-.9.3.8-1.1c1-1.2 1.3-4.1.7-5.4-.4-.8-.4-.8.2-.1.8 1 1 2.3.6 3.8-.3 1-.3 1.7 0 2l.2 2.8c0 1.7.3 2.5 1.1 4.2 1.9 3.4 2 3.5 3.2 1 .8-1.7 1-5.1.2-5.2-.2 0-.1-.1.2-.3.7-.4 2.4-3.2 2.4-3.8 0-.3.6-1 1.3-1.6 1.7-1.5 2.7-3.6 2.4-5-.1-.8 0-1 .2-.5.6 1 .3 2.6-.7 4.3-.6.9-1.3 1.7-1.7 1.8-.4.1-.9.8-1.1 1.7-.3.8-.9 1.8-1.3 2.3-.9.8-1 1-.8 4.6 0 4-.6 6.7-2.2 8.9a8 8 0 0 0-1 2.6L12.6 63c-1.2 3.2-1.2 4 0 4 1 0 1 .8-.1 1.8-1.2.9-1.9 1-1 0zM50 68a18.8 18.8 0 0 1-13.4-14c-.7-3.2-1.4-4.3-3.1-4.9-.8-.2-.8-.1-.8 2 0 1.2-.1 2-.3 2-.2-.2-.3-1.1-.2-2.2.2-1 0-2.2-.2-2.6-.4-.9-2-1.3-3.3-.8-1 .4-2.7 0-7-1.2-.5-.2-.8.2-1.6 1.8a6.3 6.3 0 0 0-.7 2.8c.1.7 0 1.1-.7 1.8-1 .9-1.4.9-.8-.1l2.4-6c.1-.7.4-.8 1.2-.8a3 3 0 0 0 1.9-.8l.8-.7 1 1.1c.8.9 1.4 1.2 2.6 1.3 2 .2 3.2-.4 4-2.2.7-1.4 1-1.6.6-.4-.2.7-.1.7 3 .5 2-.2 4.7-.7 7.3-1.5 8.4-2.4 11.7-2.4 18.8 0l6 2.2 2.7.9 5.3-2.1c3-1.2 6.4-2.5 7.7-2.8 3.2-.8 7.9-.5 12.5.8 2 .6 4.3 1.2 5.4 1.3 1.6.2 1.9.2 2.6-.6 2-2 3.3-1.2 3 2-.2 1.5-.1 2.8.5 5 .7 2.8.7 3.1.2 3.6-.5.6-.6.5-.6-.4 0-1.7-.9-6.2-1.3-6.2-.8 0-2.6.8-3 1.4-.4.3-1 2-1.3 3.7-1.9 8-7.1 13.4-14.1 14.7-6.2 1.1-12-1.9-15.2-7.8a10 10 0 0 1-1.4-5.5c-.1-3.4-.7-4.6-.7-1.6 0 4.6-1.6 8.2-4.8 11.6-4 4-9.5 5.7-15 4.7zm10.5-3.6c2.3-1.1 4.6-3.3 5.7-5.5.8-1.6 1.3-4.5.7-4.8-.2-.2-.3 0-.3.5 0 1.5-2 5-3.7 6.8-1 .9-2.7 2.1-4.2 2.8-2.2 1.1-2.4 1.3-1.4 1.3.6 0 2-.5 3.2-1zM92.4 63c3.6-2.1 6.3-6 6.6-9.7.1-1.6 0-2-.2-1.7-.2.3-.4.9-.4 1.3s-.5 1.8-1.2 3.2c-1.5 3-4 5.4-7.3 7.1l-2.2 1.2 1.6-.2c.8-.2 2.2-.7 3-1.2zm-35 .6l1.7-.7c1.2-.4 3.9-2.3 3.6-2.6-.3-.3 1.2-3 1.8-3.1.7-.2.8-.5.8-2.3 0-1.7-.2-2.1-.7-2.5-.4-.2-.7-.7-.7-1.1 0-.7-1.4-2.7-1.7-2.4a29.3 29.3 0 0 0-9.6-1c-3 .2-5.4.9-6.3 2-1.2 1.3-2.1 4-2 5.2.8 5 3 7.9 7 8.5 1.9.3 5.6.3 6 0zm34.8-3a8 8 0 0 0 2.4-3c.6-1 1.2-2 1.4-2 .3-.2.3-.3 0-.4-.2-.2-.2-.8 0-2 .4-2 0-4.2-.8-5.2-.5-.7-1-.8-4.3-.9-3.9-.1-6.8.2-9.2 1.2-1.2.4-1.8 1-3 2.9-.8 1.4-1.4 2.6-1.2 2.9l.4 2.3c.4 2.4 1.4 4.4 2.8 5.2 2.8 1.6 8.4 1.1 11.5-1zM77 57.5c-.3-.5-.5-2.2-.5-3.8 0-3.4.7-4.9 2.8-6a20.8 20.8 0 0 1 15-1c.2-.4-2.4-1.7-4.2-2a17 17 0 0 0-12.3 3c-2.6 2-3.3 6.1-1.7 9.4 1 1.9 1.6 2.2.9.4zm-34-3.1c-.3-1.8-.5-2.3-.9-2.2-1 .2-.2 4.5.8 4.5.3 0 .4-.5 0-2.3zm.3-5.4c.2.1.6 0 1-.4a6 6 0 0 1 1.9-1c.6-.3 1.2-.8 1.3-1.1.1-.6 0-.6-.7-.4-2.1.8-4.4 2.6-4.4 3.3 0 .2.2.2.4-.1.2-.3.4-.4.5-.3zm35.1 0l-.1-.4-.4.3c-.1.2 0 .4.1.4.2 0 .4-.2.4-.4zm-3-2.6a102 102 0 0 1 8-3.8c-1.5 0-12.1 4.2-12.3 4.9-.3.8 1.4.3 4.2-1zm-40.5.2c.1-.3-.2-.5-.9-.5-1 0-1.4.3-.8.9.3.3 1.6 0 1.7-.4zm24.8.4c0-.4-3-1.5-4.7-1.8-1.5-.2-1.6-.1-1.6.5 0 .7.2.8 1.6.8 1 0 2.1.2 2.6.3 1 .4 2.1.4 2.1.2zm-16.2-2.3c2.2-.8 3.5-1.3 2.8-1.2-2 .3-8.7 2.5-7.7 2.6.5 0 2.7-.6 4.9-1.4zM1.6 64.2c-.2-.2-.2-.5 0-.6 0 0 .2.1.3.4.2.6 0 .7-.3.2zm26-5.2c.8-1 1.6-2 1.8-2 .5-.4-1.9 2.9-2.5 3.4-.3.3 0-.4.8-1.4zm4.4-4.7c.1-.5.3-.6.4-.4 0 .3 0 .7-.2.9-.3.2-.3 0-.2-.5zm12.7-23.8c-.6-.6-1.2-2.6-.8-2.9.1-.1.2.1.2.5s.3 1.1.6 1.5c.6.8.8.8 2.4.5l6.8-1.4c5.4-1 5.5-1 5-3.1l-.3-1 .7.8c.8.9.9 1.9.2 2.4-.2.2-2.2.7-4.5 1.1-3.8.7-7.4 1.5-9 2-.4.1-1 0-1.3-.4zm42 0c-.7-.2-3-.8-5.3-1.2l-4-1 5.3.8c6 1 6 1 6.5-1.6.3-1.6.3-1.6.4-.3 0 1.7-.6 3.4-1.3 3.6-.4 0-1.1 0-1.7-.3zm-11.2-2.8c-.7-.9-.2-1.1.6-.3.5.5.6.8.3.8s-.7-.2-.9-.5z" fill="#121c2a"/><path d="M51.7 77c-.1-.3 0-.4.3-.4s.6.1.6.3c0 .2-.2.4-.4.4s-.4-.2-.5-.4zm15.7-.1c0-.5.5-.7 1-.4.3.2.3.4-.3.5-.4.1-.7 0-.7-.1zm-55.1-8.3l.3-1c0-.2.2-.4.4-.5.7-.2.4.9-.4 1.5-.7.7-.7.7-.3 0zm37.9-.5a18.4 18.4 0 0 1-13.5-14c-.3-1.2-.7-2.7-1.1-3.3-.8-1.3-2.4-2-2.8-1.3-.2.3-.3.2-.3-.3 0-1.6-2.3-2.5-4-1.5-.5.2-1.3.2-3-.4a19 19 0 0 0-3.1-.7c-.4 0-.2-.3.7-1l1.3-.8 1.2 1c1.1 1 2 1.3 3.9 1.1.3 0 1.1-.5 1.7-1.1 1-1.1 1.2-1.2 4.1-1.2 2.3 0 4-.4 7.5-1.4 8.3-2.3 12.5-2.3 19.3.2l5.5 2 2.5 1 5.4-2.2c3-1.2 6.5-2.4 7.8-2.8 3.2-.8 7.9-.5 12.5.8 2 .6 4.3 1.2 5.4 1.3 1.6.2 1.9.2 2.6-.6 2-2 3.3-1.2 3 2a14 14 0 0 0 .4 5c.7 2.7.7 3.2.3 3.6-.4.4-.5.3-.5-.7 0-1.4-.8-5.6-1.2-6-.3-.3-2.8.9-3.4 1.6-.2.3-.8 2-1.3 4-.5 1.9-1.3 4.2-1.9 5.2a24 24 0 0 1-8 7.9c-2 1-2.4 1-6.4 1s-4.3 0-6.3-1a15.2 15.2 0 0 1-6.6-6.8 11 11 0 0 1-1.3-5.5c-.1-3.2-.7-4.4-.8-1.4a16.5 16.5 0 0 1-13 16.1c-2.7.6-4.3.6-6.6.2zm10-3.2c4.3-2 7.2-6 7.3-9.9 0-2.7-.7-3.6-1-1.2-.8 6.2-5.3 10.5-12 11.6-1 .2-1.2.4-.9.6.9.6 4.3 0 6.5-1zm31-1.2c2.6-1.2 5.6-4 6.9-6.6 1.3-2.6 1.5-4 1.2-6.2l-.3-1.7-.4 1.6c-.3.9-.5 2-.5 2.3 0 .4-.5 1.7-1 2.8-1.9 3.9-5.8 7-10.3 8-1.4.3-1.7.5-1.2.7 1 .5 3.4.1 5.5-.9zM58 63.4c3.1-1 6-3.8 7-6.6.6-2.2.7-3.1.1-5-1.8-5.9-12-8.6-19.7-5.1-2.8 1.3-4 3.2-4 6.6 0 4 2.3 7.5 6.2 9.5 3 1.6 6.7 1.8 10.4.6zM89.8 62c2.5-1 5.3-3.6 6.5-6 1.5-3.4 1.3-7.2-.6-9-2.3-2-7-3-11.2-2.2-2.8.5-6.3 2.3-7.8 4-3.6 4.2-1.4 11.4 4.2 13.4 2.3.8 6.5.7 9-.2zM74.2 47.7c2.9-1.8 7.9-4 11-4.7l3.2-.8-1.8-.2c-1 0-2.5.1-3.3.4-3 .7-12.5 4.7-12.7 5.2 0 .3.2.7.6 1 .7.5.8.8.8 3.4 0 4.6.5 5.1.6.6l.1-4zm-36 4.7c0-1.3-.3-2.3-.5-2.3-.3 0-.3 1.2.3 4 .3 1.8.5.6.3-1.7zm4-6.3c4.3-1.8 6.3-2.4 9.4-2.9 1-.1 1.3-.3 1-.6-.5-.5-5.2.2-10.7 1.8-2.7.8-5.5 1.5-6.3 1.5-2.3 0-3.1.3-3.1.9 0 .5.7.7 3 1l1.7.1 5-1.8zM99 45l-.6-.3c-.2 0-.3.2-.2.4l.6.3c.2 0 .3-.2.2-.3zM10.6 66c0-.3.5-1.7 1.2-2.9a14 14 0 0 0 1.6-6c.3-2.9.3-4.2 0-4.9-.2-.5-.3-1.4-.3-1.9 0-1.2-1.5-4-2-4-.4 0-.5-.2-.3-.4.2-.3.4-1.4.5-2.6l.2-2.1v2.3c.1 1.8.4 2.9 1.1 4.3 2 3.8 3 4.3 3.6 1.8l.4-2.3c0-.4.2-.1.4.7.2 1.4.1 1.9-1.1 4.5-.8 1.6-1.6 3.8-1.8 5L12.7 62l-1.2 3.6c-.3 1.1-1 1.3-1 .2zm22-14.2c0-1 0-1.3.1-.8v1.8l-.1-1zM19 51.3c0-.5.2-.9.3-.9l.1 1c0 .4-.1.8-.3.8-.2 0-.2-.4-.1-.9zm1.8-5c0-.3.2-.4.4-.4s.3.1.1.3c0 .2-.2.4-.3.4l-.2-.4zm-3-4.5a4104.4 4104.4 0 0 1 1.2-1.4c-.6 1.4-1.4 2.6-1.7 2.6-.2 0 0-.5.4-1.2zm-7.4-1.6l.9-2.6.3-1.4-.1 1.5c-.3 2.6-.4 3-.7 3.3-.8.6-1 .2-.4-.8zM21 37.5c1.2-1.4 1.5-2 1.8-4 .1-.7.1-.6.2.3 0 1.4-1.2 3.7-2.4 4.5-.7.5-.6.3.4-.8zm23.8-7c-.6-.6-1.2-2.6-.8-2.9.1-.1.2.1.2.5s.3 1.1.6 1.5c.6.8.8.8 2.4.5l6.8-1.4c5.4-1 5.5-1 5-3.1l-.3-1 .7.8c.8.9.9 1.9.2 2.4-.2.2-2.2.7-4.5 1.1-3.8.7-7.4 1.5-9 2-.4.1-1 0-1.3-.4zm42 0c-.7-.2-3-.8-5.3-1.2l-4-1 5.3.8c6 1 6 1 6.5-1.6.3-1.6.3-1.6.4-.3 0 1.7-.6 3.4-1.3 3.6-.4 0-1.1 0-1.7-.3zm-11.2-2.8c-.7-.9-.2-1.1.6-.3.5.5.6.8.3.8s-.7-.2-.9-.5z" fill="#06090b"/></svg>