<?xml version="1.0" encoding="UTF-8" standalone="no"?>
<!-- Created with Inkscape (http://www.inkscape.org/) -->

<svg
   width="256.2168mm"
   height="255.79764mm"
   viewBox="0 0 256.2168 255.79764"
   version="1.1"
   id="svg1"
   xml:space="preserve"
   inkscape:version="1.4.2 (f4327f4, 2025-05-13)"
   sodipodi:docname="shootery.svg"
   xmlns:inkscape="http://www.inkscape.org/namespaces/inkscape"
   xmlns:sodipodi="http://sodipodi.sourceforge.net/DTD/sodipodi-0.dtd"
   xmlns="http://www.w3.org/2000/svg"
   xmlns:svg="http://www.w3.org/2000/svg"><sodipodi:namedview
     id="namedview1"
     pagecolor="#ffffff"
     bordercolor="#000000"
     borderopacity="0.25"
     inkscape:showpageshadow="2"
     inkscape:pageopacity="0.0"
     inkscape:pagecheckerboard="0"
     inkscape:deskcolor="#d1d1d1"
     inkscape:document-units="mm"
     inkscape:zoom="1.0556608"
     inkscape:cx="451.37606"
     inkscape:cy="550.83983"
     inkscape:window-width="2560"
     inkscape:window-height="1387"
     inkscape:window-x="-8"
     inkscape:window-y="433"
     inkscape:window-maximized="1"
     inkscape:current-layer="layer1" /><defs
     id="defs1" /><g
     inkscape:label="Layer 1"
     inkscape:groupmode="layer"
     id="layer1"
     transform="translate(-43.462464,22.226072)"><g
       id="g1456"
       transform="translate(51.379746,-16.792405)"><path
         style="fill:#f0f4f5"
         d="M -7.8175077,122.48202 V -5.3999271 H 120.24083 248.29916 V 122.48202 250.36397 H 120.24083 -7.8175077 Z"
         id="path1470" /><path
         style="fill:#ced5d5"
         d="M -7.8175077,122.48202 V -5.3999271 H 120.24083 248.29916 V 58.668325 c 0,61.057685 -0.029,64.034275 -0.61736,63.345095 -0.33955,-0.39774 -4.98299,-3.4566 -10.31875,-6.79746 -5.33576,-3.34087 -10.49514,-6.78434 -11.46528,-7.65217 -4.82345,-4.31475 -11.90361,-7.705935 -18.83758,-9.02265 l -1.1987,-0.227624 0.22424,2.917314 c 0.83922,10.91795 5.7877,18.57071 19.10649,29.54798 2.91041,2.39874 8.22854,7.15137 11.81805,10.56139 9.59422,9.11445 10.75141,10.04926 11.04571,8.92307 0.0887,-0.33954 0.17975,22.04421 0.20226,49.74167 l 0.0409,50.35903 H 120.24083 -7.8175077 Z M 101.33775,235.28095 c 3.48488,-2.65449 5.2488,-6.28519 6.89767,-14.19753 0.42455,-2.0373 1.22277,-4.97417 1.7738,-6.52639 6.21106,-17.49595 4.90751,-22.04059 -6.17256,-21.51971 -7.988027,0.37552 -8.947272,0.92376 -9.698391,5.54299 -0.668367,4.11031 -1.654893,7.78759 -3.860286,14.38922 -4.811752,14.40351 -3.432711,19.65186 5.973955,22.73564 3.35551,1.10003 3.051439,1.12539 5.085812,-0.42422 z m 72.34414,-8.9464 c 4.65742,-2.40246 6.0084,-9.34373 3.87146,-19.89141 -2.10259,-10.37816 -5.5766,-25.43537 -5.91865,-25.65288 -1.61822,-1.02905 -6.45365,0.19396 -10.15339,2.56808 -5.03648,3.2319 -3.6098,24.6387 2.42878,36.44311 3.40456,6.65532 6.07445,8.44032 9.7718,6.5331 z M 7.760339,168.07855 c 1.5070094,-1.22327 7.103889,-11.92665 6.70003,-12.81302 -0.604466,-1.32666 -1.335165,-1.4134 -4.6235976,-0.54889 -4.4208074,1.16222 -4.4025476,1.13239 -4.5379533,7.41185 -0.1306158,6.05733 0.4877981,7.55218 2.4615209,5.95006 z"
         id="path1469" /><path
         style="fill:#e0e0b3"
         d="M -7.8175077,122.48202 V -5.3999271 H 120.24083 248.29916 l -0.0279,63.9409751 c -0.0153,35.167536 -0.10594,63.748492 -0.20137,63.513242 -0.0954,-0.23525 -4.64697,-3.24244 -10.11451,-6.68264 -5.46755,-3.4402 -10.73474,-6.95934 -11.70488,-7.82031 -5.9579,-5.28748 -14.57854,-8.933951 -23.75516,-10.048262 -1.43165,-0.173844 -1.51788,-0.136597 -1.33929,0.578513 0.6799,2.722509 0.99923,10.766539 0.60773,15.309189 -0.37116,4.30672 -0.59073,5.8225 -1.28289,8.85622 -0.1077,0.47208 -0.0454,0.73527 0.14605,0.61695 0.18364,-0.11349 4.03969,2.386 8.569,5.55444 4.52932,3.16843 8.96149,6.10625 9.84927,6.52847 2.66611,1.26799 4.40274,3.05613 7.53402,7.75742 6.81756,10.23588 10.35828,11.70359 20.92613,8.67437 l 0.79375,-0.22753 v 49.60643 49.60642 H 120.24083 -7.8175077 Z M 102.28633,234.88621 c 3.24602,-2.98173 7.00691,-12.20076 7.01689,-17.20038 8.2e-4,-0.41346 0.41582,-1.84221 0.92222,-3.175 1.94213,-5.11145 3.17038,-10.61795 3.52921,-15.82221 l 0.21937,-3.18159 -1.01174,-0.7391 c -9.1401,-6.67705 -21.12266,-4.93649 -23.560752,3.42239 -0.883208,3.02803 -2.736795,8.98116 -4.119083,13.22917 -5.330097,16.3803 -2.406442,23.50853 10.31907,25.15918 4.276712,0.55473 4.223881,0.56811 6.684815,-1.69246 z m 71.49901,-8.59819 c 4.95305,-2.47368 6.21295,-9.09929 3.90777,-20.55044 -2.52661,-12.55107 -5.31973,-24.37942 -5.85212,-24.78264 -1.62703,-1.23227 -6.43064,-0.11785 -10.35968,2.4034 -5.03648,3.2319 -3.6098,24.6387 2.42878,36.44311 3.43875,6.72214 6.01509,8.41442 9.87525,6.48657 z M 6.0367456,170.33809 c 5.7802624,-2.31453 7.8414494,-4.52585 12.1071164,-12.98896 3.977261,-7.89091 5.354976,-9.96552 11.089565,-16.69905 7.999639,-9.39314 9.834151,-14.24414 8.809007,-23.29366 -0.891395,-7.86885 -5.924,-5.36851 -17.062231,8.47699 -10.147371,12.61381 -14.2410409,16.3852 -21.43492877,19.74747 -3.19915033,1.49521 -3.38828983,1.76942 -3.67708343,5.33081 -0.4866782,6.0017 0.8372054,12.62933 3.64764605,18.26086 1.52197805,3.04972 1.72484625,3.08598 6.52090875,1.16554 z"
         id="path1468" /><path
         style="fill:#cbc99a"
         d="M -7.8175077,122.48202 V -5.3999271 H 120.24083 248.29916 l -0.0279,63.9409751 c -0.0153,35.167536 -0.10594,63.748492 -0.20137,63.513242 -0.0954,-0.23525 -4.64697,-3.24244 -10.11451,-6.68264 -5.46755,-3.4402 -10.73474,-6.95934 -11.70488,-7.82031 -6.07338,-5.38997 -14.7035,-8.990576 -24.21082,-10.101085 -2.94748,-0.344283 -3.2939,-0.87007 -8.95882,-13.5974 -3.94455,-8.862184 -4.39794,-9.586387 -8.64187,-13.803699 -3.92064,-3.896045 -5.02843,-4.711139 -11.40209,-8.389473 -4.33519,-2.501903 -5.15152,-2.523169 -6.60458,-0.172056 -1.01678,1.645182 -0.65063,2.437525 1.62359,3.513404 12.65966,5.988977 14.36467,27.360763 2.6229,32.877282 l -1.97636,0.928538 4.00451,8.763109 c 4.21616,9.22624 7.03102,13.32456 9.15175,13.32456 3.01241,0 3.48609,0.96836 3.17458,6.48982 -0.6674,11.82933 -6.28612,21.9896 -17.67401,31.95965 l -3.76313,3.29461 0.0878,7.26199 c 0.11989,9.91858 0.44528,9.31502 -8.87127,16.45514 l -6.41704,4.91796 0.2299,2.82223 c 1.57865,19.37912 7.60663,31.12085 17.12359,33.35455 6.45798,1.51573 9.66238,0.28417 11.96749,-4.59952 l 1.0806,-2.28941 -0.19695,-5.64809 c -0.12178,-3.49223 -0.46803,-6.99463 -0.90715,-9.17587 -1.52617,-7.58093 -5.28427,-24.29211 -5.59243,-24.86792 -0.83732,-1.56454 1.1522,-4.87096 4.76367,-7.91683 2.39494,-2.01987 11.57843,-15.96015 14.89842,-22.61541 3.28126,-6.57759 6.04569,-15.11502 7.3461,-22.68701 1.02786,-5.98499 0.36431,-6.03369 10.04294,0.737 4.55359,3.18547 9.00563,6.13723 9.89341,6.55945 2.66611,1.26799 4.40274,3.05613 7.53402,7.75742 6.81756,10.23588 10.35828,11.70359 20.92613,8.67437 l 0.79375,-0.22753 v 49.60643 49.60642 H 120.24083 -7.8175077 Z M 102.28633,234.88621 c 3.24602,-2.98173 7.00691,-12.20076 7.01689,-17.20038 8.2e-4,-0.41346 0.41582,-1.84221 0.92222,-3.175 2.85865,-7.52362 4.52031,-18.00357 3.1029,-19.56979 -2.18409,-2.41339 -6.59826,-3.49096 -14.300392,-3.49096 -8.199445,0 -7.52212,-0.47425 -9.62642,6.74024 -0.883208,3.02803 -2.736795,8.98116 -4.119083,13.22917 -5.330097,16.3803 -2.406442,23.50853 10.31907,25.15918 4.276712,0.55473 4.223881,0.56811 6.684815,-1.69246 z M 6.0367456,170.33809 c 5.7802624,-2.31453 7.8414494,-4.52585 12.1071164,-12.98896 3.977261,-7.89091 5.354976,-9.96552 11.089565,-16.69905 7.999639,-9.39314 9.834151,-14.24414 8.809007,-23.29366 -0.891395,-7.86885 -5.924,-5.36851 -17.062231,8.47699 -10.147371,12.61381 -14.2410409,16.3852 -21.43492877,19.74747 -3.19915033,1.49521 -3.38828983,1.76942 -3.67708343,5.33081 -0.4866782,6.0017 0.8372054,12.62933 3.64764605,18.26086 1.52197805,3.04972 1.72484625,3.08598 6.52090875,1.16554 z"
         id="path1467" /><path
         style="fill:#b0b4ad"
         d="M -7.8175077,122.48202 V -5.3999271 H 120.24083 248.29916 l -0.0279,63.9409751 c -0.0153,35.167536 -0.10594,63.748492 -0.20137,63.513242 -0.0954,-0.23525 -4.64697,-3.24244 -10.11451,-6.68264 -5.46755,-3.4402 -10.73474,-6.95934 -11.70488,-7.82031 -6.11802,-5.42959 -13.40766,-8.474559 -24.21768,-10.116026 -2.71765,-0.412665 -3.11581,-1.031906 -8.80555,-13.694948 -4.58348,-10.200945 -8.00367,-14.561802 -15.2474,-19.44091 -2.1847,-1.471536 -5.66506,-5.085175 -7.17417,-7.448894 -0.65323,-1.023162 -2.83025,-2.781858 -7.70772,-6.226649 l -6.79736,-4.800747 -5.02469,-0.575969 c -6.10764,-0.700105 -5.35751,-1.17376 -9.10785,5.751001 -19.5449,36.088399 -28.90223,69.977342 -29.58086,107.131472 l -0.20651,11.30599 3.55409,0.95304 c 10.90308,2.92371 29.9732,-1.63447 41.70042,-9.96733 9.74393,-6.92361 15.28575,-13.42335 19.35326,-22.69853 l 1.42365,-3.24637 0.24532,-6.3529 0.24531,-6.3529 -2.51988,-1.67561 c -2.45578,-1.63298 -2.99792,-2.46194 -2.15886,-3.30101 0.83076,-0.83075 2.61333,-0.0455 4.58448,2.01963 1.58304,1.65849 2.23603,2.09265 3.436,2.28453 2.89875,0.46353 3.03316,0.8813 2.48909,7.73629 -1.3842,17.44026 -16.47002,34.02965 -39.09281,42.98913 -6.60406,2.61545 -12.02681,3.61112 -24.34167,4.46934 -6.83043,0.47602 -7.54145,0.70882 -7.69248,2.51867 -0.26462,3.17118 8.0123,8.12229 17.57026,10.51022 2.42535,0.60594 6.28648,1.81402 8.5803,2.68463 l 4.17058,1.58293 1.93577,-1.10753 c 2.33736,-1.33731 2.20916,-1.44555 2.59403,2.19002 2.47217,23.35268 9.64883,34.0371 22.43864,33.40607 3.45638,-0.17054 4.96686,-1.1897 6.55363,-4.42193 l 1.17566,-2.39481 -0.11618,-6.17433 c -0.127,-6.74949 -0.11541,-6.68049 -4.1667,-24.80071 -1.09322,-4.88966 -2.05916,-9.29896 -2.14653,-9.79844 -0.28549,-1.63204 1.22768,-4.06829 4.31917,-6.95397 9.42448,-8.79707 20.2927,-30.84412 22.94987,-46.55564 0.86303,-5.10301 0.24751,-5.19376 9.72077,1.43319 4.53484,3.17231 8.97153,6.1133 9.85931,6.53552 2.66611,1.26799 4.40274,3.05613 7.53402,7.75742 6.81756,10.23588 10.35828,11.70359 20.92613,8.67437 l 0.79375,-0.22753 v 49.60643 49.60642 H 120.24083 -7.8175077 Z M 102.28633,234.88621 c 3.24602,-2.98173 7.00691,-12.20076 7.01689,-17.20038 8.2e-4,-0.41346 0.41582,-1.84221 0.92222,-3.175 4.24018,-11.15964 4.70273,-19.34345 1.19378,-21.12156 -9.69339,-4.91202 -19.738378,-2.95868 -21.837618,4.24652 -0.833353,2.8603 -2.706736,8.86958 -4.163075,13.35395 -5.474855,16.85822 -2.663629,23.92258 10.182988,25.58893 4.276712,0.55473 4.223881,0.56811 6.684815,-1.69246 z M 6.0367456,170.33809 c 5.7802624,-2.31453 7.8414494,-4.52585 12.1071164,-12.98896 3.977261,-7.89091 5.354976,-9.96552 11.089565,-16.69905 7.999639,-9.39314 9.834151,-14.24414 8.809007,-23.29366 -0.891395,-7.86885 -5.924,-5.36851 -17.062231,8.47699 -10.147371,12.61381 -14.2410409,16.3852 -21.43492877,19.74747 -3.19915033,1.49521 -3.38828983,1.76942 -3.67708343,5.33081 -0.4866782,6.0017 0.8372054,12.62933 3.64764605,18.26086 1.52197805,3.04972 1.72484625,3.08598 6.52090875,1.16554 z M 162.65535,98.122577 c -6.83041,-1.838916 -10.9517,-8.48306 -10.13004,-16.331155 1.77638,-16.967098 16.77525,-21.818176 23.62169,-7.639957 6.60284,13.673737 -1.07438,27.314145 -13.49165,23.971112 z"
         id="path1466" /><path
         style="fill:#c0be90"
         d="m -7.8175077,209.99043 v -40.37354 l 1.9920768,0.91201 c 8.6374639,3.95436 17.7850899,-0.56998 23.3709979,-11.55911 4.817756,-9.47794 7.963978,-12.73567 20.298881,-21.01833 3.733757,-2.50714 5.286733,-13.77124 2.862324,-20.7611 -2.221041,-6.40353 -3.267013,-7.39556 -7.805966,-7.40341 -3.858847,-0.007 -2.919981,-0.72775 -22.792245,17.50512 -9.26896177,8.50431 -11.07183512,9.9326 -15.105306,11.96693 -1.2603779,0.63568 -2.4082277,1.32779 -2.5507774,1.53802 -0.1425497,0.21022 -0.2616122,-32.59809 -0.2645833,-72.90736 l -0.0054,-73.2895871 H 120.24083 248.29916 V 58.337959 122.07584 l -0.79375,-0.72249 c -0.43656,-0.39738 -4.92125,-3.30278 -9.96597,-6.45644 -5.04472,-3.15367 -10.04535,-6.48137 -11.1125,-7.39488 -6.51964,-5.58101 -17.66919,-10.243619 -24.49524,-10.243619 -2.46539,0 -3.01166,-0.848364 -8.70438,-13.518045 -4.58348,-10.200945 -8.00367,-14.561802 -15.2474,-19.44091 -2.1847,-1.471536 -5.66506,-5.085175 -7.17417,-7.448894 -0.65323,-1.023162 -2.83025,-2.781858 -7.70772,-6.226649 l -6.79736,-4.800747 -5.02469,-0.575969 c -6.10764,-0.700105 -5.35751,-1.17376 -9.10785,5.751001 -19.5449,36.088399 -28.90223,69.977342 -29.58086,107.131472 l -0.20651,11.30599 3.55409,0.95304 c 10.90308,2.92371 29.9732,-1.63447 41.70042,-9.96733 9.74393,-6.92361 15.28575,-13.42335 19.35326,-22.69853 l 1.42365,-3.24637 0.24532,-6.3529 0.24531,-6.3529 -2.51988,-1.67561 c -2.45578,-1.63298 -2.99792,-2.46194 -2.15886,-3.30101 0.83076,-0.83075 2.61333,-0.0455 4.58448,2.01963 1.58304,1.65849 2.23603,2.09265 3.436,2.28453 2.89875,0.46353 3.03316,0.8813 2.48909,7.73629 -1.3842,17.44026 -16.47002,34.02965 -39.09281,42.98913 -6.60406,2.61545 -12.02681,3.61112 -24.34167,4.46934 -6.83043,0.47602 -7.54145,0.70882 -7.69248,2.51867 -0.26467,3.17181 8.01666,8.12493 17.57026,10.50889 3.90847,0.9753 11.72638,3.63727 12.4345,4.2339 0.14502,0.12218 1.51675,4.58025 3.0483,9.90682 4.60338,16.01011 5.44939,18.04753 9.41736,22.6794 6.24602,7.29108 -5.66672,6.66387 -22.83995,-1.20254 -4.58906,-2.10207 -6.05164,-2.57445 -17.88281,-5.77566 -6.8702,-1.85891 -6.2838,-1.3973 -5.19111,-4.08643 2.63946,-6.49574 4.70425,-18.20839 3.52702,-20.00724 -0.88251,-1.3485 -5.59181,-3.39318 -9.85359,-4.27821 -0.97014,-0.20146 -3.43076,-0.72856 -5.468056,-1.17132 -6.375957,-1.38568 -15.822547,-0.87109 -17.142321,0.93381 -0.390023,0.53339 -0.777547,5.23966 -1.050957,12.76328 -0.149286,4.10801 -0.715908,7.16571 -1.899495,10.25037 -3.731095,9.72395 0.6238,21.28113 8.803884,23.36407 4.92718,1.25464 4.967744,2.12872 0.158392,3.41298 -4.209646,1.12413 -6.36211,3.33115 -7.794184,7.99174 l -0.623295,2.02847 H 35.50156 -7.8175077 Z M 216.17835,229.21724 c -6.38781,-1.17033 -9.49241,-3.5603 -14.90361,-11.47303 -5.94665,-8.69571 -10.19122,-10.59059 -19.9043,-8.88579 l -2.54678,0.447 -0.40068,-1.96031 c -0.59071,-2.89004 -2.56985,-11.59432 -4.41627,-19.42281 -2.24509,-9.51874 -2.21951,-9.6629 2.5344,-14.2875 9.27719,-9.02482 20.41831,-31.34755 22.7129,-45.50833 1.01586,-6.26929 0.11872,-6.31243 9.82808,0.47257 4.39793,3.07331 8.86936,6.04988 9.93652,6.61458 2.69439,1.42579 4.6833,3.53361 7.79278,8.25868 6.21464,9.44357 10.58506,11.18832 20.69402,8.26142 l 0.79375,-0.22982 -0.0718,37.70018 c -0.0395,20.73509 -0.12531,36.38908 -0.1907,34.78663 l -0.1189,-2.91355 -0.95582,0.21471 c -2.87444,0.64568 -10.17847,2.9469 -16.75652,5.27932 -7.9,2.80116 -10.50172,3.29194 -14.02706,2.64605 z m -53.523,-131.094663 c -6.83041,-1.838916 -10.9517,-8.48306 -10.13004,-16.331155 1.77638,-16.967098 16.77525,-21.818176 23.62169,-7.639957 6.60284,13.673737 -1.07438,27.314145 -13.49165,23.971112 z"
         id="path1465" /><path
         style="fill:#9da09a"
         d="m -7.8175077,209.99043 v -40.37354 l 1.9920768,0.91201 c 8.6374639,3.95436 17.7850899,-0.56998 23.3709979,-11.55911 4.817756,-9.47794 7.963978,-12.73567 20.298881,-21.01833 3.733757,-2.50714 5.286733,-13.77124 2.862324,-20.7611 -2.221041,-6.40353 -3.267013,-7.39556 -7.805966,-7.40341 -3.858847,-0.007 -2.919981,-0.72775 -22.792245,17.50512 -9.26896177,8.50431 -11.07183512,9.9326 -15.105306,11.96693 -1.2603779,0.63568 -2.4082277,1.32779 -2.5507774,1.53802 -0.1425497,0.21022 -0.2616122,-32.59809 -0.2645833,-72.90736 l -0.0054,-73.2895871 H 120.24083 248.29916 V 58.337959 122.07584 l -0.79375,-0.72249 c -0.43656,-0.39738 -4.92125,-3.30278 -9.96597,-6.45644 -5.04472,-3.15367 -10.04535,-6.48137 -11.1125,-7.39488 -6.68043,-5.71865 -13.80326,-8.748004 -24.1009,-10.250165 -3.0009,-0.437753 -3.70583,-1.488147 -8.87388,-13.222621 -4.40201,-9.995131 -7.43878,-13.994774 -14.65022,-19.295404 -2.91868,-2.145322 -5.94732,-5.202546 -7.71062,-7.783394 -1.68812,-2.470819 -13.8582,-11.091413 -16.31637,-11.557597 -0.95532,-0.181171 -6.70863,-1.603036 -12.78515,-3.159699 -13.4114,-3.435693 -12.97826,-3.453781 -19.27953,0.805093 -9.89887,6.690403 -16.5687,21.464404 -12.11111,26.826684 11.5498,13.89387 -0.8782,31.907193 -17.044239,24.704171 -0.690039,-0.307457 -3.806636,9.801732 -7.028364,22.797652 -2.015429,8.1299 -1.7182,7.50895 -4.853697,10.14002 -1.309841,1.09912 -1.291923,1.29393 1.008656,10.96574 2.005448,8.43105 8.197171,16.94763 18.104614,24.90249 17.75357,14.25466 48.43048,8.64737 67.91127,-12.41318 7.23149,-7.81792 10.1119,-14.77532 10.09465,-24.38281 l -0.01,-5.5081 -2.19497,-1.41111 c -2.76111,-1.77507 -3.15478,-2.84381 -0.93799,-2.54648 1.2572,0.16863 1.80358,0.5254 3.32007,2.16791 1.45836,1.57957 2.03193,1.96607 2.91764,1.96607 0.60634,0 1.53168,0.1632 2.05633,0.36267 l 0.95389,0.36267 -0.20439,4.8408 c -1.46146,34.61306 -52.75955,61.13013 -83.03817,42.92419 -2.703307,-1.62545 -2.292758,4.89484 0.73407,11.65828 2.73696,6.11576 0.71433,9.38082 -4.990712,8.05634 -5.295794,-1.22947 -14.948143,-0.57243 -16.171645,1.10081 -0.390023,0.53339 -0.777547,5.23966 -1.050957,12.76328 -0.149286,4.10801 -0.715908,7.16571 -1.899495,10.25037 -3.731095,9.72395 0.6238,21.28113 8.803884,23.36407 4.92718,1.25464 4.967744,2.12872 0.158392,3.41298 -4.209646,1.12413 -6.36211,3.33115 -7.794184,7.99174 l -0.623295,2.02847 H 35.50156 -7.8175077 Z M 152.55837,230.93916 c -5.81757,-0.67503 -11.64592,-2.48528 -19.32122,-6.00105 -4.58906,-2.10207 -6.05164,-2.57445 -17.88281,-5.77566 -6.87424,-1.86 -6.28639,-1.39143 -5.17461,-4.12467 2.04654,-5.03122 3.71599,-12.92579 3.79402,-17.9413 0.0797,-5.12238 2.55282,-5.8006 18.94603,-5.19563 10.27462,0.37917 10.66991,0.64129 12.88642,8.54507 4.98015,17.75852 6.30752,21.09057 10.21163,25.63389 3.96665,4.6161 3.24006,5.63672 -3.45946,4.85935 z m 63.61998,-1.72192 c -6.38781,-1.17033 -9.49241,-3.5603 -14.90361,-11.47303 -5.94665,-8.69571 -10.19122,-10.59059 -19.9043,-8.88579 l -2.54678,0.447 -0.40068,-1.96031 c -0.59071,-2.89004 -2.56985,-11.59432 -4.41627,-19.42281 -2.31559,-9.81767 -2.15323,-10.44048 4.09868,-15.72203 6.83936,-5.77782 19.06184,-30.94359 21.14871,-43.54464 1.13846,-6.87429 0.0806,-6.8682 9.82799,-0.0566 4.39793,3.07331 8.86936,6.04988 9.93652,6.61458 2.69439,1.42579 4.6833,3.53361 7.79278,8.25868 6.21464,9.44357 10.58506,11.18832 20.69402,8.26142 l 0.79375,-0.22982 -0.0718,37.70018 c -0.0395,20.73509 -0.12531,36.38908 -0.1907,34.78663 l -0.1189,-2.91355 -0.95582,0.21471 c -2.87444,0.64568 -10.17847,2.9469 -16.75652,5.27932 -7.9,2.80116 -10.50172,3.29194 -14.02706,2.64605 z M 162.93549,98.103987 c -8.21001,-2.20623 -12.08262,-10.457974 -9.55188,-20.353097 2.8749,-11.240727 13.53473,-15.461768 19.86754,-7.867069 10.72138,12.85775 3.72642,31.993609 -10.31566,28.220166 z"
         id="path1464" /><path
         style="fill:#a9a67e"
         d="m -7.8175077,210.14731 c 0,-22.11917 0.060191,-40.21667 0.1337581,-40.21667 0.073567,0 1.0657546,0.43369 2.2048612,0.96376 8.0442564,3.7433 17.6695224,-1.16433 22.9477954,-11.7004 4.605631,-9.19339 8.818223,-13.5745 19.934191,-20.7316 6.501963,-4.18634 5.96313,-25.58749 -0.715209,-28.4064 -5.202271,-2.19587 -6.3589,-1.52288 -21.881286,12.73175 -14.42970017,13.25118 -14.86853691,13.61127 -19.8900829,16.32102 l -2.7340278,1.47535 V 67.592099 -5.3999271 H 120.24083 248.29916 V 58.342466 122.08486 l -0.97014,-0.89605 c -0.53357,-0.49283 -5.09764,-3.48334 -10.14236,-6.64559 -5.04472,-3.16225 -10.04535,-6.49294 -11.1125,-7.40154 -6.43945,-5.48271 -13.29003,-8.380159 -23.45972,-9.922287 -3.41154,-0.517324 -3.87448,-1.183787 -9.16228,-13.190149 -4.40201,-9.995131 -7.43878,-13.994774 -14.65022,-19.295404 -2.91868,-2.145322 -5.94732,-5.202546 -7.71062,-7.783394 -1.68812,-2.470819 -13.8582,-11.091413 -16.31637,-11.557597 -0.95532,-0.181171 -6.70863,-1.603036 -12.78515,-3.159699 -13.4114,-3.435693 -12.97826,-3.453781 -19.27953,0.805093 -9.89887,6.690403 -16.5687,21.464404 -12.11111,26.826684 11.5498,13.89387 -0.8782,31.907193 -17.044239,24.704171 -0.690039,-0.307457 -3.806636,9.801732 -7.028364,22.797652 -2.015429,8.1299 -1.7182,7.50895 -4.853697,10.14002 -1.309841,1.09912 -1.291923,1.29393 1.008656,10.96574 2.005448,8.43105 8.197171,16.94763 18.104614,24.90249 17.75357,14.25466 48.43048,8.64737 67.91127,-12.41318 7.23149,-7.81792 10.1119,-14.77532 10.09465,-24.38281 l -0.01,-5.5081 -2.19497,-1.41111 c -2.76111,-1.77507 -3.15478,-2.84381 -0.93799,-2.54648 1.2572,0.16863 1.80358,0.5254 3.32007,2.16791 1.45836,1.57957 2.03193,1.96607 2.91764,1.96607 0.60634,0 1.53168,0.1632 2.05633,0.36267 l 0.95389,0.36267 -0.20439,4.8408 c -1.46146,34.61306 -52.75955,61.13013 -83.03817,42.92419 -2.703307,-1.62545 -2.292758,4.89484 0.73407,11.65828 1.74763,3.90511 1.72684,5.44863 -0.098,7.27345 -1.52816,1.52816 -1.86272,1.588 -4.627611,0.82767 -4.189648,-1.15214 -11.434491,-1.022 -15.399777,0.27662 -1.661245,0.54406 -1.724863,0.84701 -2.055918,9.79032 -0.249794,6.74809 -0.832754,10.57414 -2.116874,13.89333 -3.836277,9.91601 0.654606,21.79448 9.021427,23.86185 3.977566,0.98282 4.095237,1.58631 0.496447,2.54607 -2.589477,0.69059 -8.158944,0.69943 -26.486092,0.042 -8.900944,-0.31929 -11.699473,0.0802 -20.256436,2.89178 -7.898547,2.59522 -11.790555,3.65978 -17.984238,4.91911 -2.962765,0.6024 -4.834836,1.18134 -5.725075,1.77047 l -1.322782,0.87537 H 4.0081116 -7.8175077 Z M 152.51999,230.72815 c -6.05658,-0.81207 -12.33697,-2.77842 -19.57855,-6.1299 -3.69346,-1.70938 -6.48895,-2.64825 -13.8668,-4.65721 -5.08242,-1.38392 -9.31073,-2.56998 -9.39624,-2.63569 -0.0855,-0.0657 0.21145,-1.10784 0.65993,-2.31584 2.36606,-6.37316 3.58853,-12.22907 3.68906,-17.67147 0.10251,-5.54944 14.1268,-7.92736 26.63702,-4.5165 3.08844,0.84206 2.88633,0.57387 4.29249,5.69565 4.92654,17.94427 6.93154,23.0632 10.8945,27.81463 3.45795,4.14595 2.64911,5.2182 -3.33141,4.41633 z m 95.42595,-32.04612 -0.17595,-22.93056 -11.01858,-0.0932 -11.01859,-0.0932 -3.57937,1.06335 c -3.04291,0.90398 -4.16732,1.06344 -7.50225,1.06394 -10.8711,0.002 -23.85482,1.41012 -23.85482,2.58782 0,4.49013 -8.30153,12.78118 -14.13676,14.1189 l -0.90759,0.20807 -1.14888,-5.37089 c -0.63188,-2.95398 -1.39448,-6.28072 -1.69467,-7.39274 -0.74629,-2.76454 0.2732,-4.94317 3.76559,-8.04703 1.38366,-1.22973 3.06658,-3.19323 3.94594,-4.60383 0.84333,-1.35278 2.42454,-3.84358 3.51381,-5.53511 6.3898,-9.9227 6.61095,-10.29815 8.67786,-14.73285 3.04442,-6.532 5.37654,-13.96284 6.58277,-20.9746 0.64176,-3.73053 1.12874,-5.06826 1.72002,-4.72484 0.2429,0.14108 4.01351,2.74311 8.37914,5.78229 4.36562,3.03917 8.83025,6.0291 9.9214,6.64427 2.52146,1.42157 4.30941,3.36985 7.21549,7.86251 5.72581,8.85182 11.52555,11.42727 19.48665,8.6533 1.03122,-0.35932 1.94481,-0.58343 2.0302,-0.49804 0.0854,0.0854 0.11461,15.85751 0.0649,35.04914 -0.0888,34.30316 -0.0933,34.50568 -0.26632,11.96332 z M 162.93549,98.103987 c -8.21001,-2.20623 -12.08262,-10.457974 -9.55188,-20.353097 2.8749,-11.240727 13.53473,-15.461768 19.86754,-7.867069 10.72138,12.85775 3.72642,31.993609 -10.31566,28.220166 z"
         id="path1463" /><path
         style="fill:#92948e"
         d="m -7.8175077,210.14731 c 0,-22.11917 0.060191,-40.21667 0.1337581,-40.21667 0.073567,0 1.0657546,0.43369 2.2048612,0.96376 8.0442564,3.7433 17.6695224,-1.16433 22.9477954,-11.7004 4.60342,-9.18898 8.813571,-13.56916 19.915976,-20.72028 5.59882,-3.60623 6.588064,-16.06817 2.005007,-25.25797 l -1.454378,-2.91627 -1.949067,-0.56661 c -5.511428,-1.60222 -5.821174,-1.40328 -24.224786,15.55905 -11.25586248,10.37435 -12.71489688,11.55708 -16.7784553,13.60103 -1.2493496,0.62842 -2.3881764,1.32054 -2.5307261,1.53805 -0.1425497,0.21751 -0.2616122,-32.50547 -0.2645833,-72.717729 l -0.0054,-73.1131981 H 120.24083 248.29916 V 58.342466 122.08486 l -0.97014,-0.89605 c -0.53357,-0.49283 -5.09764,-3.48334 -10.14236,-6.64559 -5.04472,-3.16225 -10.04535,-6.49294 -11.1125,-7.40154 -6.39397,-5.44399 -13.18308,-8.33233 -23.27042,-9.900116 -3.44285,-0.535093 -3.74432,-0.970698 -9.26574,-13.388709 -4.73605,-10.651675 -6.63984,-13.182443 -14.2069,-18.885651 -2.72468,-2.053567 -6.24108,-5.552966 -7.81215,-7.774385 -1.37954,-1.950612 -2.57082,-2.940208 -9.03701,-7.50708 l -5.56029,-3.927053 -11.90221,-3.05756 c -33.20292,-8.529494 -39.96033,-7.677237 -54.095801,6.822655 -9.242884,9.481174 -13.779497,17.58863 -21.479301,38.386018 -13.111336,35.414091 -12.574593,53.837171 2.322829,79.728411 1.339888,2.32869 2.991784,5.65688 3.670881,7.396 1.093656,2.80076 1.567237,3.51014 4.145139,6.209 1.60073,1.67583 2.910417,3.33431 2.910417,3.6855 0,0.69138 -0.95211,4.14222 -1.458622,5.28665 -0.405472,0.91614 -0.998094,8.256 -1.005239,12.45029 -0.0063,3.68435 -0.716961,7.63058 -1.946947,10.81084 -3.827953,9.89758 0.670888,21.77742 9.029111,23.84266 3.977566,0.98282 4.095237,1.58631 0.496447,2.54607 -2.589477,0.69059 -8.158944,0.69943 -26.486092,0.042 -8.900944,-0.31929 -11.699473,0.0802 -20.256436,2.89178 -7.898547,2.59522 -11.790555,3.65978 -17.984238,4.91911 -2.962765,0.6024 -4.834836,1.18134 -5.725075,1.77047 l -1.322782,0.87537 H 4.0081116 -7.8175077 Z M 152.51999,230.72815 c -6.05658,-0.81207 -12.33697,-2.77842 -19.57855,-6.1299 -3.69346,-1.70938 -6.48895,-2.64825 -13.8668,-4.65721 -5.08242,-1.38392 -9.31073,-2.56998 -9.39624,-2.63569 -0.0855,-0.0657 0.21145,-1.10784 0.65993,-2.31584 2.29977,-6.19462 3.53077,-11.99513 3.72025,-17.53001 0.1239,-3.6192 0.8668,-4.95079 2.76234,-4.95129 0.42574,-1.1e-4 3.69075,-0.16613 7.25557,-0.36893 16.5178,-0.9397 19.12718,0.0523 21.3859,8.13025 4.87492,17.43438 6.40177,21.26175 10.38901,26.04229 3.45795,4.14595 2.64911,5.2182 -3.33141,4.41633 z m 95.42595,-32.04612 -0.17595,-22.93056 -11.01858,-0.0932 -11.01859,-0.0932 -3.57937,1.06335 c -3.04291,0.90398 -4.16732,1.06344 -7.50225,1.06394 -10.8711,0.002 -23.85482,1.41012 -23.85482,2.58782 0,4.49013 -8.30153,12.78118 -14.13676,14.1189 l -0.90759,0.20807 -1.14604,-5.37089 c -0.63032,-2.95398 -1.38468,-6.22979 -1.67636,-7.27957 -0.80051,-2.88117 -0.11518,-4.36883 3.75247,-8.14548 9.6328,-9.40616 20.31049,-30.85927 22.90003,-46.00964 0.39535,-2.31301 0.85393,-4.34059 1.01907,-4.50573 0.16516,-0.16516 3.85102,2.18642 8.19185,5.22639 4.34037,3.03965 8.85329,6.08037 10.02871,6.75715 3.06971,1.76746 4.50314,3.26078 7.5257,7.84016 6.16779,9.3446 11.67934,11.86709 19.76969,9.04809 1.03122,-0.35932 1.94481,-0.58343 2.0302,-0.49804 0.0854,0.0854 0.11461,15.85751 0.0649,35.04914 -0.0888,34.30316 -0.0933,34.50568 -0.26632,11.96332 z M 119.35888,175.2059 c -5.40261,-0.38416 -10.88186,-2.01616 -15.92645,-4.74372 -1.61725,-0.87443 -3.11752,-1.58988 -3.33392,-1.58988 -0.709662,0 -8.368727,-5.9767 -9.615929,-7.50373 -10.746213,-13.15725 -14.691755,-21.63945 -14.691755,-31.58462 0,-1.50842 -0.510868,-2.32139 -3.318879,-5.28148 -1.17282,-1.23634 -1.360901,-1.61688 -1.046164,-2.11667 0.669512,-1.06315 1.39835,-0.86557 3.348046,0.90765 2.841781,2.58455 4.511131,3.14919 6.36973,2.1545 1.363794,-0.72988 1.566709,0.22194 0.344157,1.61435 -1.33294,1.51813 -1.318929,1.09959 -0.218098,6.51543 2.569582,12.64176 7.663422,20.49696 19.362612,29.85905 21.88851,17.51593 61.81857,4.80072 75.98934,-24.19781 l 1.98252,-4.05695 0.24723,-5.11527 c 0.13597,-2.81341 0.25987,-5.93174 0.27531,-6.92962 0.0333,-2.14894 0.26424,-2.29545 2.87292,-1.82234 2.70258,0.49013 2.79961,0.6283 2.79961,3.98644 0,8.00957 -3.10649,17.02343 -8.17441,23.71909 -3.86318,5.10397 -11.30513,12.36966 -13.70198,13.37746 -0.56326,0.23683 -1.94369,1.05477 -3.06762,1.81765 -5.33482,3.62105 -15.58976,8.23298 -21.26988,9.56566 -6.67098,1.56516 -11.85248,1.94914 -19.22639,1.42481 z M 165.17813,98.304654 C 155.0717,97.256613 150.2329,87.374844 154.1096,75.700557 c 2.83934,-8.550373 12.48949,-12.347 17.913,-7.04745 8.01784,7.834593 8.57305,21.751312 1.09414,27.425646 -2.67739,2.031362 -4.60436,2.571664 -7.93861,2.225901 z M 97.238903,95.892925 C 80.771228,90.453904 82.308155,64.886593 99.107127,64.814371 c 6.700963,-0.02881 11.337883,3.464318 14.267603,10.748206 4.64794,11.555728 -5.18657,23.946721 -16.135827,20.330348 z"
         id="path1462" /><path
         style="fill:#8b8971"
         d="m 66.436826,238.93628 c -3.37054,-0.86507 -6.026396,-2.04425 -13.400167,-5.94957 -8.51097,-4.50761 -20.010351,-10.2661 -23.677521,-11.85689 -5.651596,-2.45161 -26.4263277,-2.96859 -36.2065068,-0.90099 l -0.9701389,0.20509 v -25.28104 c 0,-13.90457 0.1190625,-25.22002 0.2645833,-25.14544 9.6693687,4.95555 19.1352404,0.91464 25.0924664,-10.71181 3.935461,-7.68066 8.215357,-12.77459 14.024867,-16.69241 8.309067,-5.60347 8.948048,-6.33134 10.231242,-11.65453 1.685814,-6.99342 -1.057923,-19.24558 -4.6969,-20.97401 -5.557914,-2.63988 -6.770204,-1.88254 -27.1919847,16.98738 -8.4603813,7.81748 -11.0553181,9.88469 -14.9902462,11.94172 l -2.7340278,1.42924 V 67.466546 -5.3999271 H 120.24083 248.29916 V 58.069338 121.5386 l -10.20343,-6.44179 c -5.61189,-3.54299 -10.9697,-7.11946 -11.90625,-7.94772 -5.93584,-5.24947 -14.6944,-8.950746 -23.8428,-10.075717 -2.98481,-0.36704 -3.24655,-0.76014 -8.80263,-13.220518 -4.75926,-10.673388 -6.64966,-13.18528 -14.21295,-18.885651 -2.72468,-2.053567 -6.24108,-5.552966 -7.81215,-7.774385 -1.37954,-1.950612 -2.57082,-2.940208 -9.03701,-7.50708 l -5.56029,-3.927053 -11.90221,-3.05756 c -33.20292,-8.529494 -39.96033,-7.677237 -54.095801,6.822655 -9.242884,9.481174 -13.779497,17.58863 -21.479301,38.386018 -13.111336,35.414091 -12.574593,53.837171 2.322829,79.728411 1.339888,2.32869 2.991784,5.65688 3.670881,7.396 1.093656,2.80076 1.567237,3.51014 4.145139,6.209 3.306386,3.46152 3.273111,3.32754 1.884608,7.58826 -1.042745,3.19975 -1.254148,5.10759 -1.633701,14.74365 -0.153066,3.886 -0.826985,7.35404 -1.929314,9.9284 -2.900545,6.77388 -1.246832,15.41813 4.076948,21.31092 l 1.229915,1.36136 -1.178661,0.69543 c -3.834659,2.26251 -11.085945,3.22263 -15.596156,2.06505 z m 82.908164,-9.02308 c -4.59868,-0.83102 -8.44336,-2.0877 -13.71124,-4.48169 -7.2207,-3.28145 -8.65822,-3.74956 -24.16081,-7.86758 -1.77953,-0.4727 -1.77609,-0.24662 -0.0774,-5.08858 1.50737,-4.29657 2.83939,-11.13453 2.90273,-14.90126 0.0877,-5.21516 -0.0855,-5.14677 13.17447,-5.20223 8.83064,-0.0369 9.75759,0.0189 12.71562,0.76627 l 3.19062,0.8061 2.07078,7.30779 c 5.17014,18.24544 6.53231,21.42282 11.39741,26.58541 2.62671,2.78732 0.18065,3.46411 -7.50221,2.07577 z m 24.58861,-47.7059 c -1.36442,-1.36442 -0.0679,-4.77232 3.10671,-8.16599 2.38753,-2.55227 13.18837,-19.21306 15.63445,-24.11685 3.17369,-6.36245 5.85976,-14.89373 7.14077,-22.67994 0.33518,-2.03729 0.70835,-3.81846 0.82927,-3.95816 0.12091,-0.13969 3.9447,2.3664 8.49729,5.56909 4.55259,3.20269 9.0738,6.27761 10.04712,6.83315 2.58214,1.47382 4.34351,3.40501 7.733,8.47857 5.97193,8.93907 11.69292,11.11835 20.44864,7.78943 l 0.92831,-0.35295 v 12.23266 c 0,9.51429 -0.0941,12.13859 -0.42333,11.80933 -0.96008,-0.96009 -21.55646,-0.54845 -24.80028,0.49565 -2.47942,0.79806 -3.74351,0.94618 -10.40694,1.21942 -13.79749,0.56577 -18.05111,1.08866 -29.7481,3.65687 -8.03838,1.76492 -8.36806,1.80857 -8.98691,1.18972 z m -54.57472,-7.0014 c -5.40261,-0.38416 -10.88186,-2.01616 -15.92645,-4.74372 -1.61725,-0.87443 -3.11752,-1.58988 -3.33392,-1.58988 -0.709662,0 -8.368727,-5.9767 -9.615929,-7.50373 -10.746213,-13.15725 -14.691755,-21.63945 -14.691755,-31.58462 0,-1.50842 -0.510868,-2.32139 -3.318879,-5.28148 -1.17282,-1.23634 -1.360901,-1.61688 -1.046164,-2.11667 0.669512,-1.06315 1.39835,-0.86557 3.348046,0.90765 2.841781,2.58455 4.511131,3.14919 6.36973,2.1545 1.363794,-0.72988 1.566709,0.22194 0.344157,1.61435 -1.33294,1.51813 -1.318929,1.09959 -0.218098,6.51543 2.569582,12.64176 7.663422,20.49696 19.362612,29.85905 21.88851,17.51593 61.81857,4.80072 75.98934,-24.19781 l 1.98252,-4.05695 0.24723,-5.11527 c 0.13597,-2.81341 0.25987,-5.93174 0.27531,-6.92962 0.0333,-2.14894 0.26424,-2.29545 2.87292,-1.82234 2.70258,0.49013 2.79961,0.6283 2.79961,3.98644 0,8.00957 -3.10649,17.02343 -8.17441,23.71909 -3.86318,5.10397 -11.30513,12.36966 -13.70198,13.37746 -0.56326,0.23683 -1.94369,1.05477 -3.06762,1.81765 -5.33482,3.62105 -15.58976,8.23298 -21.26988,9.56566 -6.67098,1.56516 -11.85248,1.94914 -19.22639,1.42481 z M 165.17813,98.304654 C 155.0717,97.256613 150.2329,87.374844 154.1096,75.700557 c 2.83934,-8.550373 12.48949,-12.347 17.913,-7.04745 8.01784,7.834593 8.57305,21.751312 1.09414,27.425646 -2.67739,2.031362 -4.60436,2.571664 -7.93861,2.225901 z M 97.238903,95.892925 C 80.771228,90.453904 82.308155,64.886593 99.107127,64.814371 c 6.700963,-0.02881 11.337883,3.464318 14.267603,10.748206 4.64794,11.555728 -5.18657,23.946721 -16.135827,20.330348 z"
         id="path1461" /><path
         style="fill:#74726b"
         d="m 68.382493,239.02855 c -3.485522,-0.56916 -7.126318,-2.02768 -13.581945,-5.44099 -9.074625,-4.79806 -24.16373,-12.32088 -26.364687,-13.14436 -4.869005,-1.82173 -22.737276,-2.35066 -32.1964243,-0.95307 -1.9402778,0.28668 -3.6468403,0.52432 -3.7923611,0.52809 -0.1455208,0.004 -0.2645833,-11.2556 -0.2645833,-25.02084 v -25.02771 l 1.9644931,0.89938 c 8.46976,3.87758 17.8914306,-0.65334 23.2174176,-11.16534 4.427038,-8.73774 8.160677,-12.96271 16.42179,-18.58282 5.424205,-3.69013 4.694644,-3.10931 6.90579,-5.49789 3.321745,-3.58831 3.493539,-3.37432 7.967519,9.92436 5.277778,15.68793 9.432838,21.02595 22.160179,28.46929 2.214022,1.29483 4.025833,2.80287 7.14375,5.94602 4.734041,4.77235 4.668774,4.60039 3.317401,8.74021 -0.717523,2.19807 -0.925073,3.85654 -1.252826,10.011 -0.412349,7.74297 -1.010689,11.79278 -2.180993,14.76186 -2.885084,7.31952 -1.321688,16.08402 3.744919,20.99424 1.654109,1.60306 1.63461,1.65476 -1.090059,2.89018 -3.949696,1.79088 -7.975392,2.34507 -12.11938,1.66839 z M 174.22402,182.11134 c -1.32015,-1.59068 -0.14035,-4.59067 3.1947,-8.12352 0.91595,-0.97027 4.24004,-5.81225 7.38687,-10.75996 3.14682,-4.94771 5.86001,-9.1691 6.0293,-9.38086 0.21749,-0.27206 2.30116,0.0295 7.10201,1.02784 11.94501,2.48397 18.21882,2.21936 34.66365,-1.46201 2.08021,-0.46568 3.2396,-0.55123 4.40972,-0.32538 2.14451,0.41392 7.23019,0.0814 9.12838,-0.5969 0.84902,-0.30337 1.68245,-0.55158 1.85209,-0.55158 0.16986,0 0.3085,5.26982 0.30859,11.72986 l 1.7e-4,11.72986 -11.55364,-0.0967 -11.55364,-0.0967 -2.99861,0.93086 c -2.74422,0.85188 -3.75131,0.95608 -11.87063,1.22819 -11.74162,0.39352 -25.57778,2.41274 -35.08721,5.12056 -0.31215,0.0889 -0.76744,-0.0792 -1.01175,-0.37362 z m -52.74847,-6.90119 C 110.25382,174.64852 96.761757,168.47989 90.577125,161.08324 80.544966,149.08506 76.146691,140.06251 76.144086,131.47553 c -7.63e-4,-2.51636 -0.524024,-3.73887 -2.624215,-6.13102 -2.958006,-3.36921 -2.013483,-5.11919 1.052832,-1.95065 2.460698,2.54274 4.116414,3.09388 6.774373,2.255 1.08307,-0.34183 1.037537,0.40688 -0.08819,1.45017 -1.707152,1.58214 0.475733,12.44029 3.84359,19.11886 3.14712,6.24085 13.468037,16.81079 20.013844,20.49673 22.72538,12.79666 58.63311,-0.82025 71.4594,-27.09879 2.23926,-4.58781 2.52658,-6.12242 2.55997,-13.6734 0.0216,-4.8873 0.009,-4.86585 2.69176,-4.53064 5.7763,0.7217 2.72413,16.67433 -5.2612,27.49844 -3.15813,4.28085 -12.24991,13.2593 -13.42666,13.2593 -0.13088,0 -1.77858,0.98042 -3.66154,2.17871 -6.1075,3.88673 -14.73936,7.80241 -20.36361,9.23756 -1.86394,0.47563 -12.37142,2.08428 -12.60907,1.9304 -0.05,-0.0324 -2.31343,-0.1701 -5.02982,-0.30605 z M -7.8175077,67.326975 V -5.3999271 H 120.24083 248.29916 v 63.5614971 63.5615 l -0.79375,-0.70454 c -0.43656,-0.3875 -1.5875,-1.19148 -2.55764,-1.78663 -8.73893,-5.36104 -17.2281,-10.87737 -18.36771,-11.93548 -3.22607,-2.99536 -9.16537,-6.43752 -13.55868,-7.858025 -2.66814,-0.862704 -9.85147,-2.532762 -10.89403,-2.532762 -2.20754,0 -3.02691,-1.149485 -6.91533,-9.701389 -5.13227,-11.287567 -5.763,-12.496902 -7.83084,-15.014513 -1.12907,-1.374653 -3.40223,-3.61169 -5.05146,-4.971194 -6.66457,-5.493758 -7.64825,-6.386436 -9.17223,-8.323653 -4.47532,-5.688861 -14.03877,-12.759651 -18.99983,-14.04763 -28.44554,-7.38496 -28.94805,-7.493722 -36.0335,-7.798905 -4.56779,-0.196743 -13.27673,0.732221 -14.59572,1.556894 -0.21853,0.136635 -1.82267,0.609718 -3.564747,1.051297 -3.438002,0.87146 -7.061898,2.46177 -10.234738,4.491412 -1.108989,0.709411 -3.587616,2.059425 -5.508062,3.000031 -12.750504,6.245009 -30.725672,30.05209 -41.0227,54.332217 -1.271438,2.99802 -3.120874,4.75753 -5.778423,5.49747 -13.148936,3.66101 -20.241052,8.69836 -35.5462196,25.24758 -1.71385262,1.85316 -3.9139644,3.7578 -5.6341137,4.87745 -1.5522222,1.01035 -3.1000347,2.08769 -3.4395833,2.39409 -0.5877681,0.53038 -0.6173611,-2.92906 -0.6173611,-72.169815 z M 216.70642,138.83348 c -4.65323,-2.96314 -8.7036,-4.06828 -13.66421,-3.72827 -2.31748,0.15884 -2.80227,0.0987 -2.98216,-0.37011 -0.22239,-0.57954 0.49586,-11.0177 0.77751,-11.29935 0.65428,-0.65428 18.53028,12.93235 19.70822,14.9792 0.95771,1.66419 -1.46796,1.92861 -3.83936,0.41853 z M 163.10333,97.820832 c -8.55327,-2.113758 -12.42426,-11.479141 -8.99312,-21.757734 3.27862,-9.821698 13.24785,-12.903539 19.07814,-5.897731 10.54791,12.674601 3.8308,31.094463 -10.08502,27.655465 z M 98.457206,96.021798 C 84.793798,93.029376 81.146002,71.942123 93.303224,66.227553 c 8.809056,-4.140744 18.026886,1.198611 20.811266,12.054755 2.54187,9.910594 -6.19683,19.811422 -15.657284,17.73949 z"
         id="path1460" /><path
         style="fill:#73675b"
         d="m 73.38869,225.86868 c -1.453688,-1.65566 -1.445863,-1.83096 0.479932,-10.75158 1.788007,-8.28236 1.820143,-7.89731 -0.824994,-9.88483 -4.143829,-3.11361 -5.739649,-3.11647 -14.337115,-0.0257 -20.338803,7.3118 -26.447137,8.04088 -42.609084,5.08571 -7.7242658,-1.41236 -12.7546318,-1.68471 -20.2989645,-1.09898 l -3.6159722,0.28073 v -19.59532 c 0,-10.77742 0.060191,-19.59532 0.1337581,-19.59532 0.073567,0 0.9911349,0.39252 2.0390397,0.87227 8.1854876,3.74744 18.0979309,-1.22879 23.3219049,-11.70802 4.403884,-8.83415 7.416346,-12.0783 18.274072,-19.67952 1.385763,-0.97014 3.428257,-2.67671 4.538876,-3.79237 1.95316,-1.96202 2.840894,-2.35554 3.859005,-1.71063 0.266591,0.16887 2.131024,5.18408 4.143184,11.14491 2.982708,8.83599 3.946973,11.27074 5.220357,13.18131 4.109394,6.16571 9.843625,11.34856 17.372449,15.702 2.922872,1.69011 10.719155,9.01853 11.005019,10.3446 0.128704,0.59704 -0.831844,4.40377 -1.377297,5.45834 -0.166844,0.32258 -0.551184,4.24251 -0.854088,8.71096 -0.606257,8.94352 -0.84989,10.63197 -1.974519,13.68401 -0.719388,1.95229 -2.388993,10.54301 -2.428104,12.49347 -0.03953,1.97151 -0.819691,2.30507 -2.067459,0.88394 z m 48.26325,-50.65427 c -14.01443,-0.71138 -26.527844,-7.47626 -34.617232,-18.71443 -0.897878,-1.24737 -2.533574,-3.44366 -3.634878,-4.88063 -3.986847,-5.20199 -6.681357,-12.47235 -7.136287,-19.25522 -0.263827,-3.93359 -0.600909,-4.78414 -2.8874,-7.28574 -3.194392,-3.4949 -1.872078,-4.40852 1.729465,-1.19492 2.328411,2.0776 3.986675,2.67983 5.491314,1.99427 1.760893,-0.80232 2.123537,-0.13325 0.66196,1.22129 -1.690851,1.56703 0.457317,12.40556 3.755086,18.9462 3.143714,6.23509 12.684877,16.2781 19.066492,20.06935 23.58114,14.0093 60.78738,-0.2624 73.2817,-28.10963 l 1.58314,-3.52848 0.14115,-6.35 c 0.16134,-7.25869 0.0769,-7.04754 2.68773,-6.72134 7.21533,0.9015 1.60159,20.55687 -9.21679,32.27074 -3.0876,3.34317 -8.36886,8.07875 -9.4841,8.50416 -0.40458,0.15432 -1.99208,1.10398 -3.52778,2.11035 -7.78311,5.10038 -17.80402,9.05304 -25.89913,10.21567 -6.96205,0.9999 -6.63334,0.98049 -11.99444,0.70836 z M -7.8121057,67.360493 -7.8175077,-5.3999271 H 120.24083 248.29916 V 57.966716 121.33336 l -0.79375,-0.54522 c -0.43656,-0.29988 -4.92125,-3.12629 -9.96597,-6.28092 -5.04472,-3.15463 -9.72785,-6.24601 -10.40695,-6.86973 -6.24796,-5.73848 -15.05974,-9.587442 -24.96718,-10.905588 -2.71335,-0.361001 -3.10336,-0.9974 -9.73039,-15.877658 -3.25875,-7.317152 -6.45975,-11.33678 -12.57465,-15.790505 -2.63646,-1.920238 -6.11852,-5.32067 -7.85333,-7.669219 -1.92489,-2.605865 -5.46253,-5.486563 -12.78417,-10.410137 l -2.82222,-1.897857 -12.52361,-3.187492 c -15.5677,-3.962269 -16.32963,-4.132635 -20.5354,-4.591705 -6.76968,-0.738926 -16.67944,-0.130866 -19.85766,1.218459 -0.58208,0.247126 -2.32833,0.79006 -3.880554,1.20652 -3.12354,0.838044 -7.815783,2.948027 -10.192747,4.583421 -0.848679,0.583907 -3.029998,1.775079 -4.847375,2.647048 -8.065363,3.869726 -14.456849,9.614876 -20.828269,18.722021 -4.397196,6.28524 -15.475464,25.161109 -18.886291,32.179683 -3.771099,7.759919 -4.08977,8.113739 -8.363784,9.286299 -11.43675,3.13763 -19.398322,8.62964 -31.7621801,21.91002 -4.627088,4.9701 -6.4231369,6.6367 -8.9036716,8.26197 -1.7090422,1.11978 -3.223981,2.20746 -3.3665307,2.41706 -0.1425497,0.20959 -0.2616122,-32.36111 -0.2645833,-72.379337 z M 215.75202,138.02773 c -3.81906,-2.42877 -8.52801,-3.57193 -13.00321,-3.15669 -2.46541,0.22875 -3.80041,-8.84057 -1.62199,-11.019 0.38729,-0.38728 15.5653,10.58026 17.49639,12.6428 3.13263,3.34585 1.41854,4.26099 -2.87119,1.53289 z M 162.93549,97.751209 c -6.51068,-1.749577 -9.87944,-6.670426 -9.87693,-14.427521 0.005,-16.78089 15.69571,-23.28012 22.71313,-9.408235 6.71365,13.2714 -0.72781,27.089577 -12.8362,23.835756 z M 96.957493,95.553657 c -15.821158,-5.897308 -14.10525,-30.6441 2.116667,-30.526513 7.56126,0.05481 12.76188,4.633262 15.00664,13.211342 2.76056,10.549129 -7.4838,20.908278 -17.123307,17.315171 z"
         id="path1459" /><path
         style="fill:#675b51"
         d="m 77.386373,197.00633 c -2.62773,-8.16766 -1.737731,-7.45938 -8.308777,-6.61228 -35.555449,4.5836 -69.84071351,6.70799 -76.2777426,4.72632 -0.6015026,-0.18517 -1.0268678,-24.83696 -0.4285604,-24.83696 0.1038405,0 0.540403,0.23005 0.9701389,0.51123 7.39392337,4.83778 18.8178401,-0.43736 24.2730371,-11.2084 2.95533,-5.83516 5.277001,-9.0641 9.109717,-12.66964 2.421607,-2.27808 4.175342,-3.60426 10.762683,-8.13881 0.791274,-0.54469 2.189175,-1.77501 3.106448,-2.73403 1.290988,-1.34975 1.912723,-1.74368 2.752029,-1.74368 1.325789,0 1.01184,-0.71194 5.41843,12.2874 4.94372,14.58386 9.547252,20.38113 21.911772,27.59368 3.210422,1.87272 10.845093,8.81509 11.312024,10.28626 0.182526,0.57508 -0.04557,1.55247 -1.260016,5.39915 -0.365031,1.15621 -1.095707,8.74809 -1.128551,11.72587 -0.02648,2.4011 0.159009,2.78557 -2.212632,-4.58611 z m 40.737787,-22.02765 c -4.47633,-0.47385 -11.95339,-2.97196 -15.394,-5.1432 -0.74962,-0.47305 -1.75982,-0.98344 -2.24489,-1.13419 -1.398424,-0.4346 -8.518062,-5.93858 -9.876081,-7.63491 -10.073092,-12.5825 -13.128995,-18.55024 -14.128169,-27.59031 -0.217975,-1.97214 -0.467725,-4.09147 -0.554999,-4.70963 -0.104874,-0.7428 -0.872444,-1.91152 -2.263605,-3.44661 -2.226273,-2.45661 -2.441376,-2.90723 -1.550869,-3.24895 0.349789,-0.13423 1.032604,0.24736 1.852083,1.03503 2.933356,2.81948 5.289994,3.70628 7.172269,2.69892 1.102586,-0.59009 1.226068,-0.0682 0.237174,1.0024 -1.28542,1.39162 -1.430756,2.08528 -0.860462,4.1068 0.279065,0.9892 0.612261,2.51292 0.740435,3.38605 2.153377,14.66884 16.024142,30.65679 30.697504,35.38305 6.38487,2.05656 6.83991,2.12369 12.974,1.91408 22.67375,-0.77481 42.46301,-13.07101 51.84745,-32.21578 l 2.20633,-4.50104 0.11593,-6.44359 c 0.13282,-7.38215 0.10208,-7.3077 2.83867,-6.87511 2.83394,0.44799 3.43079,3.71759 1.97353,10.81122 -2.15479,10.48909 -13.43054,26.65716 -20.55332,29.47098 -0.44468,0.17567 -1.71468,0.93235 -2.82222,1.68151 -12.95191,8.76089 -28.40761,12.93519 -42.40676,11.45328 z M -7.8175077,67.089942 V -5.3999271 H 46.975098 101.7677 l 0.75623,2.3812501 c 1.88574,5.937984 2.21826,8.9638266 2.22227,20.222367 0.007,20.0789 -0.20024,21.012204 -4.966485,22.347875 -3.861813,1.082219 -7.041563,2.485303 -10.054166,4.436463 -1.164167,0.753991 -3.386667,1.968011 -4.938889,2.697823 -13.051486,6.136445 -26.035238,22.62637 -39.742399,50.474557 -4.085013,8.299332 -4.541526,8.814952 -8.828468,9.971702 -11.566626,3.12101 -20.490713,9.428 -32.8030101,23.18312 -3.08493447,3.44645 -4.5896646,4.80014 -7.5420539,6.78501 l -3.6882367,2.47957 z M 216.68658,138.30197 c -3.7656,-2.57143 -7.46024,-3.6393 -12.61089,-3.64493 l -3.83042,-0.004 0.24897,-3.43959 c 0.13694,-1.89177 0.3525,-4.36614 0.47903,-5.49859 l 0.23006,-2.05901 7.4366,5.23401 c 6.87721,4.8403 11.43701,8.80943 11.43701,9.95547 0,0.72496 -2.00329,0.40401 -3.39036,-0.54318 z m 30.89443,-17.53114 c -0.28412,-0.26206 -4.92188,-3.2304 -10.30615,-6.59633 -6.00785,-3.75574 -9.78843,-6.33133 -9.7866,-6.66728 0.002,-0.30108 0.39793,-4.67492 0.88064,-9.719642 1.01739,-10.632538 1.06189,-12.76799 0.37538,-18.014098 -3.39895,-25.973762 -2.38971,-38.500793 5.78812,-71.8441041 1.07803,-4.3954339 1.82356,-8.26203104 1.87056,-9.7013893 l 0.0781,-2.3931915 -8.29028,-0.4055637 c -14.75408,-0.7217755 -13.16223,-1.2407982 -14.30845,4.6652665 -4.24869,21.8920511 -5.87687,37.7288361 -8.10243,78.8096881 -0.96012,17.722371 -0.85746,17.078352 -2.64697,16.605902 -0.67325,-0.177747 -1.90413,-0.499647 -2.73528,-0.715334 -1.35022,-0.350387 -1.60018,-0.587638 -2.34671,-2.227444 -9.50971,-20.888625 -10.2466,-21.997963 -18.71989,-28.181378 -2.27563,-1.660655 -6.20412,-5.644808 -7.67143,-7.780129 -1.23126,-1.791812 -8.72654,-7.984571 -13.94634,-11.522759 -6.95911,-4.717166 -7.74272,-8.402371 -5.33354,-25.08297 2.44917,-16.9575267 3.92847,-19.03443505 7.86821,-11.0467838 2.30052,4.6641928 3.24194,8.4945278 4.96942,20.2190068 1.38938,9.42974 1.83055,10.495542 5.91757,14.295843 6.8296,6.35047 7.61879,7.257172 9.49043,10.903465 2.25558,4.394279 5.48417,10.047009 6.20973,10.872221 3.77801,4.296904 6.0389,-9.505262 4.49297,-27.428473 -0.83525,-9.683767 -0.71562,-13.942302 0.58615,-20.865691 1.8445,-9.809892 1.57835,-14.1694379 -1.16271,-19.0450579 -1.38096,-2.4563818 -1.81315,-2.742626 -4.50604,-2.9844412 -1.28057,-0.1149922 12.15763,-0.2340547 29.86267,-0.2645834 l 32.19097,-0.055507 V 57.923687 c 0,34.827988 -0.0454,63.323613 -0.10079,63.323613 -0.0554,0 -0.33325,-0.21441 -0.61736,-0.47647 z M 163.4561,97.815413 c -8.06955,-2.019015 -11.96102,-9.543485 -9.92288,-19.186715 2.80527,-13.27282 15.77107,-16.506399 21.68624,-5.408395 7.14195,13.399672 0.33913,27.623167 -11.76336,24.59511 z M 97.129276,95.586347 c -16.127684,-5.766821 -14.278432,-30.55038 2.274568,-30.48363 7.688416,0.031 13.460226,5.823786 14.872576,14.926613 1.51897,9.789939 -8.31753,18.714249 -17.147144,15.557017 z m 29.637944,-58.53726 c -3.89833,-0.857805 -3.82586,-0.267911 -2.80966,-22.869847 0.52954,-11.7776146 0.61407,-12.9203203 1.27227,-17.197917 l 0.36641,-2.3812501 h 2.96674 2.96674 l -0.008,19.6673621 c -0.0105,24.499179 0.12394,23.855034 -4.75408,22.781652 z"
         id="path1458" /><path
         style="fill:#4e4740"
         d="m 77.541234,195.40379 c -2.138936,-7.02253 -1.112571,-6.50819 -10.600886,-5.31237 -12.955791,1.63283 -31.211106,3.39282 -48.828689,4.70757 -8.5302595,0.63659 -17.42049686,0.68335 -22.3131945,0.11736 l -3.6159722,-0.41829 V 182.4053 170.31253 l 1.8105421,0.90938 c 8.1086386,4.07274 18.5638896,-0.95203 23.6201426,-11.3518 3.348945,-6.88815 7.925746,-12.38591 13.904038,-16.70186 5.580022,-4.02842 6.699726,-4.89234 8.599546,-6.63501 3.981889,-3.65253 3.634998,-4.05134 8.183547,9.40851 1.999846,5.91784 3.73396,10.83909 3.853587,10.93611 0.119628,0.097 1.062,1.40713 2.09416,2.91137 3.6429,5.30905 9.370798,10.3877 16.352843,14.49929 3.549444,2.09019 11.187151,9.27398 11.187151,10.52229 0,0.35804 -0.337928,1.79991 -0.750951,3.20415 -0.799533,2.71836 -1.299592,6.4592 -1.340616,10.02889 -0.03943,3.43115 -0.464755,2.91015 -2.155248,-2.64006 z m 41.112096,-20.54023 c -8.87108,-0.78428 -20.954237,-6.56538 -27.025544,-12.93019 -8.662643,-9.08142 -14.196751,-19.6676 -15.127468,-28.93731 -0.528018,-5.25892 -0.467012,-5.09187 -2.83293,-7.75715 -1.164074,-1.31136 -2.065403,-2.53758 -2.002954,-2.72493 0.269322,-0.80797 1.017298,-0.47852 3.068036,1.35132 2.364949,2.1102 3.629086,2.56056 6.102207,2.17394 l 1.482538,-0.23176 -0.966049,0.9054 c -1.320574,1.23766 -1.535193,2.39663 -0.847689,4.57764 0.318459,1.01027 0.579016,2.1566 0.579016,2.54741 0,12.09105 16.351412,31.29622 30.515277,35.84101 6.73746,2.16187 6.813,2.17521 11.99445,2.11853 23.3829,-0.25577 44.20889,-13.1192 53.71301,-33.1765 l 1.62955,-3.43895 0.2688,-6.65582 c 0.14784,-3.6607 0.3604,-6.74742 0.47235,-6.85937 0.29723,-0.29723 2.89225,-0.0928 3.95609,0.31172 l 0.91491,0.34785 -0.19838,4.48753 c -0.35914,8.12443 -3.08866,15.598 -8.15001,22.31518 -2.48514,3.29816 -11.01884,11.78304 -12.51194,12.44035 -0.51483,0.22665 -2.25192,1.26217 -3.8602,2.30115 -13.41736,8.66786 -26.86386,12.25799 -41.17307,10.99295 z M -7.8175077,66.939465 V -5.3999271 H 13.919078 35.655663 l 2.516887,1.6653015 c 5.430762,3.59327078 8.784315,7.7180939 13.979548,17.1946506 3.489167,6.364545 4.349536,7.64497 6.576248,9.786961 8.381049,8.062171 19.74084,8.51098 26.645855,1.05274 2.297842,-2.481945 2.851932,-3.606212 6.639549,-13.471875 1.601556,-4.171597 3.751902,-9.4897223 4.778548,-11.81805571 l 1.866629,-4.23333349 1.372473,-0.1050644 1.37247,-0.1050645 0.78063,2.3981201 c 1.68992,5.1914356 1.88979,6.8908314 2.08173,17.700155 0.16149,9.094647 -0.26626,21.542351 -0.80161,23.327134 -0.10107,0.336944 -1.3398,0.814975 -3.4101,1.315965 -3.422213,0.828142 -8.005721,2.840101 -10.712125,4.702156 -0.886181,0.609709 -2.95182,1.736779 -4.59031,2.504601 -8.297598,3.888386 -15.341183,10.339743 -22.085637,20.228668 -4.721327,6.922552 -14.791437,24.169343 -18.16542,31.111397 -3.716811,7.647431 -3.855854,7.802101 -8.047275,8.952001 -11.345081,3.11248 -19.769779,8.9114 -31.7190275,21.83295 -5.26733012,5.69593 -7.5479932,7.6833 -11.4882583,10.01087 l -1.0639749,0.62851 z M 163.76963,97.811079 c -7.3126,-1.656552 -11.20723,-7.487374 -10.61418,-15.89096 1.13498,-16.082801 16.11454,-21.022859 22.63564,-7.46493 6.085,12.651229 -0.74016,25.911481 -12.02146,23.35589 z M 98.281873,95.838515 C 81.658828,91.657649 82.344276,65.2769 99.07416,65.345828 c 7.28265,0.03001 12.07898,3.967789 14.51577,11.917448 3.1505,10.278009 -5.68246,20.996175 -15.308057,18.575239 z M 126.01731,36.697712 c -2.68018,-0.552768 -2.70279,-0.858062 -1.70619,-23.047638 0.52793,-11.7546571 0.62554,-13.04270151 1.27655,-16.8451399 l 0.37749,-2.2048612 h 2.60589 2.60589 l -0.0352,20.1965291 c -0.0423,24.284964 0.25586,23.010763 -5.12446,21.90111 z"
         id="path1457" /><path
         style="fill:#363023"
         d="m 78.043263,186.79286 c -0.559743,-0.42716 -2.446465,-1.9875 -4.192715,-3.46741 -1.74625,-1.47991 -5.3975,-4.33245 -8.113888,-6.33898 -9.565516,-7.06579 -13.581945,-12.5601 -13.581945,-18.57952 v -1.25671 l 1.381658,2.06867 c 3.898481,5.83696 9.831419,11.15336 17.241184,15.44952 4.433601,2.57059 10.304936,8.28962 10.304936,10.03762 0,2.542 -1.285847,3.4249 -3.03923,2.08681 z m 42.903117,-11.92043 c -6.63304,-0.29616 -12.98252,-2.106 -17.99166,-5.12831 -0.6791,-0.40973 -1.9491,-1.09414 -2.82223,-1.52091 -11.009982,-5.38142 -22.362583,-22.7647 -23.619051,-36.16587 -0.396294,-4.22677 -0.772218,-5.10936 -3.169841,-7.44205 -2.887397,-2.80921 -1.518594,-3.12215 1.697429,-0.38807 2.381998,2.02503 4.302045,2.70108 5.639086,1.98552 1.158424,-0.61997 1.223322,-0.44192 0.257351,0.70607 -1.291735,1.53514 -1.283298,1.63177 1.002154,11.4788 3.867342,16.6627 22.973052,32.65486 40.065102,33.5359 22.23875,1.14635 45.2687,-12.45442 55.12005,-32.55219 l 2.20633,-4.50114 0.17639,-6.55185 0.17639,-6.55186 1.92541,0.10585 c 3.05985,0.16823 3.32153,0.98807 2.47365,7.75004 -1.45711,11.62073 -11.64404,27.08677 -21.156,32.11957 -0.6791,0.35932 -2.64392,1.5502 -4.36628,2.64641 -5.70537,3.63125 -14.84855,7.66657 -20.16388,8.89927 -2.284,0.5297 -12.10589,1.98928 -12.49002,1.85608 -0.10883,-0.0377 -2.341,-0.1643 -4.96038,-0.28126 z M 43.811364,147.7074 c -2.512965,-2.45354 -2.661586,-2.4805 -8.680499,-1.57447 -5.045248,0.75947 -6.267688,-0.41627 -3.014698,-2.89952 6.456684,-4.92887 8.092948,-6.23538 8.479452,-6.77059 1.671909,-2.31517 3.639161,-0.70871 4.654285,3.80071 0.323403,1.43663 1.078698,3.88446 1.678432,5.43962 1.759085,4.56146 0.398343,5.43644 -3.116972,2.00425 z M 163.4561,97.475015 c -6.22085,-1.512803 -9.65008,-5.975961 -9.97568,-12.983407 -0.80443,-17.31264 15.32727,-24.561613 22.1977,-9.974803 6.0845,12.918181 -0.74608,25.748955 -12.22202,22.95821 z M 97.48666,95.373225 C 82.708945,90.471952 82.634788,67.582776 97.389867,65.497159 c 8.313133,-1.175055 15.603273,5.439186 16.702353,15.153819 1.03109,9.113619 -8.37428,17.452286 -16.60556,14.722247 z M 126.82718,36.4278 c -2.82603,-0.759595 -2.89698,-0.924771 -2.78251,-6.477486 0.18303,-8.878598 1.14262,-28.7784791 1.50008,-31.1085958 0.70685,-4.6077071 0.44671,-4.2416453 3.01438,-4.2416453 h 2.26503 V 15.182898 c 0,24.143571 0.32671,22.407042 -3.99698,21.244902 z"
         id="path1456" /></g></g></svg>
