<svg xmlns="http://www.w3.org/2000/svg" width="827.9" height="1008" viewBox="0 0 219 266.7"><path d="M81.8 85.7l27.2 20.7.8 1.9-3.2 3.8-11.8 15.5-1.6-1-4.5 7 .8.9-20.1 27.3s5.3 9.8 14.4 11.5l21.1-27 1.4.8 5-6.6-1.3-1.3 14.6-19.4 1.7-.3 30.5 21.5 54.1-68.6s10.2-13.7 7.8-30.1c-2.5-16.5-20.7-33.2-21-34-.4-.6-28-10.5-38.3-7.9a74.2 74.2 0 0 0-29.8 18.8c-5.3 6.1-21 29.4-21 29.4s1.8 21.5-2 25.4c-2.6 2.7-5.2 2-7.2.9-4.6-2.5-2.7-8.2-2.1-8.7l-1.4-1z" fill="#71737c"/><path d="M66.6 163.2l-48.2 64.9s-1.4 15.7 15.1 13l49.9-65.7s-11.3.4-16.8-12.2z" fill="#4b2828"/><path d="M30 244l-16.2 21.5s-5.4 3.3-11-1c-5.5-4.3-1.3-12.1-1.3-12.1l15.3-20.7s-2.5 10 13.2 12.2z" fill="#71737c"/></svg>