<svg xmlns="http://www.w3.org/2000/svg" width="171" height="171" viewBox="0 0 45 45" version="1"><path d="M0 23V0h45v45H0z" fill="#fefafe"/><path d="M0 31V17l3 1 7 1 1 2 6 3 4-2 4-1 3 1c5 2 8 1 10-2 0-1 1-2 4-2h3v27H0zM0 8V0h43l1 2 1 3v12l-2-1-5-1c0-2-2-3-3-4-2-1-4-1-7 1l-4 1-3-1c-4-2-8-2-10 2l-2 2-8 1-1-9zm40-7z" fill="#fdcefe"/><path d="M0 32V18h3c6 0 6 1 7 2 1 4 6 6 11 4 3-2 4-2 8-1h6c2 0 4-3 4-3l4-2h2v10l-1 1-2 1v3l1 3v2-2l2-3v12H0zM0 8V0h17l17 1h2l2-1 2 1V0h1c2 0 2 0 3 2v2l1 2v10h-4l-2-2-2-2c-2-3-4-3-8-2h-9c-4-1-8 0-10 3l-1 2-7 2H0z" fill="#fcaefc"/><path d="M0 32V18h3l6 2 2 3c2 3 6 3 10 2l5-1h10c2-1 3-2 4-5l3-1h2v10l-1 1-2 1v7c0 3 1 4 2 3s1-1 1 2v3H0zm3 2H2l-1 1h2v-1zM0 8V0h33l2 2 2 3c1 2 1 2 2 0a4221 4221 0 0 0 2-5c1 0 2 0 2 2l1 2 1 2v10h-1c-3 0-4-1-4-2l-1-2-2-3c0-1 0-1 0 0H14c-2 1-5 3-5 5-1 2-1 2-6 2H0z" fill="#fd96ed"/><path d="M0 41v-6l2 1 2 4-1-2v-3l-1-2-1 1-1-8v-8h3c4 0 4 0 4 2v1l1 1v1l1-1v1l1 1 1 1h2l1 2-1 1-1-1h-1l1 2v3h1v-1l1-1v-1l1-2 2-1 4-1h3l1 1v-1c-1-1-1-1 1-1l3 1 7-1c2 0 4-2 4-4l4-2h1v10l-1 1-2 1v7c0 3 1 4 2 3s1-1 1 2v3H0zm4-9c0-1 0 0 0 0zm35-1h-1 1zM9 30v-1l-1-1v2h1zm-8-1zM0 8V0h32v1l1 1c2 1 3 4 2 5l-3 1-3 1H14c-2 0-5 3-5 4l-2 3v-2 1l-5 1H0zm17-4h-2l-1 1h2l1-1zm25 12l-1-2-2-2V6l1-3V1l1-1c2 0 3 2 3 4l1 2v10h-3z" fill="#fd97d8"/><path d="M0 41l1-6 1 2 2 3-1-2v-4l-1-1-1 1-1-8v-8h3c3 0 4 1 4 3v5c0 4 1 6 2 6l1 2a426 426 0 0 1 5 0l3-4-2 1v-4l2-1 3-1h3c-1 1 0 1 1 1l1-1v-1l3 1h7l4-5 3-1c2-1 2-1 2 4v5l-1 1-2 1v7c0 3 1 4 2 3s1-1 1 2v3H0zm7 1v-7l1-1-1-1-1 1v-3l-1-1v-1 1l-1 1v3l2 2-1 2c0-1 0 0 0 0v2l1 1 1 2v-1zm32-11h-1 1zM1 29l-1 1h1v-1zM0 8V0h32v1l1 1c2 1 3 4 2 5l-3 1-3 1h-8c-2-1-2-2-2-4s-1-3-3-3l-1 1h-2l-1 1v1l1 1v2l1-1v1c1 0 0 0 0 0l-2 1c-1 1-2 0-2-1-1 0-2-1-1-2V5L8 6H7v2c2 0 2 0 1 1v1h1l1 1H9l-1 2v1l-1-1v-1 1c0 3-1 3-4 3H0zm7 2V9v1zm35 6l-1-2-1-2-1-5 1-4V1l1-1c2 0 3 2 3 4v2l1 5v5h-3z" fill="#fd97c8"/><path d="M0 41l1-6 1 2 2 3-1-2v-4l-1-1-1 1-1-8v-8h3c3 0 4 1 4 3v6l1 5s0 1 0 0l2 1 1 2h2l1-1 2 1 1-2v-3l-1-1v-2l2-1 3-1h3c-1 1 0 1 1 1l1-1v-1l3 1h7l4-5 3-1c2-1 2-1 2 4v5l-1 1-2 1v7c0 3 1 4 2 3s1-1 1 2v3H0zm7 1v-7h1v-1l-1-1-1-1v-1l-1-1c0-1 0-1 0 0l-1 1c-1 1 0 7 2 10v1l1 1v-1zm32-11h-1 1zM1 29l-1 1h1v-1zM0 8V0h7v1L6 8v7l-3 1H0zm42 8l-1-2-1-2-1-5 1-4V1l1-1c2 0 3 2 3 4v2l1 5v5h-3zM21 9l-1-1h-1V2l-2-1c-2-1 0-1 7-1h8v1l1 1c2 1 3 4 2 5l-3 1-3 1h-8zM10 4z" fill="#fd87c7"/><path d="M0 41l1-6 1 2 2 3-1-3v-3l-1-1-1 1-1-8v-8h2l4 1 1 6v4H5c-1 0-2 4-1 5v2l1 2v2l1 1 1 2 1-1 1-2v-2l2 1 1 1v-2l1-1 4-1v-2c0-2 2-4 3-4 2 0 2 0 2-2-1-1 0-1 1-1l3-1 1-1h2c5 2 10 0 12-5l2-1c2-1 2-1 2 4v5l-2 1c-2 1-3 3-2 4l1 4c0 3 1 4 2 3s1-1 1 2v3H0zm22 0h-2l1 1 1-1zm-2-5h2v-1h-2v1c0 1 0 1 0 0zm19-5h-1l1 1v-1zM1 29l-1 1h1v-1zm10 7h1v1l-1-1zm7-7v-2l3-1-2 4-1-1zM0 8V0h7v1L6 3v13H0zm42 8l-1-2-1-3-1-1V7l1-4 1-2V0c2 0 3 2 3 4v2l1 5v5h-3zM22 9l-2-2V5c0-2-2-4-3-4-2-1 0-1 7-1h8v1l1 1c2 1 3 4 2 5l-2 1h-4l-7 1zM10 4z" fill="#fb85b7"/><path d="M0 41l1-6 1 2 2 3-1-3v-3l1 3 1 1v2l1 1 1 2v-1h1l1 1c1 1 1-1 1-3-1-1 0-1 0 0h2c0 1 0 1 0 0l1-1v-1l2 1h4l-1 1v1l5 1-2-2c-2-1-2-2-1-2h1l1-1c2 0 1-1-1-2h-2l-1-1c0-2 1-3 2-3l2-1v-2c-1-1 0-1 2-1l2-1 1-1 3 1h3l4-1 4-5 3-2h1v10l-2 1c-2 1-3 3-2 4l1 4c0 3 1 4 2 3s1-1 1 2v3H0zm39-10h-1l1 1v-1zM0 26v-8h3l3 1 1 10H6c-1 0-2 0-2 2l-2 2-1 1-1-8zm1 3l-1 1h1v-1zm18-1l1-1-1 2v-1zM0 8V0h6v13c0 3 0 3-4 3H0zm42 8l-1-2-1-3-1-1V7l1-4 1-2V0c2 0 3 2 3 4v2l1 5v5h-3zM21 8V4l-1-3c-1-1 0-1 6-1h6v1l1 1c2 1 3 4 2 5l-3 1h-3l-4 1-4-1z" fill="#f37ac9"/><path d="M0 40l1-4 1 1 1 1 1 2 1 1 1 1 1 2 1 1H0zm12 5v-1c-1 0-3-4-2-5l1 1h1l1-1v-1l2 1h4l-1 1v1l5 1-2-2c-2-1-2-2-1-2h1l1-1 1-1-2-1h-2c-1 1-1 0-1-1 0-2 1-3 2-3l2-1v-3h3l1-1 1-1h1l4 1 5-1 4-5 3-2h1v10l-2 1c-2 1-3 3-2 4l1 4c0 3 1 4 2 3s1-1 1 2v3H12zm27-15h-1c0 1 0 2 1 1v-1zM3 36v-2l1 1-1 1zm-3-4v-1l1 1v1l-1-1zm1-1v-3l-1-5v-5h2c4 0 4 0 5 3v8H6l-2 2-2 2-1-2zm18-3l1-1-1 2v-1zM0 8V0h6v16H0zm42 8l-1-2-1-3-1-3 1-4 1-3V0c1 0 3 2 3 4v2l1 6v4h-3zM21 8V4l-1-3c-1-1 0-1 5-1l6 1 1 1 1 1 2 2c0 2 0 2-3 2l-3 1-4 1-4-1z" fill="#fb72ac"/><path d="M0 40l1-4 1 1 1 1 1 2 1 1 1 1 1 2 1 1H0zm12 4v-2h5l3 1 4-1-2-2v-2l2-2v-1l-5-1h-1l3-1 3-1-1-1c-1 0-1-1 1-1l1-1 2-4 1 1h8v1l-1 7c1 1 2-2 2-3v-4l2-3 2-3c1-2 1-2 3-2h1v9l-2 1-2 1v3l1 4c0 3 1 4 2 3s1-1 1 2v3H29l-17-1zm27-14l-1 2h1v-2zM13 40l1-1v1h-1zM3 35s0-1 0 0zm-3-2v-1 1zm2 0l-1-3v-2l-1-5v-5l3 1h3v5l1 4H6l-2 2-2 3zm20-5l1-1 1 1h-2zM0 8V0h6L5 2 4 4l1 2v2l1 2v6H0zm43 8l-1-1-2-5V4l1-3V0l2 2 1 2v2l1 6v4h-2zM22 7V5l1-1-1-2c1-1 0-1-1-2h9l3 4 1 1v1l-3 1-3 1h-3l-3-1z" fill="#a78ae0"/><path d="M0 41l1-5 1 1H1v4-1l1-2 2 4v1a227765 227765 0 0 1-2 2H0zm6 3c-2-3-1-4 0-2l1 2v1l-1-1zm6 0v-2h5l3 1 4-1-2-2v-2l2-2v-1l-5-1h-1l3-1 3-1-1-1c-1 0-1-1 1-1l1-1 2-4 1 1h8v1l-1 7c1 1 2-2 2-3v-4l2-3 2-3c1-2 1-2 3-2h1v9l-2 1-2 1v3l1 4c1 4 1 4 2 3s1-1 1 2v2h-3l-15 1-15-1zm27-14l-1 2h1v-2zM13 40l1-1v1h-1zM3 35s0-1 0 0zm-3-2v-1 1zm2 0l-1-3v-2l-1-5v-5l3 1h3v5l1 4H6l-2 2-2 3zm20-5l1-1 1 1h-2zM0 8V0h6L5 2 4 4l1 2v2l1 2v6H0zm43 8l-1-1-2-5V4l1-3V0l2 2 1 2v2l1 6v4h-2zM22 7V5l1-1-1-2c1-1 0-1-1-2h9l3 4 1 1v1l-3 1-3 1h-3l-3-1z" fill="#fc6a93"/><path d="M0 41l1-5 1 1H1v4-1l1-2 2 4v1a227765 227765 0 0 1-2 2H0zm6 3c-2-3-1-4 0-2l1 2v1l-1-1zm6 1l1-1c0-1 1-2 3-1h8l1-1V31l1-2v-1l1-1h8l-1 1v3l-1 2 1 1v1l2-1 1-5 2-5 3-3c0-2 1-2 2-2h1v9l-2 1-2 2v2l1 4 1 3h1c1-1 1-1 1 2v2h-3l-15 1H12zm15-3v-1l-1 1h1zm12-11v-1l-1 2 1-1zm-17 3s-1 0 0 0zM0 33c0-1 0-1 0 0 1 0 1 0 0 0zm2-1l-1-2v-2l-1-5v-5l3 1h3v8l-1 1-1 2c-1 3-1 3-2 2zm21-4v-1l1 1h-1zM0 8V0h4v5l2 8c0 3 0 3-4 3H0zm43 8l-1-1-2-5V4l1-3V0l3 4v2l1 6c0 4 0 4-2 4zM31 6V4h1l1 1-2 1zm-2-3z" fill="#ab79c8"/><path d="M0 42v-1l2 2h1l2 2H0zm6 2l-1-2h1v1l1 1v1l-1-1zm7 0v-1h11l1-1V31l1-2v-1l1-1h8l-1 1v3l-1 2 1 1v1l2-1 1-5 2-5 3-3c0-2 1-2 2-2h1v9l-2 1-2 2v2l1 4c0 4 0 4 2 3l1 1-1 2-1 1h-1l-15 1H13zm14-2v-1l-1 1h1zm12-11v-1l-1 2 1-1zm-17 3s-1 0 0 0zM0 33c0-1 0-1 0 0 1 0 1 0 0 0zm2-1l-1-2v-2l-1-5v-5l3 1h3v8l-1 1-1 2c-1 3-1 3-2 2zm21-4v-1l1 1h-1zM0 8V0h4v5l2 8c0 3 0 3-4 3H0zm43 8l-1-1-2-5V4l1-3V0l3 4v2l1 6c0 4 0 4-2 4zM31 6V4h1l1 1-2 1zm-2-3z" fill="#fb578b"/><path d="M0 42v-1l2 2h1l2 2H0zm6 2l-1-2h1v1l1 1v1l-1-1zm7 0v-1h3l4 1 4-1h2l1-1 4-1 2-2 1-1 2-3 2-3 2-1-2-1v-2l2-4 2-3 2-2h1v8l-1 1-1 1c-1 0-2 1-2 3v2l1 3c0 4 0 4 2 3l1 1-1 2-1 1h-1l-15 1H13zm14-4v-2l2-2-1-1h-1l-2-1 1-1 2-1 1-1-1-1-2-1 1-1 4-1 2 1c0 1 0 2-2 1l-2-1v2l3 3 1 1c1 1 0 4-2 6h-4zM0 33c0-1 0-1 0 0 1 0 1 0 0 0zm2-1v-2l-1-2-1-5v-4h3l3 1v4l-1 4-1 2-1 2H2zM0 8V0h4v6l1 2v2l1 3-1 3H0zm43 7l-2-5-1-3 1-3V0l1 1 1 1v2l1 3 1 5v4h-1l-1-1z" fill="#fa4a73"/><path d="M0 42v-1l2 2h1l2 2H0zm6 2l-1-2h1v1l1 1v1l-1-1zm7 0v-1h3l4 1 4-1h2l1-1 4-1 1-1h1l1-1h1l2-2 1-2 1-3v-2h-1v-3l2-3 3-3 1-2 1 4v4l-1 1-2 1c-1 0-2 3-1 5l1 4c0 3 0 3 2 2l1 1-1 2-1 1h-1l-15 1H13v-1zm16-10zM0 33c0-1 0-1 0 0 1 0 1 0 0 0zm2-1v-4H0v-9h5l1 6-1 2-1 3-2 2zM0 8V0h4L3 2 2 4l1 1 3 8c0 2 0 3-3 3H0zm43 6l-2-5-1-2 1-2V2l1-2v2h1v3l1 2 1 6-1 3-1-2z" fill="#9e67a6"/><path d="M0 43v-1l1 1 1 2H1l-1-2zm7 2v-1 1c-1 0-1 0 0 0zm8-1h-1l-1-1h3l4 1 4-1h2l1-1 4-1 1-1h1l1-1h1l2-2 1-2 1-3v-2h-1v-3l2-3 3-3 1-2 1 4v4l-1 1-2 1c-1 0-2 4-1 5l1 4c0 3 0 3 2 3h1l-2 3-1 1H15v-1zm14-10zM0 33c0-1 0-1 0 0 1 0 1 0 0 0zm2-1v-4H0v-9h5l1 6-1 2-1 3-2 2zM0 8V0h4L3 2 2 4l1 1 3 8c0 2 0 3-3 3H0zm43 6l-2-5-1-2 1-2V2l1-2v2h1v3l1 2 1 6-1 3-1-2z" fill="#d04c74"/><path d="M0 43v-1l1 1 1 2H1l-1-2zm7 2v-1 1c-1 0-1 0 0 0zm8 0l1-1c10 1 15 0 17-3l2-3v1c0 2 2 1 2-1l1-1v-2l1-3v-2h-1v-3l2-3 3-3 1-2 1 4v4l-1 1-2 1-1 8c1 4 1 4 3 4h1l-2 3-1 1H15zm25-5h-1v1l1-1zm-11-6zM2 30l-1-2-1-1v-8h5l1 6-1 2-1 2-2 3v-2zM0 10V1l2-1 2 1H3v4l3 8c0 2 0 3-3 3H0zm43 4l-2-5-1-2 1-2V2l1-2v2h1v3l1 2 1 6-1 3-1-2z" fill="#b24d71"/><path d="M0 43v-1l1 1 1 2H1l-1-2zm29 2l4-4 2-3v1c0 2 2 1 2-1l1-1v-2l1-3v-2h-1v-3l2-3 3-3 1-2 1 4v4l-1 1-2 1-1 8 2 4c2 0 2 2 0 3l-1 1H29zm11-5h-1v1h1v-1zm-11-6zM2 30l-1-2-1-1v-8h5l1 6-1 2-1 2-2 3v-2zM0 10V1l2-1 2 1H3v4l3 8c0 2 0 3-3 3H0zm43 4l-2-5-1-2 1-2V2l1-2v2h1v3l1 2 1 6-1 3-1-2z" fill="#f92e49"/><path d="M0 43v-1l1 1 1 2H1l-1-2zm29 2l4-4 1-2h1c0 2 2 1 2-1l2-2 2-1v2c0 3 1 4 2 4h2l-2 3-1 1H29zm11-5h-1v1h1v-1zM2 30v-1l1 3-1-2zm38 1zm-1-1v-2c0-1 0-2 2-3l2-3 1-2v2l-1 5v1l-1 1h-1l-1 1h-1zM1 28l-1-5v-4h1l1 3 1 3h2l1-2v1l-1 2-1 1H2l-1 1zm0-15v-2 2zm3 0l1-2v-1H4h1v4c0 2-1 1-1-1zm40 0l-1-1 1 1s0 1 0 0zM0 8V1l2-1c2 0 2 0 1 1v2a26 26 0 0 1-1 3v1L1 8v1l-1 1V8zm3-1h1v1L3 7z" fill="#78578b"/><path d="M29 45l4-4 1-2h1c0 2 2 1 2-1l2-2 2-1v2c0 3 1 4 2 4 2 0 2 1 0 2l-2 1-2 1H29zm11-5h-1v1h1v-1zM2 30v-1l1 3-1-2zm38 1zm-1-1v-2c0-1 0-2 2-3l2-3 1-2v2l-1 5v1l-1 1h-1l-1 1h-1zM1 28l-1-5v-4h1l1 3 1 3h2l1-2v1l-1 2-1 1H2l-1 1zm0-15v-2 2zm3 0l1-2v-1H4h1v4c0 2-1 1-1-1zm40 0l-1-1 1 1s0 1 0 0zM0 8V1l2-1c2 0 2 0 1 1v2a26 26 0 0 1-1 3v1L1 8v1l-1 1V8zm3-1h1v1L3 7z" fill="#f62539"/><path d="M29 45l4-4 1-2h1c0 2 2 1 2-1l2-2 2-1v2c0 3 1 4 2 4 2 0 2 1 0 2l-2 1-2 1H29zm11-5h-1v1h1v-1zM2 30v-1l1 3-1-2zm-1-2l-1-3c0-2 0-2 1 0v3zM0 8V1l2-1c2 0 2 0 1 1v2L1 8l-1 2V8z" fill="#d22f4c"/><path d="M29 45l2-1c2-2 3-3 5-3l2-1 1 1h1v-1h2l1 1c2 0 2 1 0 2l-2 1-2 1H29zM1 2L0 0h1l2 1-1 1H1z" fill="#9e2e4f"/><path d="M35 45l2-2h-2c-2 0-3 0-2-1l2-1 3-1h1l-1 2-1 1 5-1c2-1 3 0 1 1l-2 1-2 1h-4zM1 2V1C0 0 1 0 2 0h1L2 1 1 2z" fill="#a92339"/><path d="M35 45a79 79 0 0 0 6-3h1l1-1c2 0 2 1 0 2l-2 1-2 1h-4z" fill="#723152"/></svg>